<mxfile host="Electron" agent="Mozilla/5.0 (Windows NT 10.0; Win64; x64) AppleWebKit/537.36 (KHTML, like Gecko) draw.io/26.0.4 Chrome/128.0.6613.186 Electron/32.2.5 Safari/537.36" version="26.0.4" pages="2">
  <diagram name="ページ1" id="ARbLDbAjKFJsnGkvmP3v">
    <mxGraphModel dx="1195" dy="725" grid="1" gridSize="10" guides="1" tooltips="1" connect="1" arrows="1" fold="1" page="1" pageScale="1" pageWidth="980" pageHeight="690" math="1" shadow="0">
      <root>
        <mxCell id="0" />
        <mxCell id="1" parent="0" />
        <mxCell id="2NNQloLt1MzRpBVAXhhT-1" value="レイヤー数の増加" style="rounded=1;whiteSpace=wrap;fontFamily=Times New Roman;" vertex="1" parent="1">
          <mxGeometry x="40" y="720" width="280" height="40" as="geometry" />
        </mxCell>
        <mxCell id="2NNQloLt1MzRpBVAXhhT-2" value="ユニット数の増加" style="rounded=1;whiteSpace=wrap;fontFamily=Times New Roman;" vertex="1" parent="1">
          <mxGeometry x="400" y="720" width="280" height="40" as="geometry" />
        </mxCell>
        <mxCell id="2NNQloLt1MzRpBVAXhhT-3" value="ResNet" style="rounded=1;whiteSpace=wrap;html=1;fontFamily=Times New Roman;" vertex="1" parent="1">
          <mxGeometry x="10" y="10" width="280" height="40" as="geometry" />
        </mxCell>
        <mxCell id="2NNQloLt1MzRpBVAXhhT-27" value="" style="edgeStyle=orthogonalEdgeStyle;rounded=0;orthogonalLoop=1;jettySize=auto;html=1;" edge="1" parent="1" source="2NNQloLt1MzRpBVAXhhT-5" target="2NNQloLt1MzRpBVAXhhT-26">
          <mxGeometry relative="1" as="geometry" />
        </mxCell>
        <mxCell id="2NNQloLt1MzRpBVAXhhT-5" value="Dense(N→M)" style="rounded=1;whiteSpace=wrap;fontFamily=Times New Roman;direction=east;fillColor=#dae8fc;strokeColor=#6c8ebf;" vertex="1" parent="1">
          <mxGeometry x="80" y="220" width="160" height="40" as="geometry" />
        </mxCell>
        <mxCell id="2NNQloLt1MzRpBVAXhhT-23" value="" style="edgeStyle=orthogonalEdgeStyle;rounded=0;orthogonalLoop=1;jettySize=auto;html=1;" edge="1" parent="1" source="2NNQloLt1MzRpBVAXhhT-8" target="2NNQloLt1MzRpBVAXhhT-22">
          <mxGeometry relative="1" as="geometry" />
        </mxCell>
        <mxCell id="2NNQloLt1MzRpBVAXhhT-8" value="Input Features(N)" style="rounded=0;whiteSpace=wrap;fontFamily=Times New Roman;fillColor=#f5f5f5;fontColor=#333333;strokeColor=#666666;" vertex="1" parent="1">
          <mxGeometry x="80" y="80" width="160" height="40" as="geometry" />
        </mxCell>
        <mxCell id="2NNQloLt1MzRpBVAXhhT-15" style="edgeStyle=orthogonalEdgeStyle;rounded=0;orthogonalLoop=1;jettySize=auto;html=1;entryX=0.5;entryY=0;entryDx=0;entryDy=0;" edge="1" parent="1" target="2NNQloLt1MzRpBVAXhhT-14">
          <mxGeometry relative="1" as="geometry">
            <mxPoint x="160" y="400" as="sourcePoint" />
          </mxGeometry>
        </mxCell>
        <mxCell id="2NNQloLt1MzRpBVAXhhT-28" style="edgeStyle=orthogonalEdgeStyle;rounded=0;orthogonalLoop=1;jettySize=auto;html=1;" edge="1" parent="1" source="2NNQloLt1MzRpBVAXhhT-14">
          <mxGeometry relative="1" as="geometry">
            <mxPoint x="160" y="480" as="targetPoint" />
          </mxGeometry>
        </mxCell>
        <mxCell id="2NNQloLt1MzRpBVAXhhT-14" value="+" style="ellipse;whiteSpace=wrap;html=1;" vertex="1" parent="1">
          <mxGeometry x="140" y="420" width="40" height="40" as="geometry" />
        </mxCell>
        <mxCell id="2NNQloLt1MzRpBVAXhhT-16" value="https://qiita.com/sokono-omae/items/aaef3fc54bee0c51e73b#4-on-the-usage-of-activation-functions&#xa;によると，full pre-activationが論文中では最も良い性能を出したらしい．&#xa;（ただし，Res-Netの論文は画像分類等が題材なので，直接同じ効果があるとは言えないが．）&#xa;&#xa;強化学習に関係するものではないが，Quantile Regressionを取り扱ういくつかの論文で，精度向上のためにRes-Net構造を導入しているものがあった．&#xa;https://ieeexplore.ieee.org/abstract/document/9096383&#xa;&#xa;" style="text;align=left;verticalAlign=top;whiteSpace=wrap;rounded=0;fontFamily=Times New Roman;" vertex="1" parent="1">
          <mxGeometry x="520" y="40" width="440" height="180" as="geometry" />
        </mxCell>
        <mxCell id="2NNQloLt1MzRpBVAXhhT-18" value="SiLU" style="rounded=1;whiteSpace=wrap;fillColor=#fff2cc;strokeColor=#d6b656;fontFamily=Times New Roman;" vertex="1" parent="1">
          <mxGeometry x="80" y="200" width="160" height="20" as="geometry" />
        </mxCell>
        <mxCell id="2NNQloLt1MzRpBVAXhhT-22" value="BatchNorm" style="rounded=1;whiteSpace=wrap;fillColor=#fff2cc;strokeColor=#d6b656;fontFamily=Times New Roman;" vertex="1" parent="1">
          <mxGeometry x="80" y="180" width="160" height="20" as="geometry" />
        </mxCell>
        <mxCell id="2NNQloLt1MzRpBVAXhhT-24" value="Dense(M→L)" style="rounded=1;whiteSpace=wrap;fontFamily=Times New Roman;direction=east;fillColor=#dae8fc;strokeColor=#6c8ebf;" vertex="1" parent="1">
          <mxGeometry x="80" y="360" width="160" height="40" as="geometry" />
        </mxCell>
        <mxCell id="2NNQloLt1MzRpBVAXhhT-25" value="SiLU" style="rounded=1;whiteSpace=wrap;fillColor=#fff2cc;strokeColor=#d6b656;fontFamily=Times New Roman;" vertex="1" parent="1">
          <mxGeometry x="80" y="340" width="160" height="20" as="geometry" />
        </mxCell>
        <mxCell id="2NNQloLt1MzRpBVAXhhT-26" value="BatchNorm" style="rounded=1;whiteSpace=wrap;fillColor=#fff2cc;strokeColor=#d6b656;fontFamily=Times New Roman;" vertex="1" parent="1">
          <mxGeometry x="80" y="320" width="160" height="20" as="geometry" />
        </mxCell>
        <mxCell id="2NNQloLt1MzRpBVAXhhT-29" value="(if N != L)&#xa;Dense(N→L)" style="rounded=1;whiteSpace=wrap;fontFamily=Times New Roman;direction=east;fillColor=#dae8fc;strokeColor=#6c8ebf;" vertex="1" parent="1">
          <mxGeometry x="360" y="280" width="160" height="40" as="geometry" />
        </mxCell>
        <mxCell id="2NNQloLt1MzRpBVAXhhT-30" value="" style="endArrow=classic;html=1;rounded=0;entryX=0.5;entryY=0;entryDx=0;entryDy=0;" edge="1" parent="1" target="2NNQloLt1MzRpBVAXhhT-29">
          <mxGeometry width="50" height="50" relative="1" as="geometry">
            <mxPoint x="160" y="150" as="sourcePoint" />
            <mxPoint x="500" y="230" as="targetPoint" />
            <Array as="points">
              <mxPoint x="440" y="150" />
            </Array>
          </mxGeometry>
        </mxCell>
        <mxCell id="2NNQloLt1MzRpBVAXhhT-31" value="" style="endArrow=classic;html=1;rounded=0;exitX=0.5;exitY=1;exitDx=0;exitDy=0;entryX=1;entryY=0.5;entryDx=0;entryDy=0;" edge="1" parent="1" source="2NNQloLt1MzRpBVAXhhT-29" target="2NNQloLt1MzRpBVAXhhT-14">
          <mxGeometry width="50" height="50" relative="1" as="geometry">
            <mxPoint x="450" y="280" as="sourcePoint" />
            <mxPoint x="500" y="230" as="targetPoint" />
            <Array as="points">
              <mxPoint x="440" y="440" />
            </Array>
          </mxGeometry>
        </mxCell>
        <mxCell id="2NNQloLt1MzRpBVAXhhT-32" value="" style="endArrow=none;dashed=1;html=1;dashPattern=1 3;strokeWidth=2;rounded=0;" edge="1" parent="1">
          <mxGeometry width="50" height="50" relative="1" as="geometry">
            <mxPoint x="160" y="480" as="sourcePoint" />
            <mxPoint x="160" y="520" as="targetPoint" />
          </mxGeometry>
        </mxCell>
        <mxCell id="2NNQloLt1MzRpBVAXhhT-35" style="edgeStyle=orthogonalEdgeStyle;rounded=0;orthogonalLoop=1;jettySize=auto;html=1;entryX=0.5;entryY=0;entryDx=0;entryDy=0;" edge="1" parent="1" source="2NNQloLt1MzRpBVAXhhT-33" target="2NNQloLt1MzRpBVAXhhT-34">
          <mxGeometry relative="1" as="geometry" />
        </mxCell>
        <mxCell id="2NNQloLt1MzRpBVAXhhT-33" value="+" style="ellipse;whiteSpace=wrap;html=1;" vertex="1" parent="1">
          <mxGeometry x="140" y="520" width="40" height="40" as="geometry" />
        </mxCell>
        <mxCell id="2NNQloLt1MzRpBVAXhhT-34" value="Dense(M→L)" style="rounded=1;whiteSpace=wrap;fontFamily=Times New Roman;direction=east;fillColor=#dae8fc;strokeColor=#6c8ebf;" vertex="1" parent="1">
          <mxGeometry x="80" y="600" width="160" height="40" as="geometry" />
        </mxCell>
        <mxCell id="2NNQloLt1MzRpBVAXhhT-36" value="Act" style="rounded=1;whiteSpace=wrap;fillColor=#fff2cc;strokeColor=#d6b656;fontFamily=Times New Roman;" vertex="1" parent="1">
          <mxGeometry x="80" y="640" width="160" height="20" as="geometry" />
        </mxCell>
        <mxCell id="2NNQloLt1MzRpBVAXhhT-37" value="" style="shape=image;verticalLabelPosition=bottom;labelBackgroundColor=default;verticalAlign=top;aspect=fixed;imageAspect=0;image=data:image/png,iVBORw0KGgoAAAANSUhEUgAABaYAAAHJCAYAAAB+Cu4OAAAAAXNSR0IArs4c6QAAAARnQU1BAACxjwv8YQUAAAAJcEhZcwAADsMAAA7DAcdvqGQAAP+lSURBVHhe7N0FeBNZFwbgr4a7u7u7u7vDLi4/vrgutiy7yLKLLyyyuCzu7u7u7g7F2iKltP1zbiaQpikkJW2T9nv7zJO5N9PITDJJzpw518lfB0REREREREREREREocRZuyQiIiIiIiIiIiIiChUMTBMRERERERERERFRqGJgmoiIiIiIiIiIiIhCFQPTRERERERERERERBSqGJgmIiIiIiIiIiIiolDFwDQRERERERERERERhSoGpomIiIiIiIiIiIgoVDEwTUREREREREREREShioFpIiIiIiIiIiIiIgpVDEwTERERERERERERUahiYJqIiIiIiIiIiIiIQhUD00REREREREREREQUqhiYJiIiIiIiIiIiIqJQxcA0EREREREREREREYUqBqaJiIiIiIiIiIiIKFQxME1EREREREREREREoYqBaSIiIiIiIiIiIiIKVQxMExEREREREREREVGoYmCaiIiIiIiIiIiIiEIVA9NEREREREREREREFKoYmCYiIiIiIiIiIiKiUMXANBERERERERERERGFKgamiYiIiIiIiIiIiChUMTBNRERERERERERERKGKgWkiIiIiIiIiIiIiClUMTBMRERERERERERFRqGJgmoiIiIiIiIiIiIhCFQPTRERERERERERERBSqGJgmIiIiIiIiIiIiolDl5K+jzRMREREREYULP//8M16/fq3mU6ZMiUGDBqn5IUOG4Pnz52o+c+bM6Nmzp5ony/n5+aFz585aS693797ImDGj1godjx49wujRo7Fjxw48e/YMceLEQaFChdCxY0eULFlSW8q+jRkzBjdu3NBaQM2aNVG9evUg+4Nrzpw5OHr0qNYC8uXLh/bt22utkHHlyhVMmDBBa+lNmzZNm/s2eZ/K+9WgfPnyaNiwoXpfy/vb4HvXjb0w974aOXIk4sWLp7WIiMIfBqaJiIiIiCjcSZEiBR4+fKjmnZ2d8eTJEyRMmBAZMmTAzZs3VX/p0qWxZ88eNU+W8/X1haurq9bSk/Uo6zO0XLt2DSVKlPh8kMHUL7/8gmHDhmmtsLdq1aoAj7VcuXIqkC/P4eDBg1ov8Ouvv2Lo0KFB9gdXs2bNsGjRIq0F1K9fHytWrNBaIWPnzp2oUKGC1tKT8MO9e/ewefNmrQeIFSsWGjdurLW+kPepvF8NcuTIgfPnz6v3tby/DYKzboLaHmHJ3Pvqzp07SJ06tdYiIgp/WMqDiIiIiIjCNclEXLNmjdai7+Xk5ISffvopwJQ8eXLt2tAhWdHGgcWoUaNqc3q//fYbjh07prXCnmS+ymM2TIbHJgFi4/UoGd/hhQSPjZ+bTEKCy8brwjgr+msuXLiA69eva63vE9T2ICKi0MXANBERERERhXuWZIdu2rQJP/zwAwoUKKBKHTRo0ABLlixRWZ4GUmLBOKAlWaFSrqBw4cIoUqQI/v77b23Jb7t8+TK6du2qsmPz5s2LOnXqYPHixSqQLuTS+L5kcnd3x+DBg9XjMLDkcYsDBw6gTZs2KviZM2dOlc0qAbqXL19qS+hZstynT58CTHJf5h7vpUuX1HPMkycPKlasiO3bt2u3ALx69QqdOnVC/vz5UblyZezatUtlshr/v3HWsIGsg927d2stvXPnzqFWrVpaS2/p0qV4+/ZtgNuT6f3795gxY0aAvq1bt2r/BXh5eWHSpEmoUqUKcufOrbaNrN+1a9dqS+jLVBj/f69evXD16lVVakL+R5Y3lOKQx+bh4aHmDSQ4e/fuXZUla7weDdv+a6RsiWSDlylTBrly5VIlLqT9+PFjbYng+fjxo1ov1apVU89BXtNt27bF4cOHtSX0LN1u8powfm4yybo9c+aMdkt67969C7Q9g7Jy5UptzjwfHx9Mnz7983OQki5SHsP4PoPaHv/++2+A5yCPV7aRcZ8sJ89Lnr+hb9myZZ9vQ/qLFy+utousm3HjxqnnbLBu3boAt/fff/+poHjVqlU/lx4yZfxaHTFihNZLRBRO6HaqRERERERE4Ury5MklKvt5cnV19X/58qV/+vTpP/eVLl1aW9rfv3///gGWN56qVavm7+Pjo5YrXrx4gOsyZswYoC3TnDlz1LJfs2jRIn83N7dA/ytTlSpV/D9+/Oj/6dOnQNc1a9ZMXf7000/qdix93DNmzDC7jEwpUqTwv3//vsXLmXtce/bsMdtvun5kO1y7dk3dlzxP4+ucnZ39kyRJEqBv5syZalljx44dC7CMTJ6env5t27YN0Fe/fn1/d3f3AH0yvX79Wl1n3PfHH3+o23706JF/pkyZAlxnPP32229quR07dgTojxUrln+iRIkC9KVNm1atk9q1awfoN0xyn6avp19//VXdflD9V69e9U+YMGGA6wxT/Pjx/U+cOKGWM9W0adMAy8rzN+bt7e1fsmTJAMsYTyNHjtSWtHy7ma4jmc6cOROoT6bIkSNrt/7FjRs3Ai2XP39+/wcPHgToM6yb9+/f+xcuXDjAdYbJxcXl82spqO1Rq1atAO27d+/6r127NkDf7Nmz/e/duxegT9aNLBcpUqQA/YYpXbp0n99fgwYNCnBd3bp1/aNFi6bmnz59GuA6mWQdyHY1tLt166Zuh4govGDGNBERERERhXuS/bh+/XqtFZBkU8ogegZS01WyRQ0kI3nq1KlaKyA3NzeVDWwsqPsxkIxTyUSV7E4ROXJkleFpsGXLFpUlac7ChQu1Oeset2Q8G0SJEkWVkDB48OABxo4dq+YtXc5S8pgSJUqktfTbQbKTJWvZOEtZyCB2b9680VpBkyxoU1JexMXFRWvpSSautWSQTKlfbSC1j41vV0qESMayKcnAlcxleRwGt2/fVlnx8vzldWIsfvz4iB07ttaynAzWaVzCRLLjDY/vxYsXaNGihZq3lgxKuH//fq0FFCtWLEAd54EDB+Ls2bPftd1EpEiRVK13Y/L4La2jfPLkSVV32ZzJkycHGOBRsqUNJWYkM11KichrOKjtYfx8hdTCNr0vqW9t/PoQch/yfpaMcyHvZzn7weDWrVvo1q2b1gpISgx97XUqtdtluxrUrVtXmyMiCh8YmCYiIiIiogghqHIepoG2H3/8ET///LPW0guqRnWXLl3UZCyoAfkMJHgmAT4DKRUhZSeMbdiwQZsLmqWPW4LBxgG2UqVKfS4/YCBBOEuXs4aUxJASHsYksPv06dNApUak/IiUX/gWCTJawpKyGKb27t2rzekD81JqwfgxyTqSkg2mJNgqyyZLlkzr0ZPXghxkkNIOxiZOnKhKM1hDDmTs2LFDa+nJfWbLlk1rQZVOCU4dZjmIYUwGj6xXr57W0pMDLt+z3UTWrFkxZ84craWXJk0aVQbFUkGV8zB9DlK72vg5eHt7q0EXg9oehhrYBuYC0xLYNg1My+0av+flQJXpc9y4caPZ163pujRlvM+KGzeuCrYTEYUnDEwTEREREVGEsG3bNnh6emqtL6SOrDHJeJSgpLEnT55ocwHJoHuyvDFD5mRQpEayMfl/08H7vhUAlsxTSx+3aUBMgm0SYC1btixKly6tJgkYWrqcNYJaP+aCdPLY5XmFJePsVMNjMd02pjW5hWEZa18L1pDHZnp7kvlr+vhu3rypzVnO9PVm7rUkNaztYbsFFZiWbGZj5taNoe63ORIgNybrxPQ9Zi5j2vQAiLl1J9tNzpQIiqura4BsewPjAxGSmW56VgARkaNjYJqIiIiIiCIEyWw0V4bBNFjt7OwcKEgk/2uOLGcuoCROnDihBoEznqS8g7nbktvo37//56lly5baNQFJVrQERmVQNUsftwTKUqVKpfVABdaKFi2qBsyTUgEyDR8+3OLlrPG19WOONcuGhBo1aqjyJTLVrl1bbcOLFy9q1+oZZ7sbGB53SD5+cyVMZOBMyZI2FtQgel9j+loyt92Ceg+I0NxuQR20MV0/MujmokWLtJbe19ZNtGjRApSdkfsxvS/JmDYeZFICyjIZM7fuhLn1J/cpA6hK4DpevHha7xdyYMjAdHBPIqLwgIFpIiIiIiIK1yT48zXfOp0+uKT+rwQOjScpGWCOBJX/+OOPz1O/fv20awLq3bu3OqVfWPO4pUawsVOnTqlSHVWqVAlQRsHS5cIrqeEtpSkaNmyosmULFiwYKJhpLms4rMjBDi8vL62lF5zHF1LvAVv61vvY1IULFwJlUX9r3aRNm1ab059JYRqYltszPnsiZcqU2lzwlClTBuXKlbMosG8uU5+IyNExME1EREREROFaoUKFECNGDK3l2OLEiaPNWadDhw6qjnWCBAm0Hj2pUy01rvft26fali4XXkn970yZMqnMdHmuUpLBOItWBKd2dUiZMGFCoCl//vzateFLhQoVtDnLSM1o03Uj2/VrjAPTUqvbcIaFoSSI1JI2Lu9h6aCNQbHm/bx9+3Ztjogo/GBgmoiIiIiIwjUpUVG5cmWtFXokY1pKchhPhQsX1q4NbNSoUWpAPJlMM5cNTMsGWKNRo0Yq2NarV68AtyOlKYwHTbR0uZBgSbavpWUjglNeQp6zlFsxWLVqldV1tUNT9+7dETt2bOzfv//z9K3BN0NCaGSRy3tHBpm0lGS9FytWLMC6+VqNaWEamDaQkjYGxgMimtaltta33s/GB0Wk5Ic9HRQhIrIFBqaJiIiIiCjck4HDgmJJsNd0MDNLjBkzBnPnzg0wNW7cOMjbkkHdpk+frqZly5ZpvQEZB1utedwygGGRIkVUSQ4JIp45cybA45C2sHS572WuLMOjR4/U9C3Ro0fX5gIyLUfxtQH5gipdYVyuRAbPk/VgL4La3rJN5LVjmKQOsrUsfS19z3b7XjLwX7Vq1bRWYOaegzwu43UjpWm+Jl26dNpcQPK+MEcC05asO2Huff+tgyfyXjSQUh62ev8REdkLBqaJiIiIiCjck4BWUEGgWLFiaXN6MuCYaQaooa6zLZgOcmYY4EwGQDOw5P6sedwyQJ6UqZBJau9mz549QHao4TFYutz3SpIkSaAyBsmTJ8etW7e0VtBkOVMysNy7d++0lp6UIzG3zWUdma4ngw8fPmhz+sC2/H9Qy36P4GS+miv7IAF2Hx8fraUXM2ZMbS5oUit57dq1anr69Gmg15K5dSSvpe/ZbkGxZl187QCT6eOS27V03Rgeg/Fr3ZjUWTf3WpJSHpasO/lf0+UsYZypLVjOg4jCGwamiYiIiIgo3JMSAEGV0ciWLZs2pydZiUeOHNFaegUKFNDmvp/pbUkAePfu3bh586bWEzggZY41jztVqlTqUly7dk0t9/jxY63nyyBuli73vSRQJ6VLjMWPHz9QaQRzwcAUKVIgQ4YMWkuvf//+2LFjh9bSK1++vNks1T179gRY18ak7IvB27dvVfkE45rCwWX6OCTwb1wyxBJSsiN9+vRaS2/Lli3qtgxkfeXJk0drBU22a506ddR04sSJQOVKZFBFeV0ak4Egv2e7GZiuC3d3dxw4cCDAgZmgVKpUSWWym2P6vjp06FCgQK6h/nZQ2yOowLSsH3ndmZLAtOn7UIL0pvebO3fuIB/31xhnTAsGpokovGFgmoiIiIiIIoSgsi2lprJxFvOGDRvw+++/ay19QFBqD9uKBMmlpIfBmzdvUK5cuc8Zv5L52bdvXzX/NdY87hYtWqhLcf/+fRX4fv36tdYDNGnSRF1aupwtSC1tydCW0iUy4KIEwnPmzKldqxdUMG/SpEkBrps5cyaePHmi5mWgusGDB6vHKqUncuTIofoN6tevHyjoamC6rAy4J9nF30sGVDQ2ZcoUDBkyRGtZ7pdfftHm9ORMgJMnT2ot/YB/5gKo39KpUydtTk/uR4LeBhKUrl69upr/nu0mTA8qeHp6omTJkur19i2S8Vy6dGmtFVCfPn0+D1Io5DUwY8YMrQU1eKfUnRZBbQ85MOPsHDBMIu8xec+aK/MhgenMmTMHeExSPkQC/saGDRumzVlHAv7GdaYlgC+13omIwgsGpomIiIiIKEKoUaOGNheQBJ62bdumgm+mChUqpDJsbZUpbDBr1ix06NAhUOZmvnz5VJauJfdnzePu2rUrxo8fj6RJk6q2QYwYMVRAzxDwtHS57/Xs2TP13CVY2K1bN7Rv315lzpoOTiflOMypWrWqyuqVgw2SsWts7969AQL0UuvbuISD1I2W0gzmjB49OsC6L1OmTKAgY3BIlrG8/uRggWng0xpy4GDhwoWBMntlXcr2mTBhgtZjHXmecrumrzt5rDKIpwSppcbz9243IcFcef1L9vfX6oAHJagDTFmyZFHbXgY8NCbZ27Vq1VLPwRAwD2p7SL1o08C+IZvcNKAut2tYXytWrFAHPEy3rdzWkiVL1P0Hh9yHcda0lKyR1z0RUXjh5B/UqA9EREREREQRjATe7t27p2opSwDNNEBra1IuQkoIeHl5qVq9lgSkzbH0ccvPPyk1IMtLsFkyR43LVxhYutz3kExTybYNigQuJbPZNHhvjgQUTev6SikPQ3kPWc8XL15U2eim2bKmpC7x5cuXVSBWamzbqzt37qgyK5IlLEFZS9aTJeT1KNnnEjTOmDFjoNrIttxuIeX58+fqeUigWDKdjc8sCEnyOpN1I2c/SKazrD8iIgoaA9NEREREREQU6qS28f/+9z+cO3dO6/miYsWKKqvW0kB9ly5dMHfuXBUYNDAOTJPt2HK7ERFRxMbANBEREREREYUZKQMh2b8eHh6qtILUKzauq2sNPz8/le0tpAzC95TNoK+z5XYjIqKIiYFpIiIiIiIiIiIiIgpVPHxMRERERERERERERKGKgWkiIiIiIiIiIiIiClUMTBMRERERERERERFRqGJgmoiIiIiIiIiIiIhCFQPTRERERERERERERBSqGJgmIiIiIiIiIiIiolDFwDQRERERERERERERhSoGpomIiIiIiIiIiIgoVDn562jzRERERER2yeudN/z8/OH51huWfHmNEskVCeJG11p6rzze4+37j1rLMkkSxISry5dcDh8fXzx96aW1LBMzWmTEjhlFa+k9093GR91tWSNF4tjanN473XN5qXtO1oijexwxdI/H2OPnHvDVrVtLubk6I3H8mFpLz0O3XTy8PmgtyyTUbZ/Iuu1kINv3ke6xWCNaFDfEix1Na+m9fPMO7z74aC3LmG5n74+f8PzVW61lGVtsZycnJyRPFEtr6QVnO8eLFRXRokbSWnoPn3nAmp9+kdxckCheDK2l98bzAzx170VrmG7nT75+eOLuqbUsY6vtnCxhLDg7O2mt4G3nWDGiIFb0gO+hpy884fPJT2t9m7ntLPu417r1aw1z2/nB0zfanGVstZ0T627DTXdbBsHZztF1zyWu7jkZc9dtnw+67WQN0+383tsHL16/01qWMbedrd1XuugeQ1LdYzEWnO0cP040RI3sprX0rN3OtvpMNN3OwflMNLedbfGZGJztbA+fiTGiRdK9Xp0Dvd6IIgoGpomIiIjIrsnX1XyNJqnApaVK5kuDyYPqaC294dN3Yvm281rLMlumtQkQWLh+1x0Nei3UWpZpXbcAejQrobX0Wg5ahjNXHmkty5xd2UOb09u0/woGTNiitSwzqH05NKqcS2vpVe4wy6oAUoZU8bFyfHOtpTd71XFMXHRQa1lm7vCGyJs1udaCOuhQosVUrWWZqiUy44+eVbWW3s/jN2PzgatayzKm2/n05YdoNXi51rKMLbazBCgOLuistfSCs51H9aiCaiWzaC294s3/gdc7y4NQebIkw7wRjbSW3oSFBzBn9QmtZRnT7SxBnyodZ2sty9hqOx+Y3wkxjYI/wdnO3ZsWR5t6BbWWXv2eC3Dj3gut9W3mtvOyrecwYsYurWUZc9s5d/0J2pxlbLWdV4xrhoypE2it4G3nhpVyYnCH8lpLr8uINdh/6o7Wsozpdt538ja6jlyrtSxjbjtbu6+UA15bp/9Pa+kFZzv/PbA2SuVPq7X0rN3OtvpMNN3OwflMNLedbfGZGJztbE+fidOH1kORXKm0FlHEwcA0EREREYU5yeZcs+sithy4ir6tSwf6Ef7PksMqA05lzlnw7TVtinioXTab1tLbdfQmzl17rLUsI4EJ4ywmyd5buOG01rJMwRwpUDxvGq2lt3zrOfWcrdGjecCg55Xbz9X6ska5wumRK1NSraUnP6Alu8tSknXXrEZeraV3/MIDHDxtXfCoYeVcAbJGJXt16tIjWssyWdImRJUSmbWWnqwTWTfWMN3Osm1kG1nDFttZslc7/1hUa+kFZzvLOpF1Y0zeQ9ZkJMq2kW1kTLaxbGtrmG5nea3Ja84attrOnX4oEiB7OzjbWbaxbGtjsk+QfYOlzG1n2TfJPsoa5rbzhAUHtDnL2Go7yz7BOCM3ONtZ9k2yjzK2dvcl3H7wUmtZxnQ7y//L7VjD3Ha2dl8p+xTT4HZwtrN8lslnmjFrt7OtPhNNt3NwPhPNbWdbfCYGZzvbw2dilMiu6qBh85p5A2ReS8b1D33/Q4UiGVCvfI5ArwGi8IKBaSIiIiIKM5JlOG3ZEew+dlOd+p01XSJ0b1YcRXOn1pYgIiIiiljuPX6NIZO3qUxyJyegcM5U6PhDEeTNkkxbgih8YGCaiIiIiEKd1M2d9N8hLNtyVtVWrFYyM5rWyIvMaQJm/xERERFFVJIJvnTrOazeeQEfvD+p70v92pQJVKebyFExME1EREREoer89ScYMGEz7j95o06j7de6dKABooiIiIhITwZ8nbLkMFbtuIDYMaJgaKcKKFsoYEkUIkfEwDQRERERhRqpIzlq5m7E0v2oGvZTRZQukE67hoiIiIi+Rkp7DJq0FQ+evkHrOgVU+TMnqfVB5KAYmCYiIiKiUDF+/n7MXXsSOTMmwdi+NZA4fgztGiIiIiKyhAyMKMHpfSdvo2LRjBjdsypcXJy1a4kcCwPTRERERBTipiw+hBkrjqnR5Ud0q6JGoSciIiIi6/n6+mHMvH34b+MZVXd6ZPcqzJwmh8TANBERERGFuAs3nqgyHoM7lIebq4vWS0RERETB9decvUiTLC4aVs6l9RA5FgamiYiIiIiIiIiIiChUMTBNRERERGHmjecHbD9yXWsRObaKRTIidswoWovIPO73KCTVLpMNbm48M4mIHAMD00REREQUIrzeeSNGtMhay7zrd93RoNdCrUXk2FaMa4aMqRNoLSLzuN+jkHRgfifEjP71z14Kv3x8fOHq6sx60+QwGJgmIiIiIpuTmtLthq7EHz2ronSBdFpvYIYATZkSsZErewytl8ixXL3+Dlt3vWJgmizC/R6FhINH3+DkGS8GpiOw2w9eouuotejSpBiqFM+s9RLZNwamiYiIiMjm2v26EuevP8HGKa0QP050rTcwQ4Cmcf2EKFUsjtZL5FiOnfLAnEVPGZgmi3C/RyFh9UZ3bNv1ioHpCOy9tw/qdJuPqJFdsWpCCzg7M2ua7J+zdklEREREZBPnrz3GsfP30aBizq8GpYmIiIjINqJGdkO7BoVw++Er7D1xS+slsm8MTBMRERGRTa3YfgEuzk5oWTu/1kNEREREIa1GqayIGS0y/tt0Rushsm8MTBMRERGRzchppDuP3kCR3KmQMC6zpYmIiIhCS5TIrqhcPJM6c+3pC0+tl8h+MTBNRERERDZz6tJDeL71RrWSWbQeIiIiIgotlYplVJf7TtxWl0T2jIFpIiIiIrKZw2fvqcsiuVKpSyIiIiIKPQWyp0D0qJFw6OxdrYfIfjEwTUREREQ2c+bKIyRNEBMJWMaDiIiIKNS5uDgjT5akuHjjqdZDZL8YmCYiIiIim7n3+DWyZ0istYiIiIgotGVKkxBPX3jhted7rYfIPjEwTUREREQ2IT9+3nh9QIrEsbUeIiIiIgpt6ZLHU5cSnCayZwxMExEREZFNvHyjz8pJGC+GuiQiIiKi0BcnVlR1+fLNO3VJZK+c/HW0eSKHd/DgQSxYsEBrBRQ9enSMHTtWa0Ucz58/x5AhQ7RWYBMnTkTkyJG1lmO7cuUKJkyYoLX0pk2bps2FPNN1Xb58eTRs2BCvX7/Gzz//rPUCNWvWRPXq1bWW4/Lz80Pnzp21lt7IkSMRL57+6DwRRTynLz9Eq8HLMapHFVQrmUXr/brrd93RoNdCNK6fEKWKxdF6iRzLsVMemLPoKVaMa4aMqRNovUTmcb9HIWH1Rnds2/UKB+Z3Qszo4eP3HQXfqUsP0XrIcozrVwPlC2fQeonsDwPTFK7MmjULbdu21VoBxY8fH+7u7lrLto4cOYKzZ89qLSBLliwoXbq01gpbN2/eRIYMQX8QeXl5qaD9t3z69EmtX2PNmjWz6H9t7d69e9i8ebPWAmLFioXGjRtj586dqFChgtarF5q7ONN1nSNHDpw/fx4PHz5EihQptF7g119/xdChQ7WWZVatWqUC3wblypVDxowZtVbY8PX1haurq9bSu3PnDlKnTq21iCiiYWCaIioGpska3O9RSGBgmox5vPXGpZtPkSFlfA5ITXaNpTyIbGDFihXo2LHj5ymorG1H5u3tHeA5yiSZwGFBgr3Gj8OQpSzB359++inAFJYuXLiA69eva63vI5nIxs/52LFj2jVEREREREREX8SKHhlFcqViUJrsHgPTFK5JNqeUU5CpVKlSWi/w7NkzDBs2DGXKlEGuXLnU9dJ+/PixtoSeZNtK0LlBgwYoUKAAcubMiapVq2Ly5Mn4+PGjWub+/fu4e/eumjeQDNkzZ85g6dKlAYKJy5cvx6NHjwL0denSRf2PlKEw7peMWnk8LVu2xI4dO9QyPj4+mD59OqpVq4bcuXOjZMmSqpSC3Jc1Chcu/Hm9yLowvt/Lly/j3bt3AfoWLlyI/fv3a//9hfRJcNp4WZkkM33w4MEYM2aMWs6S9Wggz3HOnDmq3EWePHnUduvduzdu3bqlrpcMb9PnK4939+7d6n4ks9t4MiYB7U6dOqF48eJqu1euXBnjxo1Tt2mwbt26AM9F1rdkZ8u6ypcvH7p37x5g+W9ZuXKlNmeeJdv03Llz8PDw0Fp68lz+/fffAI9Vnq+8Fo37ZDlZL/K8DX3Lli37fBvWro///vtPBcVl+wV1YGLGjBmflx8xYoTWS0RERERERET0BUt5ULhiWsrDXPmOa9euoUSJEgHKIhjI8lu3bkX+/PlV/dx69eph7dq12rUBVaxYUQUsJbjao0cPrfcLCfJJWYcpU6ZoPVBBzXbt2qkSDwZS3/nDhw+BylDkzZtX9UugWIK6UpNYAulHjx7VlvjCxcVFBTf/97//aT1fmCvlIZm82bNnV/NSjkGe95s3b1Rbak7L85d1ZDB16lRVI9mwjDGp6y2BTWNS4kOC2ZKxPGnSJIvWozwHT09PVKpUSZVGMRUtWjRVziJJkiQqYG1K1uPGjRuDLOUhAVap92waCBfp0qXD3r17Vca1BNSNg6ly3e3btz/fjmjRogXmzZuntb4wt65lXcpzN1fKQ7avJdu0Tp06ZtdfrVq11PMykKC0BLRr166t9QCzZ89W6yRVqlRajz77WrZ/cNZH3bp11XtEDgY8ffoUiRMn1q7Ru3Hjhjrw8eLFC9Xu1q2bek0RUcTAUh4UUbGUB1mD+z0KCSzlQUSOiBnTFOH07NkzQFBasnglCCgkmCZBR7Fo0aIAwUAJ7iVNmlRrAdu3b8f69etVfeOYMWNqvXpSd9k0YGctCTBKUNpAAuDGAUzJrE2ePLmal+CyBIEfPHig2taQ5y71ig1OnjyJ06dPay09ud44sGog929u4EQJShtYuh6FBECNg9IFCxb8/BwlENqqVSs4OTkhYcKEqs9AnsPX6hpLVrIcsDAEYeUxS7DXQLKxJYBqzsuXL1V2sLENGzZoc98m61PqLptj6TZNlCgR3NzcVL+BHEww3SZSe9v0viR7Xw7GGJP7CO76WLNmjdoWQdmzZ8/noLSQQDYRRRyZ0yTE4j8bo3ieNFoPEYU3L16/VQehNuy9jMWbzmDiwgMYM3cvfpu6A8On78SEBQcwfflRrNh+HnuP38KNe+746BPwLDYiIiIiwcA0hWsS3JMsUpkkwCgBSkNZDAMpTZAtWzatBVy6dEnVBZYAmzEJmsoAe8ZOnDiB1q1bo3379lqP3o8//mg2o9YapiczbNq0SZvTk7rKkolsIDWgjQcE/BoJVso6kUsh2d0Gp06dClBGQoLImTJlMpvVK33mspeNWboehZTjMDZ8+HD88MMPWgt48uSJyjKWUh/G0qRJg6tXr2qtwOQ5GR+MkMdsehuSbS2vF1OS0S1Z38bktSQZ9ZYKqpyHpdtUSmNIqQ1jkoVsWkPbXGBaAtumgWm53eCuj2+dZCPZ/QZx48ZVwXYiijiiRY2EbOkTI3bMKFoPETkyHx9fHDt/XwWfOwxbhbJtZqDc//5VZ0YMmrQVf8zag9mrT2DB+tNYueMClm87jzlrTuCfJYfx+7Sd6PbHOtTvuRDFmk1FnW7zMHDiFqzcfh4PnwY+C4+I6HvIAbC7j17h+IUH2H3sJtbvuaQOkMm0Srd/2nboGo6cu4erd57Dw+uD9l/h17lrj1GixVRsP2ybMY+IQgoD0xSuSQ1cCVrKNHDgQJXJaVq6QDJRo0aNqrX0pCSDcdaniBQpUqDlJEAZ0iRDWGplG4LIBuYet5RRsIQEomWdGEpwGAempda1IVAsypYtq81ZT9aZNevRtOyKZPKaLivBV2uZ/o/cbpQoAYMm8rp49eqV1vpC7t9cVrgc5LBUUIHp792msg2NyfOUAw7GzGVMmwbVrVkfBvKalNemKeMDP1In3HA2AhERETmGd+8/YuO+K+g6aq0KarT7daUKPkvmc86MSdC6bgEM7VQB//5aH+v+bonds9vj5LJuOLuyh5oOL+yMrdP/hyV/NcG4vjXQs3kJ1C6XDdGiRMLWg9fw27SdqNZ5Dmr8NAfj5u/HpZtPtXsmIvo2SZSRcjhy1saof3fjf7+sQPn/zUDBHyejVtd5aDt0BXqMXo/Bf29TB8hkGjZ1B/qO3aQOsDXqvQglW05D0aZTVEkdOcg2d80JnLj4AO+9Lf+NZ+98ff3g+dYbPp8CJxsR2RMGpilCefv2rTb3hdRSlixpYxLQLlKkCOrXr/95kvIFptnW79+/1+ZChgxEJxnCUjPY9LF37dpVlckwFtRgdN8iAU5DbWQZQO/s2bNqXhiX+bCUZIxLsFkevzXrUTJ5Tcngh/379/88Sf1ja0ntamMSUDUXVDV3/0Eta42ggunfu02l7raU+TCQ+zG9L8mYNh7UUwLKMhmzZn3IfUo9dAlcx4sXT+v9wnjASamBTURERI7h5v0XqhRHubb/qszmU5ceoni+NCoIvW3G/7BzVntMGlALPZqVQL0KOVAoZ0qkThYX8WJHg6vLl5+VcuZEkgQxkTVdIpQvkgGt6hTAkA7l8d+fjXF0cRfM/r0B2tQtgOi65eatPYnG/RajXo8FWL7tHN5/CD9BISKyHTlgJge2ZN8kZ20YAspLtpzFs5deyKLb37TW7Wt6tSipxrmYPrSeKi1mPMm+Z+LPNdG/TWl0/qEIyhZKDxdnJ+w6egPjFxxQAW45GCeXCzecVtnXRBTyGJimCE8G7/Py8tJaelLCQAb7k7IEMrChZLKaG6TOXKkDW5E61VIPWzKMzZEBDE0zbr/n8UjJCnPkeVurd+/eqoyD+N71KIMh/vHHH5+nfPnyaddY7lvlJ0KKBHGtEZxtmjZtWm1OP/ihaWBabk9KoBikTJlSmwse2X5ysMKSYH1onFFARPblk6+fOj1WTv8nIscgWYLtf12pgsNyynv+bMnxV+9q2Dmzvcp4liB04vgBx1MJLglg58+WAt2blcDSMU2xYUordGhYWAWkh0/fhYrtZ6oa1a88Qjb5g4jsn2T67jx6A33GbESpVtPRb9wm7DxyQ41n0b1ZccwYWg+HFnbG+smtMGVQHfRoXgIta+dXgy8XyZVKlRYznmTfU6ZgejSpnhcdGhXByO5V1H5o37yOWDWhuToIV133v/efvMZfc/aq7GvJrl6w/pQKfhNRyGBgmsI1yeiUjGOZZKA5cyZMmBBoyp8/v6rBK2UspEbukiVLVOkG09IJ1tQZtlbs2LG1OfOkvrDp45ZMZUvIgHyyToxLPASV/e3h4aHNWS5OnC+ji4f1egxLMtCjNYKzTY0D01Ib/dmzZ2reUBJE1r9xeY+vDRJpCeNt+y0ysCURRSznrz1Wp8duP8J6hkT2TuqPthmyXGUHnrn6SGUbbpn2PxXgqVQsE6JEDniGVUhImSQOOv9YVAWopw6pi4ypEqga1dU6zVZ1qiVLkogiFjnAPX3ZEVTpMAu9/tyAfSdvoXyR9OpAmZQOmvZLXbSpWxCFc6VSZ158LzdXF6RPGV8dhPutSyVVimjBqB/Qtn5BeL7zxpi5+1C142wVIL98S/9bi4hsh4FpCtckq1Pq58pkWr7AoHv37ioIvH///s+TBPMkKGg8cF/fvn3RqlUrrRXygnq8Bg0bNkSxYsUCPG5La0wb1olxNrbpIIUGlg6oaMz4sX/vejx//jw6duz4eTp8+LB2jf0rXLgwEiZMqLW+LTjb1DQwbVC0aFFtDgEGRDQ9KGCtb70ujUuLSMmP8HrQgYiIyFFJ0EdKdrQatAwXbjxRZTV2zGyvsg2lBEdYcHFxRrE8qTFneEMVEJIyINOXH1VZ3HL6PhGFf3KmxNh5+1Cx3Uz8s/QIEsWPgWE/VVT7p9E9q6nSQFIqKKRJDCFXpqTo2qQ4Nk5prUqAVC2ZGXuO38KPff9TdarlwB4R2QYD0xShBBVUO3PmjBqgzjBJXd6rV69q1+rVqVNHm/s+lpaVMC2VYO6xP3r0KMDjPnXqlHaNdaT8g3Hw0lCGQwQnMG382K1Zj6YD8Al5bNOnT/883bp1S7vGct8KphqYu//vIQP/VatWTWsFZottGlTN7aAGrZTA9Pesj2+V8JCa4gZSykPeW0RERGQfDp25g/o9pZ7zeVQokhFrJ7VUZTViRQ880HNYkYDQ7N8bYly/Gup7h5y+L5mKL9+805YgovBEyn/NXnUcNX+ai/nrTqlBVmVw1cV/NkGdctnDdP/k7OykSoAM71oZm6e1QdPqeXH6ykM0H7AU3Uatw73HwRvjiYi+YGCaIhRzZQgkUCzlJYzFjBlTlbowJhnGxgO7fY0hS9Q0iCf1goNbB9r0sct9mHvclpBM1rVr16pJahDv3r1buwZInjw5ihcvrrWgMpTfvHmjtQKyJBvWmvVoOpieLCeD7BkzDpobfOtxxIoVS5vTM7cdZFuZLmcLNWvW1OYC+55tanjOxhnTxmTQSHNBZCnlEZLrwzhTW7CcBxERUdj76PMJv03dgU6/r4GLszP+HVYff/auhqQJbf/dx1bKF86ANZNaoHnNvNhx5Drq91yIQ2e+lCcjIsd3+Oxd1Ok+HxMXHUSa5HEx67cGmKmbZHBVe5MwbnT0a1NalTz6oUouHDh1G3V76B77wgPw/mhZnICIAmNgmiIUKdmRPn16raW3ZcuWAIPxSUAuT548KoBqbNeuXaqshDmmmaWSJSyZoqb9ly9fVoMtBkeBAgW0Ob1Dhw4FCvpJbWxLSPkSyVyW6cCBAwEC03nz5kWuXLm0lj5oKYFsc9mz0v/ixQutZZ4167FgwYLanN769esDPEfJQJb1YPpY3N3d1fMwDeoaZMuWTZvTk6xr03WXO3duNTijrcngjUHdrjXb1PQ5y2v29u3bQQams2bNihQpUmitLyQwHZLrwzhjWpjeLhEREYWux889VHbfyh0XUL1UFiwb1wyFcthf0MecyJFc0adVacwc1gCR3FzQefhqVXuWiBybx1tv/D59Jzr+thofvH0woltlVcanQPbAv1/sTbzY0TCwXTmsmdQSRXOlwuzVJ9Ck/2KcvvJIW4KIrMHANEU4v/zyizanJ6UWZDBAAxmATgJ6OXLk0Hr0+vXrpwKl5mTOnFmb05MAY40aNQJlj0ogV24/OPr06fN5QDsxePBgzJgxQ2vpA8pSozg4jGtAy+2YBoilnIcEhU2DoK1bt1ZZ119jzXqUdWNcZmLixImYOnWq1gJ69OihahhnyJBB69Hz9PRUgytKbXBzZPuULl1aa+nLZZiWFBk2bJg2Z1uS8Wx838as2aaZMmVSlwZTpkzBkCFDkCpVKjg7B9yVS+a51LY2V+ZDAtMhuT6kVIhxnWk5YBDUwJpEREQUsq7dea6C0jfuv8CQjuUxsnsVuyrbYSkJVi0d00RdSu3ZQZO2qtP/icjxyACCP/RehBXbzqNKiUxYOaE5apTOavZsT3uWKmkcTB5URwXVn730UoPJ/rvimMWlO4lIj4FpinBatGiBhQsXBgqySkaqBAplsD7RtWvXAIFlCQD26tVLawXUpEkTlYWcOHHiAIFVKeNgXGM4RowYGDhwoNayTpYsWbB37141OJ4x+QCvVauWyvwOToarBHPv3v1yWqRk6JoLTIvFixer66NFi6balrBmPUom79atW1W2rzG5v/79+2P06NGqLcHVWbNmqex34wEcv2bFihWoX79+oCCuHIRYsmSJWochJahyHtZs01GjRqmDHZL1b/wc5PVmmhltWH+mAXy53ZQp9RlSIbU+5D6Ms6a9vb2DfZYAERERBd/pyw/ReshyfPTxxdQhddGgYk7tGscUJ2ZUTPulHhpVzoUNey+j++h1eO9t/mw5IrJPK7efR4uBS/H2/UeM6lFFDWoo721HJkH1ZWOaIm+WZJi8+JCqPS2DzBKRZZz8eTiHIjAZ8O/x48cqa1WChObKVdy4cQOvXr1S5T2CW+pBbkNKXmTPnl0Fp7+XBJOljIMEFSUr1rQ2sz2ydj3KoIeGbSPZwua2TXC8ffsW165dw7t371Rmb8aMGbVrwlZYbVN7XR9E5JgkENZq8HL1Y7NaySxa79ddv+uOBr0WonH9hChVLPBYEESO4NgpD8xZ9BQrxjVDxtQJtN6wc/D0HXT7Yx0SxomO6UPrIXWywGN0OLL5605i7Lz9apA0eX7Ro1qWqGAvuN+jkLB6ozu27XqFA/M7IaadnRnh5+ePcfP3Y8H6U8iSNiHG9a2B5Ilja9eGD76+fiowLaU90qWIp7KpkycKuzr+wflORhQWmDFNEZqUHZBsXgmWBhX4lKxTySAOblBayG0ULlzYJkFpIWUaChUqpGoUO0JQWli7HiWzWtaZ1Lu2VVBaRI8eXZXIkAEe7SkIG1bb1F7XBxEREQXP8QsP0OvPDUiaICbmDG8Y7oLSokWt/BjQtizOX3+CLiPWMnOayI5JwLb/+E0qKF2uUHrMHdEo3AWlhYuLM7o3K4GxfarjwdM3aD5giToIFVbk4EThnCmRIE50rYfIPjEwTUREREREFA5IEKT7H+uQIG50/DO4LpImDLtsvZD2Y9Xc6NOqFE5dfoj+4zarjEwisi9SC77H6PXYdui6KsMzpk91RI0c/IQvR1ChaEZVPknKKEk5JTmAFhYypEqAGb/WR6GcjjHYLUVcDEwTERERERE5OPdXb9F5+BpEcnNRQREZmCu8a14zH1rXKYC9J25h0n8c04LInkhQus/Yjdh38jba1S+Ege3KqqziiEAGap31WwO46p5vp99Xh2nmNJG9Y2CaiIiIiIjIgfl88kW/cZvg/votRvesGiGC0gZdmxRD6QLpMGf1CWzef1XrJaKw9tu0ndhz/JY6eNRF9z6VQdIjksxpEqoBW2VYNzloeP/Ja+0aIjLGwDQRERER2UT8ONFRv0IOpEzCwbyIQtOUxYdx8tJDdG1cDIVzpdJ6IwbJwBzZvbIabOzXqdtx+8FL7RoiCitz1pzAuj2X0LBSTvRoXkLrjXhkoMfx/Wripcc7dBm5Fu8/sB4+kSkGpomIiIjIJiRL85dOFZAzYxKth4hC2pkrj1QQqGS+NGhdt4DWG7HEiBYZf/WuDvgDgyZtZb1pojB04NQdTFp0EEVypVKDlEZ0UuP5t58q4c7DVxj091atN+Q9fOaBCQsO4Mrt51oPkX1iYJqIiIiIiMgBvXv/EQMmbkGcmFHwW5dKEe5UeWMZUsVHt6bFcfHmUxWoJ6LQ9/zVWwz+eyuSJYyF0b2qRpia0t9SvVQWdeBw55Eb+G/jaa03ZD174an2hbcevNB6iOwT9xJEREREREQOaMaKY3j0zAM//68s4sWOpvVGXI2r5UGeLMkwdekR3H30SuslotAgtZQHTNiMN14f8GevaogTM6p2DQkptZQ3azKMnb8f1+4wi5nIwEm383D485zee/sgamQ3raW3Ye9ljJm7D55vvfHJ10/r1Tu7soc2pyejxHYduVZrBXRgfifEjB5ZawGnLz9Eq8HLtVZAK8Y1Q8bUCbQW8Pi5B6p0nK21Apo7vKFup5Rca0E9zhItpmqtgEb1qIJqJbNoLb3izf+B17uPWuuLQe3LoVHlXFpLr3KHWXji7qm1vpAjdj2aBaz31HLQMnU6oCmpDTW4Q3mtpddlxBrsP3VHa30hpxFOHlRHa+kNn74Ty7ed11pfyBfHeSMaaS29CQsPqMFLTCVJEBNbp/9Pa+kt23oOI2bs0lpfxIgWCQcXdNZaepv2X9F9UG7RWgFZs523TGuDpAljaS2oEXYb9FqotQKyZjv/PbA2SuVPq7X0ctefoM0FZM127t60ONrUK6i19Or3XIAb9wIfObVmO1ctkRl/9KyqtfR+Hr8Zmw8EHnTGmu0s2S4rxzfXWnqzVx3HxEWBR1q3djtb8963Zjtb8963Zjtb8963Zjtb8963Zjtb8943t51t8d4XptvZVu990+1sq/e+ue1si/e+ue3c+68NePbSC4nixVC1ONPqpmzpEiF1srgROsuOwpbhvdS4fkKUKsba1OSYjp3ywJxFTwN9VoSkh0/foE73+cifLbkaYIv0btxzR6Pei1CmUHqM61tD67Uv3O9RSFi90R3bdr0K9P02tCzZfBajZu5Gh4aF0fnHolovGZMBEOW9nzppXPz3Z2O4hmBGueF3jbnfGkT2xOVXHW3eYUig+cSlB2rH99ecvSqQ0bJ2fu1avddeH/DG8wNyZUqCzGkSqEF40qeMr6ZKxTJpS+m9++CjjuoZrjeeKhTNADdXF21J4IP3J7x4887ssmUKpgvwASCPU+r6mFtWAlNxY305gujn74+7j16bXbZYntQBAmTi9sOXamdmuqwMdmI64JBkCyRPFDvQsgWypwj0xfnRszcq28J02Xy6L7xZ0yXSltKTQEisGFECLZsrU9IAARnh/vodIrm5BFo2R4bEquaSsZe69evs5BRoWdmOpQqk05bSk+320cc30LLyvMoVzqAtpef1zhtv3/sEWlYma7az3K7xgZCPPp/w9IWX2WWt2c4l8qVBwrjRtSX1bt5/YXZZa7ZzwRwpVfDJ2P0nb5A4foxAy1qznfNkSYqcum1tTAJe0aJECrSsNdtZ7l9e88ZeeXxQtQJNl7V2O1vz3rdmO1vz3rdmO1vz3rdmO1vz3rdmO1vz3je3nW3x3pfJdDvb6r1vup1t9d43t51t8d43t52PX7iPx889ceXOcxw6c0+dTiifpW/ff9Q9jjTaUkTBd+/xa0xceADx4kRT+x9LyHtfDjblzBYdqVNG0XqJHMvDx944c/6tOngYX/f6Dw2/TdupPi8m/lyL2dJGZF289HiP9Xsuq89YOcBtb7jfo5Bw5fo73Lz9AW3qFkTkSK5ab+hwf/UWPf9cj7TJ42FE98pwcebJ+ebE1v2ujqb7jSkDQ8bS/a7InTng7yxbkt/xa3ZdQoUiGQL9JiCyJw6VMS1vLAlCbzpwBR5e3qovk+4NJj/UZaTXkDzaREREFJ689nyvMurPX3+iDuLmz5ZCu0ZPsiyypkuMKJFD94cNObbgZOcwc5DCg9DOmJbTwBv2XoQ65bJj2E8VtV4ykMBvjZ/mqoFYpw+1v2xy7vcoJIRlxvSQv7dh/d5LWPRHY2TPkFjrJXMk4arFwKW49eAlNkxpFWIHFpkxTY7CoSK5cprxih3nkSNDEgztVAH75nbEct2Xvz6tSjEoTUREZAWp+ydZ1a3rFAgUlH7l8R5tf12Jiu3/xZ+z9+Lpi8ClQoiIKOzMXXtS/f7p2Kiw1kPGJNDToFJOHDl3Tx2AJaKQIwdaJCgtwU8Gpb/N2dkJ/f9XBu8+fMT05Ue1XqKIy66juXKatDE5JXTnzHaYOqQu6lXIgdgxedoTERGRrUWP6oaR3aogc5qEWLTxNKp1nqNqgHu81Z+tREREYUdKam09dA2Vi2cKVAqKvmhZKx8iR3LBgnWntB4iCglTlx2Bi4szujYppvXQt8jZHOULZ8Dyrefw6LmH1ksUMdllYFrqE3b8bTXGzT+g9XzBkV2JKDRIlaOTJ09i5syZGDNmjLo8ffq0di1RyJHX3v3793H+/Hn1GvzWdPHiRe0/bSeSm6sKeMwc1kAN5FggWwpVSqtJv//U6YdERBR2lm45i0+f/NC4Wh6th8yJHyc6KhbNhJ3Hbqj6t0Rke1IWTsYsqVsuOw+UWal9w8Lw1X2vns+DZxTB2VVgWgYMm73qOOr3XICTlx4gPgfxIKJQ5uvrq4LQGTNmRIECBdCuXTv07dtXXebLlw9lypTBq1evtKWJbOfWrVto1aoV4saNi1SpUiFXrlzqNfitafDgwdothAwZ0FLqc/47rD66NimuTj8kIqKwIb+X1uy8iDxZkqmMO/q6JtXyqCD+yu3ntR4isqX/Np5W3w2lNBxZR85MlAFa1+y6CE+elUgRmN0EpqV+ZcuBSzFx0UHkypQUK8c3R7sGhbRriYhC3sOHD1G6dGl06tQJFSpUwLFjx/Dy5UtcvXoVvXv3Vsvs3bsXgwYNUvNEtjJ+/HgULFgQnp6e6rU2ZcoUzJo1C8mSJVPXT5s2DXPnzv08STtRokTqukqVKqnLkFYoR0qVRU1ERGHn6Ll7cH/9DrXLZtN67M/ff/+tvkfJ51hYk3q3aZLHxcb9V7UeIrKVN54fsGHfZZQukA7JE8fWeskaEtB//8FHBaeJIiq7CExLLelWg5bjyu3n6Na0OP79tT5SJY24oxOvXbsWderUUdO7d++0XiIKSbdv30axYsVw4cIFbNu2TQX+JFAo2auZMmVS5TwqV66slt2/f7+6JLKFXr164eeff8a+ffuwcuVKDBkyBJ07d0aaNGnw6NEjpE2bFh06dEDLli0/T9KWzwgRWoFpc85ceYTh03cGGhOCiIhChpwy7+rqjDIF02k99mfJkiXYuXMnYsWyj9P6a5bOiruPXqkB2ojIdjYfuArvj774oUourYesVTBHCqRMEpuBaYrQ7CIwLbUsB7YriznDG+J/9QpG+NOEb9y4oYLTMvn4+Gi99kuC5xs3bsSmTZu0HiLH4uXlherVq+PevXvqx1TZsmW1awKSQLVInJijTZNtSN1yyZbOli0bsmfPrvXqycERUbhwYXVpKkuWLOo1mT59eq0n9O06dhPLt51H+2GrVNYMERGFHKnxf+D0HeTNkgzx7LTkofx2kfEPRJEiRdRlWCtbSP85ue/kbXVJRLax7dA1xI0VFQVzpNR6yFpOTk6oWiKzqtV98/4LrZcoYrGbUh4l86dVJTzI8ZQoUQI1atRQWaZEjqhPnz64fPmyykKtUqWK1gscOXIEkydP1lr4PMicoawH0feSA5FCDop8+vQl61hqnRv2qUH9sO/Zs6cqNxOWerUoiZ7NS6jM6Ta/LMeL1xxciogopNx68AJPX3ihRN40Wo/9OXv2LLy9vZE0aVKkTGkfwar0KeMjcfwYOHTmrtZDRN/r5Zt3OK37/lexaEa4utjV0GXfJPspiV907NhR6wlblYtnVpd7jt9Sl7aSLX1ibPynNcoUsN8zbIhEmO1BmFkVfvj5+WlzRI7n/PnzmDFjBtzc3ALUjn7w4IHKou7atasqlSDzclrq/PnzUbVqVW0pou8jQecECRLgxx9/VJn7BvK6fPPmjZoPKmPaXrSqUwDDu1bGrQcv0XrICvVDhYiIbO/gaX1gNX+25OrSHslBfVG0aFF1aS8KZE+BC9efwOeTr9ZDRN/jwKk76iwOey4rFJQdO3aoM75fv36t9YStDKniI3miWNh7wraB6ciRXJEicWxEixpJ6yGyT2ESmF6w/hTqdJ+PO49eaT1kicWLF2PYsGFYunSpCgbPmzcPjRo1Ukf7Ro4cGSCoIQ4fPqyW/+uvv1T71KlTalC3atWqoU2bNti1a5fqNzZ27Fj1PwcPHtR6vhg9erS6Tm5XbN26VbWfPHmi2vJFVNoyvX//XvUR2TupHe3v76/eF8aZPSlS6H7AXLiAUaNGqTILUs/3zp07aN68ubYE0feT15zsQ2WwwzhxvoytcPz4cXXp6uqKvHnzqnl7VqN0VvzVqxruP3mNf5boPyOIKPjeer5Tn01Exi7feoYokV2RNb39lhQz/E6QcTvsiQTzP3z8pMY0IqLvd/zCA0Ryc1EHfRzNoUOH1KU97aeK5EqFizeeqoEQiSKaUA9M7z52E2Pm7kOyRLHUKVVkuUWLFuHXX39Vlw0bNkSrVq2wfPlydbRPMj1NszhlhyvLS0B54cKFKFSokKpZunnzZsyZMwfly5fHn3/+qS2tJ0Fs+Z8DBw5oPV9IgE6uM+zI5Xak/fTpU9U+evSoasvEQRvJEbx9+1Yd6BH169dXl8bkNFQZlG7ChAlo166dGgiRyNZcXFy0uS8MJTqyZs0KDw8PPHv2TO1rHz9+rAZEfPjwoSr3YU8qFM2IST/XQu9WpbQeIgqOY/tPo1KuRtiyOnACgS29fvkGh/ecwP4dR+HlwTI8juDctcfIkSGJXZ02L59XMmBvzpw5ESNGDPz333+qf+DAgerAfvfu3XHz5k3VF5ZyZEyiLiVrmoi+3+krD9X+SLJyHY3hzA57qYMvCuRIgU++fjjPfRRFQKH6rebGPXf8PH6zGnX07wG1EDWym3YNWUPqjl65ckUFpOXLYL169VS/BJO3bNmi5o15enqiS5cuKpNZgscrVqxA2rRp1XUDBgxQtxUcTZs2xdy5cz9nmVasWFG1ZZIvpkT2Tt5LUgdRlCtXTl0S2YMTJ06oSynpkShRIjXgZpIkSZAsWTIkT54cadKkwcePH9Uy9kTGi+Bne8SWM1NS7J/XERWLZNR6wpe3Xu9wbP8pHN0XeHJ/9lJb6gvJer505ho2LNuONf9txslDZ/HR++vZUJtW7ICLqwuKldUPuCs8PbywZ8shLJ29FptX7cTTR9+X9Xnh1GX8UKY9+rT+FT+3+x1TR8/VriF75f3xEx4+80C6FPG0nrAlSShyFpmUm9q9e7f6rbFu3Tp1nZztI4EfOdtMzgiSALUMLh2WpM60DLB//a671kNhwfuDN7au2YMXz8P2zOkHdx7h0C792WlkvXfvP+L+kzfIki6h1uM4pFyjJHlEjhwZefLk0XrDXrZ0idSlHIC0FfncePD0jdpeRPYs1ALT73VfwvuN26zmJw+qY7cjSTsKCUBL6YGCBQuqkh7Ro0dX/YZsZmMSvJBSH5JVLVnTkhkq/+/s7KxKgixYsEBb0jpy3y1btkS8ePovyPKlU9oyyY6eyN4ZjpYnTJhQBfuI7MGHDx9UGRkhB0zkIKDUoJYzZeRApPz4l8B11KhR1TJE9kQyOWPFiAI3t8BnAoQH6xZvRc8Wv6BXy8DT5pU7taX0JPjbrFJntKvbC6P6T8Rfg6agW9NBqF+iNfZuNV/yRgLf+7YdUUHp2HFjqb5dGw+gQYn/YVCnkZj0+78Y3nu87jbaYNmcter64Jg5fpE6MDt91RisO7YADVrVVP03r9zB5bPX1DzZl9sP9YG8TKkTqMuw9OrVKxWQljMyZfCwc+fOqQGkJRlGSLBHylDJ749///1X/RZp0aKFGmg6rMi+KW3yeLj5IPABpPDi1Ys3WD53HUYP+BtjhvyjDnK9f2df4zq5P32J33qOwfkTl7SesLFJt7+WfWpQ5KCiHAwcN3QqhvX4C//NWIWXYRxMtycXbz5Tl5Ix7WgMv//y58+PSJHsp/Zy6mRxES2KG67fs93Bs0s3n6J65znYY+Pa1US2FmqB6enLjuLm/RcY2L4c0ujedBR8BQoUCFALV7KTs2TJoubv37+vLk21bt1am9PLlCnT57qlMiotUURk+IGUMWP4zOwjx3TmzBl8+vRJzc+cOVP98JcxBpYtW4aVK1fi77//Ru7cudX19kx+1C3dchbPXgYc/4AilrM332D2prvweBc+aiZ+9NZnHXUb0g4zVo8NMNVuXEVdJy6cvoKuTQbhycNn6Pxza/y3Yyr+2zkNv/3dD0lTJMacSYu1JQPau+WQyiisUk9/Fo/8//A+4xEzdgx1H7uurMLindPRrGMDPH/yQi0THBKAzpIzI3LkzYL4CeMibcZUql8CWv3a/qbmKfSs2PMQD559fXyWh0/1A+ImThBTXYYV2bdLprQcQG3WrBmmTp2qBpAWhgQZ49Pj5TeIJK/4+Pioz6+wlDRhzM/rMSTtO+uO3aefq4HhQsvh3cfxQ9l2mP7XfDy6/wQ3Lt/GX4P/QePyHcJFqR4JEk/8/V+tFfJ+6zUWQ376A48fPNO95oGls9Zg4FcC2eHJ5bueePHm6xm2D5/p30fJdO8peyLjXEkZIRkrSJKOZNB6U+b2U9evX0eZMmXUZC7RLzQ4OTkhVdI4ePDUQ+shijhCLTDduk4B9G1dGrXLZtN6KLgSJAicKRE7dmx1KV/6TEk2qLnMOjk1XJgOmkgUUUjGj4gfP766JLIHhoEPZd9tKLvkiCS778/ZezHk721aD0VEH7x9sXjHAzT7/YQ+QP02fASo02RIiex5MgeYYsXR/0CXwN3IvhNUEPuPGUPQtEN9pE6fEqnTpUD5GqVUlvKA0d3UsqY2r9qFmLGio3g5fRmP4wfOqED1j23rqPuIHDkSUqVLjo79WuKnAW3UMsHx5pUHokaLorUorB04/wL/+/MU/lp8HY9fmM9wffpCn42cNIwD03KgVMoJyoC9//zzj9arZ8hENB1QrHTp0urS8PkWVpLEjwn31yEfpH3k/gEjF1zD/0afwo4Tz+DrG7IB6vu3H2Jgp1FIlyk1VuyfhYkLR2Dair+w9sg8lKpU9PMBNUcmZ6BsXb1ba4WsOzfuY9uaPeg2pC3+mjUUv07si5UHZqNj35baEuHb2Rtv0GLESfy74Q683usTJUw9ddfvjzKkCvszOAzkjMMSJUpg+/btKolPynXIGR2GZA8Dc/spKT+0d+9eNUkZvbCSJnncz+uWKCIJtcB07JhR0KyGPkOXbE+OsAVFynWYYxi00BDUNma6Axfm+ogcmeFAjgQRiOyF4Ye7PQ3IEhxSB7VVnfw4cu4eth1iaYCIQuoYyqmjbzwDBtfee/vpA9TDw1eA2hwJJt+9+QAlyhdCwRKB61fKd7bMOTJorS+kbvTpI+dV8Notkj4D1RA8lszpb5EyIDPGLlDlQ6rk/gH1SrRWWX8StDKQGtWdGvaDr6+fqn0t851/6I/924+o+dvX7+HNa081L5OUBTDo0XwIlsxcrXtu99Gnza+olq8JWlTtgp0b9qnrDf1V8zZGs8qdcWDHUdVv8OH9ByyYuhzt6/ZW/1s9fxN0bzYI54xO6ZdT5js26BugXrd8Rg/t9qe6//BMvq5vO/4Mbf44hQnLb+D5a/0YGAae7/TBxYTx9OX7wsrkyZPVpQzCHjPmlyC5/E4I6vPLsJwMOh2W5PeofOULrXqrD55/wOj/rqO1bptuOfpUDWwWEub+vRQ+H30w4M/uiBPvy+86OVjWa1hHxEuoP1tZ3uemwV0582Lu30tUGRAh+5F5k5fCQ7cfOKXbH439ZSqmj5n/ua793VsP8PeImZgwbIbKyjZmye2b88nnkypvJBnRo36ehEUzVuKt55eB9Ncu3oLLZ6/r9iHeWPzvajW9cn+tXQucOHhG/e+fAydj3ZItutdi4MGhz5+8rB6zTN8qV2R4rklS6JO4hKubK/IUzqG1Qn5dhiV5j3z85Idlux6qg8pLdz6At0/AdfrY3RMuzk6IGd1+yndGiRIF48aNU2NwyRmHQjKo3d2/lMaQ336nTp1S88b7KUkEMST/yf+ElTgxoqqDZz5mXsNE4VmoDn5IYePFixd4/jzgIDnPnj37XMM0V65c6lIYMqsfPvzyI0bIEcdvfZkMKgBOZK8MX0BMX+/mvH79Gi9fht+6hGQ/ZJBaUbJkSXXpyNo3KIxkiWJh3Lz9+Kj74Unh39U7z9G432IcPHNH6wkoQIB6Y/gMUB8/cFpdlq5aXF1aatvaPSoIW7X+l8F4cxXIhkiRI2HZnHVYv2RrkAdSpY5s50b9VRBEMqp/aFsX+Yrkwva1e/G/2j1V0FhI2Y4kKfQDLEWOEknNJ0uZBHHjxVbzEhB3cXZW8zIZAlpCgjk7N+xH2zq94P3hI8pWK64C5r90/VMFktrW1veXq14Czx+/wM/thwcIAEmJgflTliFV+hRo2rE+Ktctp4LjEsw2BJkku1MCSFJL22D90q3YsX4fSlYsrPWEb598/bHx8FO0HHESU1bfwksPfRD15Wt9oC561LCriSq/BQzZhqaDRkudaQnoyIC9pmf7PH6sH8zLcLZmWImhrTtDkD+0SBb82KU30GrkKaw/+Bg+n2z3m0n2CYd2H0fugtnVWRlfs3H5jkC16WXf8O+4har8h3j94o06wDX+12kYoHsPP7r/FCvmrlcHlKRmdVvd/uT2tXvYvfkA2tfrow5mGVhy++YM/ukP/DV4iu6+X8P3ky/mT16m7keC7eLw7hN4cPcRPvn4YN+2w2ryeKPPKp321zxV9//5E3dVOuWfP+aiW9OB8PX9EtiTALLsH88ev6huR+YlsByUDFnT6vaFrpgxZj6ePDB/UDCk12VYevvhy/e1tx98MVP3WS0Z1BsOPfmc/f/izTu7HDNMzs6Qg7+GfY5kQhufGSvl8mR8BUOpD2MyyLgIyzFcYkSPpA4MvOVghRTBOOk+zMx/w6UwM3bsWPTp00fNSzDMkNFco0YNdepc7dq1sWbNGtVnUKFCBezcuVMNkiX1SIXx7fzwww9qkEOpAScB5DZt2qhBE8XFixdV7TdRpUoVbN26VZ1CLv1yKR/skhVhuN0xY8agd+/eal7I0UYJpFSsWBHbtvGUbXIcv/zyC37//Xc1EOjdu3fVlxRz7ty5g6pVq6ovLDLyPJGtSIaZfGk2kKwO2e8KOXiYPXt2Ne/Idh65gV5/bUDXJsXQtn4hrZcsMXDGRdz/Rt1Ze/PRxxfPX3qpH6xRo7jB28cPrzyDDj5HjeyMkjnjYNHqHfixbjyUKhZHu8Y+SeBXAg1SSiNrroDjE0hgSAK7AzoMVwMY/rt6HLLlyaRd+21NK3aCj88nLNsTsI7q1jV7MLLfBJVVmDZTKrTo3AgVapZSn10G/+oe01zdY5PyHk3a19N69cHuYT3GqOzt0TN/0XqBUhlqoUDxPBg3L2A9aQmYPH7wFOuP67/zGauc6wd4eb5F255N0bpbY9V3cOexzzWpjful3m2fNsNQp2lV9B3+k+q7de0uEiSK97nkiZDgzIi+E/DzqK6o+WNl1df3f8NwaNdxjJ//OzJmTatq5KZMm1yVQDF+zvbm2CkPLF3vhKyZMyBKpC/7dTdXZ0R2C/i4JdMwWpQvA4SeufEGHm/NH7yT/61ZPAke3r+Bdbsv4syKHto1oe/atWvInDmzmpdBeGXwMAMp6/HTTz+hVq1aWLs2YMBOxraRGq69evVSv0/CyuxVxzFx0UG0bFgJMWMEDqq9ff9JBYVM+fr54723+QxG2cd91E3Gnr70xqMgSrKIBLEjoVyeOJi8YBMa10vwXfs9yc6tUaApavxQCQP+MF8iyEAOFkkAd9a6CVqPPtu4e7PBqoa9lAt6ePcxGpVph+Spk+Lv/0YicbKEOLb/NHq2GIJo0aNi/ILfVW16GQhQBmGt27w6ug1uq27Lmtsf8c8AlNEO3slZE1LzPlJk/ZkihvuTfUChkvozriePnKXbX+zEplP/qbaQfUrLql0xeExPVK5bVvVJ/fyW1fR9Uqv/o7ePGnA2U44M+GvWL2ofcuX8DfRoNkgdSNt9dbX6P1Mblm3HnwP/houLi27fVAnNOzVCwiRfApwhvS6Da/VGdxw6HRM5sqRVA35G1/YzkSM5I5JuXyRiRNXvn2Tf4qbtm2JpfdI+fvkVTlz9kpFuLHmCKGhdLTXmrtiNVx7vsGaSfZY3GTFiBAYPHqz2UbKvMpg0aRK6d++uBhSXsVuM5ciRQ8U/1q1bh5o19QMChzbDPmrLtDZImlA/APL3OH35IVoNXo5RPaqgWkn9mGRE9ihEv939s+Qwuo5aG2qnS5F5ctRP6iXJl8J69eoha9asn4PS3bp1+xyUFjKYiZAMa+mXL5dyefDgwSCPHhoG4ZJ6TlKrSbL8JEubyN41adJEHVWXgzVDhgwJlIkmQcMpU6ao0eUlcN227fd9WSQyJgcLJatMsswMZD8qJBMtPASlRbnC6ZE9fWIsWH+KpyZa6fnrj3jp4YOY0VwdZpJAs5+fr+5HsJO+HelL8M0cn0/+eOftq9sXf305ezPtz3kqAGE8SZBEvHurP5gQJZrlpzhfvXBD1TWtqg16aKxynTKYvW4CipUrqLLrJNDcvl7vAJl8EoCOHTcWGrWupfXoVapdBslSJcHR/br3n5Z9+D0y50j/OfgsipTJDxcX50D9hUrlU5+vj+59yZKU+rfGQWlhKGliXKqk97BOiBI1MsYM+Qfjfp2u1mf/UV3tOihtIK/jdx/84Pnu0+dJgpTXH3gFmC7c9sC+sy8+T0EFpYUEPtfsf4xr970QLUrYZUuLyJG/vKbfvAlYmsEwYJhpfWnJsJagtGjUqJG6DGuS+SllCkwnyVTfdCTwtPXYswDbS6bjV17h1LXXuKjblqbb94WW5R4UyUj1fK/b79ngp7iUyBGxTd5b36tDn+YqkCoKFM8NF1cX1G5SRQVShZxNkS5zahV8/V76M0P0QWmRIUsadSmB36+RTGg586OSbh9pkF73vxIIljMvhOxbX7q/RoOWNT7vQ7LkzIA6Taup+aDUaFQRczf+jaJlC2DVgk0qwGxausNSobkuhZPuecpBltdePp9fkyeuvP782jW8rlfr9iuG175kRcs0dc3tIIPS4qH7BwyffxXPPsSHs4v9fm4bEokM9e0NDh8+rC6LFi2qLo0Zypwax0aIKHSE2Dc8CUYv3nwGXm8/IloYnnJGQLRo0bB582ZEihQJq1evVtkO0aNHx6BBgzB+/HhtKT3JuO7bt686OiyZe+vXr1cf4hs2bFD/b87QoUNV4E7Izl6C2F+reU1kL7JkyYL+/fur+blz56ofU6NGjVJH2eUsATnltEuXLupgjtRNlPcHka3Il+YHDx7gxx9/VFn5T548Ua+9ePHiYerUqdpSjk8+D4Z2roBFoxvDTfdjjKyTLEEU/NMrj8NM3esmw6snl9C0bBzV7lzX/ACeri5OqFEsCeYNzI8m5ZLAz9exkhh6/tpBZcoZT3L6t4gSVV8X+p3Xlxqp37J55S51WamOPuvPlARbZBCuuZsmIW/hnKreat+2w1SwWTIC5RTx1OlTqDqopiQg7PPxE1481w/4+z0iRwkYbJfvi9FjRjfbHy1GVFUT1pgEoKU+rASdB3UeperCCuOasFJCpG3PZipIs2vjfjRuV+/zurV3b988xO+t02HB4AKfpyW/FsTqEUUCTOv/KIrt44p/ntIkMX9KvGQ01i6RVL1PcqSNFeand8uZZTLooTDUaTUwlPgwDvjIWZddu3ZV83Xq1EHhwvZRjmVGn7xYNbxwkNPmvwJuH3PTulFFA21Xw9Shlj6waipKJGc0KpccC3Wvi5pFE8Df//sP1saIpa85/vpl0DWcg0PewwbyWzCqbr9m3CeiRotqkwNenh5e6qyPNjW7o3aRFmhSsZPql9IcXyP7EyljVCJdTRRPW+Pz9ODOI3hrAz4a6jknT5VUXRo4u3w7DCLB4pHTBmHOhokqW3pEvwkBavZbKjTXpfB8cQdTe+XCoiEFPr8mN/9VTL1ut44p9vl1vmRoQcwflF9NU3rmVtP4rjlRJNuXEk6m5IBzi8opES/SCzjh69snrMh+xxCALlPmy0ELYW4/JSQoLbEP2celT59e6yWi0BJigemN+67Aw8sbLWrl03rIUlImQzI3ZTIemFCCw9JnWsZD7NixQ11nKLdhSgLHV65cwdWrV9VIs7LjHT58uNnskz///FNlTMsO/dKlS2qSI4dSVkTuw7iMh0iWLJn6cnrr1i0VvJP/lcAKkSOQQLQcoJF60/JlZeDAgerUr+XLl6uRneXgjGQBhZfsVbIfEnyWgx2XL19WmdMygric2SL7U7kMTzKnSYgUiQMPtEsRjwSka2oB6e4N0iNRXPsZOMkaUlpCsu6MJ0OgQbL1xM2r+gzqb5Gg7Pb1e1XWYPJU+hqXQcmYNR0mLPhdLXtLd/snDp39HMwwF5QWn/tDKIYQVDKCk+7P2J7NB/FD2fb4b8ZKdQp9spSJVX1rcySoHZFFi+yCH8olx4LB+dGlXjr1PnFz07++wrJev7zG//e//6l5Kcnh5eWl5uV3xc2bN9X1BQoUUH0yyFjLli3VafRygH/WrFmq3x7EjRUpwJkeppOUQLAlKaHQoHQydaCiXY00iBX9S3bw94oZKwYSJ08YYBDRr/lWsPd7WXv78tuyV4tfsGvjAbTu3gQTF47AeJMSQ0Fx0+3bYsaOocp7mE4/a2VNXLUD4t7eAQ+SWSNjtnTo83tnVf/6zFH9GE0ipNdlSHCWAQu113n82JGQNH4UNWVKGUNNcgBM+k1J+ZmOtdOoYHfzyqkQNZIzPnjb59ghEvN4905/YNi43JAEnyURREqb5s2rLxFjIOVSRePGX878CQtSNkjIdiKKSEIsML1650UkSRATJfM7RoZDRCA/HCTYIfWTZNTar4kbN66qHS1fJC3JfpZlJLAiX0aNBxggcgQ9evRQX1bkbAL5ASU/rjw9PVWNRKntbsl7gMhackq0HEyUAVqknIcMrrlq1SqkTp1aW4Io/DAOSHdz4IC0JQoU05c427JanwX9Lcf3n1KDZBkPevg1EmguWEJ/pprHK08VxJXSF8blMIw9uP0IkSK5IX6ioLPgjIVUqGXML1MRL0EcLNk1A4P+6qHqYTduX1e79gv3Zy8xZdRslRmePW8WLP53laobGxFIsKhllVRYOKQA2tZIg7gxvwSI4msDjXmF8sB9pmRsDinbJ2f5VK5cWR1cNWQhyoDqUh5NztAsWLAgFi1apMbBkZKC9pC04vFOH5yMrnu/hAY3VyfULZlUHWDoUDst4sSwXUDaWKVaZXBf9z6XevSmnj998bncR/QY0eCua0sw2MDSA2iWCM7ty+O+dPYaWnRphJIVCiNNhpSfy14Yk2Qq04zidJnTwPONF7w836lSRsaTISBtOFB48fRVdSnk8V2/dEtrBSZnoZgyPKdI2tkhIb0uw9K7D18y+aWmdM9G6VVWdf3SyRE1sn69xogeGZ5vgx/sD0lSflFIGVJJoDMw7Kfy5csXoCyR7LOk9rScHW44wyOseH7eR7HiAEUsIRKYvnn/BS7efIrqpbLY/IgzEVFIkC+8GTNmVEfW06VLZ/ZsAqKQIINq5syZEzFj2rY+JJE9kIHfJCAtP2rDe0DaoHDpfEiVNjnOHb+EpbMCn+UmJTUWzViptYBNK3fBLZIrylYrofV8cfLwuc81qw0kEHLykL42vZxqLgdP8xbJqeo5y/LGLpy6jBtXbquazzIw47dEiRYFbz3eqlOhbUkCShJ8T50+JaLH/FK24vF9fU1PY+N+mYoP7z6g9++d0Hd4Z93zBUYPnBwgABTexI8VSZV/kGzEZpVSqgC1qdgx9EklT1/os5TDigR7ZMB1yZiWA6pyVqWhdrQM2iufZZJ1KIHolStXqoHRDYP6hrVXb96p36ZRIps/u8BWXI32e53rpkM83fYNSc07NUSKNMnUIKlyUOfUkfM4svckpoycjR/LtsfDu/pa7wVK5Fb1lmeOX6TKXSyYulw3b/5s2+AIzu1LiQw52HZ49wlVluOhbj82tPtf2rVfJE2RWO0LJbNa6kZ7vPZUAx7Kgbmh3Ubj8tlr6nopAbRi3gZcu3hT/Z9kO2fIkhazdI9J9odSy/+XLqM/70PNGf/rNPRv+xv2bj2sDort2XJIlR+SszxKVNAP4hzS6zKspU8eHYNbZMbsn/OhWpEk6rPcWJL4MfHG64NdZo0bBhWXszaMP8uCqi89efJknD17VpV3lLMXw5LXW29EcnNBDCvGqCAKD0Ik8rJhr36wgWol9aM2ExEREd17/BrTlx+F90f7PP2TbC9fpjgqIJ0wTsT5kSXlDIZO7KsCsJOGz0SXHweoQLTUVv691zg0LNUW27TMxree73Bgx1GUqFBYnZJvau7fS9CwdFtMGDYDm1bswPolW9GzxRCcOXYBpSsXVUEX0aZbE939OmNAh+FYOX8DTh46i1ULNqJ3q18RNVoUdOrfSi33LZKt+PGjD6aMmqOCMfLYbEGC4plzZsCpI+ewedVOFRxaMW89hnT5I8BZSRIIkqlRm9pImzGVen51m1XDxdNXsHbxFm2p8Gdk+2xoUOZLNqI5ieLrXx+Pn3uqy7Akp8L36tVLZUvLgOeG8lOjR49WYyd4eHhg165datB1ezrrTNZdwrj6mswhqWrhxGq/lyB26Oz3ZF8zddlolK9RUvf+34iujQfo3vtDsX/HEXQZ+D9Vo15UrFVGDbAq+xUpq7N36yGMnDpIXWdIyDDUXjatwSxtGbTPmPQZLxec25f9U/+RXVRgukL2BmhWqTOKlyuogsDG91exVmm1P5B9xv9q9VRniMRPGBdj5wxTpYHa1umFijkaqkEKNyzbhkiRvxwMGDltIGLEjI4O9fuiqdSv1r0mew5tH+CxG6vdpCrevPbEwI4j0KJqFwzuPEodbBw79zeVKS1Cel2GpdbVUmNa7zwonSeB7rmYf/8mSaDtj9zDfn9kqlChQuoAmgxiLwfRDMzVl545c6Y6c7Zq1ar45ZdftN6w8/z1W1V1gCiicfIPgfSD994+OHHhAct4hDEZzG3MmDFqkJIDBw5ovURERGFj3e5LGDJ5G6b9UhdFc7Nkybe0+/O0uvy3X8BaiPbs9OWHaDV4OUb1qIJqJbNovV93/a47GvRaiMb1E6JUMf3AavZq4bQVmDp6LiYtGoH8WsmOoNy99QDTdMse3nMCMvigkOBImWrF0bZHU5UpuGHZdozqPxF/zvwFxcvrM/GMXT53HdP/modTh8/B19dP9UkQquYPldC+TwtENgq+HNt/GpN+/xe3r9/TeqBqUfcY2h6Zc2TQevTKZq6LgiXzqvs1JgOF9W49FLev6W+jVZcf0K53czVfLV8TpM+cGn8vHqXaBjULNlMBbdN+0+VvXbuLYd3HqAxukShpAt1j64DRA/5GnaZV8b8eTVCveGsV1Fm47Z/PASAvj7cqmCQDKa45Mk8FsuzRsVMemLPoKVaMa4aMqRNovbZz68FL1O0+H31bl0azGvazT5DgT6xYsfD+/Xs13oyU9rNXNX6ag6QJY+HfX+trPWEnpPZ7n3w+qUzeaNGjfh4Y0dTL569UuQoZaFTIfKTIX86okIEDjfctQs56kMxm4wMNhkFLDWUzDIJz+/K4nz52V+V+5D0ubXN186U0iZQuMj2QJ/f51usd4iWM+3nfYUxCHo8fPFXrJU48/ZgX8py+diaJ3J6c6ZFAt682fbwGIb0urbV6ozu27XqFA/M7IWb0kDswsu3QNfQduwlTh9RBsTzmB/sMS9OnT0fHjh3VGEJywEzKDskBNKk9LaWFZEwsKd+xb98+VTd/ypQpuu0U9gfQq3aarcZksdU+6uEzDyzfeg5VSmRGlrT2ceYKkTkhEpgmIiIiMvXspRcqtpuJVrXzo2eLklovBYWBafsk9VqjRLU8OCqBCfenL1WwQoIuhkESxU8//Iw7N+5h7dEFXw1IyCnuz5+8UEFpyRL8GikVIqe5y31JrVVzJHji4uoc4LEYk/uSnwgSPDaQYIqTs3Ogxyn9KgPQ5LaCWt4QQJLarxKElvUjg5ip+Q/eusflGuh/JGjzycfHqvUe2kI6MO2jWwcFf/wbtctmw7CfKmm9Ye/06dOqZquU63j2zHydc3sgiVNFmkxBk+p50L9NGa037Djafo8cQ2gFpg2v35/blkHjqvoxD+zN/v378ddff6mzN96+fav16knJoUqVKqFnz54oXry41hu2ZB9VvNk/qF8xJwa1t2zMCaLwwj7OFyEiIqJwL1G8GEiXIh5OXHyg9RA5HmuDo5ItlzxVEiRMHD9A8PbJg2eqJEeFmqW/mSUnGYSp0iX/ZlBayDJSBiOooLSQIHlQQWkh2dzGQWkhmYXmHqf0m7utoJaXjMaUaZN/Pt1d1s/n+SiRzf6P9NlzUDo0uOnWQboU8XHz/kutxz4YTo+XQdPt2Y17L9RlhpQcpJ3oe6XXvY9kn3T+mr5+uT2SQVrXrVunBrSXQVtF+fLlce/ePbx+/RorVqywm6C0uHHXHb5+/siUxvYHNonsHQPTRESa56/tc3RpovAkb5ZkuHTrGT54s840RWxXL95UWcNSloPIEjkzJsbl2/a1/wxqQDF7c+7qY3WZO3NSdUlEwSe1p7OnT4QLNwIPYGtvpGTKlStX1LwEpmWAQ8PBUHty+op+H5U3S3J1SRSR2PwdeVn3Y/OVR8DRw4mIHMHAGZe0OSIKKVl1P2RkFPfr99y1HgpPkiWKhe7NiiNzGtYy/BYZvHDZnn+RISvHZCHL5MiYBJ8++eHcdX0Awx5Itnzp0qVVwMeenbj0QJU2kKxzIvp+ebMmx91Hr/D8VcAyGfbIEc7skLMJY8WIjPQp42k9RBGHzQPTPUavxy9TtmktIiIioi8ypEqggivgEBfhUuL4MdGmbkF1mi8R2VYxbdDYU5ceqkt7MGfOHOzZsweFCgUevNNeyMChss7yZJa65l8GnCOi4CuWR78/2n3sprq0V+7u7rh586bKki5YsKDWa1+8P37CsQv3USRXqgCDYn6v2w9eos+YjWr8DyJ7ZtPBD9+9/4jiLaaqkaJ7tyyl9Qbk6+uLA/sPwtmfVUTIMfnp/ooWL4JIkcyPzkyOq9nvJ9QgY1EjB113k4gotDji4IfBwUHAKDwI6cEPDWp3m4doUdyw+M8mWg99y/lrj9FswFIMaFsWP1bNrfWGLe73KCSE1uCHwsfHF+XazkCuTEkxZVAdrdf+bNy4ETVq1ECuXLlw9uxZrde+7D1+C93+WIeR3augeinLBo62RHAGpCYKCzYNTD985oFqnWajf5vSaFLd/I8oKT6fOnY6JPJPqfUQOZZneIhLj84iSdIkWg+FFz/8ekwFgGJFc9N6iIjCDgPTRI4jtALTY+ftw/x1p7BhSiukTML3iyXGzN2LhRtOY9PUNkiWMOhBQUMT93sUEkIzMC0GTdqKzfuvYM+cDogVwz4HqF20aJE6s6Ny5cro27ev1mtfBk7cgq2HrmHXzPaIHdN265GBaXIUNg1Mn7nyCC0HLfvqC9/L0wuZY+dCNuTXeogcy1X/szj2aD+SJE2s9VB4UfPnw5jSMzdSJY6m9RARhR0GpokcR2gFps9de4zmA5aiZ/MSaFWngNZLQZGfuhXa/qvKDP33Z2OtN+xxv0chIbQD04fP3kXH31ZjUPtyaFQ5l9ZL1vB8642K7WeieJ7UGNu3htZrGwxMk6OwaT0Nr3cf1WWMaCG/EyQisiXPd5/w4aMfPN7az0j3RESO5srt5/ix7384ePqO1kNEtiSnzadOFhdrd19SQVf6uiPn7sH99TvUKptN6yEiWymcM5XaHy1Yf4r7o2Bav+cS3n/wQf2KObUeoojHpoFpbx99QCd6VJ4GT0SOxeOdj7p88vKDuiSikCOnVC/fek5rUXjy/sNHXL71DG+8uC8lCin1ymfHrQcvVbYifd0i3edNlMiuNq3bSkR6Mpjoj1Vy4d7j19h34rbWS5b65OunSjOlTxkPRXOn0nqJIh6bBqZzZ0qK6UPrIWPqhFoPEZFjeOT+AWmSRMPD5wymEIW01TsvYMO+K1qLiIisUa9CDkSN4oYF6/Xlfsi8u49e4cDpO6heMkuolDUgiohql8uu3l+zVh/XeshSWw5cxWN3TzSvmQ9OTk5aL1HEY9PAdIK40VEkVyrE4gc/ETmYu0/eoXz+hLj37J3WQ0RERGR/ZJCx2mWy4dCZu+oMBTJv5srjcHZyUkEfIgoZ0aNGQota+XD26mOW8bKCZEvPWnUcSRLERI1SWbVeoojJpoFpIiJHde6mB8rkTYAHz9/Dz4810oiIiMh+taqTH66uzpiy+JDWQ8aktMCm/VdQrVQWpE0RT+slopDQvEY+xI8TDWPn7VcBV/q21TsuqJJM3ZoWh5ubi9ZLFDE5+YdylXovTy9kjp0L2ZBf6yFyLFf9z+LYo/1IkjSx1hOxvPL8iOev9QOdhhdv3vpgyY4HGNslJyYsv4EMyWMgU8oY2rXhQ6zorkgSL4rWIgpb9XsuUAMlzxvRSOshc9r9qT9N/99+edWlIwjOCPDX77qjQa+FaFw/IUoVi6P1EjmWY6c8MGfRU6wY1wwZUyfQekPWH7P2YPGmM5gxtB4K52J9UmM9Rq/H/lO3sXpCC6RKan/7Fe73KCSs3uiObbte4cD8TqFevmbplrMY+e9u9GlVimcpfMOzl16o130BkieOhcV/NlG1ukNCcL6TEYUFBqaJrBSRA9MyQGDPv88jR9pYWk/44KL7MlCnZFKkShxNBd6X7nqI996+2rXhw9X7XujeID2ypo6p9RCFHQamLcPANJHjCIvAtMdbb9T8aY46FXzR6MZwdeHJsOLouXtoP2wVmlTPg/5tymi99oX7PQoJYRmY9vX1Q5P+i3Hn0SusGt8cyRPH1q4hUz1Hr8fu4zcxf+QPyJUpqdZrewxMk6OwaWBaTpcaMGEL5g5viLxZk2u9ATEwTY4uIgem1+x/pI7o1ioech+gFDKu3PPE+oNP0LdxRq2HKOz0G7tJDdw17KeKWg+Zw8A0keMIi8C0MGQpdm9WHG3qFtR6I66PPp9Qv+dCvPH8gHWTWyJOzKjaNfaF+z0KCWEZmBbX7jxH4/6LkStjUsz6rUGIZQI7su2Hr6PPmI2hcuCMgWlyFDysTkQWO3P9DYpkY50+R5Q5ZQzcfvxWaxGFrT97V2NQmojIBhpUzIkcGRLjnyVHcPvBS6034pq8+LCqL93/f2XsNihNFF5lSpMQXRsXw6nLDzF37QmtlwwePvPAsH92IE3yuOjetITWS0RhE5h2ctLds+6uOXFyxElevxGU+5uPSBQ39I++0/dz0r1uo0VxUaVKiIiIKHxwcXHGyO5VVFmyPmM34oP3J+2aiOfAqTuYt/YkyhVKj+qlmB1IFBZa1s6PwjlT4u//DuHkpQdaL7339lElPN5/9MH4fjURJbKrdk3IkSoGZ1f2YLY02b3QL+Xh5YWMmcsiS9Z6Wg+RY7l+bSNOHFuFJEkSaT0Rg4yw3G/qRYzrklPrIUczccVNlM+XEDnSha8a4UThFUt5EDmOsCrlYbB86zkMn7ELdctnx6+dI94ZKU9feOKHPv+pA/GrJza3+2xp7vcoJIR1KQ+Dl2/eqfejzydfVUfZHgcgDU1Sf7vnnxuw98QtdcZgnXLZtWuISIRJYDpN/rJIU7qB1kPkWO4fWo+zO1chSeKIFZh+6P4eC7bex89NM2k95GiW7HyAJPEio0zehFoPEdkzBqaJHEdYB6bFoElbsWHvZQzuUA4NK+XSesO/d+8/ovnApWrQtZnDGiBvlmTaNfaL+z0KCfYSmBbyGm81eBnixoqKOcMbIWHc6No1Ec/w6TuxfNt5/Fg1Nwa0Lav1EpFBqAemPd96IVmlsojXkiPxk2N6tXQdri1eiSSJIlZg+sJtD+w7447OddNpPeRodpx4Bq/3n1CnpP3/YKPwbfXOi4jk5sJTrb/BEQPTF288Rd+xG9GvTWmUKZhe6/06BmgoPLCHwLSU8WgzZDmu3n2OqYProlDOlNo14ZdxJqIjBeS536OQYE+BabHn+E30HrMRaZPHw6xhDRA7ZhTtmohjxoqjmLL4MKqVzKzKLslZHUQUkLN2aRNydPqv3tWQRrfjIaLw5bWnD+LGjKS1yBFFj+oKz/cRt/Yk2Y+FG05h2dZzWovCk+wZEmPT1DYWB6WJyHakZun4/jWQKF4M9PxzPU5feaRdEz75+fnj9+k7VVC6dd0CESpLnMgRyHeBkd2q4Ob9F2g9ZBmevvDSrokY/v7voApKl8iXBr/9VCnUg9Ieb71x5Nw9uL/iAPhk32yaMW0JL08vZE5dFNmTVdN6iBzL1Sc7cfTCRiRJkljriRi2HnuKDx/9ULtEUq2HHM3Zm29w5MJLdKidVushChv1ey5AjGiRMW8Ez576GkfMmA4OZg5SeGAPGdMG9x6/RouBS1V918kDawd5Jqsjk6D0b9N2qDNw6lXIgV86lneoTETu9ygk2FvGtMG2Q9fQf/xmJI4XA5MH1UGGVPG1a8InOZND9k9rdl1C8bypMa5v6Ax2aCo45dWIwoJNM6Yt5fTRF06v33Hi5JATPkTMjNOPPn5wc+GpR45Mtt8H3XYkIiKi8EsGGpPSipHcXNHxt9U4dOaudk34IANyD5q0RQWla5XJhiEdHCsoTRTRVCqWCZN+roXXXh/QdugKnLz0QLsm/JEsZSlfIkHpmmWyYmL/WmESlCZyJGGTMR07F7Ihv9ZD5Fiu+p/FsUf7kSSpbTOm5UeD1ztvrWV/Tt94j8iRnJAtlf3XBpPMoIg8wEZQbj9+i3UHn6B7A55iT2GLGdOWYcY0keOwp4xpgzsPX6LDb6vVadz9/1cGjSo7fqmLN54f0PuvDTh+8QHqV8iBQe3LwcUlTHKtvgv3exQS7DVj2uDyrWfoMmINXnm8R9/WpdG4Wh7tmvDh1oOX6PHHOtx9/BodGhZGpx+KhOlBM2ZMk6NgYJrISiEVmJZAzY17L7SW/XGNFB3+/r7w9fmg9divvwfWRqn8LFdh6rWXD2489EKBzHG1HqKwwcC0ZRwxMC0/No9fuI+cGZMgacJYWu/XMUBD4YE9BqbFs5de6DpyLa7cfo6GlXKqgUklk9oRyXPoM2YD7j95gx7NS6BV7fwOmynN/R6FBHsPTAs5UNbrrw04e/UxiuZOjWE/VUTi+DG0ax2ThNQWbTyDSYsOwNnZGSO6VUb5whm0a8MOA9PkKGwamN5++DqGTd2BfwbXQa5M5uvQhlRg2qdEDsDVBW+TyuSE2Df94OwDuN19BreLD7WlKLz6lCEJPupec/4uwOuMzoj2xB8xHvkCfv5w239ePi20Jb9fyAWm58PzgydqVgnfNbdC0tNnH7F+y8swC0y3/3WlNkffa2inCkieOLbW+j57j9/SfVnUB/godEkAJEOqwAGazsNXI3rUSPird3Wth8xxxMB0cH4EMUBD4YG9BqbFu/cfMXLmbqzfcxnZ0yfG8G6VkS6F4wxWLz9XZcDcMXP3IbKbK37vWgllCzn22V/c71FIcITAtFD17/87hHnrTiJW9Cjq+2L1Ulkc8kCT1PQfMWOXGmQwS9qEGN2rGtIks48kIAamyVHYNDC9af8VDJiwRdU0C2qQjZAKTH+skE8Fpr1SyOSMuFd99YHpG08QKZzVVaPAfHSvt4/ZU6jA9MusLoj+yA8x7+kD05G2n3SYwLS/yzv06ZJS6yFr3bj1HmOnPAizwHTu+hMQJbIzYkTXvRApWD54+8Hrra9Nf9jLj1n5whgntqvuY4I1KEOD90c/eHr5fvX7AH0bA9NEjsOeA9MGK7efx5+z9+q+Hvuja5NiaFo9r92XwXj4zANDJ29TpTskqP5X72o2O3Adlrjfo5DgKIFpgxO697UkNkpwt3DOlOjdqhQyp0moXWvfpATnog2nMWv1cfj5AW3qFkC7BoXg5mo/vwMZmCZHwcA0hQsMTJOwh8B0yaKx0aRBIq2HrLXv0GssXvk8RALTg/ukQvKk9v8lPTwwBGgYmP4+DEwTOQ5HCEyL2w9e4tepO3DmyiOV3SeBoEI57O+753tvH8xbexKzVx+Hr+77fPv6hdC6bgGHLUNiivs9CgmOFpgWPj6+mKt7r0uA94PufV+9VFZVmzmFnR6A+uD9Cat3XsC/K4/hxet3KJ43Nfq1KWM3WdLGGJgmR+F4I0UQERERERGR1dKmiIc5vzfE4PblVDZyu6Er0fG3Vbh086m2RNj66PMJSzafRY3OczB16RHkzJgUS/9qig6NioSboDQRfeHm5qIyjVdPaK6Cpxv3XUatLnMxYMJmNViivfDw+qAOllXtNBt/zNqDuLGiYkL/mvhncF27DEoTORIGpomIiIiIiCIIZ2cnNKycC+snt0KLWvlw5upjNO63GB1/W41DZ+6qms6hzeOtN2avOo4qHWdj1MzdiBs7GiYNqIVZvzVAhlQcf4UovJMBk0d2r4KV45ujSonM2HzgKn7s+x9aDFyKFdvPw1O3jwhtsi88dv4+hk7ZjortZmLc/P1IECca/uhRFcvHNnP4WvdE9oKBaSIiIgpVEvg4duG+1iIiorAgGX+9W5bChsmt8GOV3Oq0706/r0b1znMwbdkRVfYjJEm5DhmguPdfG1D+fzMwcdFBxI4RRQWnlo1pitIF0mlLElFEkT5lfLUP2Dy1Df5XryAePn2D36ftRJnW09Xg2VJG49FzD21p25P90sHTd1QZwApt/0W7X1diw97LKJYnNaYPrYelun1T1ZKZ1QE+IrINmwamc2RIgiEdyyNlEtbJIiIiIvPGztuHKYsPay0iIgpLCeJGx4B2ZbH937YqUB0jWmRVRqNO9/mo3W0exs/fj93HbqpT2b/HJ18/3HrwEos3n0HfsRtRrs0MdPtjHfaeuI0KRTJg2i91sWpCc1QvlYVBH6IITjKouzUtji3T/4cpg+qgcvFMOH/9CX79ZweqdpyNGj/NwcCJW9RYMjKIYnAyqqW+tdR733boGkbP3oNWg5ehRIup6Dx8jRosNnWyuBio2zfKYxjfvyaK5ErFfRNRCLDp4IeW4OCHFBI4+CEJDn7o+Dj4YfjwrcEP6/dcoAIf80Y00nrIHA5+SOQ4HGXwQ0tJbdddR2+oM1wu3PhSf1oGJJPSGulSxEPcWNGQKF50xIoRWdV/jhbFDb6+fnj7wQfv3vvgjdd7NTjYE3dPdXu3H77C2/cf1e3E1H0GSAZiiXxp1OnwjjJQm61wv0chwREHP7SGzydf3feMR6q8xvEL99W+SQ54GchzTpIgptq/xIgeCZF1+yXpk1DyO91+6aPu/73eeqvSQbJvev7KK0CYIFnCWCiUM6WaiuZOhXixo2nXOCYOfkiOgqU8iIiIiIiI6LOs6RLhp8bFsGh0Y+ye3R7j+tZAk+p5VGD6wvUnmL36hDr7pf/4zej0+xr875cVqk51swFL0WHYKvT8c73KbPz7v0NYu/uSOj2+dIG06NG8BP7T3eaeuR3wZ+9qqFU2W4QLShNR8Li5uqigcZcmxTBv5A84triLOhg4oltldGhYGGULpkecGFHw4vVb3X7qKY6cu4fdZ15j7xVnHDj7QAW0Hzx9AxcXZ+TOnBTNa+bDz23LqFr2++d3wuZpbTDsp4rqrA1HD0oLqWQgFQ2ksgGRPWNgmoiIiIiIiMySAE35IhnQv00ZVWN156z2OPpfF1V2Q858mTywNv7qXe3zNLZPdczQLbf4z8aqPMjxJV11y7bAqB5V0bpOAWTPkBiuLvwZSkTfRwLMcoZKjdJZ0fnHovi9ayXM/K0B1k1upQ6oSeZ4s5oF4OwSGavGt1DtTVPbYNEfP2KMbj8lpYsaV82DAtlTIFY4PEAmZZoaVMyJVEl5VgbZt3DzjcDJ31+bdPN+0tZPsF0FB7Jn2vYOuP31rwkiIiJHI9mFfn5+apJ5IiJ7EiWyqxqkLE+WZCiZPy0qFcv0eapQNCMK50qFbOkTI1G8GNp/EBEREQVm08D0nuM3Ua3TbFw0qkMWWpw/+hlN0vZXk5OvtgCFaxKMNmxz/fb/8nogIiKyF35+/rjz6BW2H76O6cuOqPrnPUevR+N+/6nvUDLojtSrL9JkCq7cuKMmmZe+Es2nqmVkWfkf+d9putuQQXvuPHyparsSERERERE5CpsGpqWg/MNnHvjo80nrISIiIgpo5Xj96d8Rwe0HL7F+zyX8+s92FVAu2nQKanedhz5jNuKfpUewYvt5XLn9HC7OzsiQKoEabOeHKrnU6e4NSydWk8xLX9E8qdQycgq8/I+MGD9Vdxt9x25C7W7zUbTZFHUfQ6dsw+qdF3FLd9+hLU3yeOpU/rxZkmk9RERERERE5rG4FxEREZGNfPD+hB2Hr6tAdOUOs1Cn+3wM/nsbNu67okZ+r1IiE/q3KY2pQ+pgw5RWOPrfT2qwnYV//IhJA2rhr97VMbBdOTVAmPEkfXKdLLNg1I/qf47o/nfjP63VbcngPYYR1zftv6ruv67uviu2m6nm5THJYwtpcWNFVafyJ00YS+shIiIiotAmlQzkTDupbEBkzxiYJiIiIvoOEvDdevAa+o7diDJtpqP3mI1Yu/sSEsWLrgbjmfN7QzXgzpK/mmDYT5XQpHpeFMuTRo2WHsnNVbsV68n/pkgcW92WDN7za+eKWPxnExxa0BlzRzRCt6bF1fXrdI9FHlPpVtNUCRB5rKERpCYiIiKisCGVDKSigVQ2ILJnDEwTERERBcP1u+4Y+e8uVGz/L/qN24R9J26jRN40GN2rKvbM7qAymzs0LIx82ZIjcqTgB6Ct5ebmokpp/K9eQcwZ3hB753bEn72qoVSBtDh09q56rOXbzsBvU3fg8q1n2n8RERERUXjj7OykzRHZJwamiYiIKFSdu/Y4TAZKtgV/f38cPH0HHYatQsPeC7Fs6zlkT58EI7tXwe7Z7TGmT3VUKZ4ZsWNG0f4j7MWMHhmVi2dSpUB2z2qvAuf5sibHqp0X8GPf//C/X1Zg7/FbamBGIiIiInJ877Wz46JFiaQuieyVTQPTmdMkRPdmxZEsEesKEhERkXnDpu7An3P2ai3HIAFpqdH3Q5//0Hn4GhVcb1krPzb+0wbTfqmL6qWyIFpU+//iL49RAud/D6yNzVPboF39Qrhy+xm6/bEO9XrMx7ZD19RzDa4Xr9+qutazVx/XeoiIiIgotL17/1FdxrWjZAkic2wamE6fMj7a1C2IxPFjaj1EREREju3QmTto2n8Juv+xXgVepXbzjpnt0LNFSSR34IPxMkBhlybFsOPfdujdsqSqQdh37CY06r1IZVAHR6wYUfDK4z3uP3mj9RARERFRaLv3+LW6jBcnurokslcs5UFERERkxq0HL9Hxt9Xo9Psa9eW+a5NiKkNaajdHd4DsaEtFjeKGFrXyY8OUVipA/eyll8qgbvfrSly781xbyjJuri5InjiW1f9HRERERLZz++ErRInsiiTxY2g9RPaJgWkiIiIiIzKK+eT/DqnM4VOXH6Bl7fzYNK0N2tYvpL7gh1eR3FxVgHrTVH3w/ezVR6oG9bj5+z+fDmoJKe125c5zeH/U1zYkIiIiotB1+spDZNF9J3NxYdjva96+fYuJEyeiYsWKSJs2LRImTIisWbOidevWOHjwoLYUhSS+QomIiIg0Z68+RoOeC/HvymMolDMFVo5vjl4tSiJW9MjaEuGfZINLuZK1k1qiVIF0mLf2JOr3WogTFx9oS3xdkVyp8OmTn8MOcElERETkyB4+faPKquXJkkzrIXP279+P9OnTo0ePHtixYwfu3LkDd3d3XLlyBXPnzkWJEiXQpk0b+Pj4aP8RfL6+vjh8+DBmzZql9YS+Z8+eYcGCBbhw4YLWYx9sGpg+dv4+2v+6EjfuuWs9RERERPbPx8cXExYcQKvBy/DS4z1GdKuMfwbXRcokcbQlIh6pQT2hf0381buayphuO3QF/py995uZ0EVzp1KXO47cUJdEREREFHp2HtV/BytTKL26pMBOnDiBChUq4OnTp3Bzc0PXrl2xefNmHDhwQAWP8+bNq5abM2eOCk5/r759+6JYsWL4+++/tZ7Q5eHhgcSJE6NFixa4efOm1msfbBqYdn/9FkfP34fnW2+th4iIiCigeSMa4Z/BdbRW2Hv4zAOthyzHnDUnUChHSpUlXaN0Vu1aqlQsE1ZNaI5yhTNg0cbTaDFwKe48fKldG5gEtPNlTY7NB67ik6+f1ktEREREoWH9nstIHD8GcmdKqvWQMT8/PzRt2hQfP35EtGjRsHfvXkyaNAlVqlRB8eLFVSD6+PHjqF+/vlp+4cKF2LBhg5oPLrnPsOTv76/N2R8n3YOz2aPbtP8KBkzYgrnDGyKv7geJOV6eXsgcOxeyIb/WYxu+JXMDri7wSuEKr+SuiHvtE5x9AJfbT+F24a62FIVXnzIlx6fMyeHvArzM4orojz8h5r1Pune/P1z2nZF3obbk97vqfxbHHu1HkqSJtR7bqN9zvu7xv0OfLim1HrLWjVvvMXbKA/w9sDZK5U+r9Yae3PUnoGTR2GjSIJHWQ9bad+g1Fq98jhXjmiFj6gRa7/dZtvUcRszYhcF9UiF50ohTjiEsHTvlgTmLnn71+4C9OHbhPvqN3QSvdx/RvVlxNK2eF87OTtq1ZEy+Msr7aczcfarW9h89qqJ43jTatQGt230JQyZvw6geVVCtZBat17zrd93RoNdCVCoXF/lycYAeckyXrr7Dus0vbPr5ReEX93sUEvYceI0jJzxxYH4nxIxAJci+ZuaGO1i66yEWDSmARHEjxjo5f+0xmg1Yip8aF0X7BoW1XjK2Zs0a1K1bV82PHz9elfIw582bN0idOrW6LFOmDHbv3q36T548qQLVrq6uGDRokOozOHr0KLZs2YJIkSJhwIABuHr1KpYsWaKyseU6yVru1KmTWrZRo0aqnrWU+Ni2bZsKkktm9alTp/Dvv//i7t27SJIkCZo1a4Zy5cqp/xEvXrzA5MmT1Xzbtm2RPPmX31uSAT5t2jQ13759eyRNmhTTp0/H7du3MXr0aNX/ww8/qPtNlCjR58cSlhiYpnCBgWkSDEw7PgamwwdHCUz/t/E0/pq7DwniRMefvashL+vwWeTyrWfo9dcGPH7ugc4/mv/R88H7E6p3no24saNh+dimcHIKOthvCNAQhQcMTJMluN+jkMTA9BcRMTB97/FrzFhxFL1blkLcWFG1XjImAVsJ/EaOHFkFeaNHj65dE5hkT0s5Dyn3IQHqqFGjqkBvx44d1f9/+PBBW1JPBlKUQLfcppeXF9auXYs6dcyfKbpixQqVlT127Fj06dMH8ePHx4QJE9CqVStVk9qYBJX79eun5iXYnSWLPvHjyJEjKFz4y3fxs2fPIk+ePGpeypXkz59ftaXfVPbs2e2i3jQD0xQuMDBNgoFpx8fAdPhg74FpX18/FZBevOkMcmdOijF9qiNRPGasWePlm3foO3aTGhCxTrlsGNKxgu5rWMAKcUs2n8WombvxW5dKqF02m9Yb2BvPD+o75Hvv7x9YhigsRYnkiuqlsiJ2zChaD5F53O9RSIkaxQ0NKuSEm5vuhzFFyMA0fVuRIkVU9nLBggVx7Ngxrde8f/75Bz/99JOav3z5sgoIWxOYvn//Pnbt2oVFixZh+/btSJkyJX7//Xe1rGRhS0a2ITAtWdYS+Jas6YoVK6r/lXnJdnZ2dsbFixfV/VsbmF6/fj0ePHiAzp07q36ppy39ceLEQe3atVVfWGJgmsIFBqZJMDDt+BiYDh++FZi+ef8FXJydkCZ5PK0n9Ph88sXgv7diy4FrKF8kA0Z1r4LIkVy1a8kaMmDkr1N3YMPeyyhTMJ0aJDGS25d1KYMkNu73H16+eY81k1ogTkxm7RAREVHoYWCazMmUKROuX7+OatWqYePGjVqveVKGo3HjxmpegtmFChWyKjBtIH1yXe7cuXHmzBmtV88QmBZTpkz5HEAW165dU2U3pEb1wIEDMWLECKsD00KyvSUQLaSUiT0EpA1sOvihjFxfv0IOxI8TdBo8ERERRWz9xm3C0H92aK3QI4HUXn9uUEHpH6vkxpje1RmU/g6SjTW8ayW0rlsAe47fQpcRa/HR55N2LdS6/fl/ZfH2/UecvfJY6yUiIiIiCjuSmSzev3+vLr/GeJlYsWJpcyGndevW2pyeBNHz5s2r5s2V4wgPbBqYzpkxCX7pVAGpkuqj8ERERET2QILS3Uevw76Tt9GufiEMaFeWgxzagNSO7tGshKo1ffT8/UDB6UI5U2LT1DYoXTCd1kNEREREtrTt0DUM+XubOluNvi1FihTqUkpjfMuVK1fUpZTSMPxfSEmYMKEq5WFKBkwUxhnY4YlNA9NERERE9uaTrx8G/b0VB0/fRava+dGlSTHtGrKVDg0Lo0fzEio43WP0elUyxSBhXJ5JR0RERBQSzlx5pILS564/DvD9i4JWunRpdfns2TPs2bNHzZsjlY+l7IUoUKAAYsQIOCaN6QCFwscn+GMHSLkOc54+faouY8eOrS6NffoU8GDE99x/WGFgmoiIiMIt+UL529Qd2Hrwmio50bNFSe0asrXWdQqodSwHAH6ZvE2te3Mke52IiIiIvs+lm0/x04g1atDLyQNrI0Y01tG2RMuWLeHm5qbmu3fvjrdv36p5U1ITWmo8i06dOqlLYchqlqDw8+fP1byB1H/+mqCCz+LFixeBbk+C5xcuXFDzuXLlUpfGWdWPHj3S5vQMj/drvvYYwgID00RERBRuLVh/Cmt3X0KdctlUyQkKWbKOG1bKiU37r2Lq0iNa7xdP3D1Rs8tcLN0SPmvkEREREYWGnUdvoNXgZXBzdcGMofXUmG9kmWTJkuGXX35R8+fOnVMZ1IcPH1Zt8fjxY/Tr1w89e/ZU7WLFiqFZs2ZqXmTOnFmbA6ZOnarN6W9r4cKFWiugKFGiqMu7d+9+tbZ1165dP2c9SwBZHoe3t7dqGwZhTJ48uRpcUcyYMeNz1vTLly8xcuRINW9KBmo0MJQnsRc2DUyfvvwQfcZsxO0HL7We0OPv7PRlcpG2fgLLR0YMuu1s2Ob67f/l9UBERBHTgVN3MH7BARTMkQKD25fXeimkDWhbFkVzp8b05UdVzUNjbq7OiB83Okb+uxtDp2zDe2/HO92QiIiIKKxIibqJCw+oAb0TxYuBuSMaIVOahNq1ZKmBAweiXbt2av7kyZMq+CzB3njx4qnA9V9//aWuk4EHV61aBVfXLwOmFypUSA1KKIYOHYqiRYuiSpUqKFy4MNKnT6/6TeXJk0ddenh4IHfu3KhevTo2bNig+gwkE3rv3r3qtuvVq4esWbNi3rx56rpu3bohW7Zsat7FxQU//vijmt+xY4darlatWsiSJYvqM0cC44bHLEH5atWqoWHDhqod1mwamH7s7onth6/jtee3R7a0NT83Z21y0k3Slkt9kJrCPwlIG7b5l+2vf00QEZF9+WdwHfzVu5rWChl3Hr1C//GbkFj3hf2v3tXh5sYvBKHFxcVZbd/UyeKqmofX7nw5JTF+nOiYOaw+GlTMiTW7LqFhr4U4dv6+di0RERERBeXyrWdoPmAJZq8+gVL502LBqB+RRvd9i6wngxlKtvHKlSuRP39+1ffu3Tu8evVKzadKlUplHx88ePDz4IMGMvi3/F/GjBlV+8iRI9i1axd69OiBtm3bqj5TjRo1+hxMvn79OjZt2hSoRnW0aNGwefNmRIoUCatXr1ZlOSRYPmjQIIwfP15bSm/s2LGoXLmymr9x4wbWr1+vAuNTpkxRfeZMmzYNiRIlUhnWcj/yOOwBo3ZEREQUqhLHj6kyPELKR59P6D9uk+5Llx/+HlgbcWMFHt2aQlbM6JExrm8NuLo6o59uW7x7/1G7Boga2Q1DOpbHqB5V8O6DD9r9uhLd/1iH89cea0sQERERkcGNey8waNJWNO73H+48fIXB7cth4s+1+B3XBiQz+cSJE6q286lTp1SQWcptyDRgwIAA9ZyN5ciRQ9WTvnjxovofGaBw1KhRKjgt46x4eXlpS+pJIHzx4sV48uQJjh8/jjt37qB27dratV9IZrWU2pDbPn/+PNzd3TF8+HD1/8ZkIMQtW7aox3no0CHcu3dPBaelLIncv0yGgLtB2bJlcf/+fVy6dAmnT58OUL4kLDEwTUREROHK5MWHceX2cxX8zJg6gdZLoS1Dqvj4vUtl3Nb9gBo+Y5fW+0W1klmwZmILNK6WB4fO3EWzAUvR7OclWLH9PDy8PmhLEREREUVcMi5H/Z4LsHHfZdQonRXrJrdCw8q54MyypTaVIEECVbZDso4lW9oSkjkt5TXkf+LGtSxzXbKvCxQogNSpU2s9gcntStkNCX4balMHRR6rlBJJmTKl1vN1ko0tpT8kAB5U0D20OfkHNWR6MGzafwUDJmzB3OENkTdrcq03IC9PL2SOnQvZEDBy/70+VsgHuLrAK4VMzoh71RfOPoDbjSeIpPuxQ+Gbj+719jF7ClW65WVWF0R/5IeY93wBP39E2n4SsN3LHFf9z+LYo/1IkjTg6Rzfq37P+brH/w59uli2Q6HAbtx6j7FTHqgMSTm1KbTlrj8BJYvGRpMGibQesta+Q6+xeOVzrBjXzGYBxWVbz2HEjF0Y3CcVkiflSNWh4dgpD8xZ9PSr3wdCyomLD9B26AqUK5xBZexS2Pt92k4VbJ74c02UKWi+7t7zV2+xaONprN5xAa89P6gfW5nTJMTQThWQNd2XfarUVZQBFK0RPWqkQBlF7rr7+/BRP1CMpZIljBXgR6DUx37x+p3WskysGFEQK3rA/dDTF57w+WT56OguuseQVPdYjHm981brzRrx40RT2evGHjx9o81ZJkokVySIqx98x+CVx3u8NcqQt4SU3DEut+Pj44unLwNmGn2LrbZzisSxtTm94GznODGjIEa0gNv58XMP+Oq+l1pK6rHL2SXGPN56W33QxnQ7++kewyPdY7GGrbZzkgQxdT/XvuRFBWc7x9St19i69Wvsme42Pupuy1Lygz95ooDvITmr46XuOVnD3HZ++MxDZalZylbbOaFu+0TWbSeD4GznaFHcEC92NK2l9/LNO3VmizVM95Xeuveg7OOtYW47W7uvtNV2jqfbr0TT7V+MWbudI+n2b6Znir3R7bM9dftua5juK4PzmWhuO9viMzE42zk0PhOX73mCTUfdMaZTJsSPFXA7GrPFZ6K57WzpvtJXty1l/cn2lAP3xuv23mPd76PNZ9CkWh4OcBhOSVmOPn36IH78+CpDOqJhYJrCBQamSTAw7fgYmA4fvhWYlh8M8oNRAkm2JD84a3ebp4I/qye0CPSjlsKGbJcGvRbqtvtHrJ7YXNWZDoqUYTl67j4OnL6Dk5ceYny/GgF+hElwr0rH2VrLMg0r5cTgDgEHv+wyYg32n7qjtSxzYH4nVaLEYN/J2+g6cq3Wskz3psXRpl5BraUnWVByiq6lJLi3dfr/tJaeYT9nDXOflfI5Zo2S+dJg8qA6Wktv+PSdWL7tvNayjOk+//pdd/WasYattvPZlT20Ob3gbOdB7cuhUeVcWkuvcodZVgWQ5IyDleObay292auOY+Kig1rLMqbb2fOtN0q0mKq1LGOr7bxlWpsAAaTgbOfWdQugR7MSWkuv5aBlOHPlkdb6thjRIuHggs5aS8/wO9Ya5rZz8eb/qH2dpWy1nU0/b4OznauWyIw/elbVWno/j9+MzQeuai3LmO4rT19+iFaDl2sty5jbztbuK221naXslAQKjVm7nfNkSYZ5IxppLb0JCw9gzuoTWssypvvK4HwmmtvOtvhMDM52Do3PxOhxUiB67KRwf3AWfr5BbzNbfCaa287B2Veu/bsl60ZHMAxM2zAwLTujRRvP4KcfiyJtinhab0AMTFNIYGCaBAPTjo+B6fDhW4Fp+dEhWWamX96/18h/d2HplnOY9HMtlC6YTusle3D8gj6TvWaZrBjeVT9QS3DIQY2Zq47rPte1DgvkypQU5QoHzNReu/sSbj94qbUs0+mHIgEyEuX/5XasUTxvGhTMkUJr6S3ccFplq1lKsstMf8ifu/YYu47e1FqWqV02W6Dv6xMWHNDmLCP/L7djTB6HPB5rNKuRN0BGrqwPWS/WsNV27tE8YDAsONtZHoc8HmMSbJRMWEvJ+pD1YkzeRwdPWxc8Mt3OktU4dekRrWUZW21ned0aZ0cGZzvL+0feR8aW6z7nJYPVUpLV2Fn3e9WYlH/aYmUA1tx2/mfJYauyt221neW0fuPs4OBs5yxpE6JKicxaS0/Wiawba5juK2XbyDayhrntbO2+0lbbWdaJrBtj1m5n2TayjYzJNpZtbQ3TfaXsU2TfYg1z29kWn4nB2c6h8Zl45SFw85kTymX3x9fyIWzxmWhuO1uyr5QAvyRrRI/qhsQJYiK3br9ivG4p/Js7dy7GjBmDOHHi4MAB61534YFNA9OWYGCaQgID0yQYmHZ8DEyHD2ERmL5xzx0Ney9C6QLpMKF/Ta2X7Ikh8062u2QVEREREYWkmRvuYOmuh1g0pAASxeXvACJ7xMA0hQsMTJNgYNrxMTAdPoRFYLrjb6tw6vJDrJ7YMkDWGNkPqZ1Yu+s8pEoaB4v++BEuRrVmHYWhbqtpPdcP3p/w5+w9WssyOTMlQd3yObSW3uqdF3D+2hOtZZnuzUoEKFsjtSjnrrHu9PDi+dKgfOEMWktPbkNuy1KRI7uif5syWkvv/PUnqm64NepWyIGcGZNoLb3RunXrrVvHlpLXWKs6BbSW3s6jN3DQylPV5TbktgykJuzEhdZlMtlqO/fTrdsounVsEJztXL5IhkBZqNOXHcHTF5bXeY6le62ZlliQ2v6b9l3RWpYxt51/m7pDmwtIaq3KZ4Y8f3mtJ4wTHcl0+3mZ4sS0j4GbiMg+MTBNZP/CJjCdKD+yxSil9diGb3bdlyzdD5wP8XRTXCdEf+IHJ933V9enb+ByL4xrtOhWsZM2sIG/j49Utlfz3+Lk5qb7lh8J/iZF+EOCk7fucXl/hP8n3Uqz5CXh7AynSPpzYfyj6nbwRsX5w4Jvsrj4lDye7nHoXmPJnBH5tT+ivvBTgWmXi7ofIbYMTHsdwbFbOxiYtkMMTDs+BqbDh9AOTO89fgvd/linTivt2KiI1kv2aMH6Uxgzdx9Gdq+C6qUC1uy0RzKw1NXbz3H47F0VfLt48yk8vLwxf+QPyJ35yyn8YVnP1bRur63quYZV3V57qudqug+zVT3XsKrbK/VcZVtLIFoOFMnp8qNm7rYqMG2rGufmtrO19VzzZk2m20a2LQlFROELA9NE9i/0A9NeXsictiSypw04gEa4pvtR4/xAX5vLz8MD/t4W1JdzcoJLzJjwjxcb/gkCjg4eEpxeesDJ/TV8ddsHft8eBVeC5s5x9BkkfskTqGz1iOLKvc04dmYdkiSxbfCRgenvx8C042NgOnwIzcC0ZLD+0GeRCrJsmNJK3S7ZL59Pvqj501y4ublg9cQWuq8P9pk1LQMvrdh+XtUilRH1RZyYUVTAUwYra1AxZ4BgsHydluC0Ndx0352iRgmYfPD+g49aR9aQ17zx6P0STJcBJ60Ryc01QDaueKu7DV/dbVlM993VuH6w8PHxxXtJfrBC1Mhu6vVhTNVmtuIni2Tjmw6uKlntMrimNaLpbsP4NSr7G6lzbg1bbWcJSsugsQaWbmcZcPHs1cc4d/0Jrt9xx80HLyyujZsgTnRkSZcQ2dMlRvaMiZEjfWJEiuQaIEAuZL3K+rWG2e3s9UGbC0he31Iv+JXHB7z2fI+Xb97hwdM3iBszKioUzagtpfffxtO6deun6tnHix1N6yWiiIqBaSL7Z9PAtOF0PdPT3ox5vvVCypJlkKRuQ60n/HP+6I8ke/RfHJ0v34PTyzdq/qtcXOCULT08skTC6xxfTs8MKbEueyPORW/4X70t3y613qD5x4oOv5z6gaWelYiET9HCNmM6ND3btB6X1q5CkkQMTNsbBqYdHwPT4UNoBqYlcNh//Gb0blkKLWrl03rJnknA9/dpO/Fr5wqBShyEJQk67j1xC4s2nMbxi/oBqXJkTILKxTKicK5UyJgqQYAAMJG9uvXgJbYfuqaysm8/fKX6XF2dkT5FfPUbLXUy3ZQ0LuLEiorYMaLATXedkKx0Cfw+cffC3UevcPfxK3VbL16/U9dHi+KmSoFULJpR1fM3PZhhD5oPWIJz156oAwKSrd68Zl5kShNw4DoiijgYmCayfzYNTBtO1wvqh6iQwHSySmURr2XEOe3KxRtItVGfceJy5iacn+m/IH6Vq+6LXr6seJnbFe75Q76UR7yzn5DgpA9w9qoq6fEt/nFj4lNB/Wi+Dyo7w+fL4MDh3qul63Bt8UoGpu0QA9OOj4Hp8OFbgWkZndzF2RnZM3x/SSTJln755j3WTW6pMvDI/kkWbu1u81Qm6qoJLcI82CtfhXcdu4mJCw+qYJxkWcro/PUr5kDKJOYTLYjsjWRQ7zp6A4s3nVX19kX6lPFRpmA6FMqZUtVzNs0it9Qd3ftCyrocOHUHB0/fwbsPPqp0S/2KOdXZA0ElJIUFOcB0+spDrNx+AdsOXVeZ6WULpUfXJsXU+iCiiIWBaSL7Z5fnT0Z5oZvcgahP/RDtka/DT1Ef+8LZ84OanCw9bU/3I8np3Qe4vfT5fDuyTmRy0c5yc/JzUpPbG/8A92c6RXqtuy1tWSGBcsNtRXukX8eRXvio+7P0NEkn3Zdfw3OK+sT8/cr2i/xK9/g8nODq5aR7HHJ/5pe1hynqE7/P6wWhWuCGiChiyZUpqU2C0sfO38eV28/xY9XcDEo7ECmz0LJWfpXJue/kLa037Egga9bK43j7zht9W5dWNZt7NC/BoDQ5BHn9rtt9CTW7zEXfsZtw8/4LtKydH8vGNsWqCc3RrWlxFMmVKthBaZEmWVzUKZcdY/pUx86Z7TCiW2VkTZcI89edVAeZpGa2DApqD+RAV/5sKVQd+01TW6NR5VzYf/I2GvZaiLHz9lld5oaIiIhCll1mTKfc7A9nH8D1rY9usq5emV2SIO731ph2Aj4k1I86/SK3E7xS6754vdcfV4h/9iPiXQj6S9abjG54Vkh/dNAvqgSigYQn9Js9svsHOOm+0IZEjelP0V3xLkkUfIzpBD83wM3TF3Gv6E8FtEeforniUww3+OtW6/1qTurSHGZM2y9mTDs+ZkyHD9/KmLaVn0aswfEL97F1elvEjaX/jCTHIDV2K7T7F1nTJsLM3xpovWFHgmpxYkRRNYWJHMUx3f5vzJx9uHrnOVIk1n3/qJYHDSvnVDXDQ4PUYp+16pgqGSIHnBpXzYP2DQsHqjUe1iRYL4OuHjpzFymTxMbvXSqF6GcTEdkPZkwT2T+7zJgmIiIi+prHzz1w+MxdVC2RhUFpBySDwdUsk03Vcr73+LXWGzokY9I0LyNZwlgMSpPDkEECh07ZjnZDV6qDKj//rwzWTGqBpjXyhlpQWshAoKN6VNXdd0uVlb1g/SnU6jIX2w9f15awD1LCY+qQuhjfr6YqQ9LmlxWYvuxIoP0AERGRrclg0tfvumPv8VvYsPeyGmtl3tqTWLrlLFbtuKA+M09feYRnL70i7OeSXWZMZ5r+Cs7egN9L3Q+VV0YDBTo760ej1k3OqXW3L4P0eb5VV/m+8bC4DEWYMJTwkGxkSx+n7vmqSUYDl+ecLpXqflwuGt7kiAxXT32WcrztDxFn7xM1b45HwQRwr51azX+K6YuYNz4i+Sb9evO780CKPeofl69usiBbWpHtII9NaI8vkLgx4ZsxJT4kjATfyM5wcfdC9H3XtCvtUJyYcI4fD/661XqtU1xmTDsgZkw7PmZMhw+hkTH974pjmLz4EBaN/hE5MiTResmR3H7wEnW6z0frugXQo1kJrTdkyX12GbkWlYplRPdQuk8iW5ISRoMmbcHzV2/V4KE9W5S0mwzlI+fu4bepO/DwmQeql8qCIR3L212ZpZdv3qnfq/JY29YviK5NimvXEFF4xIxpCk1PX3ji6Ln7uHz7GS7dfKa+d77x0mrxWkAG7k2eOJY6o1BKZuXNmgzZ0ydWZyWFZzZ9dgniREfhnCkR8zu/HDn5+OkmXzh9/KQfiE+mjz7wc/aDT0xXfNJNUZN9gGsSH/gkclITfHXL+ugmCVYb/seeJgn+ymRN8FyCxJ++rAO1TmTy025DLmSSUhyfdP1BTHL952WFLK/d1ufHJ+vO0qC0kOdheE5BrXPd9nP+pLsv3SJOupuWutRml7OTSV5vn9cLERGFmPo9F6DloGVaK3jkYLhk6zEo7bjSpoiHXJmSYMv+q6GSIXLi4gO0GLRUBaZyZOTrhhyLvEdmrDiKDr+twidff/wzuC6GdqpgV2UzJGtaBjSVetQb911Bk36LVRkNeyKDm/4zuI4aDLFp9bxaLxERUfBcuvkUf/93UI25UKn9LAyZvA1LNp/Fa8/3avDh9g0K4bculTDx55oqoUYSsDb+0xpr/26JxX82xr+/1sfonlXRq0VJ3ednNsSMFlkNNjxu/n40H7AUpVpNU2M5bNZ9X37v7aPda/hi08C0rPQZupWaIZVtstyMObm44H22hHjWMqduyo7cY24i0R+v8HBoIjUhbgw4R4+uah9HFP5O+skpahQ4x4kd9BQ16udliYiIHJ0MeHjrwUtULp5J6yFHVa1UFjx298SZK4+0npBx/MIDlSntpPubOawByhfOoF1DZP98Pvni5wmbMWXxYeTNkkwNbFgsj/5sSHsTJbIrhv1UUQ0+KO9t+VEtB4XsiWSeta1fSAWpiYiIrOXx1hvz151CvR4L0LjfYsxceRyR3VzRqnZ+TPulLvbO6YC1k1qqQYN/alwMtctmQ5mC6VVCjZwVLONCyMDC2dInVnHUKiUyq4GLB3coj4V//Ii9czuoz/qf25ZBgewpsPv4TfU9oGLbmRg4cQvOXw+6YoIjCt/54ERERBTu7Dp6Q12W1X3BI8cmAWKpBrbjiH6bhgTJZOkxeh2iRXHDvBGNkD1DYu0aIvsnNdE7D1+DLQeu4cequTF9aD0kjBtdu9Z+SSmPBSN/QOyYUVSWt5zlQkRE5MieuHti+PSdqNjuX4ydtw++fn7o0rgY1k9upQLJUl6raO7UiBUjivYfwSMHUDOnSagGFZ74cy3sndMRY/tUR8EcKbD14DU0+3kJmvZfrOpWh4e61I4RmJZaxulTwTdVXLxP6If38f1x8p+ceDg3LeJujKymZzXT4kmj9PDKHk/7p/DPL6qfml4VjoW7/0sZ5PSidJzPyxIRETm6vSduIVmiWDarQ05hJ1G8GMiZMQn2nbyt9djWg6dvVFBPavbN+b2hKh9C5CgkKN3x99WqrrRkTQ1oW1a9lh2F7KMXjvoBGVLGx6BJW+06OC0DUPX6awN8pfQgERGRkTeeHzBm7l7U7DIXy7edV2cvSVmoNRNboF2DQkiVNI62ZMiQs5EqFM2I8f1rqjIgMj7L3cev0e2PdSpIbW9nJlnLcTKmo0TWTS7wj+qvpjfuMfD+ZRS4ejqp6VO8qPBJEBV+USNQKQ9n3brQTb5RnfAxtkuQ06dozp+XJSIicmRSH1hKeZQpmE7rIUcndWnv6b5cSxDZlrw/fkLP0evh+c5bZZukThZXu4bI/kkdSSk/c+7aYwxsV1ZlTTmi+HGiY+qQusiUOoEKTm8/fF27xr7IZ8vOIzcwYeEBrYeIiCI6Pz9/LN50BtU7z8GC9adRJHcqLB/bFNN+qYfiedPASU77C2VJEsRUg4Zvn9EW3ZoWx/0nb/C/X1agz5iNavBFR2TTwLQMbjF79XHbrwx/f7g8fQk3/9eInsID0VJ64G0bT3jJ1NJDTYnOf0CSY96I8eiT9k/hn6uXi5rib3yMdINOBTklXHH/87JERESOzJARUCRnKnVJjq9wLv22lDrQtiSnWF67647B7csjd+akWi+R/ZOs3X7jNuHkpYcY2K4cfqiSW7vGMUktZ6ntnjZ5PFUj89iF+9o19uN/9QqicrFMqmaovQbPiYgo9Dx8+gbtfl2JP2btQZKEMTHrtwb4e0BtZEqTUFsibEWN4qY+uzb80xpNqufBjiPXUb/HQvyfvfOAj6L44vjv7tJ7QgohhBJ6l96lShGliCBFpSiIBcU/ijRBpahgQ0FAEKnSBRGkF+m99xICAUJ671f++2b3kkAqcEkuyft+GPZ2ZnZ3dmdzt/ubN++t3X5eqVF0MKkwfS0gFLOWH8KDkBglh2EYhmEY5lFGD3oe7/dvrqw9GaevPIBGrULDWj5KDlPUqVu1NGysLHDChGLV4bN3sHrbeRHdvFeHWkouwxQN5q4+iv0nb4upun0711VyizaO9taY+3lPuDnZYcz3/4pZEuYEWb1NereDmFkxfcFehEfFKyUMwzBMSWPL/qvoM3oFzl0LEu8sK2f0F0EIzREn6ff1s6FtseKb/kJAn/rbHjFjkNyPFBWKhisPgwG6qChYn45HqaWpcF+eig4eV1HbEALdRSeR1BfvSMkfqpBIZSOGYRiGYcyRFs+VR5Pavsrak3H26gNU8HGDg521ksMUdawsLVC1grvJIoyTX97Jc3bA080enw5po+QyTNFg15EbWLD+OFo1qICR/VsoucUDr1KOmDOhh3CvM0p6aaa/VXOCfle+eLcjomIThYUcwzAMU7IgN1qf/7ID42dtEy4zKKDh8FebFon4DhTcmwT0IT0bYc/xW+j7yQqckd6bigJFxse0ISkZmoepsL2gh+1FHSrYhcMdCdCHWomkCo2WUpT0NlJ0RgUYhmEYhsk7NL399v0IESyvqHL//v0CjZ6t0+kQFBSkrOWduLg4REXl3aLx3r1nc8NRW+pTsqCMiXv257iTl+8jIiZRWI/wAAZTlAgKjcGkOTuF1e43o7qKqPzFDZoCTe51yAXkj8vMz59zg5o+eKVDbew4fEPMvGAYhmFKBvQMOmzyemzadxk92tXEim/7wa+IBc0mAX3UG61EYMbEpFQM/2I9th64ppSaL0XraUd6uTKkpMCQnIKwGCfERVnBMixRJLKqLmkYVEqysYTB0S77ZGOVVpdhGIZhiirkLzgpWYtKvqWUHNNDonFgYCAuXLiAU6dO5ZouXbqkbJkzBw8eRPv27VGhQgVcvnxZyc2ZixcvYtmyZZg9ezZWrFiBa9fy/mAZHx+PiRMnokyZMhg1apSSm3e2bdsGLy8vvPrqq3k6bufOnVG5cmXRVhLDnxQKjEbcuBsmls/C8w0r4t9fh4jo5QxTVKDvHhKlKWjntx93Fa4viivkXof8Oa/Zfh4HTt1Wcs2HDwa0gLODjfBTX5ADicWJ1FSdGGihWU67j93EjsPXhe/u05fvi0FI+i1nGIYxF8if9JvjV+PK7RCMe7sdvvqgE2ytLZXSogcFZiRh3be0s4jtsHTTKaXEPClSwrQhNg76u/ehvRuEZXva4PgWH3isvCSSKkWv1Co56K0MImn9PJHSula2SVvNO60uwzAMwxRVyFqaqFLe9MK0v78/Bg8eDFdXV5QrVw5169ZFo0aNck0k/uaEVqvFO++8g9atW6N06dK4efMmatXK3uexXq/H0qVLUaNGDdSpUwdvvvkmRo4ciddffx3Vq1fHyy+/LKyZc+LYsWOoVq0aFixYgFmzZuHPP/9USvIOCdLHjx9HaGgoateujRkzZiglWXPixAl88MEHGDNmDBo0aICAgAClJG/4lZX71D9Q7uNnhVwGMExRYv2uizh+IRAj+jZDDenZvrgz8Z32wt0O+cI0N5cerk62GPZqE9y8G459J/yVXCYnqA+3H7qOL+fuQq+PlqD5wNnoMmIRBk1Yg//N2IxPv/8Xn3y3BUM+X4uXP1gsyru9+7vIW7/zAsIi2ac3wzCFQ8CDSAyeuBYPw+Pw89ju6Ne1aAccNuJb2gXLvu6H5vXK4fslBzBn1RGlxPwwqTBtZ2MJH08n4SswP1BpNFBZW4ukd9ZBb6uDgayon8Iyp1igMoiktVUh2UWdbdLaqdLqMgzDMExhM2j8arw3dYOylndCpAdGwtTT6n788Uc0btwYsbGxGD16NObMmYPff/9dWBsT8+bNw+LFi9MSrXt6ysJRp06dxDIrSJTu2bMnfvvtN/z6669CIC5fvrxSmhlyuUFW1UOHDkXz5s1x4MABPHjwAOfOncOIESNEnc2bN+Orr74Sn7Niz549aNeunRDYyeq7X79+0EjPT09DvXr1sHfvXrz77rv47LPP8MknnyglmbGzsxOW2SdPnhTn0aJFC1y/fl0pzZ1KvnKfBit9zDAlidj4ZPy8/BAq+LhicM+GSm7xxsnBBqMHP4+HYbGYvdL8Xpb7dKqLUi52WLDuuJLDPI5ebxAW76NnbkbbIfMw5od/sXHXBSDMH+0dbmCE1wl8UXYvZpbbkZam+u7Gh6WPopvLNTjH3sK+o9fw1bzd6DhsAd76fC027L7E1tQMwxQYNINj2OR1iEtIFjEQyNK4OGFva4Wfx3WXzqs8flt7DL+aqThtUmG6beNK+HfuUOF0O18gYdrSUiS9vQ4GK530i6ikkgi55pCSzkqFVHt1tklnTcK0Up8p0TwIfIhd/+zHplXbcGz/aSTEJyolDMMUFslJySVuqnBcYgriE1OVtbwTGBwtlm7OdmJpCv73v/9h7Nix2L9/P9avX4/PP/8c7733nnC5QaJwxYoVhcXzoEGD0hKtk+BM5CRMkzX1li1bMGHCBCHu5sSdO3fQsmVLnDlzRrjRWLRoEVq1agVvb29hvT137ly0aSMH8iOxOCvIf3Xfvn1hb2+PnTt3ponnz4JarRZW17169cL3338vXIrkRM2aNbF161aEhISgd+/eSErKm89o8gXtYGeFB6ExSs6Tw2IGU1QhK6bouCQxfbgoBFgyFV1aVkOzuuWwevs53HlgXgHsbawt8FqXerh0K1i4o2DSoWeWfw9cFZbRH0z/GwePX8PzdjfwZdm92FhtJRb6bcJnPofQt9RlPO90Fw0dgtJSC8d76Ol2DR97H8UvFbfin2or8H357XjV9RJu37iFL37dic7DF2DRhhP8nc4wTL4SHB6LYV+sR0xcMuZNegUNa5ZVSooXZDj8w6cvC3F6/tpjWLv9vFJiPhTdiBrCAlj5XFIhHYMuQ4oO6oSUbBOVG+syJZPw0EiMefsr9Hn+bUz+cAa+HTcb/xs0Cd2bvIGlc9YotRhzh14Erl64ia1/7caWtTtx4dQVaLUldGCumHD/ThA61uqDw3tOKDlMTkREJ8DTzcFkwg2JwGQtTWLq4+41yCqaaNq0qVg+DrnVICvrSpUqKTmPQvv+9ttvUbVqVUyaNEnJzRryB92tWzfcvn0bK1euRMeOHZWSR2nWrJlYurvL/pgfhwT18PBwfPfdd8JtiKlQqVTCitzBwUEI7BERObvbaNiwobCeJh/ZU6dOVXJzp4yHk/Dx9zRQYMzuIxfj5xWHlByGKRrQPb9uxwV0aFZZiLQljTFD24h3lHlrjio55gP5wtaoVcKKl5G5fCsYr49diXE/bUN0yENhFb2mymqM8zmI1k534aB5skFnK7Ue9e0f4t3SJ/Fn5bX43Oc/uGqDMWv5IfQc+YfwS80wDGNqKDDge1M3IiwqHj+NfRn1qnkrJcUTGmz9/tOXRLDx6Qv3Yt+JW0qJeVC0hGnpxUilUUtJBQsrLTQWJVuQ0SSpRbI/9QCuK05lm+wP302ryxQ8kbEp0OkLb1QgNiYO7/YZg0O7j6Nbn46Y/9d3WLVnPmb+PhlNWtfH/O+WIikxbxZtTOFx6ew1vNHlfbzVfRSmjv4R08fMwohXP0Wf599iUbMAoL8RGsRZNOvPR9K/63crNdI5dfgc5kxfJPXRT1jww3Jcv5T9D//Wv/bAzt4WjVo9J9b/WbU9bd9//LIK2zfsFX/DT8OC75eJmRFZce74Jfz6zR/Cn/HjBNwMxOzpvyMmKlbJyX/O3YrGiauRuVqOPwiJgYervbL27JC/Z+Lu3bvC7YYRCt63Y8cO8dkoBj/Oxx9/LHwwZ4dRjCb3F1ZWVuJzdlAdCqI4fPhwvPjii0qu7LeZ3IAYMQZNzCqYIQVi3LRpE8qWLSv8UZsastwmH9zk7mTmzJlKbvbQOVlYWAhraxLL8wL5dQ2PTlDWnowj5+4KNyBlPJ2UHIYpGvy27ji00nfOyP4tlJySBQWzfbF1dWw9eM3srKZpIHTKyM4YUkLcq+QEDf4tXH8cr49dhRv+QXjb8xRWVl4rrKKfVIzODkuVHu2cA7Cw4t+Y5LMPuthQ4YN63E9bhbsbhmEYUzH5150ijsBnQ9uieb3s3ewVJyiY4y/jugv3y5/9sBUBSuwec6BIKZUG6QfRkJIqJS0s7ltBE5E/vqwZxpTsPROG16ecxJKtdxESWfAPVfO+XSKsMgd98BrGzxiF2vWrw7eiD1q0b4zp8yYIodrG1kapzZgjl89el15Yx+PB3WAMH/0Glm2bI9Ln3/8PLm7O+H3Wkwc2Ky78tf8B9pwOzffBn1vX7ohBHBKSaZDHmM4eu6DUkF1yfDZsCj4cOAGH955A6MNw7Ni4F0Ne+ggrF2TtT3n7hj1o92IrWFvLwuUPk+fh7z+34cTBszi48yi+HjsLfdsME9bxT8qfv/2Fo/tOKmuPcvb4RayYvx7a1MwDvLeu3hbtDQspuIeVoLAkjP/tMt769gy2HHmIJJrpkwUpUntdnEz3fUWiM1kfkx/mjAEFyTdzdLRsuZudxXRO3Lt3T/iCJkF6wIABSm7W0LHmz58PS0tL4UbESGBgIF544QXhNoQCHr700kv477//RGDEzp07K7XSIVcfBAVLzM2nNFlmU0BFshJ3cXGBk5MTfHx8hCsRcteRHW+99ZZYUlDFjEJ+VpDFNonsdF2XL1+u5OaMi6MtkrPp+9zYe+KWsGzs0LSyksMw5g8FfNu8/wraS/dtRRP7zi9KvN27MdQqFZb8fUrJMR+6PV8dFXxKbt8QMXFJ+GD6Rvzy52E0tLuHP/w2YID7RWHtnB9ItwLaOt/Booob0NvtsnAbMmDMCty4E6bUYBiGeXpWbj0rgrUO7FYffTvXVXJLBuQOcfaEnlBLz8yjv9siLMfNAZMK0+Q4fF1+RtXV62FIlV6EpGTxwArqyJLjg40purg4WCIsOgXLdwbi9aknMWHBZRy6EA6dLv+tqONjE4RFp4ubE4aM7KfkPgoJ1Rk5e+yiENd6tRiMlxq/jnd6fyKsOB+3ZBw95Aus+eNv3At4gInvfy3cgvTvMAIbVvyr1IAQ197q8TH278jsZP/4gTOi7PTRdGGPyQxd92mf/ihEz28XfC4GGPyqlRepyyvt8fumH/HJVzn7ri3OBIYk4uvl1/HWN6ex/XgwtLr8eUky8uHEt6Vr/lNaosEeIyQqk/X6pB9GY8XOufhx6RSs3f87vl/8pVLjUc6fvIwHgcHoKvVjRtp3a4W5a2eI/a/euwAaCw2++/xXpbR4YmMlP45Qf/609hYGTjmJRVvuIDwmReQbiYpNgrUJAyz7+vri4cOHwk0FCbRGyFKZIIvf+vXri89PAvmqJkjoJX/POUFCMP2dk/hM1s5GqG0kWlOgQ/J3TeX+/v544403lBrpkIX3xo0bxecuXbqIZXYcO3YMderUwYYNG4SrEToG+aNu1KgRDh8+LPxDZwcFQ/Tw8BAW0Nn5uc6IUUBfvXq1WOaGlZUGCUmP9nleoQBcdap6C6trhikqrNl+HlqtHoN7lGyL3PJlXIUrExLpI2M4/ok5Qe/1g8avwpGzdzDY4wy+9t2F0lb59K7/GHYaLd4vfQJTffcgLDQCgyesxsWbD5VShmGYJ4espL9ffAA1K3ni4zdaKbkliwrSb+7EdzqIa/Hton1KbuFiUmGafiimzNuNwIdRSk7+oZIe4lQFIOwVBQwaFQyW6uyTVM4UHiRMGyFt9/iVSHzxx1UMmHICi/69g6Dw/HOjcf7UZaQkp6B5u8awtEpvR3Zs+2sPPug/Trge6Pjy83ip7wuIiYzFN+N+wU9fpk8nJy6euoJdm/ZjaPdRCAuOQJsuLYR4+t3EX/H3ym2iToXKvrh24SbWLdks1jNCdajMt2IZJYfJChL3ybVCqw5N0Fhx95ARCkxWo15VZU0Wssn/9Lt9x+Dlxq+jZ/NB+GToF5kGAB7eC8Gwnv8TLh3oGO+99hm6NRoo8mhwwsjyeesw/JVPRODMx6Gyt3t+/NSuJkzJ/bAkfLfqJgZPP41/DgUhRfqNKEhoVsKWtbvQ4aXW6NyrnZIr06xNQ/Qf1ktZS4f+3rzLeqFu45pKTma8ynigUYt64h54nJOHzmLWlAWYMX62CGhalPyNj+jb7JGp0bbWjw40x8RrsXL3PTHb5JsV13HjnnyPpaRqYW1l2tlSWVkXG1101KhRAzExMSKQX3BwMIKCgkRARAoySGJwduzbJz/k5WZtTb6ljaItBQp8HBKnyYr6l19+EZbTpUqVUkoehdyAGN1lkN/rnCAXG3TcKVOmCCtsOga1c+3atahSpYpSK2vI13STJk3EZ+M55oTx/EkMz0sQRBupb58m2BUZRpAbj+cbVlRyGMb8SU3VCWG6btXSUirevi3zAgUapBkTG/ewP2dzITyKROk/cXLfX5jgvQdvepwX1swFDQVM/KX8FiQGXcCrw6fj+IXMz0QMwzC5kSq9K038ZTusLDWY8b8XYSktSyo0G6h725oihsLB0wFKbuFRtJwO63UwpKbAkJwMrznH4LxD9g1ZUtHZ60WKbueL+580yzZFdq2YVpcpOEgYC41KRkx81tMjImJSsXLXPQyafgpj512CFqZ3p0HWzETFKrkH04mJjhNWmSSELdr0E94fNxQjPh2EhZt+ROXqFbFuyT/wv3ZHqS1Dfo/7vdUT89bNxOiv3sX89d/B0soCaxdvEuUepUuhQfO6OHP0AiJC0/0GJiYkCcvShi3qwsMra6GFkTlx8IxYtunaUixzgwYRyP90SnIqegzoirZdWuLi6av4cMB47P33oFILiI2Nw+Vz14Uf49GDJ8G1lIsQv8llxYevT4D/dbmvS/t44tKZq9ix8VERikS5Vb9vRHxsIhydHJTcwic4Mhk/r/fHm1NP4a//HmTrEsLUHNl3UgwKdO+fs7WqEeqf3ZsPoHPPtkLsyw7yAX3rWkCmAZx5M5fg4zcnIfRhmFTHgF+/WYwPB47PUSwtcFRqxCfpxOCb/4N4XLkTi9PXo3DwfDjUVi6I19pj9Z57WLb9rnDHkhVanQG7T4XivR/OYfTsC0jSWsDBLmd/zabg5EnZBQpZE3t6esLLy0u4pihTpoxweUEWzCkp2Vv2nj8vR7umwIc5QZbKRsG2XbtHBzSeBOPxSGS2scn5t4TOiUhIeNSXM7kdIVchCxcuVHKyxiheG4+ZE8a6dB8b/WPnxtPMerhwQx44e646i3tM0eHI+bvCOviVjnWUnJJNw5o+KO/tgr/NUJim39lbgeFISHy6GR1FkZj4ZGGh/DA0Fu0dr2PRzv1IyedZaTkRHHIPMeeXwdXOGh9/+ze79WAY5olZsfkMrviHYOTAFvAtnT5TsqTy2Vtt4O5ihynzdxe6S4+iJUwzjJmSmKzD5EVXMOrn8xj89Sn0GH8U3cYcwYCvTmLasutKrawhn5iVy9pDA9P7n06Ik6dD2thai2VOHNx1TAjGfYd0h6t7+he1vYMd+g7tLj4f3H1MLI1UrVUJQz9K959KQnSt56rj7q17Sg7QpVc7IUrs3XpIyYHwzUuW3J17PerCgMmMcXChQiVfscwJco+yefUOITDTIMHbHw/EqMnDxcCBtY0VfvxiPrTkDikDZ49fwHd/fIFpv47DuG8/wufffwydVoeNikuW1i80FcH5dv2zX6wbOXv8EiLDokT/mhobB3cs2HIfU5ZcfSTR39iYuRcfSUcvZe0HmVxAzP37Nt6Yegrn/JOhUpnm547EfBpUMabA2/dFvtGi2bdC3mYAHN5zHHGx8Vn+DdC+tm/cJwaDPho4AUGBwfjfl+nuWmjQYMW89Zj43ceYOmccxn4zEnNWfYPzJy5j59//KbUKH3vnMvhyWSDenHYK73x3Fh/OOo/P5l3Cl4uvCitoctmxcPMdLN0eiD2nc37BdLK3QJv67oA+SVg75CckFF+8KM8aaN++PQYOHCh8UPfp0wevvPIKPvjgAyFc29pm7zIiIEC2PCAhOyeOHj0qluQeg4ILPi3kM5rI7XhEpUqVxHL69OmZgjdSG0h0zwmjuxHjMXOCfFcbXZnkpf7TQjP26Le0ZiUvJYdhzJ9tB68Jq60OTeW/yZIODdJ2blUNt+9HChHYnNh19AZeGbUM55VBsOIODRB+9v0WBD6MxgSf/fihvS0a+9hj8LqAQhGnj9yNwydb72Ftvwr4ucZJGFKSMHLaBkQ8ZbBchmFKHkGhMZi39phw4dG3U8nyK50dDnbWGDO0LR6GxWLhX9kHdC8IWJguwqi0KpFsQ7RwvZKUbbIPSk2ry+QPVpZqIZA9CE+CpUaNqmUd0K6+O3q19sbgrtlbK9fxc8Lc0c/h7ZcqQAXTu6axsZMt5+Ljcn9wu6MIa5Vr+ollRvyqyUIFBd/LSFaCt4OTPShyt9Fyk1x8WFlbPSJs7t68X+S16dxcyWGyIyFeGVyQfjhyY8ffslXzWx8PhIVF+tQkcqlCltPhoZG4euGGkivzyhsvoUnrBsoa0LpTc2ike/iOMrhgbWMt+un2jbtpVtTEbqU/X+jRRixNiYWVPc7cjMP+c+GPpKOXI4RLh4wpOpsZCUbU0q+chYX010V+dEzAsl/XYuzwKWlp08rtIj8pQbZ6dXJ1FMvcoCCKNetVRTk/HyUnnYtnrmLut38I9znnTl7GzEWT0aBZukXd9g17xUBDp55tlRygUvUK8Cnv/VRBEvOL1OQ4NK3ugL7tfTCoSzkMf7kCRvWphHGvV8UXQ6rj2xG1MHtUXfz26XOY+W5tZatHsdCo8GqbMlgyviG6t/QWrh6eNjheXjl79mxaYD+yHqbAfStXrsSaNWuE72hyq0G+lrOD3GTQYBzh4JDzbIIrV+T+ys2FRm4YAzXmdjziu+++g7W1tXBJQq42evToIXxL5xWj0Gw8Zm48SX36K7WxfnJXLZdvhaCMp5OINs6YP7GxsdixYwe2b98uEs0cMP4tPC0UZPOvv/7KcQCEfMfn5EOdBpRoHxkDoeYX5MZj/6nbaPFceTg5cABqI11ayrNMKCiVOVHJV57dd+121rN7ihu/rz+Ow+fuYqD7ebRxkp/9Pmrphea+9hi0tmDF6cN34vDp1ntY+ZofyrlYwc8mChPL7ENQeJyYkm+q5zuGYYo3FLw1OUWLSSM6inddRqaz9Lvbsn55LN10GvdDYpTcgod7pChDzwRSsorSweFeSrbJOkJ6iVfqMvkDWWpt/74l1nzZBAvG1MfM92pj/BvV8F4vPwx8wReOto++aJP136f9q+D792ujQmk7Jdf0lClXWiwfd8GRFWTBTFhn8WJvofhfMuRBPH/cLQFZXLfq2FQEegt+ECpE8qP7TglLXCpjcsbGVn5hTcjD4AJZqtP1Nw4kZISES4KC7WXk8cEFErRpQINcTRgxWvUaBxdo0OG/7YdRt1FNlPGV7zFTEhdxB79+VA07f2j5SNr+XUtsmNbskfTK81lbiJJv93d7VMTSCQ1Rqxy5fjDNi8vX8ydg/81Naen98UNFvoPiziQqPHfxLToyRrj+6Nq7g5LzKC/1eQEbjyzBX4f+EML1lNE/ICkx3T/vw/shYnZDK7+X0bLiS2mJrOuTlb/jvGIwZP5hoCnLpiAlMQq9W7tj2EsV8HonX/Rp54NuzUujfQMPtKxTCg2quqBaOUdU9LaHr2dm6+O2z7lj4Wf18Y7Ujw7Kd6iTvQ3iEkw/uyQjxsCHZMVcseKT+yxOTEwP3EXBE3MiMlJ2cZSd7+i8YjxmbscjyGUIWWq3aiUHfNm0aZMI0kj5eXG3YWkp/0Y87gokO56kfnyC9MzyFMEtQ8LjUNbLWVljzJ3ffvtNBMakQJ2UOnXqhJo1a6Jy5crYs2ePUuvJOHfunPDTPn/+fCUnM59++ilefPFFZS0zS5YsEfs4deqUkpN/nLn2ALHxyWjVIOcZCgUJDR6FhYUVqtBHAnA5bxch2psT5Uq7QC096z8oxJf2guJaQCgWrDuGenYPMcjjnJIrM7KFF1qVd8Aba24juQBieRy6E4cx2+5hVT8/+Lqku/Fq6ngfA90v4NCZO8I/KsMwTE5cuhmMfw9cxSsda6OGn6eSyxgZPeh58f43+8/0Ge4FjUmFaUsLDRztrXkEooBQp6pEUgWGwHD6crYJAUFpdZnCwckh/UW7a1Mv/DG2ATo19swk4pqaug1rwEJ6yT+89wTiY3MWBdw8XMXy/mNW0cR96R4ifBSh+0kxunvYs+Wg7MYjJVXKYzceeSFtcCGDtXJ2kCipkb6HM1pLG0kbXMjD+6b0raJ8kiFf4O6ebmnC9OkjFxAVEZMpyJ854Ghngbe7lReC9CttysC6gIJaVK0lzzQ4dyL3FyTjdaRAiTnh6e2OT6e+j+D7odi8ZpeSS0KfBRydHfDv6T8zpbHffKjUyhlbe3nAgwKXPk54iJxHx8gvxnz/LybP2amskZVs+nNDdeml9+cP62LCm9Xg4/6oYG1na4mklCcPjvckGIXpZs2aieWTktFqOaNInRWpqabx52Y8Zm7HM/Lcc8/hwIEDOHToEHr27CnyKJghBTbMTZQzCsyOjnmbHfAk9cmSxdbmyaye6UE6NDIebs480FlUMPpVnzdvnvB5Ti5lZs6cKYKKdu3aFf7+/qK8OHP4rPyb3qZR5llqBQm5JXr99dfh7u4OFxcXMSBHfvXJ1U9GgZr6qHbt2iK1bp3zb9ez0rxeOSGOko9jc4ECZJEfzvsheZspUlShPp+5aB9UBi0+LXMIGlXmh8b3m3uiTUVHIU4n5aM4fSAgFmO33cPqfn4o65w5tsQb7ufgax2DH5b8J3y1MwzDZMecVYeF66x3+uQclLykQoPCL7WpgX8PXIP/vazdZOY3JlWQX2heBQeXvsuRpQsaenCkacPZpUK0fGBkyHqTLKN/HFkH/3utMpzsC2a6sbOrkxCFSZSmoHjax3yzkpC5dM4aYX1Zv6k8lX7L2p2PvIzQ579XbhOfW3V4ui/zps83gJOLI3Zt3i8CvlG7mrSur5QyOdGohewyYMfG3H0Hu7m7CB/SoQ8z+2Y0+qr2KffkPljVajU6dn8e9+8E4eqFm6IPacCj/YuyxaU5YG+jwZudfbFsYkO81qEsbK0LRpA20uqFZsLtybK5a5Gc9OjLNP0N0bUzsvWv3WjetpH4O8iNeo1rieCjG5ZvUXJk1zqx0XGIk/6uaR8ZU1aDEllRrVZlsdy3PbMLh/07j8K7rFe+Bia9dS8cAQ/SA6La21jAw8VKuPkgUbpGhaxFTLKYzu8X0GPHZF/6Tyu+UPBBCiRI5Oa+ws3NTSyDgtLvj+yIiorKdn8kKBF5da9hpEWLFtiwYYOwoCZhityQfP7550pp1sTEyBaDxmPmBN375LaByEv98OgE2Ns+2e9jfGKK8Dvu7ZE3oZwxH8ifOQmdjRs3xieffILJkyeLoKLkMqe4c+rSPWHl7+mWfwOAOUHuij766CNx7VesWCH86f/5559YtGiR8DU/YcIEjB8/XqkN8b1w6dIlkZ4lUGteaFzbV3p9MeDsVfm5xVxwlH5/YhOKd/DDfSf8ceLSffQvdQFlrLJ3afNeM0+0r+SEN9fcRmKq9K5pYv67HYuJO+5jdX8/+GQhShNWaj0+9Doq9UkqFm+UAxYzDMM8zs274WJ2xcttaxbab25RYEjPhsILwJK/C+f7lE2biwOWllDZ2maflGm0TOFB/lXnjX4OtSvmLkSZmg8mvIWKVcthz5YDeKPz+1j44woRVO2HyfPwaquhWPjTCvGCUrtBDSEWnzp8DmOHTRGB3Y7sPYGxw6eKoHrd+3WGX7Xyyl6fDBIxyTr06vkbwoUBfaY8JneatW0I34plcObYBdFvjxMaHI6VCzaIz/UVP8Sb1+wQSyM0MLHrnwMo5eGK6nWezpdt557yi+j2DXuEG49mbRqKwYbCxs5ag/4dymLZxEbS/V1OCJyFgZOzA0ZKf2vkNmfEq2Owc9N/wnr633W78M4rn2DO14tEvbv+93Hl3I1s3XhkRff+nUVAxHPHZWtsslS3c7DF5A+/lfZ1XfghJ+F73ZLNuH7plqhjJDDgAfZtPZSW6G+aqNeklnDFsuD7ZVj8yypckf42Tx+9IO1zhjgOBc4saBaPayjcfOQ0k4T8CN8LNp3FmtGXtBGaxn79uuzbNKcp/7lRtarsJ9UYBDE7GjSQ/bufPn1a+HzODtpP8+bNMWBAerDZjFSrVk0sczseWS+TsPT4eZOv6f/973/i861bj95Dj2O0ZjUeMyfIAtZ4rLzUp0BWZTye7HfSGAzT3iZr8YIpOhh9rUdEPGqtc/XqVbz22mvw8fERbm+ef/55/PuvHKC3KEJxOMgiuFblwgnWSX+TNFPi559/Fq52aHCKfOj3798fQ4YMEe5UaBbGDz/8IL4TyQc9+QQnyO0PDSDkJ3WryjPFzlyRgwubC5YWxf+1ed7qI3C1SMZrpeQAwDkxoqkHOlZ2wptrbyPBhOL0Xv8YTN71QLjvKOOU8/d6Q4cgNLK/j5X/nmGraYZhsmT55tPCFdPQXo2VHCYrKvi4oX3Tyti8/yrCo+KV3IKDhekijEF6d6eksrKE2s4226SyskqryxQO9au4QKMpnA5wdHLAvLUz0XdoD+Hb9o+fV+LHL+bjn1XbUb1uFcxfN1PUIabPmyAE6OMHz+LTt77EJ0O/FOLakA/745Op74k6RnJyGZGVO58Xe3cUlrd66YWs6yt5F+VKOhqNBl/MGgN7RzvRbyMHjMefv/0lxOiv/vc9+rYZhl3/yNbUPQd0FS43aPBhzvRFOCH1IwWafKf3J6LvaZDiaQcEqtaqJIIorl+2BTFRsWnuWQqbAS/4Ymi38sKFR35C9y5B/ZEdvV5/EV/9MgZJicn44qOZeK/vZ5g58Vd4lnHH++PfEnW2bdgj/b3Zo0W7rB+O1NLfDv1tZYSCHNra2YhtCRpg+P6PL5GclIK3e/4PL9Tug75th4kBCQoqasTVwwVH9p7EhPe+TkuTRs5QSoFvF05Cuxdb4Y9fVuHtHh9jZP9xwhf8hO8+RpdXCt7VDgWRzQ03Z1skJWuRmPTsLjCWLVsmfEifP39eyYEIwkaQ9WCtWrXE56fBGBwxt4BuAwcOFEI8BUucNGmSkpsOCUi//vqrcL1x9+5dDB48WCl5FOPxyGI6ODizOyYj5KaELFTXrl2r5KRjvMfLlcs+YC9x7do1scwpAKQRY10KtphbgEcxsyAk5omtWcj9B1M8+OcfefCVBmGMnDlzRlj1ktuZd955R1jxktV+t27dsryPiwKBD6NEENdalQpHmCbr9C1b5Fk49P1idOdjhGZPkFU0Wa/v3bs37bvJyclJWFXn9DtoCrxKOaKUi52wcjMnbIp5cNVTl+/hakAYerpeho06b0GGhzfxQOcqTnhjjb9JxOk9t2Lw5e4gIUp75yJKGyFf08nSsf/ew76mGYZ5FHIJtWX/VeE2y8ez4A0EixpvvNxAevfQY/2u3AcnTQ0L00UYnb1OpLC2Lrj5v4rZppCupdLqMiUTByd7fPT5MGw+uRx/H1sqgqrtvLQOM3+fjBr1ZMs+gsSvz74eiW3nVmHl7vlY899CbDm1QlhPPv4i8vfRJfhp+VRlLZ0vfx6DXZfWZ6pf87mq2HNlPXZLiT4zead6ncpYuPFHtOnSAhdPXRHWt7On/y5ERxKIv1kgT70nC+Y5q79B41b1sXLhBox6Y6IQIsmn95TZY9GpR1tRjzD2D/krfhwaXMhq0OGlvp2g0+qEy4gWHZoouSWDGnWrYM/Vv9Cifc6j7R1eel7625mHrWdWigCGOy+uxdQ544R/dhLeSFxu3601rLJ5wd12dhXeHycHVDRCA0eUn3FwiKydl22bg3+OL8OqPfOx48IaLN7ysxg8MPLXwT9w6PbmRxK1xwhZeU/+8RPsOL9a7IPau+HwYrz4BNbcBY2PpxzgzhRW0yS43Lt3D/369ROWxg8fPsS0adOEe425c+cqtZ4OCuxGkB/nnKhevTo+++wz8fn3338XAQnJ1+4333yDt956S0ypf//994VITr6f+/TpI+o+TqVKleDnJ/uqze2YBE3hP3LkiLIGEfTQeM5Ulh3kw9rog5sC1uXGf//Jg2YdOnTIVcx6EBorpu8/aRBDdxd7rJzRH93b1VRymKIC/Q2uXr1aiKMvv/yyCD5IltHdu3dXagDvvSd/75GPYxJIR48eLVzP+Pr6YsyYMaKsqHH9TphYVq3gLpYFCVk/z5o1S3xu27Yt3n77bfH5cYyBXymY5O7du8Vn8gme28CVqaha3gM3lOvEFAwbd18W7jG6u8oDinnl7cYe6FbNBQNXP5s4vftWDL7aI4vSpR3zPghQ1y4Y5a2jsWbbOfGcxTAMY2TXkRtISdXh1RfkWcVMztSr5o0q5d3xz76cDWvyA5MK00GhMdhx+DpPpSkoyABXSnprNbSOFtkmnY3UzUpdpmRDFnFkUetVxiNHX7TW1lYo5+cjxLTsxARLK8ssyygvO9GNtqF9M08O9cf0ueOFALn+4CJsPrFcBLujgYSMvoDLViiDn5ZNEULmip1zhdi4Zt8CtO/2qD9ov6rlxUDB4JH9lJx0aJsfl2UedOg/rBd2X16HTceXlch+fJJzpkECj9KlHvk7IxcZFMgwJ2tk+hvJypUFWbpn9fdGQUt9K/rA3uHpA7+Rb2zaB7XX3DFaO9wKfHZLOhJiyWKZrJpJhCGhi1xwkFsNoyuOp4WENfIzTYJvbu41vv76azFlnqwUySqUxLZx48Zh1apVYto8WTYePHhQiNg5YRStjVanWeHl5SX8SpPfZ1pSoLMyZcoI4ZtE8E2bNuGll15SameGBCqyoiTfwI0aNVJys8dolUliY24Y+7Rs6ScTpikoWc1KXnB3tVdymKLCt99+KwaGaPBl8+bNmDJlClauXKmUyq5gSITu3bu3uE+NkB93ErLpb+txtx9FAWNgoQpl5KDTBcnEiROVT8CXX36pfMqMhYU8aG0UpcnNB6WCgr7rH4bHIjWVjWoKgpRULfYcu4GGdvfhbPHkQSeHNnJHjxou6L/q6cTpXTdjMGVPkPAp/SSiNEGPTB2dbuF+aCyu3g5VchmGYYB/918VgWub1SuYQdXiwMttauBuUBQu3nyo5BQMJhWmz1x9gE+//xcB94veQ2JRRJ2iEsn2Vhxc9gdnm+yuxaTVZRimaEPCZWkfT7i6u+Toi5es5Ml6NiexkQTJrPZBx8hu4MLG1ibHQQ0me8gdy0eThglr55JOrw618dLzOQutWVHdz1Msb9x9dks6ci+xfPlyEXiQ3HmQwPXXX3+hfPmn86WfEWdnZ2HxTJDFYW58/PHHwgUHub4gy2jy40zi8caNG4Wv65z+1o188MEHQgwn9wYUKDErSNwm8Zv2TT6tSXSiRPXJgprEvpwwngu5AsgNEvgpkaD4JMK0X1k5ICRT/CFraRKf6e+udOnSQqgmf9JGjP7eycVOs2bNHkn0t0HQ9uZCQpIO36y4jsCQnA10gkJjRYAhjwIOwkSDcGSlTlSuXFn46s6OuLj0wHfk25us2gsSiidAxq/BEdkH4GNMx+krDxCXmIrWTneUnCdncEN3vFLLBf1W3kJ8St4HFLbfiMbUvUFY098PXg5P5y7F2O4Dp2+LJcMwTHB4HE5evoeuravDIgs3o0zWvKi8n/27/8lmzzwr3ENFGHWyWiSHc1HwWBeQbXI8EZFWl2EYhikcqtT0Q98hPZS1ks3rL9VHn851lbW84+FqL9L1ANNN8SZBrE6dOnB0NG0wT7JMtLe3x5w5c4T4nRs0o4UstSkgIllwG30+55WyZcsKy1Nyt0EuSXKCrCHJQrpu3bqoUaOGENJzg1wAkFUrWUtnN/0/I2T1TXzxxRdiECA3rt0OhY21hQi+wpQM6L6jgYtevXoJ38UkhmZ0z5GaKvuSp8CZVCdj+vDDD0Xwvpo18z7QR4H+iOwGbiIjI8WSLLKfBnIjsPtUKN7+9jS+Xn4Nd4MTlJJHoSCf5Eu9oF+UM1qjG90NZQe5OTLyxx9/wMXFRVkrGDzd5BkQYZEFH4CpOEHukVK1uVswn7wo93cD+9x/q3JiUAN39Knjhn6r/BGXnLs4vfVaNGb89xBrB/jB8ylFaaKcdQzcLRNx5OzTC+sMwxQv9p24JQY4yb80k3foPat2ZS/8d1IOdl5QsFLJMAzDMEyRgdw2XLhRsNPLngYS3H777TdhnUzW0zpd/k9Jnz59uhDZf/zxR+zfv1/JfXZIyKNzIEGbrFxzE5rpvHfs2CFcmgwbNkzJzRnq0+oVPJ5YrCPhJSYuiYMgFnEo2F7Tpk3F4MetW7dEHg0aEeRDnXyxP55GjhyZq+/yjNDgDXHpUtZB0i5cuCCWRv/KT4t0S2LP6TC8PeMMpi+7hjsPHxWoI2IS4ez4dOL3s2B0y0HQ9c4OCsZ68aIc+IiCTL7wwgvic0HiYCd/x8QlpIgl83QkJusw9JvT2HkiRHxXZgdN2XaxSIanZdaDKU/CG/VLoX89N/Rf7Y/YHMTpLVej8P3Bh1jdvxI87J9elDZSzSYUV/yDczxP4tS1KBy9xLO7Gaa4c+DUbTg5WKN+jXRXYEzeaNPYT8TzCXggD9gXBCxMMwzDMAxTZKDAHBTLoiAflp6WAQMGYOrUqdi6davwZ52Q8Owv/TlBlp7kJ5qENXLLsW/fPqXk6aGgkOROhMRCcn3SpEnOgU/JuvLdd98VgRyXLl2q5OYMWUXSA3CDmj5KTt4JDo9F60HzsGLzGSWHKaqMGDFCLGlggyDf5+QHndx2xMc/u+UsiawEWfFrtY8OZFDQ0D179gi/7p6essugZ4UstfaeCcOwmWcwdek13A6SzyEpOTVNeC1Izp07p3yCmC2RHXS97969Kz7n5ts+v0gTphOf3N9xftG3c12RihoPI5IxY+UNcR8eOBeWZYDAwKBIVLQynVg7oF4pDJQS+ZyOScosTv9zJQo/HQ4RorS7feYg3E9DJesIIcSHZOP+5eTVSHz083mMnX8JAY8NFjEMU7yg77lz14PQqGZZduPxFDStI/vkPnOl4NylcS8VYQxS71HSO9pCX9o1++Rsl1aXYRiGYYoyjWrJVo8nLgSKpbkzYcIEIeiSn9z69euL6fSPi2KmhFxtkNuNNm3aoH379njvvfeEz+onhYTA2bNnCwts8n9NFtA5+Yo+efIkevbsKSyrydUHnW9eXIQQx5S+bFxb7lumZNK3b184OTlh0aJFIsgmWUOTS5ywsDA0b94cK1asEMEQKagmWUy//vrrypbp0GDM2LFjH0lkhU288sorwq/yrl27hHU2zSygwRNyC9KxY0cxsDNr1ixRNyv+PhiE9344m20aPUe2Mn4c0gH/OxuGd747i68WX0V8kgq21qYR4/JKaGjoI+J+duI7WUtPmjRJWQPKlSucgFEWGhWsbJ2xdn80xsy9KMTEKUuupqUf19xMS/M33caCzQEiLd8RiNW774n0138PsOXIQ5G2HQsWfUBp/7kwnL4elZau3Y3F9cA4kcj9SlB4kkjh0SmITdCKRIJnt+eri1RUuRuciK+WXMP7P57DyWuPDuw+DI+Dp6Vp3ab0q+eGN+uXEm49MorTm65E4ecjIVjdzw+l7Ez3d+BrHSOWYVGPnsfxK5EYOescxv12GZcDYpVchmGKMwH3IxETl4z6NZ7c4IEBavp5wspSg7NXHyg5+Y/KkNWw6VPy74GrGPfTNiye2ifbmyA2Pg5lOrWD26C+Sk5mqs0OhzrZAH14JAwR5m8RVSCoVNBUlqcWBr3ggKi6NlApPqNdbujh5J99N8b5qhBRU65rsNbD8Xoyyv4j/zDr/O9I/+XT9GI3ZxiqVUCipzV0NmpoQmNgt+eyUmh+qFydoXYvBYMGuPahe7ZCfuTqTbi+cj1Km8iixkjvj5dKx07AJx/4KjnMk3LTPxHfz7mHX8b3wPMNn20q7tNQr/dPaN3cGQNeNe29UZLYfzgKK9eHYt0Pr6NKeXcl99lYs/08pv22BxM/KQcf74K3UiuJHD8dgz9WBGf7PPDl3F2wtbbEmKFtlJy8o9Xp0frNuWhWtxx+/CznYH3mBAVX/OWXX7Bs2TIh2j6ru4C8QGLyvHnzUKpUKSxYsEDJzRv//POPsCwdPHgwhg8fnqv7jrZt28LPz0+4VyAB/kmYNHuH9Ax5DQeWjhD3xZMQJD1bdBmxCB8NbImhrzRWchlzhoIckmBMriVo8CQjFMST/LJv27YtzQ8yBd6bMmWKsN43QoIpBeGk+424efOmsLAmQftxyJ2M0QqbxNnx48cL8dsY4I/8uZNri5kzZ+Z47y7cHIDVe+7Dw8VKBC98HHqjCo7M2cL3uSrOOHf+PKqWtcPsCT2V3PyHBqfIJQpB55udayG61uSr3gi57qEBg4KGrLRGfL0XHt5+sLSQ2qs3IDE5d1/JBQHForW3SXch42CbLq7aWmuEqE5YWaphJbWdoHOwsZI/q6Ud2D2+vXI72UvbG+8ta6k+bUfQ0lraH0HlmbZXoHzj9nS86Hgths3IejZJHT8nDO1WHj6lLNF2yHz0L3UBw7xOK6WmY92FCCw8GYY1/Sthr38sZh8NEYEOXTO02xQcjyuDsXdfwM9ju4tp6McuR2DZ9kBcC8xsQf2WdN79OvBAaEnB+N294vNG8HTl94CSwMY9lzB5zk4s//o11KnqreQyT8KQiWsRFZuIDbPeVHLyF5MK03mBhemnhIXpfIeF6aIPC9NFHxamiwe5CdO9P14mpmovmfZ0gsf/Zm7GwdO3cWDJu9LLu2lfbpmCRafT44XhC1FV+nufN+kVJTfvsDBdNCG3NnZ2dsrao5B4TIFDH4fcS5CYTO49KD0LJMwGBASIAIs+Pj55Cn6am7gRn6hFzwnHlLVHaVjVBa939kXtik7o8eESlPFwwtzPeyml+Q8FM/T1TX++pOtva2urrMncuHFDCPM9evQQwSgJGtwqDB/TJEwPll6Kvx7VBS+2ftRKmV5d4xLT313ik7RiUIAgy2atTl5J0eqRkiqL2ZRHZQRtH5/BgjdO6jco2yfQ9oqPYto24/ZJKfI2JJInPL69Am2vU46fLG1rDDyYqjWIdXOkXiVH7D1wBINdD2KAe9ZW/8/K+ouR+Oa/IDhaa/DXwEpwMbEoTVxI8MRHAV0x7LX2uHxPjxv3srcAL1PKBl5u/DxYUngQliQGDVmYLjnM/OM/rNhyBgeXvlsorrOKA1Pn78a6nRdwYuVIWFqmD4bmFyxMFxWyEqZT5RFxuyAVbIOVofYsSC4lPcD5yt1ssDSwMJ0NLEwXfViYLvqwMF08yG9hetPey/h89g789NnLaNdEtgJkiibnrwfhjXGrMe7tdujXtZ6Sm3dYmGYKiqcRphtVc8EbnX1Rs4KTkgP0+d9y2FhbYNnX/ZSc/IcsyUl8N1qUk+udhg0bis9ESEiIcHNSrVq1NNcmxPbt29GpUyfxmazSKSClg4ODWM9PDp0JwHtTNxbL73gSrknANpJR2CaRXa/o1ySEp4nsqfo0YVu2Hpe3p7d4uu+MxNH2ypt9klSH3JCQn/PsIIvu1nVdsHrTXrxV6gj657Mw7WCtwYZ8FKY/DuwuPYc3wbX7KWnXMSvovK0ss393Zoonv31aHx4u/B5QEhjx1QbceRCJrfOGKjnMk2J8f177/UBUrfBsxgB5gYXpokIWwrQ6Wf5Btb+VCrs72UetTvKxRGw1K/FZb83CdHawMF30YWG66MPCdPEgv4XpuIRktBkyHy89XwNfvl/w1nyM6fh20T6s/Pcs9vw+XHpsyNqCNidYmGYKiicRppvUcMXrnXxRo3xmS+x3vvxLBGgrqOmxRkhsJvcpRPfu3bF+/XpYWFjg0KFDwmUP+dgm//SXLl0SPr2JGTNm4NNPPxVCNm1D7lUowGl+s+3QNXz2w1Ys+LI3mtQ2j+dimhZOFKXfnMCQRAz9JrN7DnL50b1labzyfBkY9Fq0G/obBrifx9uepg8iW9CuPGaNfRmVK5TBnzsDsft0aJYCNbvyYJjiTafhC+FX1u2pZuIxMsfO38Vw6Xnlm1Fd0bV1NSU3/8hGemOKAupktUi2F4Ph/PfFbJPt6QdpdRmGYRimqEOidsvnKmDH4etISMx+YJYxb1K1Omw9cE0EtHwaUZphzAoV0LSmK2aPqotpw2pmKUoTjvbWQpguaMivt5FNmzYJ3/Pkq7tVq1bCmppEa1pWqVJFCNYEBW8l9x5NmjSBt7e38MNdEETFJImlk72NWJoDAQ8iRSpKUEyGjLg4WGLoi+Xx56RGeKtbBbg6WonvXgu1CuGppv8OXnM+AotOhQtR2slGgx41XTCyuSf6rvRHRIJpgwDH6WQjrFIu9ijrYYsxA6rij7EN0KmxJ9T8CswwxYIjFyNEMFujy6Ss0OsNCIuMh1ep/J/dU5zxcpefYQrqecWkX9PRsUm4fCuYXxIZhmEYhslXXny+GhKSUrHr6E0lhylq7D1+C5ExiXipTQ0lh2GKLvY2Fpj6dk1UK5ezv+rS7g6IS0hBbHzOgRJNDVlMU3BDo2/pmJgYREVFYdy4ccJq2lOZCUiC9UcffSQ+kw/u69evi/WDBw/C3d00M5lyg2ZCEN7KizHzbHi5WuODV/yw/POG6N+xrLhXM+LpZo8wrWmF6VXnIrD0TDhW9fMTorSR7jVc8GFzT7y2yh/hJhSnA1OcxbKUS/p5lHG3xaf9q2DxuIbo0sQzy6ClDMMUHcKik/H96psY/PUp7DgRkqVAHR6dIFweeZUyz98PipXx5ZdfombNmrCyshIxM9q0aSOCDdMAMgVyNgeMwn5kbKJY5jcmFaYPnQ1A/zErcS0gVMlhTIkqKVkk6xAD7AM0sL8nPQRLyVL2ypEtlnFyPZGk7WweqtL2lRYtJB9QafXQxCbBOjIZNuGpsI7JJ5chDMMwTJGiU/MqaNfYT1l7Ojo0qSxeQFdvO6fkMEWN1dvOw9HOGl1a5v8UQYYxF3xLu4jlA0V8LUjeffddPHjwAAcOHMDx48cRGhqK6dOnZwqE+N133+Hy5cs4cuQIHj58iB9//DFTnfwkKDRW+OF2djQfi+miCAnQnw2ogiXjG6JHK29YZxPAqryPG26nlFLWnp0/z4VjhZRWPiZKG3m5hgtGtfDEaytvISzeNOK0f5IrbKw08HLLbCXpXcoGo/tVweLxDdC1mRcsNCxQM0xR5mFEMmauvIG3ZpzGrpMhQog2EhUjC6kZB6nMBQriXK9ePUydOhUDBgzAtWvXcOLECZQvXx79+vXDt99+Kz6bA7bWltJ3pRqR0UVQmGbyGfqDk5I6Veq4FJWUaAmoctF7VXq5npyk7aTtjfvKVwwGqW16qLVSm6WkymHKBcMwDFNyeKdvMwzu2UhZezooQnSvDrVw8WYwTl2+p+QyRYVbgeE4eekeurerKQQohikpVCknWx1fLyRDHhcXF+G+o3HjxrC2zj7uQo0aNdCsWTPh3qOguX0/ApV9TSeUllTIF3rHRp7Q5CLEVvfzRESqNUJN4M5j2ZlwrDwXgZWv+cHROmshnOhW3QWjW5UW4nRoPL2cPhvXkjzEeWg02csbpd1s8L++lYVvbYZhij73Q5Pw7Z838Pa3p7FH+JQ3IE7x3mBvK7v3MRfCwsLQrl07+Pv7Y/ny5Zg4cSIqVqyIChUqCKHaSIsWLZRPhQ89nyenmNbtUnaYNPjhvweuYtxP27INdkTkJfih78Z4qFINMMTGSxsUnA82EnjVSVpY3Y1WcgoQtRoqezvobDXQ0/QqqVc0yXoKzwxVfKLUOBUsSnuJqtHPuSOhgqNULned3cUQ2F7N/uE22c8VcQ3kH2CdtQo2DxLgejxYrGuDQ8gRD0XBgMHBVpTTsdTJOmgStDDEJ8jlT4HK1gYqN1foHKxgsJDOL0E6l9tBSmnOpPg4QW9vKQIRFhgOdlA5OYpj3uvlAEM2z3Ac/NB84eCHRR8Oflg8yC34oakIjYxHlxG/C+vpGaNfVHKZosAXv+7Epr2XseXXIfD2cFJynxwOfsgUFLkFP8wrMXFJaD1oHl5/qT4+HdJGyWWMJCanotWbc80uuO2gCWvE8mmD9pozB08H4P1pGzG2zAF0cvFXcp+cJafDsP5ipLCUtrfK20vc9hvR+HrfQxEQ0dPBUsl9Mu4lO+LNW69geJ+meL+fHLiTYbIiMVmHyYuuKGtMUSMsOkUEdc2Ocl62aFHDHj8v2Ypv/9fVrGbkDR8+HAsWLMDAgQOFMJ2RoKAglCkj63UU76F9+/bic2HT8e0FaCC9xxXEO5ZZCtM2D2VhloTi3KyBTYmFdI9bPoxDqVXnlZwCxNISmorlkFTGHkml7YSVs21IClR3HkJ9+4EQizWl3ETVhBqeSPFxTrNAtglJgnWYHCQkK1JcrZDoLY+AGzQqWIbEwf68LBDrIiKE5bShfGnoK5ZBogeJwSpYSfuzuxsL/Z17MCQXrA88IrJnTSRXcIG24GYNCkFaCOEqSH2Q/cgQC9PmCwvTRR8WposHBSVMEyRwbtxzCet/fAOV2MKuSEBi8ksfLDbJgAIL00xBYSphmuj8zu8oXcoBS6a/puQwRi7dDMaAz1Zi4vD26NO5rpJb+BRnYTopWYu2Q+aigdVtTPHdq+Q+GYtPhWHDZekZrp8f7CyfbFL2rpsxmLo3CKv7+8HrKcTp1WG1MD+kEZZ//RrqVPVWchkmM/GJWvSccAyWGhWsrdh5QFEjVWtAcmr2RpMqFVDd1wYHDh/DT2O6oE2jZ3MbaCrIZQfNQiLp9eLFi5n8SJNrraZNm0KtViM6OhoODuYRuJGeVapWcMcv43ooOfmHWQrT5G6ChGlClcfWqROlLxaprlqruKp4DL2VQezSIP3W6W2Um5nqSskiXjaNFcJ0UBzcV+SzMC39xaj8ZPExxc0aqQ4WUp5aWBjrrdVSW0khBTT0R5eUQkN7tBFUlvJUV729lVTPAjpl5muKqw6pTtkr+BZxaliHy5U1WmlPKTpo4mSx2ZBKAqx0MBvpAdvWCjp6kJAuh1o6tjpJ2mdSEgx6PSwSdGnityHgHvBYlGdTE9G7JpIrpgvTWjsD9JZSOy2oF6X2JUvXS56lAQ3dL4+hl05X1KfPdnlra5qFtLSk+yU7WJg2X1iYLvqwMF08KEhh+m5QFHp9tBQdmrLVdFGBBhP+3nsZa78fiMqKW4OnhQJvz1p+EB2aVUbL+hWUXIYxPaYUpsf+uBV7T9zCwaXvwtIib5alJYUlf5/CD0sPiMHGyuXMZ7CxOAvTxPhZ27Dz4GWsrrwGzhZPZpS06GQY/rkahRWvPbkobWT3rRhM2RMkgiWWdnwycfpt/+5IdvTF5l/fgpoDHDI5YBSmX2pRGh+9WknJZYoK/xwKws/rM8/qIEG6dd1SeL2TrwjqO3jiWnw9qgtebF1dqVG4fPXVV5g8eTIaNmyIkydPKrnpLFy4EMOGDUPdunVx7pz5xM5pO2Q+mtUth28+7qrk5B9mOUxEoqDeWk46m7wlPQnOUhJWr6RRP54oXxEr07ahY0jraXWkGzo79w0mhYRpB3uR9KUcofNyhs7TEVrpR1iI0qIOoLNSQ+dkI5d7OUHrZicSidIEWTZTSnFRI97XItuU7KZJqyu2k45h3BftV+zfWToOjRoq56+XHiqoPVoPuX16d8e0Nou//HzG2BfGvqF+yng/iH6TLkNO/W28J4zb5JaM91xOojTDMAzz7Hy3eD/mrDysrD0b5bxd8FKbGth++LqwtGPMmzsPIvHPf1fwQrMqzyxKExQcbdK7HVmUZooUjWuXFVaqZ648UHIYI8cu3IWL9HddyVeeKcoUDD071EKKXo1NkU829X3hiVBsufZsojTRoZITJrX3Rr9V/ngYm3ef0xcTPETgw96d6rEozTAlDJKl2jznjvmfPIfPB1VHRW97EbCPSEktQNcLubBp0yaxbNu2rVg+zr59+8TSnPxLE6nagruGT//rkQVtG/kJX4E1K8m+kAsSyzgpxQJWocmwvhuTKdmEpsImXCfVS7eeVaeqoInTpdWxuh8Dy5B4pbSAMcg+pTUxSdCExkITFguLmGTh69mIigIIUiBBpY5FaJxI1iEpsA0xZJuo3FhX7Ds6MW1fRug4dDxNWHod4eO6kDRai7AE0R/GvrGI0Yr+MmIRrxf9aROmTauTMVmFJIn7ge4LhmEYxrw4cu4Ojl80XcDCDwa0gI2VBX5cekDJYcyVmX/8J5bUZwxTUmmtzOraf+q2WDIyCYkpOHYhUAw0qQrAEIZJp3GtsqhSzg1/R9UQAnVe+O14KLbfiMGyvs8mShtpX8kJkzvI4nRQjDI1NheWh9aFhUYlgiEzDFMyyChIT3yzmhCkjdjbyTOa4hPy9h1SEJArD6J27dpimRFy3WEUrs1NmI6TrqGzg42ylr+YVJi2s7VCWS9nWEsvhwWNyzU93K7o4b7jIbz+uJgpld4VDe/9iXC9kn6DWkarYX8tPq2O+58X4bLjllJasKh1Btg+TIbduQew230JdnuuwPFCKKyDFaHcILU3Xi+SzYX7oo7TzmsieewIRdntqdkmrx0RaXVpO5szd9P2ZRSerUITxPHs912Vj3/6nmgPufQoDJz3BYj+MPaNw4UYWEWl367Ot1JFf3rviU2rkzF5bA8S94Pr1cIT1xmGYZiCwcPVXvgXPnHpHnYcvq7kMuYGiXAHTgegd8fawtKdYUoqnm4OqF3ZC3uO3RQ+JxmZQ2fvQKvVo21j8/ALWpKggYC3X22KiFQbrI+oqeRmz7xjocI39NI+FU0iShtp5+eELzuWEeL0g1zE6XPxXjge74M+nevBzVmOp8QwTPGFvqdIkP7t0/qZBGkjpZTvguAI87BQjI+PR1yc3BYPDw+xzMgPP/yA2NhY8dmchGlylUc42FuJZX5jUmGaySPSA6jh7gORLM4HwOboTVifuAXVzbtAZExaHQpMqLlxX5TbSA+uFuf9RVJHyDeuQacVCaERUF2/k23Cw7D0uhKq6Pi0fdF+af+a6/fF8Qw6xUI7Ok60x/qkVEcqtzwbkNbm/PYvzTAMwzBPyuAeDVHG00m4CYlPNB8rCUaG3BbMWLQPnm72GPV6KyWXYUouXVpVw/2QGJy//lDJYbYevCZmv5hLwKqSRucWVdGwRhksD6uHkNTshd5fj4Zgz60YLO1bEbYmFKWNtKnoiKmdfPDaSn/cj87691xnUOGX4KZwsLXEsN4c+JZhSgJdm3kJQbpC6ey/n8jFG/2OBIfLmllhQwENjWi1sh5n5OzZs5g5c6b47O7ujkqVzMfveVCYfP3cXTOL//kBC9OFAQnTkdEiaR5EwDIgDBZ3woDQSCBBHpkQdeIToAqNFuWUNPfDRVLFK3X0ejnFJcjbZpdi49PrSqikF3bjvoz7VodEiePRcQVJyWJbi7vpxza2Oa0OwzAMw5gJNFvr83faSw+icfh+8X4llzEX5q09isCH0fj4zdZihp2pIIuOr+buwqEzAUoOwxQN2jetLKYjb/7vipJTsomITsB/J/1FINPCmH2bGzSoRqk4Q9aInwxpgxRY4vsHLbJ85ZtzJAT/3Y7Fsr4VYWORf1JC6wqO+KZLWby2yh/3shCnV4bVFr6lPxjYCqVcine/MAwjo8mjH3kyVKH3AXPA1tZWiM4ECdFG/P398eqrr2L06NFi3dzceBiF/TLuTmKZ35j014T8gt0LjkZyyqMjAQWBCHInvefo7CzkgIGPJzsNtLZq6K3YX1lxQG+pEv2ps9Vk09+W4n7QF8zMA4ZhGMYMaPFcBbzYuhr+2n0Rh8+yUGkunLn6AEv/PoXnG1U0eYT0hKQUrN91Edduhyo5DFM08JFenJvXKy+E6Zj4ZCW35LJxzyXhxuOVjpl9cJoDM0d3E6m4Q7Gi3uzRECfifbA6/FG/zb8cDsbBO3FClLbOR1HaSMvyDpjRpaxw6xEYlS5OkwuPxaH10aimD/p1qafkMgzDyFTwcYV/YISyVvgMGDBALGfMmIFp06ZhwoQJaN68ubCWNrr5MDdh+lZguFj6FVAgYpP+ouw76Y9u7/2By7cKPip+TAUNYipKqXkZxPSqnymFNXVDWAN7qU7BOO9m8pc4XyvRn2FNnLPs75iWPvL9IN0X4LEIhmEYs4LEmCa1yyprpmXc2+2E/9ZJs3ciJk6ZYcQUGmS08MWvO+Fob42JwzsouQzDEG+83AAJSanYsOuiklMy0er0WL3tPKpX9ECjWvnz28DknZH9WwjRd2FIQ5yIKyPyZh0KxpHAeCzpUwFWmoKbdN2ivANmdi2L/qv9cTcqBfdTHPHF/fZwdbbFN/97UVh5MwzDZKRS2VKIlt4BQiOVeG2FzKRJk9C4cWMkJCRg4sSJ2LFjB/755x/06tULu3fvFnVIqDYnbt4Nh5WlRsQQLAgK7leFYRiGYRhG4pPBz+N96cU3P3BysMHUDzsjPDoB42dtU3KZwmLK/N0IuB+JCcPbw6uUg5LLMAzRvF45VPIthRVbziAlteBnnJoLm/ZexsOwWLzZvaGSwxQmGo0aMz/pJqbDTwjsgE/3xuPE/XgsfrVgRWkjzcs54LuuZdF31W2MuNQUySpbzBrbQwQ+ZhiGeZwalTzF0lxm05UqVQrHjx/HjRs3cO/ePZw4cQJNmjRBaGgoLly4IH3natCoUSOltnlw9XYIavh5FtjgX7ERptWpcrJIMsAyQZ8pUb5GSupU9o9cHKC+pv6klF1/G+8JcJczDMOUKJrU9hXBEA+cDsCiDSeUXKagWbH5DP49cE1Mte7UoqqSyzCMEXrhe7t3Y+EL8++9l5XckkWqVoff/zohXJt0bsnfE+aCm7MdFn7VB67ScndsdQzv1KpQRGkj3l4+cHvudYTFJWHG6G6oU9VbKWEYhnmUesr3w+kr98XSXKhcuTJ8fHyUNWDPnj1i+dxzz8HOLvuAjgUNxW/xvxeBulVLKzn5T/ERprVKStFDk6jNlNTJBqlMSlpWKYsDKp3Sn1LKsr+l+8B4TzAMwzAljw/6t0DTOr745c/DOHz2jpLLFBTHLwTih2UHxEMtWcgzDJM1XVpWQ9Xy7pi7+ijiEkqer+mV/54VMYqGvdoEFoUofObG8YuBIpUkvD2csOTrAajbqie+etARa8JrFkoM/FNx3hgZ0A0az7pYPnsM2jT2U0oYhmEy4+5qL2Z8nL36QMkxT3bt2iWWzZo1E0tz4dz1IPFd/1w12ZVTQVBshGmHezo43tXB/sR92G4+lSm5ng5HqQvxcLjLwUWKA/YPUkR/up2JyrK/7Y8FivvBIVCnbMEwDMOUJGgq8jcfdxVWeJ9+vwU37oQpJUx+czcoSlzzUs52+O6TbrC01CglDMM8jlqtwsdvtkJ4VALmrTmm5JYMImMS8du646hcrhR6tHs00J65MWflEZFKGvQbuvybAahfwwfzghtjYmB7hKXaKqX5S7Jeg/nBDfHp3Rfg5OqKRVNfEzOiGIZhcoO+K85dC0KsGQcX3q34l65Tp45YmguHTgeIZ5MmdQru+7bYCNMMwzAMwxQNlm8+g7Xbzytr+QdNRZ4zoaf4/N7UjQgOjxWfmfyDrvFbk9aJYGZ07b1KOSolDMNkR4vnKqBdk0rC1/RVM/GJWRBMX7BHWIlPHN5evAQz5omzow1++/JVDOnZCEfjfTHUvxc2RVSF1pB/fXYs1gfv3O6O1eG10apBRaz67nURHJNhGCYvtGpQQTyLmuusyYCAANy+fVt8vnz5MgyFMR0lG/Ycv4U6VUqLuD0FhUmF6ZbSQ9XKGf1RrUL2Pxoq6XpbxqjgdEOdbdIkqKBOUkGl5QcUhmFMR4pWj35LLqPWNyfQY+FFRCem+3r5bJM/akv57WafxdXgBCUXWHz8IZ6beRKNvz+N7VcjlFyGYZ6FDbsvYvP+q8pa/lK+jCt+/OxlxMQlYdjk9cKXK5M/REQn4N0pGxERk4Afx7yMKuXdlRKGYXJj3NttYWdjiclzdpSIQIi7j93EjsM38OoLdYQ1LmPekJuVUW+0wvJv+sHL2xM/PWyON2/1xr+RlYVlsynQG4AjsWXxwe0XMS6wI2KsPDDtw85ikJPEcYZhmLzSukFF2Eq/qbuO3lByzIubN2+iTZs2Ip07dw6jRo1SSgqXy7eCERIRh47NKis5BYNJhWn6wahZyQt2tlZKTtZoklWwDs8+qVIVUVqvbJAHaMBWJLUKBk0WSTpTkVjrLh6IvlZSlv0tJeWeYBgj/92Kxuozobj8MAGbLoZjy+VwkR8al4IZewJxScrfdzMavx0JEvnEpH8DcO5+PE4GxuKbXXeVXIZhihI0nW/G/17E/dAYDJu8jsXpfEAWpTfg9v0ITBvZuUCn/zFMcYBmF5A/drKYLu4uI8Ii4/HV3F3CTQSJnUzRoXbl0ljzwxuY8kEnWLiUxndBLdHnxmuYFdQUJ+O8n9iKmowErye6YXFIPbxxqzcmBHbAXZTBhwNb4p85Q/FSmxpKTYZhmLxjY22B9k0q4b+T/mYZv6Fjx47Yt29fWpo1a5ZSUrhs2X8VKulrvKCDEZtUmM4LZKCe7CK9wNTMPunsDdDbGmCwzLs5e0hT4GFLIHBwWdye3jRT8n+jFPz72iO4mbWyBVOUCa1vJfrT/3WXLPv77lvlxP0Q3FyqzOI0o5CQ8qjP8WQlGGpCyqOjYEmp6esJqenbGOszDFP0oGBJM//XTYjTbwtxmt16mAq6lm9PXo/rd8KEdVuXVtWUEoZhnoSe7WsJlx6L/z6FbYeuKbnFC51Oj4++/Qcx8cmYMrITHOz43ayoQdbT3dvVxKbZQ/DDpy+hVs2K+CeqOsbc7YTu1wbi44DOmPuwEdaH18CBmHIieKExHY4ti78jqmFhSH2Mu9sBPa/3x4jbL2Np2HNw8i6PsW+1xa6Fw/HWK43hZM/3BsMwT8+LrasjWXr/33boupLD5ERqqk4I0w1rli1wV3wFLkynQWJhdulpMG4rrGgVi9lHkmI9+7T7Z8wLqR+NFtFZ9be4s6mvKTGMQtPyTnCzsxCfnW01aFPJWXwu62KNOt724rOFdP+8WNNNfCa61SylfAJ61En/zDBM0aN900r4bnQ3BIXGYvDEtQi4z+55npX7wdEY9sVf4lqSKE0vAQzDPB0qlUpYolb0ccXk2TtxPaD4+Zv+euFeXLzxEKMHPS9efpmiCwUZ7tCsMn774lXsWjgMn4/ogA6taiHKqSrWRtTCnOAmmHyvHT673w2To97EuKCemBjYAbMeNsOfYXVx27IKGjesgY/faIW/fxkkLLH7v/icmH7PMAzzrDSrVw5epRzw55YzZuXD2VzZevCaCEpMLrYKGpMK06Swkw9HcjKeLSQkagzQW+uzTQa1QaQnERXtHqhgf08F1wtJ8NgfmSm5XdTC9aoe9g/4hjQbLCygKu0JXWUfpNQph9TqPlKfS7ekSDl3vl2wQfSn2yVtlv3tej5R3A+UhJk+w0iUdrLCg6+a4/akpnj4VQv4uctRxTVqFc582hABUn749BZ4qVa6AL1kYHXc+6IZQqe2wGcdyim5DMMUVcgace7nvUSU7jfGr8bhswFKCfOknLx0T1xD8kX3y/geLEozjAlwtLfGT2O7S4/Janww/e9iNbtj0V8nsHbHBfRsXxOvv1RfyWWKA6Vc7IWYMf2jLtg0ZygOLH0X6354HfMnv4JRb7aHg6sv+r3UVKyv+LYf9vw+DDsXviNiQAzu2QgVyrgqe2IYhjENNLujT6e6uBUYgRMX7ym5THZQcHpXJ1thyFPQmFSY3nn0BloPmocL19P9s2YJCc9W2ac0a9cnwDZEBdtgFRxvJMPtdEym5HxLC6fbetiGskppNlhooHJ3g97XE9rK3tBW8JQF6VxEacIm3CD60+mWLsv+dryeLO4Hui8YJiPW0oteBTcb2Fg++vVH4nR5Kd/JRraozoiPizXcHdh6g2FMRaWypQr1JbRx7bJYPLUvLKXfoQ+m/Y01288rJUxe2fzfFYz4agP0egP+mNIHLetXUEoKFppqeGDJCAxkkYspRtD3I7lIiIhOlAOKRqcHZS6qUNDbWSsOoWkdX0wc3kHJZYor5IaDAuA2q1sODWvKwS2rV/QU6+SnmoRshmGY/Oa1rvWEv+nf/zqh5DBZcehMAK4FhGJwj4awtsqsh+Q3JhWmCxOLJD0sE/VAZCy0QQ8zJU1kAiyjk2GRkKpswRQ2WlsNQlq6IqFXKvRDwmDoGwm1jbVIKnXOt6YmSSv3Z1RSlv2tiogR9wPdFwzDMIx5MWP0i/jy/ReUtcKhcrlSWP/jGyJo87Tf9mD8rG1IStYqpUx20Oy4KfN3Y8LP21HJ1w2rZg5ADT9PpbTgUatVcHKwKZSHaIbJT5rWLYeZ0ncluckZ8vlaETCwqLJy61l8NW836lYtjVnjusPSUqOUMAzDMEz+QYNkfTvXxdHzd3H26gMll3mc39Yeg4OdFV4pBDceRLERpoW7BpGk//T6zInyjXUY80AldY2FCgYyRCVLeUp5xdiX3N8MwzDMU0LT1X7/6lX06lBLBPt4Y9yqYunT1VTceRCJNyesxrodF9C1VTVhKV3avWCDozBMSYJcD309qivuB8dg0IQ14m+wqDF/zVF8s3CfGAQkN0q21jwDjWEYhik4hvZqDCcHa/y0/CD7ms6Cvcdv4ey1IAx/tWmhBZ0tNsK0zloFnY0KBmc7qDxKZUpaZ2ukOlpCZ8sj9IWGWg2VrS3i63sgopMPop73RJK3DnoHPdQq6QvCVoXwzu4iacs4SHVtlA0zo7PRiP7UOlll2d8GZ3txP9B9wTAMwzDZQZa2X7z3ggg4dj8kBgPHrhI+1shFBSNDD/Hk7qTvJyvgfy8CE4e3xzcfd4WdrZVSg2GY/KJzy6qYM6EHwqMTMPCzVWK6bVEgOUUrZqL8uvooWjxXHr9/+Soc7ArnhZdhGIYpuZAhyqDuDXHmysp60LkAAHxgSURBVANhiMKkQ7/VM//4TxiavNalnpJb8BQfYdpGBa0Qpu2h9nTPlLTONkh1soTWlqd6FhYqjRpqO1vENfJEeDdfRHbwQpKPVgjTGpUBBjs1Qrt5ipRa1gFqWzkwXVYIYVrqz1Rn6yz72+BiL+4Hui8YhmEYJje6t6uJtd8PFC4+6AHt7cnrcCswXCktuZAbgeFf/iXcnZQr7YLVMwegT+e6SmnhQ65FLt8KLtJuDhgmN8itx4IvesPO1hLvT9uIX/48hFStTik1P27eDcfrY1cJAeCVjrXx87juwscnwzAMwxQGJExX8HHFd4v3IyYuScllFqw7LgxzPhn8fKH+ThcfVx6kP0rJIJ2RQa3KIkn5Sh2mcCHjaJVeTplcbdB6XozUqK9z6W/jPcEwDMOYFxt2XzJLiwUfL2cs+7ofRg5ogYs3H6Lv6BX4fsl+xCUkKzVKDolJqUL8Iivpc9ceYFjvJvjz2/7SQ72bUsM8CIuKR/8xK7Fp72Ulh2GKJ3WqlMaa7weiaZ1yWLj+BIZMXIu7QVFKqXlAM01WbzuHAZ/9iYAHkZj+URdMfrejCDRb1Hm/f3ORGIZhmKIHxTYY/3Y7RMYk4ttF/ym5JRtyX7howwk0r1cOLzSvouQWDiYVppvU9sX8ya+gUjl3JafgiK4EREnXMriFHQJ6uWVKwc0sEdJIjWg/VioLC4NWB310DNzOJMN3tw7eBw2wuWMNixg1VCoD1HrpCyPcUiSVtSPg4qRsmZlYX5Xoz+AmFln298OW9uJ+iKosVeYuZxiGMSuWbz4tXEOYIxYaNd7u3QR//zxITD9fuuk0Xnp/MdbtvGDWFoqmQqvTC5G3+8jFQvyqW8VbBIn8YEALDljGMIWMi6Ot8NM8etDzuH4nFL0/XobZfx5GQmKKUqPwOHctSPjpn75gL6pI74IrZ/RHt+erK6VFH3rPpcQwjPlDg2Q374YJQ4iv5u7Cu1M24JVRS/HiiIXQJkViw/YT6PXhEgz/Yj0mz9khnkmv+IeIZyCm+EKzj3q0q4nN/13BriM3lNySCbnwGPvTVlhZWeDzER2V3MLDpMK0u6s9mkmdXRgOs23CDLANNcDOPw72Z0MyJYfbSXC8myrVK/4vlWaNXg+9dNfpLFXQS7eJyi1FWhqgkzJ1BrX0WSqXUoqbFZI9svcxbR2hE/3pGJCcZX/b3YoV9wPdFwzDMAzzpHh7OOGX8T3w68SecJSea6bM2y291CwTD7PkPqK4QS9j2w5dQ5//Lcfns3dAo1aL81/41avwLe2i1GIYprBRq1V4s3sDrPvhDTSqVRYL1h/Hyx8sxl+7LiIlVavUKjgoIONnP/6LN8evlj5HCdF88dS+qFwIhkoMw5RcKB7G0fN3MXnOTrQZPBe9P16OL37dKX03XsDVS9dgGXoNtVTX8WDbJygXuRM2Eddw6+p1bNpzSbgr6/fpn2j9xq8Y++NWEQyuOD7rMcCYoW3g4+mEr6TnenJhUVIhlya3AiPw2dC24noUNiYVpgsTxzsGON02wOVoOEptupkpuR+Lg/vpZKlOqrIFU+BIPxYGvR46KxW0tmroHABV2UTo7PRI0WmQYqA8qVxKCeXsEFcp+z8Qh3ta0Z/uJxKy7G/XI2HifnAKMEjHVTZiGIZhmCekZf0K2DDrTUwa0QEp0kvKhJ+3o/uHS7By61mzsFJ8VpKStVi74zxe+WgpPvthK2LjkzHu7Xb4Z/ZgPN+wolKLYRhzo5y3i7CeJv/N9rZW+HLuLnQa/jv+2HhSTFXOb05euocPv96EHtL34c7DN9C3c138M2ewEM15dgXDMAUFzWYjF0Ld3/8D73z5F7bsvYBKhjt41+sE5lTYgu01lmFdldX41e9fTPHdi9p2wRhd5ihmV9yKNVXWiPJ5Ff/ByNLHUM/yNvYevoxR3/6Dru/+joXrjyO+GDzrMelQEN5pH3ZGfFIKPv1ui3gOLmmQkQ3NEujSqip6dail5BYuxUaYZhiGYRiGyQ/IvUfvF+pg8+zB+HxEB1hK698s3IcXhi/E9AV7cPV2qFKz6EDByb5esBcdhy3A1Pl7hMX02LfbYvOcIejXtR4LSwxTRGjTyE8Mnn09qgtKudjhp2UH8cKwhRg5/W/x8hkda5ogT2SNSIFGZy0/iG7v/YG3Jq3DobMBeKVDbTGQNWF4e7g6ZR+4nGEYxtRsO3gNPT5YLFwIpUY+wHtex7G+6ip8X2EH+pS6jBp2YbCgAFc5oJHKq9pGoJfbVUwrt0ds/4n3ITgl3scvfx7GS+/9jrXbzwv3IEzxoH4NH4wd2haXpN+0L+fuFL9vJYXjFwIx+dedItj7ZDNw4WGEhWmmwLE7/wAuO67B/sBdJIbZITrcHmERDoiMsIdFhIVITvsC4LrpkrIFwzAMwxQ+JNa++kIdbPx5EL77pBvqVPEWFgevfbIC/cf8iZX/nkVIRJxS2/wIjYzHqq3nhB9Y8k27ats5VK/ogW8/7opNswejf9fnCjUiN8MwT4dGo8aLratj3Q+vY9GUV4UV1JmrD8QMj3ZD54vvp5l//CdEHAp2lJsFIAkwweGxOHz2DlZsPoOPv/0HHd5eIAKNLtpwEg52ViKC/87f3sakdzuKwLHFnfembhCJYZjCh5613p+6EZ/9uBWp0cH41PsQllb6C6+WugIHzbPNkLdVa/Gi6038VnETpvruhlNKCKb+tgeDxq/CrcBwpRZT1OnTuS76dKqDfw9ck34f9yu5xZsbd8Lw8Yx/4OZkJ1wV2tlaKSWFj8pgwuGBnUduiGlkdJJ1q3oruY8SGx+HMp3awW1QXyXHNLifUEOlA6xuhcLKP/MXhqGyDww2Vkgoq0ZoY9kKyCbIArY3ouDxJ0dyL0gMnq6Aoy1SSlni7hulAWup4yz10lOwCupw+Y/DZ8Vt2N2MhT4+XqyH96qKhDruSCwjT7VwO6+D4y09VKlaqK4FiryMpJZ3Q3JVTzH0EtpY2rcJAyBGrt6E6yvXo7SntH8T0vvjpTBoEvDJBxxY5Wm56Z+I7+fcE35RC2MKer3eP6F1c2cMeNW090ZJYv/hKKxcHyperquUN41/ShIOyXfcxE/Kwce74GMglESOn47BHyuCsXhqH2GV8Dj0ck9Tz2eO7qbkFF0ehMZg3Y4L2LL/Kh6GxYq8+jXKoG0jP7RqUFFYJBQmt+9F4OCZAOEv8dTl+yKvtLsjurauht4daxd5/9FB0vXvMmIRPhrYEkNfaazk5o2/914WgwlMyaD/i8+JoEdPy8LNAVi95z5WfN4Inq7m/1tCroaOnLsrxGUSqf3vhZNXvTTId76Lo42Y1myE3BXFxCUhKjbpkWCvTg7WqFOlNBrWLIs2jeh7reT5jx40YY1YLplm2nfYksBF/xh8PPsCPuzth5dbZq0RMExeOXLuDsb+8C+ipe+qPqUuYajHGVip8x60cPiGAExqXwZlnfMmyukMKvwVUQO/hzaE2sISX7zXSTxDMUUfnU6Pj2dsxn8n/Z/qObIocTcoSvyOUSwKigNhqvdsU2FSYfrfA1cx7qdt2b6IEvklTNs8sIBK+j6yijbAKgsf5inOKhg0QKqTAYne8oMWC9OFQ3LjytD5loLWFgivrYbOVg+9lXQbSv/UqbIRf9k/78P+Vjx04RFi/XFh2iZEDatItdznUZlv4VRH6TguKiFIJ/qY1m8QC9PmCwvTRR8WposHuQnTxRGyMDxxMRB7jt3CPukB1yhSOzvYoHHtsqhXzRs1K3mhbtXSsLLMH6tkCtRz4cZDXLwZjIvS8rjUHqOvWRKjSVBq29gPzeqWFwHUigPPIkwv+usEZq04BFcXC2h4DmGxRXrvRGSU9plfOouaMP04EdEJwu2Q/70I6QU1UsygiE9IQUJSqnDlQzjYWsHa2kJ8b5EVdHlvF9Tw80S50i4l3r0PC9NPDwvTjKnYsPsipszbBVdNIib77EUtuyd3pfakwrSRwGQnfHm/HfyTXPDea83wTt9mSglTlElMTsXIaX/jxKV7GP5qE7zfv4VSUnwIuB+BYV/8hYiYBMyd2AtN6pif3sTCNAvTBQ4L01nDwvSzw8J00YeF6eJBSRSmM0Ii9WX/YJy8eE+Iw+euBSEuQZ46r1GrRNAybw8nVJXucRKMXZ1t4eFqD1cnO+GjlepYW1mIRCSnaEXSSfsloTlSerAMi0wQQlNwRJyYmvcgJEZYQxgFJlsbS9SvXkaI4vQAWtPPq9iI0RkxhTA9bWIFuLlaKrlMcSMiMhUTpgaUeGGaeTZYmH56WJhmTMHv0m/2z9JvdnXbMEzz3Q1Xi6fzn/+0wjSRqLfAtHutcTiunHDtNvGd9lCpit+zVUmDrIg//f5f7Dvhj1c71cGEYe2LzTPz2asPMPLrv8W7yezxPcz2vazY2IdopPc9ShaJBljF6zMliwSDKNOkmEyHZ54S6/Bk2AXGw+ahbMWlSVLDIlYDiziN9FklUkLN0ohpXl6UZ4U6Ve7rbPtb9LV8T5DgzTAMwzAFBT3M1q5cGoN7NsKvE3vhwJJ38ddPb2DSiA7o26Ue3F3scfHmQyz++xS++X0fPvthK4Z+vg69PlqKtkPmo/WgeWjSfzYa9JsnEn2mPCqjOlR3zA//im3/2HBSCN9uznbiJYmOsf7H13Fo6buY+3kvDO3VWLSlOIrSDMMwDMMUf8jtFonSz9k/xPfltz+1KP2skP/pL3334QXnW1i38wJ+WHpAKWGKMjST8ftPX0K356sL93yjvv0HsfHJSmnRhQyH3/nyL2jUavw2ubdZGwsVn4mLJD5KiYKukhVtpqSUs0hZ+Kj0Bqi0UtIpnZGhz4x9ZLDSQG+Tw1RnpV7GbR9JGcoZhmEYpjAhUbiSbyn0fqEOxr7VFgu/elWI1UdXvI813w8UsTmmfdgZowc9jw8HtsSQno1EKlexlkjGdSqjOlSXtqFtjyx/DweXvovfpX2OG9ZOHIP8v1IwNIZhGIZhmKLMvhO3xEB8bbsQfFV2jxCHCxONyoAxZQ7heccALN10mmNVFBMspOdmer4mdx7kc5oChdOMxKIIufajQRPyZuHt4Yjl3/RDrcpeSql5UmzeWizjDLCKNcAyOA4Wt0MyJeuQJNiEpcIyNj2QBwOonBygcnaCy3MWKN8nCY37h6J5/2D4tUmBobS7dGFN7wdTa6tBqpMltA6P7dsgfSEkyMkyRgermOwj6lrG60R/2oQmZ9nflg/j5PtBui8YhmEY84KCJdOLRkmH3G1Uq+CBlvUr4KU2NfBm9wZ465XGGPVGK5E8XB1EMq5TGdWhurQNbWtOEbUZhmEYhmFMxf3gaEyYtQ2lreKFKO2gyV4fKEhInB7rc1C4FZmxaB8u3wpWSpiiDLllIR/TP3z6Eh6Gx6H/mJVYvvkMTOj9ON8JeBCJAZ+txJK/T6FDs8r489v+KOvlrJSaLyYVpmmq6OcjOhRKhHebCD1swvWw9o+E1ZnbmZJ9QBwcApOlOubxZWYuqN1LQe3pDq+ulqj3ZTx6Tb+DPl/7o+HgRBiq+ALWpn/hJVE6ydMayW6P7pssnS1jVCIZRefssI7Uiv60D0jIsr+tb4WL+4ESwzAMY17MW3MUf2w8pawxzNPjaG+Nj15viUa1yyo5DMMwDMMUdcgn7vhZ25CUlIwvfPbAxcK8XCvYqHWYUnYP7DWp+OyHLSKIHlM8IEGX4h1Vr+iBmX/8h7cnrxdxXMyZVK1Oerc6ib6jl+PuwyiMH9ZOCOxFxYDFpMI0BfMh/4burvZKDmPuWH2SAKvPE1C7SyT6OAbjQGwNrItsiNgaKgz+YgvcvKOVms+OytISGvdScG4XB89+gXB7OQh672SUrhaCWg1uo0q9QCS7G0TS2aqh52nIDMMwDMPkgIOdtfCjXbcqB9RiGIZhmOLCpn2XcfZaEAa5n0VV2wgl17woZZmIj7wO4+7DGMxfc0zJZYoDZGW8dPpr+KB/C1y4EYReo5bi20X7EB1bOP7Nc2L30ZvoO3oFflp2EDUreWH1zAF4rUs9pbRowMpfCUflq4e6gg72blp4alIQpbNHqNYROjugdIVwWFqZ0IeTSiXEaQtXHSy9kmHhngJY6WFllwp7xyTYOSRDbwmRDHRncoRbhmEYhmEYhmEYhikxJCSm4OdlB+BrHYN+7heVXPOkvXMAmjsEYvnmU7gfEqPkMsUBihEz7NUmWPfDG2hRrzz+3HIWL3+wWMz8NIfgiAdO3cab41fjfzM3IyYuCVNHdsIfU/qggo+bUqPoUGyE6WRXKUnXP7GcLRJquGZK8b5WiC+jkeqxFp8RC5UeFmo91CJaIBCbao3oFBsY9BZwk/K1NeyR0MAJyX62ovyZ0OthSE5GapAFkv3tkXrfBlaWWlhodMJPkwZSSoJIqpgEIDpW2TAzKc5q0Z/xZS0z9TWlxPK24n6gxDAMwzAMwzAMwzCM+bNq6zmExyRhhOcJoROYO0M9zyBVq8fc1UeUHKY4QZ4hfhnfAwu/fBW+0ue5q4+iy4jf8d3i/3A9IFSpVTDQoM1fuy6i/5g/8cH0v+F/LwLv92+Of2YPxsttawo/2UWRYqPSRlUHImoBoZ3cETS0eubU0RFBbWwQWcNS2YIh7CxSYW+RAiu1HBTybpwL/GNLQZdih9pWWiQM9kbwmAqI7ukpyp8Fg1YLXWQUYg/ZI2KDN+L2usPZIRF2VnR8LayghXW4SiSNfzBUN+4qW2YmurKF6M+gDvZZ9ndIF09xP0TWkCqz4TXDMAzDMAzDMAzDmDWpqTos+fskKttEopnDPSXXvKkktbWtUwB2HLqGyJhEJZcpbjSuXRbLv34Nv01+BQ1q+mDZP2fQZ/QKvD52Ff7ccibf/FCTGL33+C1M/GU7Xhi+EF/O3YWI6ET8783W+PfXIRj+atMiHwzdpML0/lO38eK7i3DpZsFHJXX0V8HppgoeRxLgsykkU/I6lgLPUzo43S46ETULkn+D/PD28c54y+MKZlQ4glfd/aFRqTHa7wh+qLkNg33PKDWfEYMBBgsVdFYqpEKD6PvO8L/rhbMBvrh03wepjtKPkZQMGqmfcoh+6hhoEP3peSw1y/72OBQv7genWyppP8pGDMMwjFngID082dvyQDHz7IRFxqPfp3/i772XlRyGYRjTU6uSl0gMw+Qvu4/fRFRcMl51u1ikPHv2dL2K5FQ9/t5zSclhiiNkkdy0bjn8Mq4H/p07FEN7NUJweBy+XfSfcPNBeuiU+bux+b8rwprZkIOmlR0R0Qk4dCYAC9Ydx5CJa9F68DyM+vYfbD14DU1q++Lncd2xVTr2oB4N4eRgo2xVtDG5xTT51YmOK/hRIqsYFayiVbANSoWDf2KmZPdQD9sQg1SPVcqsCIh3wu7gcqhpG4mWTkGobBMj3Rwq1Jc+t3a7g5oOppuiQP6jDRpAL+0/Oc4KMbF2CItxREScfbqP6Vx+hCxjDaI/7YL1WfY33Qd0P1BiGIZhzIsl01/DrxN7KWsM8/RQFPIr/iEIj4xXchiGYUzPmKFtRGIYJn/ZdvA67DVatHbKfva0OVLXPgRlrWOwYbd5+8RmTIePpxM+er0Vdvz2FhZP64vhrzaBu6s9Nuy6iAk/b0evj5aiSf/Z6PnhErw/bSPGz9qGrxfsFUEKjem7xfsxec5OfDzjHwz8bCXaDpmPdkN/w3tTN2L2ysO4HxKNbq2r4+tRXfDfH+/gx89eRptGfsL/dXHCpMK0rbVs/ZSULLuFKEhUejlBekExpKZmSiqtHiqdQarDwnRG4lOsEJdsDRtNCso7hcFCcelhJEpvjTCdLWL0ppsaoI5LhiYiHhZh8bAOjIcmNlW2apaS1AyRRF/mAPWj6E+dPsv+pvsg7Z5gGIZhGIZhGIZhGMZsSUnV4ui5ALRwuANbtVbJLTq0ltod8CAKgQ/zx6UDY56QFXX96mXwfv8WWDr9NexfMgLzJ7+CUW+0wgvNq8DezlpYT+88cgOrtp3DHxtPpqVl/5zGxj2XcOH6QyQkpaJWZS+89UpjfPtxV2z6ZRB2/PY2vvqgE15sXR0O0n6KKyYVpl0cZTPy8OiCt1rRJOthkaQHYuKhCwnNlNQxibCITYEmseh9weUnF4LK4Mz9svCzD8HnTTbB1TpBKZHZk1AWf8VWwtHE0krOs2N97i7st12A098X4Pv9BTicjgD0KqhSAbsgg0jqFKVyNqiTdXJ/xiRn2d+q6DhxP9B9wTAMwzAMwzAMwzCM+XL6ygMkSu/5DeyDlJyiRQvHQLE8dkFeMiUTEpCb1S2HIT0bYfpHXbDim37C9caJVSNxfOUHOLBkRFo6uPRdnFs/CrsWDsOGWW9izoSe+HBgS3RpVQ3ly7gqeyz+qAxP4/QkG6Jjk/D84HkY3qcp3u/XXMl9lNj4OJTp1A5ug/oqOaah9H8q0KCa1aV7sLp8X8nNQJ0qgK0NYv00CGorW//aBFnA9kYUPP4suX4JA+bXhs7RAl3LXERP3zNoYaODbYZZAUtjyiJYa42QXRY4P8pWyTUtIa+VR1Q7LyFGlzqtEXkOO6/A8n76SGN4r6pIqOOOxDLywILn0VS4XJY+p6QCZ6+KvIykVvNGsvRlQG5DgtpKt7gJZzpErt6E6yvXo7TnsweEzEjvj5fifkgUyvsW35Gw/CYhUY+795JF1NznG1ZUcguOer1/QuvmzhjwqmnvjZLE/sNRWLk+FOt+eB1Vyrsruc/Gmu3nMe23PZj4STn4ePPfV0Fw/HQM/lgRjMVT+6B+DR8ll3lShs2Q4zssGFNfLJnMBIXGoMuIRfhIeogf+kpjJTdvLPrrBGatOIRpEyvAzZV9nhdXIiJTMWFqwFPdIxlZuDkAq/fcx4rPG8HTlX9LGCavXPSPwcezL+DD3n54uaW3ksuUJOKTtLgXkohq5RyVnKxZuP44fvnzMFZVWQtPy0cN5kzF8A0BmNS+DMo6mz5YXKpBjW5XB6Jz65pCkGQYJm+YVJimXbUZPB+tG1bEtA87K7mPwsK0eaGt7Qlo1LDzsYRdOSskttZBb2uAp2MsKrpH4NTuSoiLsgWuxkCzLn/8PGldraBzsBCuPCwSZAVZHZsEVWq6W5GSIEy/O2UDLtwomqPD5oSVhQbf/O9FERigoCFhumwZa9SsZqfkME9K4P1kXLmekC/CtI21GmqTzhNiskOrMyAlxZClME3B6s5dD0KjmmXhrMy0YrKGhencYWGayQ0WphlTsFZ6liD6dK4rlkzeYWGaCYlMxsApJ9Gkhite7+SLGuWzFqjHfP8vDh67hH+q/ankmJ78FKaJd/xfhsqrCtb+8IaSwzBMbphUmCZ+lx7yy3m7CF8qWSGE6Rfawe3NDML040JBxhYZP2dXR1l6HlGB3CNbXXsIy+sP0/KFHimdoqFmRcDGGnEVNAhuKb98WAdbwFb6oXRfd12sG8VLw2PhXzP5pZaKM9UxXkZaZFmufKAKoo5c/kiQPylfZSwnaD9i+fi+lDpKtoE+ZKgijpWxW2k/GfchFYnjSGicXUR5qrczUnxcEdJeD62dAaWdYlDZPRS3dlREYqQNLAOj4LjfX2yT1mblEMZ9Gcny2hirUFvovwxVHilXEPvIUCeyq9SOGm5I9JKFaffTWjhfJ2FaSpduiby0ayztL7WyF5JrlRHCdHBLqcC4L6pjrGfMy3CcNIweQLKok1/CNFP0IWGaMQ2mFKYPn72DFVvOIDXDYBeT/1hbW+B/b7RGxbJuSo7MvweuYtxP2/Db5FdEVGsme1iYzh0WppncYGGaMQWDJqwRyyXTTGtcVRJgYZoxCtNGGlVzwRudfVGzgpOSIzNgzJ9IvX8F8/w2KzmmJ7+F6cmBbXFWVxkHl72v5DAMkxsmF6ZzIzYuDj7tO8Cj72tKDqB1VMQCRfzTJKiFeKjSSxlK63R2eiFOG9RyhjpJLQe308obWcTLdSlwHrmEEL7ypXUSq9WpBqQ4qGDQ0LEMSPKSj0fHsYgDHALlfZDgSkKm1k5eJ+gYlvFKIxTEfmyl/SnVqI5FokERhOX9UDlB+yOoXYRaK9WT6uus5XI9GQpTHWqr1GYqN/r510vH0UvvSXpLua4xkJ8mWa5jPL7OSoWMsQlFAEGpjhHah/F4tA1tayw37lPUkY5D50ao6LpRe6RrR+dFbTS2Q0fHUtpL0L6oRK+cq85G2o9yTrStRZJUrnQxHZ/K6byN0PbG62NEXF+pLcZzTJX6TSe9AxiU7TQJKmk76YO0fxEsUWmvKEsxINUeSHGSNpb+JXnLBSqdtCKdryZRbii10aAxQG8jZdJxqL10z0lo4pU68ip0DtIBlM8sTDPZodPpEZ/42M3MPDHWVhYiMcWTn1ccEoPY5EvNw1X6smayhYXp3GFhmskNFqYZU8DC9NPDwjTzuDBtpGFVF7ze2Re1K8oCddvB81AL1/CV7z6xnh/ktzD9c1ATbIysgROrPoCVJb/PMExeYGGahWkBC9OUIS1YmGYYhslXhn2xHvceRmPrvKFKDpMdLEznDgvTTG6wMM2YAhamnx6jMN2uvjvqVXZWcpmSRGyCFr9vuaOsZea5Ks54s7Mv3p6wFK1tr2Ocz0GlxPTktzC9MKQ+/gyrK4LaOdrzbwXD5IUCF6bj4uJQoUF7VGgtC9Mk/IU/R4ogiYRShtoA5ysaIZiSwEgiMwmI0VUhhEkhIkrV7e9oYJEEWEXLzU/0UIt6WnuDELGtwuV9WMUYYBNuQLKzLIamuhoQ7ysVSFjEasT2zjfEqijX2kvHqpZ+STTSMdzOK4qkQqqjVKeyCgYLardBqqOC4y0SSmXBmETeaD95G2oPnZP9XVnxtY7WC0E1zkcWPqk9WhLddSpYR6ilpJfqSAXS5tTmZDep7e7SPqR/QrCXsH9ggHWkfBwiwVs6/9LpbbZ7INW5l97mJHfpeL7yusFSD8sYFewVMd4ouie7SfvxUEHrKLVFOoxFrNSWcBVspPbQOelspWO4ycdP9NYJkdcqSl53CNQLATrFUd5nfDmpD2ykDC1dExWcAgywiJcKpGK6xnEVpONJ523E4Y4KtsHKikJ0JRVSneT2EjYhKljEqWCZIG+X5KZCCpXTPu2lc5LaYhWlEu2wDdWLsqRSUvuk8vhy0glIS4s4NTSJUl9J7aF7Q2sjJVsV4vx0QvBWpaqgltpLZ+F6Wd63UQiPqKeXxXYJFqYZhmGejqRkLVq9ORddW1XDlJGdlFwmO1iYzh0WppncYGGaMQUsTD89RmGaYXJCo1Yh+M5pBGwfD2dhgZY/hMZr4WqrgYV0vPwgTmcFy/LtcP3oWhamGSaP5JswnZCYAjvbzKNQJExXqtMelRrJP+ok/gW3kK2PhdCrMcDttEZYwFqQJa2USBAMq6sWQfmE5bRUzem6BSwSDEI4JWIqaES9FFc9Ul30sH5oIcRHm0gD7B7qkeSiFiJjCgnT5eRthDAdZYDLdfkSkOUxic4Rz8nlhEWC7L86I8kuUp3aUpstpe3UBhGwz/mSWlgGk5hOAnpEDVnF1DpJ+5LqON6UFU6bcD00Ur2YirJQneyuF2IwWX5bh2hgF6IXQjqdS5KbGomeBiR5S/uQDkXtJRzvGGAbQseR2xVXnsR2+RwIhwDp+txKbzMJ1yT0EgZrPawiVVJ75PZZxcqicqKXCnHeKmhddGKAgIRe22ApSe2RLZBVSPCSt0kopxXtJfGfcL6lE9c6WbrGRGwV2U81Cb1knexyzSAGCOicyOqahP8kj/T2Ol9Twf6esqIQXksl9ZXcXsLRXy0dT7pGMfJ6nI8KiR6yZbbWVQerMLV03WQrevsHOiHqpwnT5RVhOlrqo3g1XK/J7U21k85XStE1dULkJ1FanSxtIzXN85QsROst5OsW0lxal08XEWs24foqFqYZhmGeFPL3TYFep47shJfb1lRymexgYTp3WJhmcoOFacYUsDD99CQm6xAYkqisMSWRyNgUTFx4RVl7FAuNCi809sSAjmXR64MFaG59AxPKHlBKTU9+W0wvCG6AleF12GKaYZ6AfBGmF6w7jgXrj2HXgmFwcng04j658vBt3QGlu/dTcgDLGHlJAimJgqkOtCJ9VMtLIcomSB/1UlJcQpBlM5UbxUKybCbIulelWC3TtmShS24uxHbSfqjcWFe4ipDKtbbyOrl5oHqWZN2rQMcgy92M0P5Fe5T20n60dnJdOia1U6P89hrdS1A5IY4p1Utrb6p8TNFWqc3GRNBxyGLc6ObCeK466ZKKOtJxCBpQzDioSOWUjIh9KMejttE1IQtowrhPakdGFyjiuknfo7QU5yS1keoQxmMZ20n7okth7BtjX9F2dK50fY2Wx9RmC+naGPdF0PYk5mdE7ENqi9iPhPGc09pLbaV9KH0qrpvy20KfxbWjc5F4pL+lZOwL0d9SEv0tTkBaUB9K0ACFyKMkYRWb/jlo/wZc2LYOpb1YmGYYhnkSNuy+iJl/7MfGn9+Epxv92DM5wcJ07rAwzeQGC9OMKWBhmmGenqx8TJMg3bmJJ/p3KAsvN1m8aDdkHqrpb2BauT1iPT/Ib2F6VlBT/B1ZHSdXj4SlhSJeMAyTI4oMZ1r8fN2QnKLD7mO3lByGYRiGYUo6vTrUxv4lI1iUZkyGWq0SFklWHDA1jRtX/HFs/+lM6dzxS0qNR4mOjMG+rYfw17It2PH3PgTde8y/GsMwDMOYCEuNCi+3KI0l4xtiVJ/KaaI04evtilCyQCzChGtt4eJgxaI0wzwB+SJMt2nkB1cnW2z5L4vpGmQZbGUQLjdEctHDMs4AK0ox5F9ZD50t+V2WkqNch1xzqFPIZYZBlFMiy1a9Tfp+hDWslEeuP6icrHeFdbByLPJ5rLemQH7p+xABC/Xp+0h1okB46eWUrBKUdmZIelspX2qvsY6lVOeR9jrJ7aVErjLI/USata6DVEc6H2orJWqDOA651KD2Gs/JWTqO1F4Khmg8DtWlpLdSjuNoEEmtT28vJRXkcmMiP83i+iptJhcpor1SorZQHdontZfaKuokGeT2SudC5dRuY5upDu2L2kuJzjdVaS8luma0D6tYub3kfkW0RapD7dWkPNpeg0Ypz5DU2kevMZmni/Yq5eT2hdpLbkaonJbUXrLwpnKdVFe0V7rfjPug8xbtldpBdeicRHupj6RyOp64xtK5i+uitJeS8bpQUuefyyuGYZhij4VG+nJmGBPhVcpRTJd9/aVHrcpPXYvCvRI6dfzdV8fgf4MmZUofvTFBqSGjTdXi56kL8XKTNzDhva/x/aS5+HLUd3i19VsYP2Ia4uMSlJoMwzAM82xYWqjQvWVpLJnQEB++WinLmSc+nk64l+KMgo2CZlrupbrAp7SrssYwTF7Il7dDeuns0qoaTly6h1uB4UpuOiQqklhpTCQmk99lEgUpuJ3RLQOJycY6ah2E+EjlllI9Eh2pnrGc1kn0JiGX6pAASa4XjMfSW0r7JWMa6VtO7ENK5A6C1o37IEGc6hnLKVHb0sqVRGJ3xvZSHdFexQe2zlZuLyUSOameUdQ1nhO1lZImVd4H1aH20vHTjiO1V61Pb4twtyGltOtHx5MSie3GOpRU0o6M+6Bk0MjtpST2I10jaq9os7EOCb3UXuM5Se0S7VXOiQRzY5upDp2zcG0hJWM7hPsPKVEZ7YPqUXvpehmPQ/XUuvS2UpJOMr1cSVTH2F5RR6VcY6Wc/HaLa6yVfuSkcjoncY01ch06prG9dL+IOorrD+M+hJAutZf6iMrpeMZrLNeRz4uS8brIx5L2wzAMwzCM2XLmRhTemnEa36y4XuIE6pTkFFSsUg6/bfj+kbRw449KDZnPP/gGq3/fiLoNa+KnZVOx/sAizFs3EwPf6Y2j/53G6aMcrIxhGIZ5dpzsLbB0QkOM7F0JHi7Zu0KqXtETSXoNHgi/mkUPavvdJCdUKVdKyWEYJi+QnJsv9OlURyxXbzsnlhkh0VidqpKTViX8C4tEvpFthQYpW+OS8KjUEaKnEH/lekJ0JE1T2Y8IniidjRCrFZ/GJFISVJ7RH7TYh5Rof7Ru3IfwkUzCpVIuktQuY3laPaqTob20n4ztVemU9kpJ1DG2V0qijnQ+RqE64zmJ9hrPSaoj2kv7UNpCdSkR8nHk/WU8J0q0X2NbKRFp15j2Qz6Yqb3UD9JxjHXS2qvUEe0lX83KsYxtFnWkfdFxKQlf0CTWSu0V1085DtUzXhvRFulYtB9jHxkTHcfYVmMSbTHuR0p03LT9SIm2EddY2ZexvQSVU91H2kt1pLaI/lbOmdoi2quU0/GM11jUofNSrnFaHWqLdFyGYRiGYcwbvfQssPtUKN76tuQJ1Hb2tqj1XLVHUuUaFZVSYNc/+7F/x1E0aFYHPy2fisatnkPpsp6o07AG3hs7BCt2/oq60meGYRiGeVZsrDRwd5ZetnOhbtXSYnkqzlssixpXEj1A89cb1Sqr5DAMkxfUytLkVPIthXZNKuHg6QCkppICqGAALOLUsA/QyOmOBhHPGRDewICQpgY8bGmAJkEFyxgVbB/KdezuahBX3oDIWnI5JWG1LL1fGPdDbh5SHQyIriyXJ5QxINGTlF2VKNckqIUYmeyqSttHZE2pjodcTsn2oRoaqY6xnFJE3fRjGJMmXi3aG9xcqVMHcnuDlP1IS2ovpdBG8nnpLeRkHSbVkc6Z2kopsoa8j9AmcnvVycq1kc6Z2htfBmltobqUoJPr2IaoRaJzMNahlOycfk6UDCq5vZSoPKaSQbSXErWF6tA+qb3BSh9EV5Xbazwny4j0Ngc3MyBM2he1lxLVsbsvt5cSXTPaR4h0TtTetP6WzonaG1c+/Zwoaa0z3A9KivdRpbWXUqqD0l6lXKdRifbGVpTLYyvI7TWoDaKc+ki01zF9H1HSOVF76X6iOtbhcptDG8vl1FfiGleT9iFdF7t76dfYeG9SSvCW+kARwRmGYZjc+XrBXoyftQ16vfT9yTAFDN12GQXqwBLq4iMjaxdvEsuRE9+GRRZ+ML3LesHZ9bHo3wzDMAyTj9St6g0nO0uciS+awvThWF+xbFq3nFgyDJM3VAYJ5bPJiYhOgL2tFawzBKSJi4tDxQbtUf7518Q6WTqTkCksnjVSU6TkfEUjLF41KWT9ahBl0VVUwvUCuckgcdv+roVwr2AVIzc/rgyZ1Mr+jsnXs1W4hbB0JT/HNuEGpDhK20vP3VpHAxK9pX1IaOI1wr+14x2xCp2lCjp7EmXlckKTBLidf1S/p5kl0ZWkZlhIx1aTQK6Co78ammSytDUI692YirJySX6MycTaLlC+BtbRBuEbOZ7aK0H+s7X25BNbJbVZA+tI8pksnzMJzCluBiS7y+esSZBfHOweSOcUKbXXSj4GnU+il3wdCLsHKtjfk8uIpFLS9ZG/I2Gw0ssCb6B8fPLbTRbgSW5ScldJ10cnrIotY9VSe9SwiSDXFQZobVVSHXmfSd5aqLQqWEbJ7XG4J7ePrjGRUE4PcllCdUhodwwwwDJeqiIV66VrHF9ej2TX9PY63FHBNji9vQRdX7rO1F7C7p7UnmjpmPHydgke5EtatpTXOuuktkjlUqL7xjZMjxQH6dpJ14/uiUSpvbQkgZwGKBzvSNdb2o3WWjpfWyDeTyesr1UkrKdI10Uqc7si94HeQvpPIrKOfF3E59WbcH3lepT29JQzGIZhmGwJfBiFnh8tRfsmlTBzdDcll8kLw2acQWRsCjo39VJymMfRavW4FxwFV0c7ODvZKLnA+VvRuHonTll7FLX0096ugQdsDFH4Y8NhTJtYAW6uNPWqePB85e6oXqeKcN+RFQnxiehc9zV4ertj/cFFSm7xJSIyFV9+F4FaNaqjXJmn9/t552ECHoQlYdHY+vD1tFNymZLCoAlrxHLJtL5iyTBM/jD2x63Yffgy1lZZA0cShEzM8A0BmNS+DMo6K1PRTQQNgg+41QelfMpj1XcDlVyGYfJCvgrTWUHCdKXa7VG5ofyjTuJf0POKKw4SejUGuJ/QCFGZfP+Sv2JyxxBaXw3h79deFkGdr1oIkdImXBYuo/00ol6KmxzYziZIFqZJWLUP0iPJVS3ERxJ64yrI21jEyEKw61X5EpDQm+oEhDWUywmLBKD0AVmcNJIsPdOG1ZPabCltpzbAIl4F1wtq2fdyitRGayC8tiI8O0v7kuo4XZOFaRJNyZdxdCVZ5Uz2kIMlkohr81ADu2C9VEc+58RSaiSWNiCxjHzO1F7C6bZBqkfHkdtFVsNkPWzE0V+6PjfS20xW11FV5XWDtR7WESo4XZfbRwEnSaRNKK1CnI90/q6yAGsVqYZtkFq0h86JLJbjS8vbxFeQhWnrULk9Ljd0QhCma0zEVJeDQZLQS0IwibxWJLZLxSRMR5GlOlmzK7hcUcHhrrKiEFZXhWQ3ub2E0001rMOkY0bL67G+KmkfskuUVDed1BY1bKRE7XC4r0Oyi1TuLhVKpx1XURamSbwmcdrtitzeVDvpfO2l9tTRicEEdbIK6iRpH1LTvI7LfsuNwvTD1uSrW3xkYZphGOYJ+N/MzfjvhD/W//g6KvhIX+xMniFhOuAhB6DLL7ycVbh48RSmjvctdsJ02Qpl8L8vRyg5Mh7e7ijvVxY3r9zGoBdHolmbhvh+8ZdKafGFhOmv5+hh52SaAZ5ZH9ZBzQpsTV7SCImQB7o83RzEkmGY/OHAqdv4YPrf+J/3YbzkekPJNR35JUwfi/XBuMCOmPhOe/TpVFfJZRgmLxSKMO1Xtz0qNU4XpkOaKsK0xgCVlFzPKcJ0smxdTA5HwmuphRWu3k4vRFrHWxbC2tc6UhEqy8nCNFkgkxhsFSIL09ZRBtiF6JHsLAvTqS4GJJSVt9HEaWAllTvfki8BiaZkpRtZRy4nyF2Ix3FZnDSS4iw95NaU8owW0wkqOF9VCyGdLLzJR3FkNakxEiQ6k9Lp6C8L0zYReqil84otL6ucKaX0slW1IvSScE1iOp0LCb1JHgYke0nl0qGovYTDXYMQr/WKxXScL52TfA6E/V3p+txOb3Oi9Bwe7aesW0nXJkoFB3+5fZZxsjBN7kBInE51li6adBjLaDVsyI1FqNRe6Zy09lK5h7xNQlltmoU34XxbJ/aRJF1jIq6SXgwi0DlpEtVwuWGAZax8TgYLFWKqGJDknt5ep5sq2N1XVhQia6iQ7CJ9UCymHQLUsIqQjhkrr8eXUSGplCxMa110wrrbOkIWpu0e6pDiRBbeUqF02gm+isV0jFq4+HC9KZ0jXXJb6XztpPZU1wm/0aoU2cKbzsX9rFRB2lyvka9bSBNpXRGmI9ZuwrXVLEwzDMPkxn7p5WKk9HLR/8XnMPattkouk1dCo5Kh1aX/XjKZCQmPw+DP12JIj4bo0zn9RXD1nnvYciRYWXuUOn5OGNSlHE6dv45ZKw4VS4tpnU5+XspIyw5NMGPhJJw/eRnv9hmDtl1bYtqv45TS4gsJ05O+CUKn1vXR/LnySu6Tc/hiOE5fj8bS8Q3h7Z5unc8wDMOYDq30+/XSe4tgGfsAv/tthIZezk1IfgnTY+50xFVdeexcOBx2tqbdN8MUdwpUmL7zIBJuzpYo80J7lHpDmQYlHd3jqEqIgeQyQq2TraPJOpVcd5AvaRIbnS/JFslW5MpBJT1kVtFAR36lXeUHb/IbTPVsIvVCjI4rrRH7SHExINlTD8tItRBTqcwxUN4m2VGNVGeDEEoJspi1jAVKXUi/JOTqIaSZsqJgFQW4XFZBkyq3TWtHQrUaehLOLUlMB5yuySKtTbRe1ImsLKuaqW566KTzIh/GBAnR5G6ERPN4L41w20FW3SScWkVoYBdC1tFKe53kfcaXMwjBWp0ki6YkVDtkEHbJh3OMn7IiYSu9lznekuuS2E9+tqMryeuyqxGpnaFksa2CrXT9SNAni+N4LzVSPPTinCwSpGsXIh/f6S65vlAhgSySJeIr6mBQkWsPed3lpl70FdURwq90fVOd5HNSp6iEUG0TJqoKoqtI+3gsPgBdX7rO1F4ixk92JUJuWgjbB1J7wuUgh7YReiSWUiykpX9JpXWwjJa2l/pcWNffkU5IWtLgBLn4iKsstVcqogEF2aJbJwIdksW81ka6GNK/8Ppyv5HVN+F1XOpraTfE7bObcObAOpT2YmGaYRgmO+ITU/DKqGVCIPtr1ptwss896A3DPClBoTHoMmIRPhrYEkNfaazkAgs3B2D1nkdHvWtVcMSbXcqhQVUa+QYW/XWi2ArT5SqVxcTv/qfkyLi5uwj3HTcu+2Nwtw/RuFV9/LRsilJafCFhesLUgEz3yJNivKdWfN4Inq78fcYwDJNfrN1xHlPn78G4Mgfwgou/kmsa8kOYPhfvhY/vdMHAbvUxZmgbJZdhmLwiK4kFwDe/70O/T/9EwINIOYP0PiVp7VRyspddK5D1KonKJB5SOS11NiQSy+WUyPUC1TPug9bJUpmERSondxqUjHXEPqVEecZ9kOhM68Z9CDFc2o+xXNSR2mUsT6sn7Yfy0+pJn7NqLyWjuwjRPmoz6dFSHWqraK/xnKR6GdtLPSOOQ/tQjkOfKZGILY5Dx5SSTjlnY8p4TuJYSnuNbaZ9GLfNWEe0V9kHXUfRXuM5SXWNbRZ1lPaKNlMdpb2PXxtxLKW9oo60H2MfGZNO2qexHcYk+jvDfqjOI+2V2pZ2jaVyY3spUTkd85H2Uh2lvzOeE9VLK6drRMeVkihX2kvJWIeSOAbDMAyTIyQY0lf25+90YFGaKVSql3fA1+/UxE8f1k0TpYs7dna2qF6n8iOJRGmCAhsSt68rQVYYhmEYxozo2a4WypV2woLQRkgU4of5Qmaev4c2gL2NBd7u/fSDnwxTkiGJrkDo27muiMY/df5/gIpcMJBrBzlpHVTCh3GKo1pYBestyNpWKtNkqEMipVSHysnSWVhTW6aXi8CIUiLhkOroSIS0IWFSKad9SvUpT+xDSiSEk6hr3Acdj4RMYzklsrBNK1cSfTdmbG+Kg9zmtDokvpLIKSVRx9heKRnPidqasb1UT7RXiMFyHWovianGtlB7KVEbRR06ppRI3DbWEfUynhPth3xnK9eYyoW4StcjQ5tpn9ReamtanQzt1UtLY5upDl0XozAsBFyqI7WXEpXRPigYomhvxmsjfTaeszGRr+y0ciUJwV7Zj7HOI+21Vq6xsi9xHKltGftbtNdGbi/VoePK7VX2Q/1N7VXKje2lZCw3XmPjPijRtWIYhmFypnI5d2yaPQhtGmeYwsMwBUhVXwdMfbsGfvmoHhpVe/qgd8UNByd7IVSHhUTg1OFzSi7DMDlBs4AoMQyT/1haajB6cBuEpdpiUUh9Jdc8WR9RAxcTPDHitRZwc+bAuAzzNBSYMO1X1g2fDHkeV2+Hwd2pMaDXpyVDFiljeXZ1KOVWTikv5TntJ2P5s9ShlFs5pSepk129JynPrg6lJ6mTVZkx5bafjOV5qZNVuTHlpTy3/WSs83g9MSzKMAzD5IqVpXlbuTDFl1eeL4M5H9dD05occDMr+g7pIZYzJ85BeKgymzEDuzfvx+Wz15U1hmHem7pRJIZhCoa2jSuhXWM/Ifwejyuj5JoXd5Od8HtoQ9T088CAbs8puQzDPCkFHvxw/E//YsuB60h5eAzasNNKroKxJTT3NzvyWudZ9pHxijxrWwhTtScv+yByq/csbSFy2weR1+MQ+d0eU+5DwmDQ4/ChQ/Dk4IcMwzCPQP6kNZoCG/NmmGx9TOeF4uxjunqdKvhtw/dKTtZ8+fF32LFxHxydHdClV3v4ViyD0OBwHNl7Ejev3MY3v01E6xceC7RSBGEf04wpGDRhjVgumabESWIYJt+JjEnEa6OXISkmCvMr/g1PywSl5OkxlY/pOJ0l3g3ojnCDM9b/9CbKejkrJQzDPCkFLkynpurw3rSNOH3lPjZIf8DlvEuGrz+GYRiGKc5ERCdg2BfrMXJAC2HlwjAFAQvTmWlXrReq16uCuWtmKDlZo9fr8deyLVi1cCOC7gUruUC12pXQ7+1e6NSjrZJTtGFhmjEFLEwzTOFw7loQhn6+Bt4W0fiu3HZ4PKM4bQphOkmvwWd3X8CFBC/88OlL6NCsslLCMMzTUOBmTeQv6Odx3TH3814sSjMMwzBMMSA8Kh5vT16HgPuRUOU4/YRhmPxm+/k1mL3ya2Ute9RqNV4d9DLWHfgd/xxfhtV7f8OOC2uw6J9ZxUaUZhiGYYo29ap5Y/pHXXE/xQljA19AhNZGKSkcSJSecLeDEKXHDGnDojTDmIBCmW9ra22JJrV9lTWGYRiGYYoqdx5ECkuyO0FR+HpUFw52yDCFjJX0nK3RaJS1vOHm4YqyFcrA3oEDNzEMwzDmReeWVYU4HZjqilF3XkRgspNSUrCEp9pi9J3OOJPgjVFvtMLAl8w7MCPDFBXMxhFkcHgsUlK1yhrDMAzDMObOkXN3MHDsKkREJ2L2+B7o1KKqUsIwDMOYC+T//4p/CP7eexlfL9yL96ZuQN/RK9Dlnd/RfOAc1Ov9Exr2/Rlth8xHjw+X4M3xqzF+1jb8/tcJHDwdgKjYRGVPDMMwhUPX1tXww6cvIxwueDfgZRyKLVhDx4sJHnhPOu71ZE9MfrcjhvRspJQwDPOsmIUwHZ+YgrcmrZMegtYg8GGUksswDMMwjDmz/dB12Nta4fevXkXzeuWV3MKF/ObOnz8fLVq0gIeHB8qUKYMuXbrgzz//RAGH1WAYhik0yMXSht0X8fGMf9B60Dz0+/RPTJq9A6u2nsPlWyGwsbZA1Qoe6NisCnp3rI0e7WqKGa1ebg6Iik0S3+8/rziE96dtRJvB89HzwyX4YekBnL58XwjdDMMwBQ3Nyvtj6mso5e6GzwPbY+q91vnu2iNRb4FfHjbBx3e6ItXGBfMn98Yr0ncmwzCmo8CDH2YHPSR9v2Q/rK0s8OmQNuLhiGEYhmEY8yUxORUJiSko5WKv5BQ+H330EX7++Wd4e3ujVatWSEhIwJEjRxAREYHFixdj0KBBol6/fv1w/vx5XL58WaznFdr3jBkzsGPHDtSsyc8qhQ3dgwdO3UaVcu6oWNZNyc0bxTX4IfMoJSn4YapWh/9O+GP19vM4cTEQ9Jbn5GCNhjXLokENH+GrtaKPq5SXu5Cj1enxICQGV2+H4Pz1hzh56R6uBYRCrzfA1ckWL7etgb6d68K3dMmIGcTBDxnGfEhMSsVPyw9i9bZzsFenorfbJfRyuwInTYpSI3vyGvwwWa/BtqjKWBr2HCK1NujSqirGvtVOfP8xDGNazEaYJm7eDRfTxuihp2X98hg96HlU8i2llDIMwzAMU1gkp2iFCOjiaL4P5FFRUcJKunHjxti3bx+srOSXjri4OCxfvhzDhw8XAd+Ijh074uTJk2KbJ2HatGmYOHEizp49i3r16im5TFGEhemSQUkQpun7efW28/hj40lERCfAwc4KL7aujm7PV0fdqt7S955pgtJGxiRiz7Gb2LjnkhCriecbVsS7rzVDzUpeYr24wsI0w5gf568H4Ycl+3HmahDsNFp0db6Obi7XUcEmWqmRmdyE6QcpDkKQ3hpdDeGpNvDzccWnQ9uixXPmMTOQYYojmi8klM+FjpuzHXq2ryU+b95/FcFhcejSqppYZxiGYRim4CHruF1Hb+J/MzeL6d/m7Ef6xo0bmDNnDkaMGIF27dopuRACdaNGjaBSyeLMnj17QI8/ycnJcHV1hZ+fH+ztZavvBw8e4I8//sC6detw4cIF+Pj4wMVFtgi8fv06hg0bhsTERJHKlSsnLLONkGU2bbtr1y5YW1uLcsZ8OXPlAY5dCESH511ga/tkwQKZokNikh579kehWd1yqF/DR8l9ck5fj8Kl27Ho3aYM7G0tlNzCJTVVh5Vbz+HT77Zg97GbKOPphA8HtsSUDzqhfdPKKO3umPa9ZwoogD0J0DSNvUPTSmLfe47dEqI4+bCuWsFdvM8VR0iMJ3p1kN9VGYYpfLxKOaJH+1rieykkOhk7A6zwd2R17I6uhMBkR8TprWCl0sFekwrj+Nw/V6PQpqIjnGw0kB5xEZTqgDPxpbE5sioWhjSSUn2cTyiNSn4++Oj1Vhg/vD3Kl3GVN2YYJl8wK4vpjNwNihKj+2W9nJUchmEYhmEKChI8dh+/id/WHsetwHB4uNrjgwEt0gaQzZHwcKmdHh6oUaMG1q9fj+rVqyslj0LCNfmhNkKW0w0bNsS1a9dQv359ITo7OjoiNjYWtra2Qmgmn9WrV68WLkCMfPfddxg9erT4PH36dEyYMEF8Jqts8nVNbj9Gjhwp8hjzgy2mSwbF1WKahGCaaep/LwJ+Zd3wXr/m6NC0ssmso/NKSEScsNRes/08DHoDBnSrj/elttjaFK+/KbaYZhjzh+KVkX/8XUduyK6HFKXLSq2HnToVtmotzh1eg6r1OkFl544EnSWS9elh1/zKugq/+51bVkPlcjxzn2EKCrMVprMiLDIeX/y6Ey+1qYFWDSrAwc48/bsxDMMwTFGGBI93p2wQ07bJ4o4ij5OVGMWBMHfee+89zJ07V3yuVasWmjZtKtx29OjRA3Z2siUfWUq3adNGCNLR0dFCfDa6+Ni5cycqVaokrKivXr0q3IKQKL19+3ZotVrhxuPbb7/FwYMH0aRJE1haWuLevXsoX748WrduLQRxGxsb9O7dG/v378f9+/eFVTZjfrAwXTIobsI0+ZGes/IIFv99EnY2VkIEfq1rPVhoCjem/Z0HkZi+YC+Onr8rDIumf9RF+LQuLrAwzTBFi5i4JJy5+kAM3pG//ODwOCQlpyIs3gZutgnSs58VPN0c4C0951KMivrVyxTbGR8MY+4U7hPME0KjXvTl8tmPW9F2yG8Y8dUGrNx6FtelfIZhGIZhnpzwqHgRwDAjlX1LoVZlLyEsbJ4zGP261isSojRBrjxIHB44cCBSUlKEa40BAwYI6+lbt26JOuRmw8HBQSRy4WEUpYkXXnhBiNIEbUOiNFlSExYWFsKSmqBtSZQmSIAmC+lJkyahVKlSYp/jxo0Tltf//fefqMPkD8HhsWj15lws33xGyWGY4gvd7wM/WyUslMk1yYZZb2LgS/ULXZQmaKr7/Mmv4JtRXREbn4whE9dg2T+nUYRsoHKkXWM/kRiGKRpQkNc2jfyEccWE4e3x87ju+Py9FxGnd0Hvbs/jl3E98Pk7HfB27yZitgmL0gxTeBQpi2kiKVmLfSduYc/xWzhy7g5i4pLh4+mEf+cOVWrI0MiYf2A4HOwftWiwttRk8i9HD3m370cqa49CD30ZIavtm9J+s6JRrbKPPBjGSA9ll28FK2uPUrdKadjZpjvcJ1Hg/A05iMjjkM8kpwznQVGyKTJ2VpCY4O4q+8k0QpYLWUFRuckvU0bOXLmP5FSdspZOGQ8nlPN+NOo2BRtISEpV1tLxcnPIFBn/6u1QRMUmKmvpUBCt6hU9lDWZm3fDEBaVoKyl42hnLYSSjJDLlwehMcpaOln18/2QGDG953E0ajUa1y6rrMk8ST+TRSENmmQFjbxmFHOepJ8pkA0NxGRFtQoemSICP0k/n7h4Dzq9XllLhyKr099TRp6kny/dDEZsQrKylo67ix0ql3NX1mSy6+es7onb0t9zcEScspaOnY2lCOqTkez6+Vn/9nPq52f528+pn5/1bz+7fn7Wv/3s+vlZ//az6+dn/dvPrp+f9W8/p35+lr/9nPr5Wf/2dxy+jodhcWLq9f2QaNGXZEHy1Qed0KNdTaVW8YIson/66SfhU5rccKxcuVLkZxX8kCyf33nnHWENHROTfn+Rn2kqI7IKfkguOz766CPxmeoSZF0dHByM2bNn4/333xd5jOkJkr4HuoxY9FTWsGwxXTIoLhbTxy8E4pPvtiA+KQVjh7ZFn851lRLzg35Lx/64FSek37IXmlfB1JGdYWNdNAY3GYYpvny9/Br2nA5DaTdr/DGugVkM6jEMUwSF6YzopJd3Ej3o4afNYyPYC9Ydx+yVh5W1dGhK8vb5bylrMuQTbdpve5S1Rzm3fpTySebfA1cx7qdtytqjHFz6LhwziAsk9AyeuFZZe5R1P7yOKuXThbobd8Lw6v+WK2uPsnhqn0eEFrJCIOugrPh6VBcRhTsj9Xr/pHx6FBo57PvYQ23nd37Hw7BYZS2dIb0aYdTrrZQ1md4fL8PNu5kFnD6d6mDiOx2UNZkPpm3EgdMBylo6rRtUwOwJPZU1GXqQ3XpQtk7LyHPVy2SaPvfT8oP4Y8NJZS2drPrZ+AL6//buAzqqamvg+A5JIKEn9F5C70hvoigCgoAg+hRQP0FBRTCKneJTEPCJjWIDRARBBBQQRERAqvTei/TQO4TOxz5zBmYmEwyQTCbJ/7fWXfeefU8mc+dmlOzZ2ceTrlw+//sX7MjhVu7znGX/yEsfTLQjd9O+fEZyZbuR6L2V++z8ZdubAW83M6ugu7qV+1yr7WA5fda9QlJ5+6XtVu6z/pnjSi9J1ka1i0vfyEZ25BDbffb2M9Hrqz/lp+lr7OgG7f01/pO2duQQ232+0/f+ze7znbz3b3af7/S9H9t9vtP3fmz3+U7f+7Hd5zt978d2n+/0vX+z+3wn7/2b3ec7fe8/1Gm4Seqr7OHppECuMCkZkd387JQsnN3EkyvtOx0YGChr1641Y2+JaU1cT5w4Ufr06XN9UUNNQmvl880S01ql3alTJ3nqqaekbNmyJuakLUN04UUkDBLT+DfJITGtPVPf+fx3yZwhRD5+vUmMD+X9kX7I+un380zVdJkiOeTLHi3c/h8KAL60+2C0tO+3/Hrf6chWEfJgjZyOAYBElaQT0zejv6jsvPbL99noi6YiUasLlFZYeiZvdFGn2CoWH6nv/gum/kK/eO1uO3LX7J5SEhx8Y1V3TZjPXrrdjtzVr15UMl37x6XTiVPn5I+/t9iRu3sqF3arhNQFqSbOXm9H7qqWyRejunHcHzETPUor+iLyuTf116SMt+pYrdIrW9T9P9x/LNwiJ06fs6MbIrRHk0fF4vwVOyTKS9JLezrVqljQjhy0ImSXl4pXrbq9p0qEHTms2bLfaxWrt/usH2Ks3RqzYjE4KDBGpeCt3Gf9WZu/cqcduXuwdnG36thbuc9aYTnVS+JW1apQwC3ppW7lPk+ctd70KPRUpkjOGFWst3Kf9a8ZvFVB58+ZWaqWzWdHDrHdZ28/E5oA3LbnqB3dkCl9iKnEcRXbfb7T9/7N7vOdvPdvdp/v9L0f232+0/d+bPf5Tt/7sd3nO33vx3af7/S9f7P7fCfv/Zvd5zt972vvaE3I6/cLTZP8EnHnzp0zCxS2bdvWrT3H/v37pUiRIqYn9MyZjg8pNDG9ZMkSU1HtVK5cOdOKY9asWTZy7b43aybLli2LkZhesWKFVKhQwcSmTp0qjRs3Nglq7XGttGLauYgiEg6JafybpJ6YnjBjrbz/1Z9mgcPB3ZrH+EsYfzd66kr58Nu/pGDuMBn2fqsYf/UDAL7Qd9Rm+XPZjd8dclz777hWTQcHUTUNJLZkm5gGAAApS8+ePeW9996TokWLSpMmTSRnzpxm8UFNVmtbjQkTJsjDDz9s5rZp00ZGjRpl2mxoP2htwdGqVSv59ddf5eOPPzb9pfVrNcnt2spj6NCh0r59e2natKl07drVLHioCfHixYtLVFSUqZrOnj27TJ482VRoz5071/SjRsIgMY1/k5QT07/+tcFUSutftHzds4XpmZoU6XX0HPyHFMoTLt++34rKaQA+tedgtLT7cLl4djjs8kiENKlJ1TSQ2Ph4CAAAJAtayaxJ5dDQUPnkk0/kjTfeMP2fNVE8duzY60lp9fLLL0vu3LlNlbNWVKuPPvpIKlWqZKqe69WrJ927d5dChdxbp7Rs2VKqVKkikyZNksWLF5tYSEiITJs2zVRkDxkyRD744AM5cuSI6VdNUhrA7Zi1eJt0HzjdtMH45t2WSTYprZrULSl9ujQ0f8H0/Ps/S/T5mH+h5e8GjV5gNgBJz6gZu2MkpdUP1+IXL3k5AcCnSEwDAIBkITg4WCIjI2XVqlVy4cIF2bdvn5w+fVpWr15tqqFdad9nrYg+c+aMVKxY0cQKFChgFj48e/asqbDevn272ZzV0ipz5swmIa1V0p07d7ZRRw9r/dpTp06ZRLd+TceOHe1ZAIg7bVWla3HogtS6tkByqDB+oGYxebPdPaYVl15bUvuj3cVr95gNQNKy51C0zFzufQH7Q8cvyLRF3hcyB+A7JKYBAECyo0lqXcAwXbob/bu9SZs2rVs/aqUV11plHRAQYCMxpUmTxnwPT1ohnSNHjpt+LQDE5tjJaHm532QJCkplFgkOz5TWnkn6HmtY3iyqPHvJdvnix79tFAASzg9/eK+Wdvphxh65QNU0kKhITAMAAABAItMq4u4Dfje90/u83MgsGJjcdH6illQunVe++mmRLKECGUACOnrygqzfeUpyhqcxW3hGR0FBxnRB12NBgQGycG3MxdcB+A6JaQAAAABIZOOmr5G5y3fI080qy92V3PvbJxepUgVIv8hGEpYxVN75fJqcPH3OngGA+BWeMbUMf6uSfN+tstm6P1nCxJ9umP96TLe6FbKaOIDEEXA1qTX4AgAAAK7RytKGHYdJl9a15JkWVWw0boZNWCKfjZovr76YVzJlCrJRJDcnTlyS/oP23NbPiKshv+6QH2fulVHdK0v2sPjv+bx7/3F55JWREpE3i3zX+1EJDg60Z5KnOcv+kZc+mCiN7y4hH3RpaKP+66l3xpq93hsASdPa7SclcuAa6dyysDxUK5eNAkhsJKYBAACQJMVHYhopg78nprv0nSTzlu+QcR+3kUJ5w200ees24Hf59a8N8u37raRiyTw26p9ITANJH4lpwD+RmAYAAECSdPTEWXnzk9+kxf1lpGHt4jYaNxv/OSSL1+yWS5cv2wiSq6DAQKlaNp+UKJTNRm5dQiam5y77Rzp9MFHaPnSXdH36bhtN/nShx4deHC7Zs6SXsf1bX7tP/ttlksQ0kPSRmAb8E4lpAAAAALiJhEpMX7lyVR7tOsp8yDJpwFOSPm38V2P7sxGTlkn/7+ZK9473ySP1y9qo/yExDSR9JKYB/8TihwAAIFFcuHBBgoKCJCAgQCpXrhxj++yzz+zM21enTh15+eWX7Sh+NWjQQDp06GBH3nnOGTlypLm2DRs22AiAlGza/E2yZedhef6x6ikuKa0ef7CC5M2RybTWuXT5io0CAICUgsQ0AABIFPpHW5dtG4WQkJAYmyat79SKFStk69atdhS/Vq1aJZs2bbIj7zznnD9/Xo4fP379ugGkXPrfwCHjl0iurBmk+b2lbTRlCQ4KlOdaVZO9B0/K7/M32ygAAEgpSEwDAIBE9dRTT8m8efNibC+++KKdkXy0a9fOJMrLlCljIwBSqoWrdsm23UdM1XBwcKCNpjyN7y4hObNmMG09AABAykJiGgAA+LVDhw7JoEGDZOXKlfL3339L9+7dZfDgwXLq1ClzXpPYGvviiy+uxzxt375devXqJf369ZOdO3fa6A27du2STz/9VLp16yYTJkyQK1di/kn5okWL5M0335S+ffua5+TNv83Ra9BrcZ7zvLYePXrIN998I2fOnDHnnXSs87p27Sq//fabrFu3zoz37dtnZ6RMp8+el2E/L5HVm6NsBEg6RkxaLmlDguXh+1P2B1W66OFjDcuZBUmXrttjowAAICVg8UMAAJAotK2FtuzQiunhw4fbaEzLli273ndaj53/dKlYsaJ06tTJVCE7lS9fXpYsWSLBwcFmnD59esmWLZscOXLEJHc14ZwpUybT4qNQoUJmzsyZM6VJkyYSHR1t+l3r47dq1UrGjnUsdqWmTJkiTZs2NV+vLUZy585tksK1atWS2bNnx3lO//79TXJ56dKlUqlSpVivTSuqly9fbq5DH6927dqycOFCSZUqlRlHRETItm3bzOPWrVvXfE1KFHXopDTsOEy6tK4lz7SoYqNA/IvvxQ+1dUXjF4ZJqwfKyTvP1bPRlEsXf6z/3BBpULOYfNCloY0CQPxh8UPAP1ExDQAAEtV3330nbdq0cdu0GtjTmjVrZO3atSbZ+9BDD5nkcmRkpKxevVr27t1rksLa01kTxK527NghM2bMMIstfvLJJ3LixAm3x+/YsaNkzpzZfK3O0Yrnn376ySSsnT788EOTtJ4zZ46Z07t3b7l06ZI96xCXObFxXltUVJQ89thj5nj8+PHmnD6eJqWbN28up0+fNkn22CrDASQNMxdtFf0cqkndkjaSsoVnSit1KxeWP//eKtHnLtooAABI7khMAwCARDdt2jS3TVtbeNJK41KlSkmuXLlM8lhptXXZsmVNdbK2wVDa5sKVVixXrVpVAgMDpXPnzpI6dWrZuHGjOadJ7i1btkiHDh2kXLlyptK5Z8+eZu+a4Nb5+hh16tQxyefWrVtLmjTuVZNxmRMb57XlzJlT/vvf/5qY8zqcz/WFF16Q0NBQCQ8PNwl5AEnXtHmbJE/2jFKuWE4bwQM1isq5C5dkzrJ/bAQAACR3JKYBAECi0uTy4cOH3Tbts+wpLCzMHolpx6Fy5Mhh9kqrnpW25HDljCtthZEhQwY5d+6cGev3Uu+++64ULFjQbCVKlDDtMrQK20nbjmTMmNGOxCSeXR9XxWVObFyvzfk1zqpofVzl+tiu8wEkLQePnpa1Ww9IvWpFzH8n4HB3pUISFJRK/lq63UYAAEByR2IaAAAka57LaWjS2UmrqJX2bH7ppZeub9qW4/HHHzfnnFy/TnlbpiMuc26X62PH5+MC8K35KxwLsGoiFjekDU0t1crmkwUrd/rdf+PWbT1gNgAAEL9ITAMAgGTNtbXHoUOH5NixY5IlSxYzzpcvn6mirlKlirz66qvXt/bt20uzZs3MHKXtM3SxQWeyRPtUHzx40Bw7xWXO7dDHVVu3bjV7pX21ASRNi1bvkpDUQVKxRG4bgVOVMvnk2Mlo2b7nqI34hw+//ctsAAAgfpGYBgAAiUoXP+zUqVOM7ZdffrEz7szOnTtN9fOAAQOkSZMmJvbggw+avbbHaNmypYwZM8Ysnqj9nRs1amQqqDds2GDmqPr168v27dvN4wwePFgaN25sz9wQlzm3o27duqbn9WuvvSYff/yxdO/eXb744gt7FkBSs2pTlBQvlE2Cgx1/sYEbKpfKY/bLN9xopQQAAJIvEtMAACDRDRo0KMY2b948e/bO3HvvvaZ6WRc+XLZsmVnosG3btvasmH7WulChLrqovab1++r5QoVu/Jl97969TYL4xx9/NEnzypUrS/bs2e1Zh7jMuR358+eXr776Ss6ePWuquUeMGGEWQgSQ9Jw6c172HTopZYv636KH+tce2nf/8uXLNuJ7RQpkNX2m12+78782AQAA/i/g2j9AaFIIAACSvSNHjkhoaKikTZvWRtxduHDBzMmWLZupUPZGW4EEBwffdFHDuMy5Hfr89LFz5sxpkuA9e/aUtWvXSunSpe2MlCfq0Elp2HGYdGldS55pUcVGgfg35Ncd8uPMvTKqe2XJHpbGRm/dio375Ol3xsp7nR6QZveWstHENXnyZOnfv78sXLjQjDUxXa5cOenRo4c0b97cxHypxcvfS9qQYBnZ9z82kvieunbP1He9HzV7AEnP2u0nJXLgGuncsrA8VCuXjQJIbFRMAwCAFEH7SseWlFapU6eWXLlyxZqUVpq0/reEc1zm3Apd9PDFF1+Ur7/+WtKnTy9LliwxrTy0krpkyZJ2FoCkYOvOw2ZfrEBWs09skZGRpo1R7ty5TY/88+fPm78sOXDggDz88MMydqwjIetLEfnCZdvuI3YEAACSMxLTAAAAfiw6OlpWrFghL730kkl416hRwySPRo4caRZuBJB07Np/3OzzZM9o9onps88+k08//dQkpkeNGiV58+Y18fLly5sPw9TAgQPN3pdyZs0gZ89dlJOnz9kIAABIrvhtBgAAwI+lS5fO9L2ePXu2qZqeMGGCWdCxTp06dgaAxHbm3CXpNmS9bNp1yka8O3D4tGlTkTF9iI0kjqioKHn99ddN2yFdrDUgIMCeccia1VHRffCg73s957ZJ+/2Hb/5aAgCApI/ENAAAgJ/TymhdWPHZZ581f16fIUMGeyZly5o5nYz+8HFp6ie9epGCXRVZtP6YdPp0tbzzzXrZsNN7UvXkmXOSI0t6O0o8WimtfesfffRRyZMnj43esHnzZrMvUKCA2ftSWIZQsz9x+rzZAwCA5IvENAAAAJKk4OBAKRWRQ7KGpbORlGvv3r0yceJEGT58uGzcuNFGYzpx4oT88ssvMmzYMFm6dKmNeqfJyREjRsiYMWNk//79Nop/s3jDMen82Wp566t1sn7HSRt1OHoiWtKnvf3FE+OLtu5QTzzxhNm7unjxornnqnHjxmbvS87X50w0iWkAAJK7gKvX2GMAAAAASYgmEbUlw+eff24WylRaYf/tt9/Kk08+acZO2lP4zTfflHPnbvTufeedd6RXr1525HD06FHp2LGj/PTTTzYiZuHN+fPnS7ly5WwkZRny6w75ceZeGdW9smQPi5lYPhN9SZq/s8iO3FUqllnaNMgnZQpllOadv5OcWTPKlz0etmd9b82aNeY+6oKv+kFFSIh7WxFdEFErqitVqiQLFiww83xpxYa98n/dx8vr7e+Te6tE2Gji6vrRFLP/qKvvE/UA4sfm3ael14hN0rllYXmoVi4bBZDYSEwDAAAASZAmmJs3by579uyRd9991yyOqclo7R+cI0eO61XO+s99Xcxu0qRJ8v7770vJkiWle/fuMmPGDNNb+PDhwxIeHm7manuHihUrSr58+eSVV14xVdO68KZ6/vnnTT/ilMiZmM6WObUEpnLvx6z0N6oDx25e4VuhaCZZtXq1FMubVga+09xGfU+Tzpp8rl27tsydO9dGHR9I6IccQ4cOlUaNGpkFVp0/F76kienn+86WDFkK2ggAxB8S04B/ITENAACAJOnKlaty+ux5SZM6yGwpzeLFi+WDDz6QH374QdKmTWtiWgGtMbVt2zYpXLiwSVw//fTTZl727NnNOV1Q07mA5pQpU+TBBx80x2rVqlWmota5IJ4mvLWyVvsR//jjjyaW0kycFyW/Lz5gRzFpsfq2fWfsyLva5bLIgr+XStF86RM1Ma33Uavhu3btKv/73//kzz//lIEDB5p9jRo1pHPnzonSwsNJE9Pt35sqD9x9lxTOl8VGE9fUOY72OA/eXcLsASRdtctkkZIFWasD8BckpgEAAJAkRR06KQ07DpMurWvJMy2q2GjKplWubdu2NceafK5Vq5Y59rRy5UpTGa2GDBki7dq1M8eeLl++bJLeWkmt1dbdunWzZ+DqZq08apUJlycb5pfCudNJy8jvJSxjqAz57yP2rO/lzZvX9CQfN26ctGzZ0lTSf/nllzJr1izTwkXvcZYsiZcQXrpuj7TrMU76RTaShrWL22jimr1km9nf4yetRQAASC5Y/BAAAABIJrSFh9OpU6fsUUzr1q2zRzeft3r1apOUVo899pjZI25qlA6XL14tL+8+U9IkpVWa4CA5fdbxeiYGrZ7XpLSqVq2a2Tdt2lSmTp0q48ePN33Ia9asKQcOxF4dntD0ryBUulDf9ra+GU1Ik5QGACD+kZgGAAAAkomwsDB7JHL+fOw9j8eMGWOPbj5v2LBhZt+iRQspWrSoOcbNVS8VJoNfKS/vtSspRfKkt1GH8EyhcvL0jcUnfW3hwoVmnytXLlM57UrbuWibD+0r/t///tdGfc+ZuE+fLuYikwAAIHkhMQ0AAAAkE+nT30iEahsOb7Zv3y6//fabHcU+TxdF/O677yQoKEh69eplo/AqQKRaqTAZFFle3m9fSormdU9IO4VlTCsHjp42/dETw4IFC8zeWS3tqVKlSmY/ffp0s08Mh445enWHZww1ewAAkHyRmAYAAACSiZCQEHt07R/6qbz/U/+tt96S8PBwKV26tBnHNk+rZrXNx2uvvSYlS5a0UXiTLiRIerUvJcXyeU9IO+XMml4uXbpyPfnqa87EdPXq1c3e0xVdxfGaI0eOmH1i0N7xKlc2FicDACC5IzENAAAAJBOpU9/oyxscHGyPbpgxY4aMHTtW+vbte70ftbd5a9asMQvilShRQrp3726juFOF8oab/c6oY2bvS9qyZcWKFeY4toppbeOhPNt8+NK+gycla+a0kjo4yEYSX89Bf5gNAADELxLTAAAASJLSpPafxJW/CAwMtEcxE84nT56Udu3amWrZ//u//7PRmPMuXrwobdu2lYCAABk9erSEhtJSIb4UzZ/V7LfuPGz2vrRs2TJzb/W+Vq5c2UZv0HPOFi+NGzc2+8SwZdcRKVrA8Tr5i007DsmOfb7/MAEAgOSOxDQAAACSpOAgRxL27LmLZg/3thyeCeeOHTuaFg0jR440yUlnb2nPeT179pRVq1bJRx99JBUqVLBRxIeCucMkKCiVbNh+yEZ8x7nwYaZMmdx6kTsNHDhQoqKiJEOGDPLiiy/aqG8dPXFW9h8+JUVsAt9fXLzkvQ87AAC4MySmAQAAkCSFhgRLUGAqOXj0tI1AE85Orv2mBw0aZKqfBwwYIBERESbmTEy7ztOK2T59+sh//vMf6dy5s40ivgQHB0qRfFlkzZYoG/Gd+fPnm/3x48fllVdeMf3DlVZKf/rpp9K1a1dJkyaNjBgxQvLly2fO+drarQfMvmKJ3GbvL06dOS/pQmO2vAEAAHeGxDQAAACSJE1KZw1LJwePJs5Ccv7IuXidypgxo9kvWrRIIiMj5cknn3Rr4aEJSeWct2PHDmndurWULVtWhg4damKIf3eVymPaQhw/FW0jvuGsmNYPHSZOnChZs2aVwoULm/uvieoHH3zQzGnevLmZlxiWrN1t9hVL+k9iWqulDx87I3lzZLIRAAAQX0hMAwAAIMnKkSW97Dt00o7gmpjWlgw7d+6UZs2aSfny5eWrr76yZxyciWmdp/2nmzZtahZP/PXXXyVt2rTmHOJfzfIF5OpVkXnLd9hIwtOfg/3795vjwYMHy7Zt22TXrl0yYcIE03taq6cnT54sFStWNHMSy9+rdknhvOESnsl/fv72Hjghl69cvfbfmgw2AgAA4guJaQAAACRZxQpkNYmj8xcu2UjK5mzPofS4UaNGpu+0Vsi6tuxQ586dM3uNt2zZUrZs2SKTJk2S/PnzmzgSRuUyeSUkTZDMXf6PjSQ8Z7V0yZIlJSwszBznyJHD9BAvVaqUpEuXzsQSk37AtHnnYbm7UiEb8Q/b9hw1+xKFspk9AACIPySmAQAAkGTVqVRIWtxfRqLPswCiunTpRoJe23Ls3r3b9I3OnTtma4Tz58+b/euvvy4zZ840PairVq1qYkg4oWmCTdX03GU7fPZz6+wvXbNmTbP3RzMWbjX7etWKmL2/WL3J0Q9cK7kBAED8IjENAACAJKtu5cLyznP1JHOGUBtJ2ZztOdSSJUtMqwZt4+FNdLSjx7H2oNb2DonZWzilaVi7uJyJvuCzdh7OiulatWqZvT+aNm+T5MyaQcoVy2kj/mH15v2SPTyd5Mrm6MUOAADiD4lpAAAAIJlwVkxHRESYCuj69eubsTeamM6ePbt8/PHH0qFDBxuFL2i7irQhwTJx5jobSTh6n1etWmWO/bVietOOQ7Ju2wF5qG5JCQgIsNHEd+78JVl/7XlVLUt7GwAAEgKJaQAAACCZKFCggGzcuFG2bt0qjzzyiI16N3v2bImKipLIyEgbga+EhgRL03tKydzlO2Tb7iM2mjB27NhhKqUbNGggxYoVs1H/Mua3VaL56Bb1y9iIf1i0Zpecu3DJ7/peAwCQXJCYBgAAQLKg1Y0pXWhoqBQvXtyObq5cuXJmYUQkjicaVzDJ2FG/rrCRhKELHuqHENOmTfOramSnI8fPyJQ5G0xv6dx+1i5D24ukDg6UOncVtBEAABCf+JcoAAAAkrzIfpPlpT4T7QjwfwVyh5lk7K9zNpjkbEr1/a8r5PyFy9K+RRUb8R9F82eVxxqWk7ShqW0EAADEJxLTAAAASPKyh6eXxWt2y/Y9R20E8H/PPVJNLly8LF//tNhGUpYDR07L6KkrpUb5/FIqIoeN+o9nWlSRrk/XtSMAABDfSEwDAAAgyWvzUEUJTBUg301cZiOA/ytRKJvUr1FUfpq+OsF7TfujgT8sMC14nn+sho0AAICUhMQ0AAAAkrx8OTPL/dWLmrYI+w6dtFHA/73yZB0JDEwlfb6ZZSMpw6pNUeb92qBWMSlfPJeNAgCAlITENAAAAJKFjo9VlytXrspnI+fZCOD/cmXLKG2aVJQl6/bIb3M32WjydvHSZen99UwJTRMsrz5Vx0b9w5noC7Js/R47AgAACYnENAAAAJKFwnnDpeX9ZWTavM3y9+pdNgr4v46PVpeCecKk9zcz5eDR0zaafH059m/ZtOOQdGlTS3JkyWCj/mHohCXyTPdxsnLjPhsBAAAJhcQ0AAAAko3OrWtJ5gwh8t4XMyT6/EUbBfxbmtRB0uulBhJ97qK8/dk0uXz5ij2T/Gg18rCfl0qtigWk1QPlbNQ/rNt6wPSp1+dWoURuGwUAAAmFxDQAAACSjYzpQ+S1/6srew+elEGjF9oo4P/KFs0pHR6tJkvW7pGPR8y10eTl6Imz8ur/pkima+/THh3vl1SpAuyZxHfx4mV5d/Af5kOCN9vda6MAACAhkZgGAABAstKkbklpULOYfD95ucxavM1GAf/3bMuqcl/1IjLy1xUyZc5GG00e9C8YXuozSU6ePicfdW0sObP6VwsPbaOyeedhiXyytuTPldlGAQBAQiIxDQAAgGSne8f7JHe2jNJtwO+ydddhGwX8W0BAgPTq9IBE5MsiPQZNl8VrdtszSZu2Jnnj499k7Zb98lb7e6Vy6bz2jH8Y/dtK+fnPddK8Xmm/ay8CAEByRmIaAAAAyU6GdGnk87eammOtnAaSirShqeWL7s0le3h6ebnfZFm9OcqeSZo0Kd1j0B/y19Lt8lyratKqgX8lfqfN3yQfDvtLqpTJK92eq2ejAADAFwKuXmOPAQAAgGRly87DUjBPmAQHBdoIkDTs3HdMnnpnrJy/cEk+e6upVC2Tz55JOrRv8zsDfpff52+WRxuUk3f8LPE7b/kO6dJvkvnrih/6PW4+0AIAAL5DYhoAAAAA/NA/e47KC71/kcPHzsj7nR6QhrWL2zP+72z0BenSb7JpR9KmSUXp+vTdplWJv9AKbl2IMXt4Ovm2VyvJkcW/el4DAJASkJgGAABAiqFtBbbsOiIlCmWzEcC/RR06KS/2/kW27T4qzz9WXZ57pJqkSuU/CV5vtNq760dTzGKCL/ynhnRoVc2e8Q+jfl0h/xv+lxTIHSZfdH/YVEwDAADfC3z3GnsMAAAAJGsDRy+QHgOnS2iaIClXLJdfVXAC3mh7iUa1i5tFPMfPWCurNkVJjfL5TS9qf6Q9mzv3mSTHT0ZL784N5D+Nytsz/mPjP4ck+vxF+bJ7C8kWls5GAQCAr1ExDQAAgBRj/+FTppJzzZb9UueugtK94338CT+SBK32HzJ+sXz10yJJG5Ja3nr2XnmwTnG/+XDlyPEz0nfobJm+YIsUyhMmH3VtLEXyZ7Vn/c+VK1f9vvIcAIDkjsQ0AAAAUhRdkO3zH+bL95OXmwSf9r596J6SLJCIJEE/VOk24HfZsfeYVCiRW95qf2+itqbR99MPU1fKF2P/luhzF+U/DctL5JN1JCRNkJ2RuI6eOCsHjpyWkoWz2wgAAPAXJKYBAACQIm3YflDeHfyH+bP+/Lkyy4uP15D61YtKYGAqOwPwT+cvXJIvx/4tIyYvl0uXrkiDmsXkuVZVfVqhfPHSZZk8e4N8M26x7Dt00iTHX3+mrlQqldfOSFynzpw3CfNvf1kq2cPTyy+fPUmFNAAAfobENAAAAFIs/XP+ibPWy6DRC+TQsTOSL2cmad24ojS+u4RkTB9iZwH+ae+BE6a1x6TZ68347kqFTU/nqmXzSVACfcBy8Ohpk5AeN32NSUjre6bjo9XlwTol/CLx+8+eo6YX94Rr25noC1K5dF7p0qaW6SkPAAD8C4lpAAAApHjajmDcH2tMe4+9B09KSOogqVctQvq83MjOAPzX9j1HZeS1n92p8zaZdhq6oN8DNYvJPVULS4XiuSR18J211Thw5JTMXb5DZizcIn+v3iX6G6RWSD/aoJw0vaeUBAcnbhucPQdOmOc2a/E2WbkpysTuKplHnn2kitSsUNCMAQCA/yExDQAAAFhaQb1w1U5TgZomOEje6/SAPeOwftsBOX4qWgrlCZcsmdPeccIPiE8nT5+TKXM2yu8LNsuKDftMLHVwoJQpklPKFM0hBXOHSf5cYZIrWwbJlD5EMqRLY+aoCxcvyYnT5+XYibOyK+q47Ly2bdt9RJat32sWDVVhGUPl3qoR0qRuiURt2aF9o3+Zuc6041m79YDsO3jSxHNkSS8P1CwqD99XRiLyZTExAADgv0hMAwAAAHH01qe/ydS5m+wobuaNeN4tAbhiw155uttPdhQ3XVrXkmdaVLEjh5aR38vWXUfs6N/lzJpBfv+qnR05jP19tfT+eqYdxU2flxuatg2uyrf81B7FjS7a913vR+3I4dOR8+Tbn5faUdyM+7iNFC1wo69y1KGT0rDjMDuKm1YPlJVuHe6zI4dOvX8xFcK3YtX4l+2Rw5xl/8hLH0y0o7jxdp8bdBh6PTEcF877rG02Fq7cKSs27pN5167l2MloOyPuQkOCpWzRnFK+WC65q1Qeef79n+2ZuKlzV0EZ+E5zO3Lo9dWf8tP0NXYUN3o9el1Omjh/qNNwSReaWkpFZJeKJfPIvVUKS4lC2ekjDQBAEkJiGgAAAIgjbZmw6Z9DpmJTE31aPX35ylWz0Fps3n/pAQlNE2xHjh64g8YstKO40USwthZx9dHwObeUsMycISRGAnbByp2mF++taN24gkkEuur60RR7FDeF8oTJi4/XtCOHqXM3ysxF2+wobl59qo7kypbRjsTck1tNtNesUEBa3F/GjhyGTVgi67cftKO4+ahrY3vkoNW8Q689zq3wdp81kXv81Dk7+nex3ecxv60yPZe11ceFS5dN+5pLl6+I89dB7UmtSV1tY5Pm2tbmobukXtUIt8VAb/U+lyqcPUaiXX/e9PnElT6nd56tJ5muXZfT5WvPW1vu5MmekcVKAQBIwkhMAwAAAAAAAAB8io+XAQAAAAAAAAA+RWIaAAAAAAAAAOBTJKYBAAAAAAAAAD5FYhoAAAAAAAAA4FMkpgEAAAAAAAAAPkViGgAAAAAAAADgUySmAQAAAAAAAAA+RWIaAAAAAAAAAOBTJKYBAAAAAAAAAD5FYhoAAAAAAAAA4FMkpgEAAAAAAAAAPkViGgAAAAAAAADgUySmAQAAAAAAAAA+RWIaAAAAAAAAAOBTAVevsccAAAAA4smWLVvkww8/lFmzZsnBgwclXbp0Urx4cXnsscfk2WeflaCgIDszfm3YsEH69+9vRw5DhgyxR7dn6NChsnDhQjtyV7lyZenYsaMdJW3z5s2T4cOH25HIiy++KBUrVpS///7b7TV89dVXpWTJknaUdHn+rISFhcn//vc/OwIAAEhYJKYBAACAeLZ48WKpW7eunDt3zkbc6bkZM2YkSHL6zz//lPvvv9+OHO70n/xt2rSRUaNG2ZG7li1byrhx4+wo/ly8eFEGDx5sRw7t2rWT9OnT21H80wR8+/bt7ciRmB44cKC5dn0NnPTe3XfffXb07xLjWuLC82clT548smfPHjsCAABIWLTyAAAAAOLZW2+95ZaUzpQpkz1y+Ouvv2T69Ol2BG8uXLggL7/8stt24sQJe9Y3JkyYcMdJfeUP1wIAAOBvSEwDAAAA8Wz58uX2yGHRokXSqVMnO3JYv369PRJZu3atPP/881K9enUpW7asNGnSREaMGCGXLl2yMxxOnjwpH3/8sdSvX19Kly5t5rZo0UJ++uknO+PfrVy5Up577jmpWrWqlClTRho0aCADBgyQs2fP2hn/Llu2bObrdNNWF07z58+Xp59+WqpVq2baltSqVUtee+012bdvn53hcP78efnmm2+kUaNG5jnUrFlTOnfuLJs3b7YzxLRA8aSx48ePm+P9+/dLt27d5O677zZtNWrUqCGRkZGybds2c15pqwqtgHZu+oGBPpe2bdvKtGnT7KzYRUVFmXt3M87nUbt2bSlVqpSphn/77bdl9+7ddkbs19KzZ8/rz613794m/scff7g95+joaNm6datbbOnSpWbu5MmT5ZFHHpEKFSpIuXLlpFmzZubn5vLly+a86tevn9vXalsSnfP444/bGTF16dLl+vzRo0fbKAAAQDzTVh4AAAAA4k9AQICW2V7fDh8+fLVHjx5use7du5u5w4cPvxoUFOR2zrnVq1fv6rlz58y8PXv2XI2IiPA6T7e3337bzJsxY0aMc06jR4++GhgYGOO8bqVLl7568OBBO9Nd69at3eY2a9bMnrmhT58+bnNct9y5c1/9559/zLzjx49frVy5std5ISEhVydNmmTmZcqUyeucefPmXd20adPVHDlyeD2fJk2aq1OnTjWP4flalC9f/mrJkiXN8ZgxY8wcV0OGDHGbr9urr756deTIkW4xfVy1YcOGq1myZHE759wyZ858dcGCBWZebNdyzz33XD/Onz+/mavfz3XO5s2br44aNcotNmfOnKuRkZFuMdftvvvuu3rhwgXzeLVq1XI798QTT5h98eLFY7w+efLkubpixQq32Pjx483jAAAAxDcqpgEAAIB45tk7+McffzRV0Nqv2Lk1btxYjhw5Ih06dLheGZ0mTRpp2rSpOVYzZ8683ptYq3Bdq4G157Frj+q+ffvGqEx2pe0kdJFCZzVtaGioqbZ1Wrdunfket0Ofl+vXagWzVmQ76fPSyl3Vq1ev6xW/SqvE8+XLZ461/ckzzzxjKqoLFixoYq4KFCggISEhZvHBAwcO2KjIo48+KqlTpzbH+rVPPvmk1/7eq1atMlXUt2L8+PGxtvPQCm29h066sGVwcLA51srup556yhzHdi158+a1I5G9e/fKlStXZMeOHTbioPFNmzbZkcOpU6fkk08+sSORQoUKmep0J+0d/fnnn9uRux9++MEeeafX66Q/j1oVDwAAkBBITAMAAADxTFsruNJF9L7++mtp3bq1OdZN210sWbLEJFKdtB3D2LFj7chh6tSpZj9v3jyzV5qc/f7776V8+fI2IiapuXr1ajuKaeHChW59jbWFxpAhQ+zIYeLEifbo5k6fPm2S0brpsT62a/JW23n06NHDjhyc7U3mzJlj9k4674knnrAjkcOHD8uyZctMWxBPGtPXVhOvrr799luTDHfSx9DnFB80UezZmkXpgobenoe283DasmWLadkS27Vo+xEn/cBA24Ls3LnTRhx0MULXFieBgYGmHYsrXYBSW6a4iuu99OSamNaFEdOlS2dHAAAA8YvENAAAABDPdHE7T5oELlGixPVEs9IEqiut+tUqVVe7du0ye9fKXGd1sCaoXR09etQexeRZTa2VvZ7f69ChQybR/G80IVukSBGzTZkyxe25KX1+sT03b9es1duunNfsjT6O9l125e11c62o9qTJXWdlc1y4Jmud9Do0Oe3K22u6fft2exSTVjq70uv2VjGtPaad8uTJY5LVrm71+pXna670a1wryh9++GF7BAAAEP9ITAMAAADxTBck/Oijj0wC1JUm/rSFh55TrtXSrt54443rm1YfK13YTltF6KYVsrqInS6a6Mpb+wonz8UNtbpaFw705Fxc8FZERERcf266afLUc9E853Pzds26cKDrNevjxUbbWHgKCAgwm6vYXtvPPvvMJLb1HsWVt0S5t8UitZ2GtkRxdbPX0zMxvXHjxhiJe01Cu36ooC1APF+DW7l+rZT/559/ZMWKFTZyg+dim9p+BgAAIKGQmAYAAAASgPZB1nYSWiXtSdsueLaBcKX9op3bW2+9ZWLfffedjBgxQh566CHTc1jbQLi25lDO/tFxoZXR2krE0608hpMmMMeMGSPvvfee5MiRQ5599lkZOnSoPetws8e977773K65SpUq9kxMsfV7jou0adNK586d41wtrfNvxeLFi+XMmTN25HCz6/bsPe3Z5kTt3r3brfpZE9N38hpo32tvPa+98ayEBwAAiE8kpgEAAIAEoglWrUx96aWXbOSG4cOH26O40SR30aJFzaKHCxYsMK0YsmfPbs86aJ/puNLk5KeffhpjCw8PtzNip8lxra7VTRce1ETpc889Z5LwuuieJsw9k5+38twSSoYMGexR3GiP5VvRv3//GK+n6yKQnrTdSc6cOe3I0XfaydlqQyvbXZPb+fPnt0e351ZegxkzZtgjAACA+EdiGgAAAIhnuohh+vTpzZY1a1bp1KmTdO3a1Z518Gz54KpXr17Svn17szm/TiuwXVtKTJgwwW3Bv1ul7Ta6dOliHnPWrFnXt5u1A3FKlSqVaVOim7aQ0ATmN998c72SV1ta6DiuNPnqvF7d5s6da8/cPs/WFiooKMgexU3Tpk3tUdzo65kpUya311MXNLwZ13Yerosc1qxZ0+y17YaruFY7e7t+dbPXQD+UcG0/M336dHsEAAAQ/0hMAwAAAPFMF8XTlg7OTRO29evXt2cdtKrY2wJ06pdffjGtMHQbN26cibkmLXWxuwYNGthR3MSWkPzrr79k4sSJ17e4JKY9uT43pX20Y2uX4e2atV2F83p1u9mCgXFNLnsuBng7SpcubVpneBPb89C+366vp+dChZ48+0w71atXzx650+cTl9fgdq5f70358uXtSGT27NkxFngEAACILySmAQAAgHimVbOuvC1Ep/2LPdtmOBefu3DhgtmrsLAws3dNGGvSVytib6UfdObMme2Rg7O1huv3Urfa7kJ5JrM1cR7bc/N2zZ7PwXnNnvQ5Z8yY0Y5u0O/l+f1ie4xboa9xbAsAer6eSp9fXF9P5+vvLTGtr5/2EPdGE9Oer0F8Xn+1atXskZgPVbRvNgAAQEIgMQ0AAADEs7Jly9ojh3fffddsrrQlQ6VKlezIYePGjaYtxrZt22xEricoXStgNWH4+++/y86dO23k3+n3cm3voC0itCJ269atNuJIknpLuP4bz+pc7YGtmzeVK1e2Rw5Tpkwx1+KkbUK0N7f2X/Y0bdo0U8GrCyy6mjp1qlubE32MChUq2NGdia2dh374UKRIETty0GvxvO6KFSvGei0HDx6UwoUL28gNERERZvNGe0yXKlXKjhxWrVrl1p9aeb7OcVW9enV75EA7DwAAkFBITAMAAADx7IUXXnDr1fvzzz+bxQtdtWvXTrJlyyatW7e2EUd7D235cfbsWTPW5Ocbb7xhjsuUKWP2Tg0bNpS9e/fa0b/LmzevPPvss3YkpvfxvffeK9HR0TYi0rdvX3t0azyfm/a/7tmzpx25037brq0oBgwYIF999ZUdiVkoMleuXOb180za6gKL+lo+//zzNuLw8MMPmySvk34Pz4Uhb1fdunUlXbp0duTuvffes0cO+jyWLVtmR2Kep1Y43+xavFVMFy9e3Nwvz5Yd+vOi7TZ0wUnXyvPffvtNPvjgAzsSU1Ht2dM8rlwrphULIAIAgIRCYhoAAACIZ1ol++eff5oexZ40UTl69Ghp3ry5GQ8ZMkQ6dOgQo6pWK341KejscdyvXz/Jly+fOVZ33323tGzZ0o7iZvDgwdKjR48YVdGaxB0+fLhJeN4OTd5qot1Zka3X8uGHH5pjT7pgo1ZIey7cqAlXTab279/fRkTGjBljKn+17Ymrbt26yZtvvmkWl3SlCeS3335bPvnkExu5c1oN7tkf3Onxxx83z9GzulmvPzIyUj7//HMbif1avCWmS5QoYaq+PRc6dP4saFJaK5m1styTxrQS3jn3VhUrVszt52PRokVy6tQpOwIAAIg/AVedS2cDAAAAiHebNm2SHTt2mBYU2oahXLly9ow7bc+h7TU0CZgnTx4z15P2Y16/fr1JWnpWKd8K7Uesz+v48eOmF7FW6Opj3qkDBw6Ya9XkZlx6HGv7jaioKJPI1a+JbTHI2OjroQsvHjt2zPRy1mR3bIsuJjS9br0WvQZ9PW/1Wm6XVorr66ivhf7M5M6d254BAADwbySmAQAAAAAAAAA+RSsPAAAAAAAAAIBPkZgGAAAAAAAAAPgUiWkAAAAAAAAAgE+RmAYAAAAAAAAA+BSJaQAAAAAAAACAT5GYBgAAAAAAAAD4FIlpAAAAAAAAAIBPkZgGAAAAAAAAAPgUiWkAAAAAAAAAgE+RmAYAAAAAAAAA+BSJaQAAAAAAAACAT5GYBgAAAAAAAAD4FIlpAAAAAAAAAIBPkZgGAAAAAAAAAPgUiWkAAAAAAAAAgE+RmAYAAAAAAAAA+BSJaQAAAAAAAACAD4n8P8tm7lulgHZrAAAAAElFTkSuQmCC;" vertex="1" parent="1">
          <mxGeometry x="99" y="1791.5" width="781.54" height="247" as="geometry" />
        </mxCell>
        <mxCell id="2NNQloLt1MzRpBVAXhhT-38" value="Non-Crossing Quantile Regression DQN" style="rounded=1;whiteSpace=wrap;fontFamily=Times New Roman;" vertex="1" parent="1">
          <mxGeometry x="10" y="1390" width="280" height="40" as="geometry" />
        </mxCell>
        <mxCell id="2NNQloLt1MzRpBVAXhhT-39" value="" style="shape=image;verticalLabelPosition=bottom;labelBackgroundColor=default;verticalAlign=top;aspect=fixed;imageAspect=0;image=data:image/png,iVBORw0KGgoAAAANSUhEUgAAARQAAAERCAYAAAC6vVjKAAAAAXNSR0IArs4c6QAAAARnQU1BAACxjwv8YQUAAAAJcEhZcwAADsMAAA7DAcdvqGQAADlKSURBVHhe7Z0HfFRl9v6f9N5JIyEhhQ7SuyiKolhRFMVesKy6tnXXtbC7v1V09e/aV7GuuoIVFRui2JUqvUNCCyEJSUjvZf7v8947MQkJaZNkJnO+fC73znvvTGbm3vvMOec973ldLAoIgiDYAFdzLQiC0GFEUARBsBkiKIIg2AwRFEEQbIYIiiAINkMERRAEmyGCIgiCzZA8lE5k/fr1WLt2LTw8PDB9+nTExsaaewzeffddZGZmYs6cOYiMjDRbDQ4dOoQlS5Zg9+7dqK2txbBhwzBr1iyEhYWZR7TMhg0bsGzZMhw8eFC/RlxcHE4//XSMHTvWPOJ33n//feTl5ZmPAHd3dyQkJGDy5Mnw8vIyW49P49fw8/NDdHQ0xowZg6CgILP1WPjevvnmG/z88884cuSI/nv9+/fHueeei759+5pHGZSVlWHx4sUoKSlBnz59cNZZZ5l7DPbt24dPPvkESUlJOO+888xWocugoAidg7opKNZ6URe/Rd0E5h4DdZPpfR9++KHZYjB//nyLp6dn3XOti7+/v0WJhHlU8xQWFlouuOCCY55vXdRNaFE3vnm0xaIEp8njuCgBs3z66afmkc1zvNdQgmqZO3eupaCgwDz6d3bs2GEZOnRok89zc3Oz3HvvvRYlOObRFss777zT4JjnnnvO3GPw9NNP6/YhQ4aYLUJXIoLSicTExDS4+B955BFzj0FTgvL444/XHR8SEqJvxD/+8Y8W9Suv215//XXzyKbhzXfqqafWvYayMCwPP/yw5R//+IdlxIgRde0zZswwn2GxpKSk1LWfc845lvvuu89y9dVXW7y9vXWbsjQsGRkZ5tFNU/81lDWm3/MVV1xhUVZZXTv/fn1RzcrKskRERNTtv/TSSy2PPfaY5Z577rEoy6aund+JlVdffbWunUtoaGgDoRJB6V5EUDoRq6CEh4frdWBgoCU3N9fce6ygZGdn193EvXv3tii3R7db+eyzzyxbtmwxHzUNX4vP53L99ddbampqzD0WvU3BsO7/9ddfdXt9MXjjjTd0G+G2tf2DDz4wW5um/mu8/fbbZqvFUllZafnDH/5Qt4/CZuXWW2+ta3/rrbfMVoOcnBxt1XEfvyerEFkFhZaTi4uL3p43b57eR0RQuhcJynYB11xzjV4rVwT/+te/9HZTqJsW5eXlevuvf/0rlCDpbStKDKDcA/NR06ibWa8Zt1G/9nB1/f0Uc/v+++83HwGff/65udU0jKFYUWJkbrUNvo8nn3xSx1KIEim9VtceFi1apLdHjRqFK6+8Um9bYaxICZHeVhYIlPjpbSvczxgL4esz9iJ0PyIoXQADqtbg4bPPPov09HS93ZiVK1eaW4Z4tId169bptXIvmgzgTpgwAW5ubnp727Ztet0UaWlpeOihh/S2spowdepUvd0e+Pyzzz5bb+/fv18Hbq1rMm3aNL1uzJQpU8ytY99rVVUVHnzwQb3NAK1y6/S20L2IoHQB7MWYP3++3q6oqIAy+/V2Y+r/yja2TlqLchX0unGvkRXlJqBXr156m7/8jZk7dy48PT11j9Dy5cuh3DQsXLiw2ddrLXw9KxQS6/skUVFR5lZDlKtobh37Xvmdsrfq/PPP148XLFigRUroXkRQughaDJdeeqne/u9//4vU1FR9czfH8fZ9++23uiu2/rJ06VK9z2p9WF2npiguLtZrf39/va4Pu2zr/+0///nPuPDCC81HwOzZsxv83ZkzZ5p7jk/97mT+Xev7JM29V+v7JE29V/Loo49qV44Wy//93/8d93sTOh8RlC6EZjnzOxiP4I3A+EJ9rHEGwvyT5qAY0bWpvzD/gkREROh1RkaGXjcmKytLuwgkPj5er+vzn//8R++/6aab9ON58+bhyy+/1NuEuSL1/27j2EZzWD8PhYGumPV9ksOHD5tbDUlJSTG3mn6vZNCgQbjqqqv09v/+9z+dvyN0HyIoXQiTrehSkLfeeksnadWHSWRW3nzzTXPrWK677jps3bq1wXLDDTfofaNHj9br7du3N+kC8O9aaS52QdF76qmn6m56a6yCUETq/92NGzeae5pnz549+Prrr/U2/yatEyb5WV2ar776SrswjbF+Bzz+pJNO0ttNQcuEbhqF+vXXXzdbhW7B6OwROgNrt3H9rljmc/j4+Oh262LtNmY+BbuW2aZuIsszzzyju0vZ3btp0ybLnDlzGnTJNgWT0KyvO378eMvevXt1O/NT3nvvvbqEub59+1qUm6D3NddtrISkrt3axdwcTXUbHz16VHc3W7t/lWtiWbVqld5H7rrrrrrn1E98Uy6Q5S9/+Uvdvssvv1y3E2u3sbJYzBaDO++8s+54LtJt3D2IoHQiTQkKuf/++xtc/PUT295//31941n3ubi46ExT6+MFCxaYRzbPrFmz6o7nwpyW4ODgBm0LFy40j25eUJSFU5frcckll5itTVP/NZpalNVjeeWVV8yjDfLz8y3Kaqs7hp+TiXDWXBzr85Q7Zz6jeUFh3opVjLmIoHQPIiidSL9+/fTF3TgprKioyDJu3Di9jzePciPMPQbLly+3jB07tu7m4BIQEGC58cYbm0xfbwwtD6bv18825cIEMWsbs1+ZBFZaWqrT5q0iRkGrz/nnn6/bfX196yyapuD7aixafM+8sZnYtm3bNvPIhjCZjwl4fD/1n0vBsFpyFJ0lS5ZoK2vRokW6bfDgweYr/I5ykSxeXl56/+zZs81WoSuRwYGdCH16dhOrm9FsaQj3s4eiuZ4J5TLogCWfz25XxjbaCvNJ2EWrxES/Rm5uLs4888y62AcT5bZs2YLKykr9ftRNrNvrw94W5pK05++3Fv5tBpaZ/Mcuanabr1ixQiev8Xsgt912G5577jkoEdS9UfV7iqzwcmY8pql9QucjguKEUDyYRfvvf/9b35js+bFXmJvDrmvmwnC09XvvvWfuEewRERQnhr1MLG0wYMAAs8V+oZXF98uSBYL9IoIiCILNEEHpJhgzYHyD43omTpzYYBCfINgLjLkxxsZMZ8bREhMTddEruspNIYIiCILNOEZQmCG5adOmY9LCBUEQjgd7344RFHbNjR8/Xg/8EgRBaC333HPPsYJyxx136NGlJ598stkiCILQMpdccokMDhQEwXa0SVBozMhi20UQehKtcnlYvIbzxzCxSG4C28Gu4oCAAF1BrTPT2gWhK6DL0ypBYb4Ex3iEhITIGAkbQqHmOBWO5alfcEgQHJFWx1B44bO2qIiJbWHXPIW6urrabBEEx6bVMRSp1dk5yPcq2B2WWqAsHyhIA6orzMbW4ZC9PN99951OomkODl9nHVSmDdeHlgBHr8ocLoJwHCgi+38BVr8EFLdtJLrDCQpDPhxXwLEwzUHheOaZZ3Tspz4UIRZVZqFlQRCagYKSvQNIXw/UtM0ddwhB4ZwsrMb+2muv6Zn3fvjhB124iOKybNky/POf/9Szx3F6ClovhFbK6tWr8fjjj+OJJ57AgQMH9BB4zlzH5dVXX8XevXv1sYIg1KNWiUhFEeDmAXj6mY2to1W9PLzxWIeCQcRPNqRjb3YJanWlvo4T4OWOSclhGBYTbLYcC6eE4Ex6nK5y8ODBuOWWW3QVdYrG3Xffrad8YLfr3/72Nx1p5vABViXjLHmnnHIK1qxZo49ltXgKDLf5WsnJyQgNDTX/SvdQVFSkl969e5stgtDNFGUAPz5uxFAufkuJStMVBxvTrkzZPUeKsHb/UazdZ5tlY1o+sotaDvywDOJpp52G008/XZczZDDzl19+0UOpzzjjDL1vyJAh5tG/T71w6qmn6qkbaK2wR6V///7o168fxo0b1+1iIgh2Cd0cbaF4A+5qaQNtFpQbpiTh6UtH4Nk5I22y/PP8oZiYZEyNeTzYbc0ksPq9Iqx1ytwYJohRQLhthW2sTcrj/fz8jpkDRxCEZqDLU63uFy9/3khmY+tos6AE+3ogMtDbZkt4gBd8PFrOb2mqe5Ujojn/LuMpnO3OOpmUlfrPoWdH0WFhmONN0ykITk9tFVCp7hHvALOh9ThEUJbUFwdrdTO6LYyVsNzCeeedp10ZukOksQDxMafB5NSVH330EebMmYNVq1aZewVBqENbKEpQPNsuKG0OynYXfJtWkai/zVwTlqajS0NRefHFFzF8+PAGx5DGzyf193cXEpQV7I7MzcBndwEDzwam3G02toxDlS+of/PX337ooYdwwQUX6CkWLr/8ci0mpLFYNH5+4/2CIJgwKGuNobQRhxGU5nj66ad17OTHH3/ErbfearYKgtBuaqqM5DavHhxDEQShC6itAapK1IbFOS0UQRBsiEUJSnmhUgZPwDPQbGw9IiiCIPyOTrsvANzcxeURBKGDUFBoobgpC8VZBOXZZ5/VI46t3b+N4WjjRx55BPv37zdbDDhJeEpKil6agzP5ffvtt3rOX0FwOhhDKVcWiquHcwgKRYTjdphO31zXLwf/sdcnPz/fbDFg+YIVK1Yct3wB0/c5ADEsLMxsEQQnQo/joYXSPkFpe2LbyheNxBdWdbIFPiHAoHOAvieaDceSnZ2N+++/X2e60urYs2ePLqDE9/Tyyy9jyZIlWgiioqIwbNgwXHbZZTjrrLMwZcoUbN26VafcP/DAA3rNDFl+ZI5CvuaaazBy5Ejzrxhs27ZNi9GkSZOwY8cOfSwHH1Jg+Lrz589HYWGhTqBjxi6tHQ5YHDBgAN5++209DOC5555DTEwMHnzwQT0Kevv27fpvc2Q0R0DXRxLbBLuCI42//Sd0YaXLPlQmR+ttjvYltpXmAAWHbLfwA1Sym6p56MKsXLkSo0ePxksvvaRvThZY4pSpb731Fl555RU89thj+Oqrr3TRZ0IrhbVwn3/+eS0IFAAWgr7iiiu0MDAhbujQofrY+nCcD+umMPOWFk79Yk6sqUK3ifvoFrEcwptvvqnrsKxfv16/NwoR1xSiw4cPa1FasGAB5s6di3nz5unnC4LdQpenstRIu2/jwEDS9mecch9w5WLgqo9ts8x6Feh3uvnizUMx4M3KtXXKCbovLE8QHR2N2NhYTJ8+XbcTHnP22WcjPDxcWyGpqanaomAZBC4cvdyRoQQslcCxQ/zbtC6mTp2qrSQOWNy5c6c+hsJ37rnn6vcwYsQIbWHt27dP7xMEu4RB2SolKO1wd0g7JEjdzIwA22xRN7VLy2+DIsAbtDH1Pbb624yvsP4J4fNorbQVihJfkwutJGuVOMJRy9ZBinz95v5W4ziPpPwLdo3VQukyQbEjJk+erOMd7Jk5dOiQLmVwvBuWAsFgLt0YlpVsSWRoedBt4WuztCTdqfqi1RJ0lT7//HNkZWVp94wlFlgQShDsFgoKx/F4tz2pjTiEoFAI4uLi6lyUxMREvX3CCSfoIOvNN9+Me++9V7fTJaKo8HiOQia0JuLj47WY0PVgoPbvf/+7DsA2hrEXPp8LK77RTWEXNN2rpKQk/Zq0RuhiWS0U/i2rhcK/wWAx4WswOMuSlKxhy7iNp6eyygTBXrFUw6IslFIXXxwpLEdVTds6XxymfEFzMBhKS4CBUgZmOViQsY32wN6WpUuX6s97/vnn69op7YUuEmvdsqQCX6s5pJdHsCsyNqFq0RX4KeoqLHE7DXdN64+E8NYVqnao8gXNwQLULJj06aef6hu4tWLCnBS6IRQQ67J48WJttdCK6ahrQuuEhZ9oyQiCQ8BUkKoS1Ci3J6fKGxkF5eo6Nve1EocXFLo7jz76qJ4qg9ZAa2H3rbVb17rQWGNNFVaBs7ow7YXB2RtvvFF3dQuCQ8D4SVkhauCmXR4PVxf4eLZt+uFWCQpvDroUjC/0FIKDgzFjxgydbGZdrr32Wl0Vv6ugq0Zh4/crCN2OHsdTgGq4owQ+cHdzbbOgtCqGYvXzBdvCr55iwpwYdosLQrfCBNONC5Hz48t4OfxBpCIWC64cBQ8lLK2BMZRWCQoPYQ6GNWNUsA2Ms7AHi8FubgtCt8JRxmteQuaqD/BMxMMo9AjD85ePRmuvzFYLiiAITkBpHvDzE0jb+B0ei3wc3n6BeOJio0Zza+gRvTyCINgIizHSuBLuKK7xhG8b4ydEBEUQBAN2G1eWoMbDDxU1FhEUQRA6gB7HQ0EJQGVNLXw8jEG4bUEERRAEAxaopqB4moLi2XZ5EEERBMGgqgIozUWNTy9UVNUql0csFEEQ2gOT2goOGolt4YP1oECJoQiC0D5YsuDQb6j1CkBF+FBY1D8RFEEQ2kdVOXB4A2r9Y1DiHQ13V6bdi8sjCEJbYW5reRGQsxvVUcNRUgUtKGKhCILQdhg/yU3RPTy10aNQUlENt3aMNCYiKILg7NRUAulrAE8/1ESPQElltS5d4CcujyAIbUYLygYgNBE1vhHKQqmBm5uLuDyCILQDli3I2g7EjEINXLSF4k6Xx0MERRCEtsD4CcWktkoJymjU1lpQWqEExY1BWXF5BEFoC9UVwI4lgFcgEDsWNRYLyqpq4enuqkSl7TV6RFAEwWmxAAXpwM6lwODz9TzjtFDKlaD4tcPdISIoguCsVFcCG94CPLyBkZfrJlooFdW18PUSQREEodUo66QoE9jyEdD/TCAsWbfWKAuloqq6XfETIoIiCM4I60NvXMgNYNQ1RpuCEwWWV9eIhSIIQhsozlDWyQdA4ilA9DCzEfViKGKhCILQGji/1tbFQFk+MHYup18wd9BCqTVqoXiJoAiC0BrKcoH1bwMJU4DeDava6xiKBGUFQWgVHFm87ROgIA0Yf7NSAA9zB3dZUFZdo2uhSLexIAgtU1UKrFkA9D0RiB1jNhowIKvH8bi6iIUiCEIrWPsakHcQmHAL4OZpNhrUKguFpQtYC6U9I42JCIogOAtrXgZ+eAQYfB6QcOzMoExqM2qhAD4SlBUEoWkshph8dR/Q70zg/BeUdXKsYLDLmC6Pq4tyeSSGIgjCsSgxSf3eEBOO15mlhMXdy9zXEKUnunSBWzvLPxIRFEHoyRRlAZ/fDUQNU5bJc8fETerDGEpxOWMogJ8EZQVBaEBFEbD870YBpXOeAjz8zB1NQ0EprTJqobSn4j0RQRGEngZLOh7ZacRNdi0FTroHiB5h7mweJrWVKpeHtVBYU7Y9iKAIQk+C6fSb3geW3gts+wgYeSUw6qoG6fXNwRhKWWUt/Dzd1OEiKILg3NC1+e114KfHgdAEYNo/gFPnKVfHxzzg+LCXp6yqBn7t7DImIiiC0BOoqQI2LgLWvQkMvQCYyi7i04ziSa2ELk95pRKUdsZPiAiKIDg6TKdfr4Rk1QtGsaRxNwH+EWpH29yWyppa5JZUIsj39/E9bUUERRAcmbwDwDfKtfn1GaO2ycRbgICoVsVM6lOlxCTlSLHOQzkhNshsbTsiKILgiNRUAzu/BD5RArL7KyUktwEn/wUI7qPEpO23dalydX7ak40AL3eMSwg1W9uOCIogOBr5h4CvHwS+uNuwRGY+b/TkBES2S0xISUUVVu/Nxai4UIT6NZ1J2xpEUATBkUhfD3x2u1Fxbcx1wEWvAfFTzJ6c9nX1Vit3Z0dmEfLLqjClX692voqBCIog2DuWWmPKi53KtfniHqA400ijP/EuwJ9WSUckgEWpa/HdziwE+3hiYlKY2do+RFAEwV7hNKFMVNv/q2GVfKlcHN8Q4JyngX7TAbf298bUp7SiRrk7RzG2bwgCfTr2miIogmBvMKekMAPY8w3wubJCltwK5KQYBaXPfhLoM67dsZLG0N3ZkJaHvNJqTB0Qbra2HxEUQbAXaJEUKSHZvQz4+gHgm78BlUXA5DuAS94EpigLJSTePLjjWNRSUFaFRWsOIiHMFxMSOubuEBEUQehuqsqB7J3A9k+B7/8F/PCoYaVMvhM473kj+BoYYx5sOzhlxo+7c7DlUAGumBCPgA66O0QERRC6C4692f8LsFKJxnImpz0LlJtz5ZwxHxhxWbuS1FrLkcIKvLFiH0bGBeP0IZFma8cQQRGELkU5GuWFRjLa948A3z1sbIckAJP+CEybZ+SUBMd1mpAQjtv5bNNhpOeV4dpJCR0av1MfERRB6Ao43ubQWqPqPHtslv8TyNgMDJgBTFeictKfgWGzjEnLXdtXLa21WJSm7cgoxMLVBzFtUGSHMmMbI4IiCJ0F79yMTcCPjwGLLgU+VUKy6kWgtgY48U7g7P9nuDdxEwBf293ULcESBU8s2wV3Vxf8YWqSLqhkK0RQBMHWMAltx6fAO3OA964E1v8PCOytXBolKLPfBs5SQjJkJhA+EPA8fllGW0ONe2vlfqzZfxR/OmMA+ob5mntsgwiKINgCWh20Rn55EnjtdGWN3AYUpRuD9q790hARujSRg4xA63GKRXcm25Wr85/vU3D2CdGYPjgS7a3M1hwiKILQLtRPfXU5sO8nYNkDwAvKbXn9TOAnJRx0X2a+pIRkmXJprjcCrF4B3SYiVg7ll+EPb/+GYB8P3HfmQHhwRi8bI4IiCK2FY2pqKoD034Cv5wH/GQ8svBjY9K5yX5TlcY6yTm7fDFy+GBigxMVTuROdHGBtLTnFFbj29TUorqzGa1ePRah/+0cUHw8RFEFoDi0glUBFMVBwCNj8AbDoEiUis4GtHwFxE4GL/qtEZIORyTp8DuAfru4q3lad1+XbVrKLKnDjW+uQW1yJl68cg/5RylrqJERQBKE+jIVwPpuiTOCwEoq1rwIf3wi8cbYxxw2FgoWf536n3JoXgIFnAd6BRrsdcli5Obe/swHpeaV46tIRGBPfub1JIiiCc8NuD+aIFB4GsrYBKcuBFc8DS25RQnITsOFtdZC6TUZdDVz8hrJE1OMx1wKBzGC1z9uHHymvtBLbDxfir4s3I12JyvwLhuLk/h0f/NcSLhaFua254447cOGFF+Lkk4+dnV0QegQcJ8OaIpyms1gtR/cpMdmi1nuByjLAT/2KhyQCMaOAPuONKSm6OaDaWkoqqrF231Gs2JuLVWrh3X37tGScNiiqMxNvNZdccokIiuAklBcABelqOQjk7DGskfwDRs6Ilz8QFAf0SjZyQyLUwrwRV9vUG+kqmLD23to0vPHrPiSE++OEmCBdgW10fIjNu4ebQgRF6LmwFAADqRSPXC7K+shXYlKaC7gra6NXf2MJjlfWiBITCopPsPlkx4NV6z9cdwgLfkjFyQPCcfmEePRTouLazilF24MIitAz4CVcUWjUEqEVkpsKZO9QApJmBFe9/AzBCB9gDMKjgFBI/MKV02+fwdTWYo2VrN6Xi083HsaJyb1w89RkxAT7dPlHE0ERHBe6MIc3AhlqOaLEo+iw0TvDLl7GO5hMFj0MiBpuuC9+vZQFEtrlqe6dRWV1Lb7fdQSfbDiM1Owi+Hi6YWJiGC4bH4/YEB+4doNQiqAIjgODpXn7lHhsBQ6tN5LLaH2w2ntIX8P64Ejd0EQjF8QzEPAOUGt/u+2NaQ8sirQvpxTvrT2Ib7ZnIVG5NTNHxGBQdCDCA7wQ6OPeLWJCRFAE+4SXZOlRIHOTEo91Rj5Izm6j+FBtlbI2Ioyksv4zlAUyxBANxkUYRGXh5h4kIFbY9fvF5sP4elsm0vLKde7cZWPjMHNkDKKCvDsljb6tiKAI9gMzUtl9m/odkPKNMdCO7gvFolc/5b4o14XduNEjlQsTbbg1bu5KPOwjtb2zoGvz8+5svPBjKg7klmJYbBBO6heOyclhiAv1hZeHm92k1ImgCF2Iusz0lcZ1jbpTSpUFotwXTlxF94VWCOMg7t5KQAYCyacCCScBkUPNTFSFNuXt5faxPfx6eDvyjjxaWomf92Tjkw3p2HgwH0NignDL1CRMSAyDuzJP7DGWLIIidB68rNh1y4XWB3tfspSAUDjSlRtzZKc6RrkvtDQCehsJZHRj+kwwemHs8Y7pBPg1VdbU6hyStKOlOhltRUoOtqYXoly1JUb4Y9aoGMwYGq1jJPaMCIpgO5h9Wl2h1mrhsP7CTKPk4cGVhohwOgiKh4efsjqGKPdltOHGsD6IX8dnv3M0atVtV1KpRCS3BIvWpGFlai6OllTCz9MNscqVYY/Nif16YWhMILzcHcOtE0ER2getDroslcVqKTG6a9kDk7UdyNllpLCzW5fxDxYT6jMWiBhmxEKYxq7n4XUuqmssunRASXk1iiqqkVtcgV+UJfLF5gw9W9+kpDCMjAvBMOXa9A727raemo4ggiK0DC8PWhzsYWHPCxcmkDF5jBmoHA/D7FNaH77Bxly7TF+3LhSQHtjr0hpoheQUVeBQXhn2KUtkd1YxUo8U4YhqK1PWSaifpy4QPWtULPr2cvz8GBEU4Vg46VRpDlCSrRYlFFxzJG7+fiMOQsuDAuEXZogHE8iYdcp1aF8lKo6ffdoR8ksrkVlYjqzCCmTkl2HzoXxsSy/UAdfewT66i5fiEa/cmoRwY90V42y6AhEUZ0dbHxVKMA4pl0UJRt4BY7xLQZohJBw4R/HwCVKuSzQQFGuksOt1jCEo7vYdKOxMOLdNbkkFMgu4lGG/skLYtXvwaClKlXvjov7FhvhieGwQBitXhuIREejlkO5MaxBBcUYoEhQMuixMFjuq1rQ86MowW8pXWR7WAXMUDD5mIhmzTzl4zsFG4Noa9rykHCnW89rsVmsWMGJ5RbownI4iNtgXyRH+6BPigwhljfRRgtId42q6AxEUZ4BBUz1Ybqcx5oWjb0uV9cHZ6xgcDeoDRAwCeg0wEsYoICyy7BUInXUq6BojtDq2KPdl9f48JShFOsgaHuCNZOW2JKolKshHx0R6+XupxRPeHj074a4pRFB6GrQ+2MNyZJtatisR2WW4MOyRYWCVbktYEhA1VInIEKMHhsLBMS/szrWTgsrdSbmyNOi6bFMWyL4cujAlygopR35pFapqa5HYyx9TB4QrNyYYYUo4Arzd9TSeHso6cd7IkYEIiqNTmmeMtk1bC2Ry1K2yQqqURUJh8QkxumlpeUQMBnoPU23K+mDMg9moHPvSw9PWW4IxkKzCcsN9ySrGriy1zizWLozahSAfdx0DSQr3x+DegXoAXqSySvy93XRuiBPHnptEBMWR4GkqTAcOrzcEhEljtEBqlOXhqsSBg+SiTjCSxXqPMiuOKcGgaHCtrQ/nvgMoHhsO5mNnZiF2ZhRpAckuqkSN+m493FzQN8wPg5VojEsIw4i4IIQr98XN1VUtLsaiFEREpHlEUOwSdTr0GVH/MVB6aA2wZ7kxoRQFhaNtOTS/9wggbpxaTjS2PZTVoa92tVjXToL16+J/XPGSTs8r00HT3ZlFSkCKsPlwPtKPKvFVeLq7aNdlUHQAhsUE44TYICRF+MPHjHuwF0aEo+2IoHQ3/Oo5UE755npNAWGt0zQlIgdXGIHUKhZNDgdixgB9J6q1EhHWPKXL4mQWh1UsapU/UqMe0GUpqqjC/pxS7DmihENZHRSQ1OwSFFdWaWHgEhvircQjSNdWHdUnBMmRfkpUDPEQ3bAdIihdDu8Cc8wLhYKJY9aaH4yFsGgy09o5bSVjH5yVP37y7zU/nAhmmbInhYHQqmpjXVxerYOku5RocI7enWrJKqpQouACd+WyBHp5KLHwR3KEH5LCA9BPCUeCskT8vdzNVxU6ExGUroATR3FgHMe7MIhKqyNttRKSLUYGKrtm2VXLACrLFTIGwupjDKo6gd3Nq48Flsura1BR9fs6r6QSB46WKmujGAeUBcJ5eY+WKCFW4uHj4YqIQG/0j6Ro+OuEMS7Rwd465iF0DyIonQG/TgpISY4SEGWBMGksY7NyZSggh9QBSiT8o5Ro9DeCqOzCDU1SFkjPqHV6PGh1MAGMo2xLK6pRpCwOdsdmFpbpPA92z2YXl2sxKVeiwuJB7JZlXgeLCcWH+enAaVyYr873cO/Ciu5Cy4ig2Aq6MbriuhIMLrm7jZG3xdlqX6WR78HsUyaQRQ5W1shAI529B0Oro7CsCnlKMFiZPV8tuUooOMbliFqyi8pRoPazDggzTIN9PBHs66FrfkQHeavFR2eY0uoI8vbo0ukghPYhgtIROG0DSxbmpgA5aqGI5KUpC0W5OAGRxnQNTCKj9RGWqNrMbtweBgWBFgUrjB0trkSOckvyS6rqHjPGUVhWqQ03BkgpGswoDVMWRgTFQwlGVKCPFpIQtc+LCWLSxeKQiKC0BVohDJoyeYxjYFj/g4PpGBthEJVxDwZSOeKWI2+Z0t6D6n7QXaF7wmLJhwvKcKSgXA/Dp9XB9nxlbdCNYXCUBZPZBUuRiAr0RmSglxaQMCUkIWoJ9vFAkLJIeKzQcxBBaQkO5ad4MImMtU/zlYiU5SsBUe5KiHJhWO+Us89xDAzT2hlc7QG/rlU1FI9K5ZqU62Aoe1aYhp6pXBUjvlEDPy83+Ht5aKGIUoLBYfkRAd4IZCq6mY7ur9Z0VzhnjNDzEUFpCnbp5uwC9v0I7F9hWCLME+F8L33GGVmoARGAd7Ax+tbD13yi48E4R65ySxgQ5cKapiwGxHoejH+wx6WyqlYLAwUjsZcf+kcGIi7UBwHKyqAVohclGBwMR3dFcF5EUKzwK2AW6p6vgZ1fGl27tDSihgFJ04wCynryKH/DjXGwCmTVSjgylIuSlleq63Vw8BuTwdKOlqCoXImG2k+XhtZE7xAf9A7yQawSDfasUDxC/by0cHh5uMLb3U27NBLmEBojgsKh/cxK3fyeskZ+Vj/ZpUCEcmOGzAQS1edn9651AikHuYNY6Hh3VpFedmUZqed0WSqqa3VmKU92qK+H7oJlxbDEXr5IigjQeRxByupwV2LB4Onv41f40UU9hJZxQkFRH5UjcZnevnWxskiWKZfmIBAYAww+VwnJLCO4qkfi8iayrxtJnyjzbFEa2JuyLaNAT7mwNb1Ab2fkl2uDi4dFBHhiQFSAdlMSlLvCpa8SkBBfT/3JKBT8mMw0Fc0QOopzCAo/HgfUMc19x6fKGvkAyNxsxD/6ngQMvVCtT/x9Mik7gKeEw+fphvDtc/Y49q5Y0805biXlSInO6aB00KKwjpQdHBOg1kFaSNijQkQrhK6gZwsKx8RwKkvmimxapMTkc3XvqbbIYcCwi4Hk04y4SDfCb766tlYtxrgVbhdXVCP9KEfKFinhKEaqclvYw1JaVaOTu3w93JS7QjfFH8kcMRsTiIGRATpIKsIhdCc9T1D0z7kSEY7aZbr75neNLl9251JAaI1wvEw3jPegtcF08oq6MSu1KCit1GKxl+NVcsuQll+is0gpMN7urgj08URcmA/6RQToOqUcu8IapQyOingI9kbPERQOwGPqOxPNWDdk7/dA8REjU3XADGDg2UaeSBfBb5QZpMUVVXqEbCEndiqqwF5dUrBUV0hnYZ+i8iqdds5uWcY12KvCOActELowrJDuKLPGCYLjCwqFhIlnnKk/5VvDKvHvZSScJUwFEqd0ybB/uiscr8IeFi6cFY75HAePGvVIC5Sw0DphhiiFg4PdOE6ljxIQWhycryXYz0NXBBMER8VxBYVvmWNn9v4I7P7aKAPAnBFOth0/QVkm/TvVrWEVdKad09I4XFCup1LgwiphpZU1unuWAsHMUS69g70QY06nEBnoreevla5YoafheILCt8oga6qyRlK/Myq8swhR8jQgdpxya6LMA20Hq4NxoJs1izSNmaRKSNjDwqH27HL18XRF7yBDMJhRytGyFA66LBxFK9ohOAOOJSicW5ddvruXGiUC4iYB/c5QQjJauTkR5kEdh9YFq56zsM+erGI9qROtELox7IUJ8PbQA94Y56DLwironE6B2aRMGON0CoLgjDiGoPDtpa0EVr8CpK8zYiPDLjQm4qaQ2CANnnkezCZduz8P6w7mYX9OCfLLKuGp3CZO4MQeloHRAYgN8dEWB4v+WOdjkTodgmBg/4LC7t+1rwFblGXCimaTbzdqrPr16rCQcPwKu2x/2HUEK1NzsDe7VGsXx66Mig/BiD7BujJYgJcxWpaLHsNiPl8QhIbYt6AcWAH89P+MnpsTZgPjbjBqjHRgeky6M8w4/W5nFr7ZfkRP8ESRGBIdiKkDIzAuIURXCmNXrqdq51gWQRBah30KiqUW2PqREpPHlXh4Aac8ACSeZBYravsNziSxPZmF+E5ZIt/vysa29AK4KbEYGBWA80+IwSkDwxEZ5G1MuaAERCREENqHnQmKehuVZcBv/wVWv2hUfz91HhAxQO1r/W3OjFTlzSCrsAwfrUvHJ5vSda0PDrsfGhOI6YOitDXCQXIUEUEQbIP9CArH3bA7eOULwO4vgYHnAJPuAELizAOOjzWtPb+0Ej8oK2TZ9kysP5Cn3ZYxfUMxY2gUJib10qUIBUHoHOxDUDjh1d6flFWixKQwAxhzHTB8NuATah7QPOydYeV0dvF+vCEdP+w8Alc3F/QJ9sW0QRGYMSxap7MLgtD5dL+gsMAzK6Stex3wCgQm3Ar0ndxi4JUjclmBbHNaPr7Ychg7M4u19XFSv3BMHxKJQVGB0p0rCF0MBaX7srBY7JlFjta+akw5ceqDRpW044gJk8tW783FGyv24/6PNuOVn/fqXJC7T++PV68eg7vUekjvIBETQegmukdQWHqR9Vs3LgIihwCT7zSCsM0ESZm5unx7Jp77LgXzv9yBX1Jy9MTX9581CI/NGo6LRscizE/iI4LQ3XS9oHAmvUO/ARsWAkGxwPibgIiB5s6GcATvN9uz8MzyPXjm2xTszy3FWcOice8ZA5VVMgAn9Q+Hr5cM7xcEe6FrBYXhmpw9wOoFRqbrhJuNFPpGMNjKDNZ/Ld2Jp5bvRkZBGS4Z2wf3njkQ152YgJFxwTr5TBAE+6Jr78rSHGDrB0YxJFomnOOmkZvDTNYXf0zBY1/tRGZBOa6e2FcLycVj+mBQdIDuChYEwT7puruThaIzNhq9OsmnA0lT1V93N3caVsm3O7LwwMdb8cmGw5g+OBIPnD0YM0fGIDkyQCaREgQHoOvu0qJMYO3rgF8EMPoqwN3b3AE9upfuzYOfbEVVdQ3mnTMYc6ckoV+EvzF5tnmcIAj2TdcISmUpkPKdMR/OiMuNYKyCIZXfDuThASUkX23LxGXj4/DE7BGYOiBclweQzHhBcCy6RlA4zeeaBUDv4cDQC1SDi3Zxlm3LUC7OFl1S8aGZQ3DL1GRd7UzG2AiCY9L5glJeCGx535ixb9zN2tXhtJhfK4vk8a926SLND80cimkDI6VcgCA4OJ0rKLoq/R5g4ztG3df4SSivqsF3O7Lwn+9TMSQmEPfNGIhhMUHmEwRBcGQ6V1BYB3bNS4BvqLZOKmstWJGaixd+SEVShB/+eGo/PQOeIAg9g84TFJYkyNgCpH4PDJ+DmpAE7MoswturDiA8wBO3TE3SM+EJgtBz6DxBYYr9ri+1dWIZcqGeYvP9tWnIKarAVRP7YlC0/UxOLgiCbeg8QeFE5ft/AmLHoMQzFEu3Zuhi0BzINzm5F2SiK0HoeXSOoFhqjOLSxVmoST5DuTrFWLwuDeMTw3DeiN66MLQgCD2Pzrmza6qVu7MU8A5FQeR4LFx9AC6uLrh6YjyCfT3NgwRB6Gl0jqCwrGPKclT2mYhf06uxZt9RXDy6D5IjJAgrCD0Z2wsK3Z1Da4Cyo8jrMw0v/7QXieF+mDU6RiqpCUIPx/aCwmS2nV+i0s0P35QO1JOK3zAlEf5e7Z+gSxAEx6ATLJRaYP+vKI+diA8256JfpL/u1REEoedje0EpyoIl/wAOeA/RJRsvGdNHBvsJgpNgW0GhdXJoDSotLvg4Oxq9g7xx2uBIc6cgCD0dGwuKBUhbjTIXPyzJCMKFo2Lh6/l7VTZBEHo2NrdQag+uwQGv/vDz9cN5w6PNHYIgOAO2FZTSXNTm7MGKymRMTApDZJCPuUMQBGfAhoKi3J3031BTXYVfq5IxISHMbBcEwVmwnaAwfnJwFSrc/LAb8RgVH2zuEATBWbCpy2M5sAoHPRIRHByKmBBxdwTB2bCdoJQXoDZrG1ZW9cOouGC4u9o2PCMIgv1ju7s+YxMs1RU6IDtW4ieC4JTYTlCydsACF+xGHMbEh5qNgiA4EzYSFAuQm4IyVz+4+UegT6jETwTBGbGdhXI0FQfQG2MSQmXsjiA4KTazUKqydyOlJkLcHUFwYmwjKBWlcCvKxF5LtO7hEQTBObGNoBzdq/6rxWHXGCSE+xltgiA4HbYRFE43ChdUhSbDy93NaBMEwemwiaBYcnahEh4Iik4yWwRBcEZsIihVWbuRaQlFQnSE2SIIgjNiE0GpPrILqZbeGBgt02QIgjPTcUGpqYZnwX7dwyOTnwuCc9NxQSlMh3tNGXK84xHqJ7MCCoIz03FByU3VK0tIkmTICoKT02FBqcnerdd+MYP0WhAE56XDglJ8eCcKLL6IjY01WwRBcFY6LChVR3bpgOzAqCCzRRAEZ6XDglJWUoxdLglICPc3WwRBcFY6LCgLA6/Dj4HnwtdTUu4FwdnpsKBsdRuMwPgR5iNBEJyZDgvKFePjcdGYPuYjQRCcmQ4LyplDozC2rxRVEgTBBoIiCIJgRQRFEASbIYIiCILNEEERBMFmiKAIgmAzRFAEQbAZLhaFua25/fbbMX36dEyaNMlsEQRBaJkbbrjhWEF54IEHsHbtWvj4tG460S1btmDYsGHmI8ckNzcXlZWViI6ONlsck55wLvLz81FSUoKYmBizxXHZunUrhgwZAhcHrhPUlvORnZ19rKC0lbFjx2LNmjUO/aV98MEHyMjI0NaZIzNhwgSsWLECrq6O68l++eWX2LhxI+6//36zxXGZOHEifvnlF7i5Oe44t2XLlmkD48EHHzRbjo/EUARBsBkdFpTBgwebW45LaGgoIiMjzUeOy6BBjl81LygoyOFdTys95Xz07t3bfNQyHXZ51q1bh9GjR5uPHJMjR47oGIqjV51bv349Ro4c6dDuJ+NZxcXFiI+PN1scl55wPo4ePYqioqJWn48OC4ogCIIViaEIgmAzWiUojLpfe+21mDlzJl5++WXtHtSHj//617/q/XPnzkVmZqa5x74oLS3F4sWLccEFF+Dmm2/GDz/8YO4xYLcrexdmz56N6667DsuXL0dFRYW5137g+eD74/f90ksvHXM+CA3Pb775Rvc07Nq1y2y1H8rLy/HZZ5/pc3H99dfr99qYffv24dFHH8XFF1+M2267TX9ue4PXDK8lnosXX3wRZWVl5h4D3gvcf9lll2HOnDlYuXKlucd+oEtz33334cwzz8S9995rtjaE7tsdd9yBiy66CK+//jry8vLMPQ1pUVBqa2sxf/58zJo1C//+97/x4YcfYufOnfqCtfLuu+/qP/D888/rbmReBPZIWloa3nnnHcybNw9nnHEGPv74Y2RlZZl7oXNvLrzwQv05zzvvPHz11Vd2dzPyfDzyyCP6RuT7/Oijj7Bjxw7dXh/mDjz11FOorq7WQmpv8HvnjxO7IykY1q57K4WFhfj000/h5eWFxx9/HHfffTcSExPNvfYBv3Oeg9NPP12v2eW9bds21NTUmEcATz75JPr164cnnngCN910E+68805zj/3g6emJk046CZdeeilSU415turD88If3/79+2vDYc+ePTo9oSlaFBRerB4eHjq4xBPKL4990/W/tPfffx+XX365Dmry4vjiiy8aCI49wF9ECmFUVBRGjBihE44iIiK08lrh5xs1ahT69Omjj6F1QvW2J/gZGp+Pr7/+usH5IA8//LC2YgIDA80W+4EW1fbt23XPGj8He0MY9GM+kxUmhfGc8UJPSEjQi719lt27d+uA6/Dhw/W5OO200/D99983sBgpjDw37LnijcvF3qBon3rqqfo7bgpaigyU09rl/cGeH/448/w0pkVBoTqFh4frL4JfHk88X6y+YBw4cKDu14O/8lyaM4m6i6qqKh2xZhcYE798fX3h7++PnJwc8wj1Zah2Lvxsv/76q/7i+NntCZ6PXr16Hfd8sOeNFwHNcHuEVhOzKq3nwtvbW3/X7G2zwvNC65C/8BQVWr3p6enmXvuA75cpB7wheS74Q8T3WP9c0AJbtGgRkpKStPVLS8UeYfJdc71RFBOKIj8rz1dISIi+n2gFN6ZFQeEfqf8FcbvxH+bj+iZ3U8fYA635LPwc9HNp4vFCTk5ONvfYBy19Bp74u+66C3/729/0Cedj+vWNLZjupqXPwcf8AaBrx7gXb9TGv/7dTUufgdDFZvwxJSVFu9g33nij3Z2LlrB+Jutnta4bf1bSoqDwV4RKTPOGL0Qfq2/fvg1ejNYJ/SpCF4G/QMHBwfqxvUA3ISwsTF+YPKFUXb5Xuj1W2L5p0yYsXLhQm68nn3yyVmR7gueDv+7NnQ/GS2hmc6DWjBkzsGHDBi0w9hQL4rmgu2M9FxQ8WrR0R63QYhkzZoy+tmiR0RLjcfYUD+L7pejxffFc7N+/H3FxcQ2uGVonPA9so3vH98/xMY5EQEAA3N3dtdXIe5vnilYZrfzGtHi3DBgwQJvX/NVmvIFjEzgamUE16xfD6DUDs4x48wukqd2UenUn/AL4Wfhl/Pzzz9otKCgo0G1WweSvyAsvvKBdIV7IBw8ebNKs604YGGt8PhhHocjwfPDkszeEQTN+Tt6UCxYssKuMZgrKwIED9ff/008/6XPBczB06FC95g3Kz0kTmwLPz3n48GH9g+Dn52e+SvdDN4bu2urVq/Vn4LngjxCT86z3xrhx47BkyRIdM/r22291LIWfy56gqO/du1cvPCf88aF48JrijxNjKxR4Xk88X2yjcPKzN8btHwpzu0koDIxSs4uPX9i5556rvzT2gFCtOAqRJ5/B26VLl+q2P/3pT/qmtCf4ORjbYWCPQWRaJzSnqbK8aPl+GQti0JPWC6P1/Ey8aHgh2wv8HPy+P//8c32CzznnnGPOR30xZ+CQwTR7u4h5MdLy4A8RL17GF+ib//bbb1o0eMHyV5ED03gRMxt72rRpdhWY5ffM64NBcb5H9hyecsopOt2Arhk7KRjcp5BQ4GlNcjS/vQ0toNX02muvYdWqVfozMf7G++LQoUP6mqLbz3uHws5jeD1NnTq1SUGRTFlBEGyGfQUIBEFwaERQBEGwGSIogiDYDBEUQRBshgiKIAg2QwRFEASbIYIiCILNEEERBMFmiKAIgmAzRFAEQbAZIiiCINgMGcsj1MEBhxwkxlHWzdXsYKlDDtIThKYQC0XQ/OUvf9F1dFmCgiNMOZSdo7Abl/ljuQdBaA6xUAR88sknWlBYKJr1UQlLVlBUWPvCnmqQCPaNCIqgq42xKBDrkxAW2GEBJFYYq1/EWxBaQlweQRfVsYoJYbEmMmnSJL0WhNYigiIcAyuOkcmTJ+u1ILQWcXmEBrDqP8tFsrYoS2KyFKMgtBaxUIQGsI4uxYR1T0VMhLYigiI0wBqE5ZSygtBWRFCEBrBKPrFOcMZpLd5++229LQgtIYIiNMA6SRUtFU7EfuKJJzaYrlUQjocEZYUGcAZIzrvCvBTO7vfss89i9uzZ5l5BOD4iKMIxcLZETsDOSaw4y58gtBYRFEEQbIbEUARBsBkiKIIg2AwRFEEQbATw/wH1drW7HUxMEgAAAABJRU5ErkJggg==;" vertex="1" parent="1">
          <mxGeometry x="539" y="1590" width="195.12" height="193" as="geometry" />
        </mxCell>
        <mxCell id="2NNQloLt1MzRpBVAXhhT-40" value="" style="shape=image;verticalLabelPosition=bottom;labelBackgroundColor=default;verticalAlign=top;aspect=fixed;imageAspect=0;image=data:image/png,iVBORw0KGgoAAAANSUhEUgAAARcAAAEPCAYAAABoVoAiAAAAAXNSR0IArs4c6QAAAARnQU1BAACxjwv8YQUAAAAJcEhZcwAADsMAAA7DAcdvqGQAAD50SURBVHhe7Z0HYBVV9v+/6b2HFEoooUsHAUGlKzYsqGBfu+6uBf+7lrWtu3YWWX+61pW1YAfECooFkN57h4QWSO/tpbz//d6ZF0NIQso8eS85n93xPWYm7828mfudc84991wPuwKCIAgW42m+CoIgWIpYLm5Iamoqvv32W+zevRtFRUWIiYnBWWedhXHjxsHDw8Pcy2DNmjXYuXOn+S/1NPH0RGxsLEaMGIHg4GBzbf3U/Aw/Pz9ER0dj4MCBiIqKMtfWzo4dO/DDDz/g4MGD4K3WoUMHTJgwAf369TP3+I2tW7diw4YN8PHxwfjx4/V5VWfOnDnIzMzElVdeecrvFVwAiovgPjz77LN21bj5QDhp6dOnj33Xrl3mngYJCQm17svPmDFjhrlX/dT1GVwuueQSe3JysrnnbxQUFNinTp1a699wueKKK+x5eXnm3gZKeKq2JyYm2ouLi80tBkFBQXrb/PnzzTWCKyPi4kY8/fTTVY2PDfGBBx6wP/HEE/bRo0dXre/YsaM9NzfX/Au7XVkpej2Fh/vfeeed9jZt2lTtv2jRInPPunF8Ro8ePex33HGH/brrrtPvHZ/Bz0tKSjL3ttsrKyvtyjqp2j506FD7Y489Zn/ooYfs3bt3r1p/+eWXm39h4Pgex/Kvf/3L3GIg4uJeiLi4CceOHbMrd0E3LuWO2JV7YG4xuP/++2ttlI4Ge+utt5pr7PY9e/ZU7Ttt2jRzbd3U9hnkzTffrPqcCy64wFxrt8+dO7dq/c0332yvqKgwtxgWzciRI6u2r1u3ztzy2/col0e/RkRE2HNycsytIi7uhgR03YTPP/8cZWVl+r2yYBAZGanfO3jqqacQEBCg33/zzTf6tS6UdaNjL8TxmU1BWTGYOHGifr9gwQIdCyKzZ8/Wr76+vlBCV/VdRAmEPlYHjB3V5KabbtKv2dnZmD59un4vuB8iLm7C2rVrzXfQgduahIaGYsCAAfo9g6h1UVhYCOWiQLku+t/nn3++fm0qU6dONd/9dozKGtGvgwYNOkkEybnnnmu+A7Zv326++40hQ4bgvPPO0+9nzpxZJVqCeyHi4iZkZGTo17CwMN1bUxuO3pXc3Fz9Wp13331XWw3sIaI1QGvi4YcfxsUXX2zu0TRoBTnIysrSr45jVW6Ofq0Je4N4HqS2Y6XwPffcc/o9e8P++c9/6veCeyHi4iY4XIuSkhL9WhtsiKS2Lmb+vcNaIZdccgn+8Y9/mP8CZsyYgeHDh1ct7KpOT083t9ZNdbeK4kUacqzFxcX6ta7ucFo9V111lX7/1ltv4fDhw/q94D6IuLgJDquktLS0yjKoyYEDB/RrdWvCwY033qjFZ9asWfrfX375JZ588kn9ntClWb16ddWycuXKKkukPjZv3my+Azp37qxfHcdalyAcPXoUNptNv6/tWB0888wz8PLy0gJGS6Z67EZwfeRquQmMQziYO3eu+e43KAb79+/X78eOHatfa8IEu5tvvrkqCPvyyy/roCl5/fXXsWnTpqqFsZAePXrobXVB6+PNN9/U7ykojpjP4MGD9StjP0z0q8n7779vvqs9fuSgW7duuOWWW/R7imJzgs/CacDsNRJcnNTUVLuvr6/uimWX7YoVK8wtdvvGjRvt7dq109vYXa1ExtxSezfyggUL9DouNXNJaqPmZyh3x7506VK7cp2qPmfmzJl6G1FWUdV6djsfOnRIr2f+y0cffVTVpa7E44Ruasf3zJ4921xjtx85csTu7+9f9XlcpCvaPRBxcSNeeeWVExoZ80Hi4uJOWHf33XebexvUJi5s0Ey243q+Vm/gteH4DC7KNal671huv/12LRzVmTx58gn7tG3b1h4WFnbCus8++8zc26A2cSEPPvjgCX8n4uIeiLi4GXPmzLH369fvhMZGS6BLly5V/77nnnu0pUMc6++99179bwfTp0+v2n/9+vXm2toZNWpU1b5cAgMD7Z07d7ZPmTKlzgxf5cLYn3nmGXt8fPwJfxseHl4lIiEhIfZXX321Ks2fn8n18+bN0/92wIzjQYMG6W0BAQH2zZs3m1sEV0YGLropHMCXkpICb29vHRTlK4O2n376qd7O7moGTlVj1rGR2nplGOBlwLSurm2rYGCXQWh2PyckJOi8FcZ9tm3bprcznsSAsrKgdMBaiZdeXxNuZ1C35uBMwTURcWlhfPzxxzpJjj1HHInMxuyKUEReeOEFvPTSS4iIiEBSUpK5RWgpiLi0QJjPwl6aXr16mWtcF1pVtMASExPNNUJLQcRFEASnIHkugiA4BREXQRCcgoiLIAhOQcRFEASncEJAl70M1UfOCoIgNJUTxGXRokWYNm0aevfuba4RBEFoPMuXLz9RXH766SddIpHVvwRBEJoKp7qRmIsgCE5BxEUQBKcg4iIIglMQcREEwSmIuAiC4BREXARBcAoiLoIg1E2FDdj5DZC+G6gsN1c2DBEXQRDqxJ68HFjxMnB0vRKaUnNtwxBxEQShdpSYVGz5DDtTsrEsrw3yy33MDQ1DxEUQhNrZvwTeKRuxoHI4QuO7I9BPxEUQhOZSXorKbXOwLbMSft3HICIqGl6ejSuMLuIiCMLJ7P8Jnsc240vbmejZqx9iQgPMDQ1HxEUQhBMpSId944fYoayWsg4j0S4uDn7ejZcKERdBEH6jogxY/SbKjmzCrLLx6NRzENqG+ZsbG4eIiyAIBpUVwK6vUbHrO8wtHYLUqGHo1ykWoQGNC+Q6EHERhFYCKzfZyitRZKtAqXqtqKw2qxAtlqPrUbH2XWzI9sf3XudiwvAB6BobYu7QeERcBKGFQ0FJzSvB1qO5+HZLCj5YmYwvNx3FqgOZ2HUsH8czs1G6bylsi57GnkPH8bHnRThnxDm4uF9bhPp7m5/SeKQSnSC0UCpV084utGHdwWx8v/04dqTkoRJ2+Ht7oazCjtKycsR4FWKC/06MKfgWReXA3MCr0Lb/eFw2uBPahDR9DnFWohNxEYQWSElZBfakFuDbrcewYl+GForhXaIwoEMYYkL9UZCfh+MHtsFr99foVbgWvtGdsKPDtQjsMhzd20Yg2K/pFgsRcRGEFkhOURmW7k3H18r1ycgvxvgeUZjYKxpdwj3gUZoH5KUAx7cAB5YAxdmwJ44F+lwJj+iuypexJlIi4iII7g57eIoylWAcg70wFbb8TKSkpmHNniPIyM1H37gAnJkQigDPSsBWYOxbkKb+0AOI6QEkjgc6nQ0EhBufZxEiLoLgbrC5lhUDmXuNMgh8zTkCe4ESlqJcHM8vQ4GtEvHhQYgI9oeHly/g6QV4+QA+QUBgJBDSVglLLyDuDCAoxjJrpToiLoLgLlSUKzHZCRxeDRzdoATlIFCSr8WiILA9lmcFY0mKN2JjYjFxUCISYiMR4B+ghMXbEBcPtfj4A74halEiQ7FxIi1KXHgWucU2ZBTaUFpWgSA/b3SMDISHR+MGWwmC66Bu6qIc4MAveqyPtlRKlWsT1QVoPxSVMb1xpCwU728pxOpj5egU1wY3nNUJfduHIcBHiclppMWIC89gb1o+Hpu/Dfkl5boLjj/ueb1jcf1ZHRHq71yVFgRL4Q2dnQzs+ALYswjITzFcmW7jgISRQGgcSn0jseJQCd5eloS0vFJMHtxO56W0iwiApws8UFuMuOQWl+Hu2euRnFmEP45OhK+3JzYfzsEPO1JxRnwo7h/fHQMSrA1YCYL1qKaYsgXYNBvYpyyV8mJDTPpOBmJ7AwERsPuEIKPIhnd+TdLdzBz388fRXTGoYwRCmpHwZjUtQlzKKyrxxJfb8fWWFMy4uj9GdWuj/EsPFNsqsCYpEzMW7YGPlweeu6If+rYLM/9KEFwINsFDK4HVbwAH1SvjJH2UoPSfCoS1B/yC9Tpm2v60MxWvLd6PtAJlrQxsp92gNsF+8Fb3uCtBcXHr9H+6P99sOYYvNh7FbWd3xtiesfBT7hCHh4cH+mBMzxi8OLkfissqlcu0FXuU6yQILgNFJWkJMPsK4KOrjEDt8LuB25XVMu4xZa2cobuIK+CF7Sl5uPeTTXho3hb4+3ji31MG4L7x3RCvLBdXExYHbm25cODVDbNWI6ewDPP/NFK7QzUpr7Bj05Fs3K8uTHxYAF65ZgDi1Kvw+1FkK8ex3BKk5paqJ24JMtVTl2np2UVlOkZWWFqOfLUwq5RPZy7llScOrGNg3tvTQ1dD8/Xy1Nfaz9cLgephEuTrrQP4dAuYWRoW4KOX8EBfRAapJdgHkYF+apuXawT42eQOLAaW/gs4sgYIjlOP+j8DA64BfAMNy8Xc7WBWIV7/Zb+2zEPUud05KhFTz+wAf3XurhBbqQu3d4tyissw7Jkfcdu5nfHX83qaa0+GArNKuUjTPt2EEYlRePHK/k0qfiOcjOPuqVBikJpXit2p+dijlgNpBTiQWYCDmcXIKbIpK9PYz4GPEogIZV1SBAJVo6co+Cuh4LgXigddWc9qZRV5m1JseC1L1XdxVG+Jcn3p/nKUb6ESsAIlVAVKpMprfpmC7dBPfTZdiDYhvogN9VOLP+JCAxAX7o+26oHDhULEY/NgkpkD9daSZswfK3kpsPg55QatVi5PB+Dsacr9UaLiw3E8HnqXSnX8Gw5l43/Lk7BoZ5q2VK4f1hG3ndNFHZ+vNcfiZNxaXHjU3209hvuVYHx42zAM7RxpbqkdPh3nrDuCVxfvUxepM25XF8qVld8V0Te++g8XWhw7lam+7mAWthzNxfajechSIsJ9PJVuxwT7o1N0EBIiA3QPRrtw1YiVCc/1HOdCQXGGFUGRo+AwBZ5LVlGpspTKtLWUqayl9LwSHa9gDwutqMLSCnVi+v9qsVcJUDslOO3CA/Wxt+fxq6WDOpeIID/4KNHT4mP8XwsX0WtrnhJ/EHu5EpO1ylJ5XpkiK4CQdrCffR/s/a+D3ctXfzePe29qgR5gyEDtoawiRAX4YsqwBFwzNEG7P+6EW4sLb/C/ztmCpbvSsPyRcbW6RDVJyy/FjO93YW1yNp645AyM6t7m5JtBqII3Bp+iZRVGg92dmoeVB7KwWi17juejpLxCW4CdooN1r1zvdiHoHhuCbjHBuvvf1XOMaAnll5ZpoTmuRIeu27GcEqTkFCFFvedrtnK5OYLYEFXoFIdoJT5s7LFhftraoQXEJUpZFdFqoRWmjA34ogw+aVthXzYTZXsXwxbYBvbhf0JJn2uQWeqprLoi/TvuUgstFYoh4ydDO0Xhon7xmHhGrBJh1+kBagxuLS6l6sYePX0xhneJxMwpA8219cMz3Z+Wj4fnbVX+uyemX9VPPY2UjytUwZuBPXAlZZXandl6JBdL9qZjXXKWbmj+vp7oGhOCIR0jMCghAr3bhurgeUu0Atk0isoqlPhQaIzlWG6xEiC1qHXHlQDlFtMNM+JDFCB7hRJcexF6eqbgRq+FOMu+GbkeYfjK7wJ85TEO2eW+Or7kpX4vxo/ogrVRgjRQ/Z5DO0VgWOcoPWrZ3XFrcdmolP7KN1YqYRmASf3bmmtPjU01nOV7M/DPb3bg3O7R+Ov5PXUwsLXDxkHXka7DrmN5WLwnXT9NGceICfVD//YRGNE1SglKOKKUa9DYaSZaKsVKfOhyZSjRycpKRXHKTnQ6NBfdCtYrMycS68PPw7LgC1DiGwo/Ly8dP2GQmVYOrZ/Oyupj3Kml4bbiwgN+6fvd+N+KZCz+62htpjYG9lJ8uCoZX28+htvO7YLLB7RV5mjrDPCyhyazwIakzEKs3J+JlfsykV1s00/PgR3CcXa3aJ0f1BIbgCXYK4HCdCB9L7Dtc6OMQUAE0HsSMOBac2Bg6xNitxUX9hhc9tpyhPl748Pbh5trG0dyRiGmL9yN1IISPH5Rb/RXDam1wEteUFqBQ1mF2HY0F8uUJbcvvVBZcF7o0zYMI7tGa2GJUqItMak6oKjkHwfSdgK7v1U31HIgUIlKt/ONjNrQ9kpUWm+PJMXFLc8+Lb8Eu4/nK7emjbmm8bSPCMQ1wxN0wPKjNYeQrj6zpUNRyS6yYXVSFt5fmYznF+zC7FWHdOD12qEd8NwVffHYRb0woXcsokNEWGqFz+K8o8CeH4BfZwA/Pglk7jeyaSf9Bxh5LxCW0KqFxYFb/gIsKswYAcdTNBVG5WnuT+rfTj29c/Dt5qOwlZWbW1sWbA8UlcW70/HG4gOYuWgPlqj33WJDcM+4bnj84t64fnhHdIsJabXuYYPIVaKy82tg6XQjVyXnMNDvauCCF4ER9wBRiUpUTu9oZFfCLe8kpvFTHBLbBJtrmkaYdzkmRKVjss9KRGx4FRUrXlUm7gLVEpOgK3y1AJhUxpKHr/6yD/9ZvA9bjuToWqrTJnTH/UpYOHKceSeu3m18WqH7s32+ISrLZhr/7nslMO4JYNhdQJseVVm1wm+4XcyFB/vAp5uwNjkLSx8c0/Qu0OIc/RSq3P4FCrPTkVJk5M50i/SDd3QnoPelQOI4o7COG8KaNpsO5+KHHcex8XCOznpl7xi7OnvGhUgP2algsyhIBZKXAft/AVK3qadRO6DTKLWMAKK7KfPX/buMnYXbxlyYYk4TvsnCUpJnPInWvg3PwEj4j3sQacMfxete1+NzjIOttFT500pgN7xn3GBuBN1Fpt//+8e9eH7hTt1lP6FXLB65oCduOqsTBitXUoSlHigq+eqab/4U+P5vwPJ/q/tFPYgG/wEY85h6vQmI6yvC0gDcTlxKyyqRlFGAHurp2yRYyWvXN8Cat4CY3uqG+Rt8el+ExAGjEN3rHHxaMhy/xqsbqcNQJS4fAOveBQozzD92XdgmsgpKMWtZEh6euxU/70rF2V2j8fdJZ+C64R11b5iIyinIPwZsVNf8m/sNUalQD5lhfwTGP2kEbFlThaUihQbhduLCMRfMHu0R14R4S2UlkL4LWPWaYdaOfhiI7Kwj+0zfZsp1eGgwvjgajv3dbgG6TzSqgW2bA9iU3+SicBTxIuX+/PnjjXhvZTISY4J0/Zpbz+6Cfu3DmzVrXquAU22sfQf44m4jpsKennP/Akx4GuhzhbpXuitRkZH0jcXtxIXlLAnHsDSaYmWBbPrYCNaOVE+n8I5qpeFaMePU6D1qiz1phZiztwL5fa43KoFteF9ZO9+qJ5lr9SYxRsR8nYfnbcHjX23X2cdPXdoHf7ugl668x7R8oQ5o6uUcUhbKy8BnNxii4qseWBP+CVz4L6DXJcaDRyyVJuN24sKBXhwX1CW6kZYLJ9o+thXY94O6cS4G4vspXTkxZuPr7aULTF3YNx6Ldqbju0PeqBx8MxClrJz1s4xqYS6CTVlv769IxrVvr9bDGW4d2RlvXj9YD8aMCPKVEd91YVcPlox9wM9KRGZPNqxY5qVcokRm0ivqqXU+EBoPeDd9KlPBwP3EJTUf7SMDEODbyHyConRl+v4XCGoDDFYuD6dbqAUWGLpIWS9ntA3FFxtTsLY4DhikLBhaLdvmArlHzD1PD3zgcs7f699ZhRe/343+7cPw8R1n4eaRnXRGLQsqCbVQYQOObgK+fgB490IjttJ+CHDVe8Cl/wESRxsZtk6ecqM14X5ukRKX7rGNtFrKS43iPEfXAwOuM55MdcCm2TUmGJcPbKcLEH2y9ggOhw9T1s4kIGkxsPs74/NOA8Vl5Xhp0W5c/tpyHMoqxgtX9sMr1w5ElzZBenStUAu2QvVEWgh8oh4Q716gLNfvjfq013+hrBVlqSSoa8vqb5L8ZjludUcycJmUWYTuMY2Mt7ArcfPHQEQno+rXKaDAcHzNtcM66lIDs9ekICdRiUvCWcCmT4wiyr8jjK2sOpCBi/9vGd5YckAL34L7zsEl/VrvgMu6UaYdY2rMpl3+f8Cs84BPlbDkJANjHgFu/QmY+CwQ10dZKQx0i6XnLNzqzjyQUaDHAjVKXCo5U90eZbVsBM643HhKNQBaAhf3jceVg9vju23HMGdfJUp6XWXckNvVU48z3jkZ5qxwHNUj87YqN2gNPD088e4tZ+L5yf10XEUwoa/ImFpJrpHw9sVdwJvnGGN/gmKBK5Q7fJtaP4LjftqpPxBB+T1wK3FhGUDStTFuEW+4LZ8qfzoK6H2ZubJhhAT44KohHXSQ9JM1hzA/pzOKE5W/fnC5Ohj1BOScvU6AopJXXIbP1x/GpFeW69KHfxqdiC//PAIjE6PNvVo5HJVcXqJ8xWzg2GZjrM//lNvz6Y1AinqQDLwBuPEr5f7MVQ8Vdd393DPT2p1xK3HhSGgfbw90jm7gjcK8FprH+38Geqgbr55YS120DQ/AH0Z0Qv/24fjfikP4smI4CmMGAFs/B46sNXofLILuD0sdrj6QidvfX4cXFuzWgeVP7hiOaRN6INC3leeraOskD8g7ZsTPlv0b+Fi5uZyaY/s8Y3L1y/5jTM0x4Sl18forI0WslNOFW4nLvrQCJEQG6irxDaKsyLjpmKrdV7k0TYQB3rtGdUGfduF4b5sN88tHIrdQffYO9WTMYe+RMsubAUWFFeA2HsrBP7/Zjvs+2ajjS/+49Ay8feMQ9IwLNfdsZdA6KaWYpABpu4zA7JLngc9vMiwUJjgGK7dn/N+Bm74GJr9jjAnzl8nvXAG3Grh4/swl6BgVhLdUgzslPC3W2fhEPdk6DDNyGJr5FGMC37vLk7E+OR1Xl3+DyZ5LEHbOHUA/9R3+jRcAuj/pBaVISi/Ewm3H8POudD21xUV92+LqIe11t3irgvExWiZ0ZbkUphm5Sce3GNeS05vSvW2jLJSOZxk9PeGdxDpxQZxbia7cZvi+oXFqaadspOaZ9KxAP/AfP+DaoQn420W9zbX1UKb8ceYy/PoScMVbQOdzzA3NgxXi5204grVbtuPSnPcxISYX3qP+Ap+uo+Hl27BszvySMhzNKcF+ZYn9ui8da5OydKnOEYnRuHxQW2WdtYL4AHt0SvOViOQYcRMuHDCYuQ/I2AMUHDeEJjDSmDSMsw+2Ve5oXD/17xjzQwRXxbniwifNV/cCXUYDZ95q3CTN4GhOMc5+/mc8fVkfPRDvlPDm/OwPgG8IMHW2pRmXLGTNAtYp25bi7ENvIDw6Hsm974Jf/BmIjwhEWICvLsTMLFn+vCzinFVYhgxlpRzJLtKB6U2Hc3RVec4+MLhThB65zGLNLfIhzFwTikgRRSRLvaqFdWfzlbvDgksFykLhPrwVg9sYrk5UF7V0NcaARaj3ktzmVjhXXHZ9Byx63DBbL5oORKobpBms2JeB6/67GrNvG6ZzUOqFgb99i4AvlbhNfEa5LVPMDdbBOMnhzHx4bJ2DkI1v4eeyXvg5bLKy2jvoTNnQAG8tLrS4WEGfcyalKjGhMLEbuUt0EAZ0iMCgjuF6wjC3L9akXRrlylA4WCunONN4X6ReOaqcYkIRYRyMVgsHB9LFCVFCEhJvWLecdJ0L33tLV7s741xxYVW3la+oN+omuuZjIL55kfuPVx/CI19sxbKHxuj6t/VCc/rr+4AsZT1dPw8Icl73bQWfxmveQt7GeVjkNRqboi5CRkUgCm0V2mrhgMgAH29z+lA/dIgKQqISFvZ4uV0JBEdMhIKhFwpJ9ffqt+DvUaIW7ksB4cIAK4dd0J2hVRKorof+t2mlSAC2xeFccfn2/wHbVMO2Kb968iygx0Rl2jb9afTcdzvxwaqD2PzkefWnurOHIWUT8Mm1RoEfllVwNuzNWD4T5cmrkdX3VuR1Oh+Fdn/dh8SpP/18vPQI5fAAH9fPqOXvV6KuGYOpLJTlsDj4SguE7g17cLgPpyn1VO4Ke+NYsc9hiXA6jQDlBgco0fBTC1/9w9WrWqTIUqvAeeLCYCq7C2kmZ+wGht4BDLvTuOGayJ0frMOB9EIsemCUuaYOmNjGEa/bvwRu+soomvx7wBgTvzf7oPpl/2jk1XAIv6tC14RCwTyg3MNGRXu9HDOsEFuBsXA/H2UpsjfMTy3a+ogzRIRxNMa0KCxVizpnvkqMpFXjPHFhQ5t/F9DpbCBpmZG8dt4zQHgHc4fGM3HmErRXLsV/6+uG5lM3Kwl4fxLQTVlKF72ozPLfaUAaf8b0ncAvzxk9HsOVwHC4gZ8LCExZqRKNI4abyN+HS3ayEhFljdiUGDPTlRZIkLI8ApWrwh4+R+yD7gvPgcWSvNXC+iaOVy0g0g0snIzzxGXfT8APjwIjpxkuSvKvyjV628igbAIcT9Tn79/j2mEJeKy+bmiWJVw6wyitQKslto+54XeC4kbL5RclpEfWA/2nGD1lOubzOzVC/gZZSjhYcY8TdqUry5GzGdCVoYhQbBlApXhwICcLIjHozmOkgHj5GcFU9q7xPVMIWmQXluBMKC7OCQDwqUjJosXSfrCRz0CTu4mV3FLzS1Bsq0CCslzqRn1hkTLzWWmOVfuZaPV7w+AlGyytNM68xwLfc25RQrOuyedeL3RZ2JXLKnmLnwc+uQF4TVmL710CfKOEnRX0ijKAtuoaDLsbuOwNI5N1ygfKqlMifPYDQN+rjWr2FH4eO68ZYyd0b2iZiLAITcR54sL5cumj03rgSGROzcBuyCZwMNP4u05R9fQSOYo5MY5w5m3qzE5TfQ42xpAYYMKTypd7wQiEfqga8HzVuA+tUsdZZu7YSGhgsoD03kVGYuDnfwBePRN4YyQw7w5gtRKOojSg87nAWGU1XjcHuFO5pFM/As7/p1G1vpPalwLCHhp9fZSA0EKRWiaCE7DeLeLTdM7N6o362HF/VyZ3R+CDS9UTsa1qcP8wTPJG8vm6Q3hwzlYs/usYdKxLYNgN+l9lsfD7OBKWVsTphm4SJ9CiBeGwIiITVSM/B+g4XDV05ZKEdjAaOUWJ+xczRyQLyGWCmRLprAOGa0MXh+u5D4nqbmSscnBe24FAdE/l1rA3Tp23owtYrA7hNOGcmAu7Zb+4E4hTN/2IPysxiQO+/Yvx1L5ylnJXVKNoJP/6YRdeX3wAu/4xET7etYgGcyoYSF31uvGkZslCV4I/MXvOOFfS3u+VKbZCuYoFqvFX/fQnozep/7A3htXnOa1FG7W0U78rU+GreqKUgGgNESERXAfniAuLWC98GBig/P8BU41GwAAv8166jQdGPWT0QDSCez7ZiC2HcrD4wTEnNyEe/tENwLsXA/2V+8FCyy6NOl6Ou+L4Gdbj5eJIfae1wVwQPZ5GWXiRyoXh+yoLRAREcA+cE9DldA22EqPbmfkRJHGsEpprjCf37oVAmWpMjeBgZqEeDV0rTOZa8FcjEMm5e10eJRCMc3DWPubCDL0dOPt+4Jxp6vU+IzbCaS06DDF6cLR7R1ERYRHcC+vFhU9if2XKMyPTEffgk3fEPUasYcmLwIGlQEG6kfD2m+FkQBeHcRsztkDD6khWMRJqxlpYpCk/TZlbTwGZe414Dns5BEFwCawXF8YWfJSVUXMUMq2YcY8bo105WppB33WzjF4kBj3ZE8LA5YFfgCQlPqzWr/5dkJYEr6IMdAuxwYNBW6ags1v78FpjMqvd36qn/11Az4vMLxIEwRWwPuby3V+MRLJxTxoV1mvC8Sp7f1SisMDIZOU0HbG9jC5a/lujDoklKpUrUOAXg0UpvhjUtQM6xkYo8cozgsbZB4xsUk67yYmspGdEEFwG58RcGJzkAEU9bUMtMMdi4HXA1e8Cl78JnHmLEgYvwE+5UkPUeyZ3XaTE7ULlPo28H4f8uyMERWjnoUQpbYcSJ2XlMNDJXJarzAGRIiyC4HJYa7kwVjL3VvVGada4R42cjobABDgmvdUiEi8u3IX/LU/ChsfGIMBDfT6zRpsxuloQBOdjveXCcS2cNtM3QIlFI2qV0Mqpw/rYl1ao67f4+5nD+kVYBMEtsFZcOMKWsRMGdDnK1gIOpBcgMcaRMCYIgrtgsbgUmpaLEoPGWC51UGSr0LVzE9sES5aHILgZ1oqLro+qLBcOVLSgWBCLWZeWV6KrEhdBENwL68VFWy7WuEWsPEc4KZkgCO6FE9yicjPw2ny3iPP6eKojrHMktCAILosTLBcGdJUYWBBzOZBRiPhQfwS7W5V8QRCsFheOFapQ4tLIrug62JeWjy4M5kqSnCC4HdZbLhQVC3JRWDc3KbNQz+8jCIL74QRxYep/84O5nOq0qLQCndsocRHDRRDcDmvFxabEhYFcC1yipMwiXYyNsxOKtgiC+2F9zEWP/bGgGzrD6IbuQstFEAS3w1pxKaflooTFip6i9AIE+ngjJlim/xQEd8R6t4gxFy7NZL8SF8ZbPL3EKRIEd8QJMZfmB3QrKu3Ym1qA7rGSmSsI7op14sLat5wuVE8D2jy3KCW7CGn5pejfIQweEs4VBLfEOnGh1aLHFTV/0OLmI7mwq//1bx8h3dCC4KZYJy6OQYs+TP1vrrjk6JR/9hSJtgiCe2KhuBQb5RYsKBS1+XAuesSGwN9H5jAWBHfFWsuFMwlqt6jpMZdCWzn2pRegb/sweIrZIghui7WWC0dE63ILTbdcWGahoKQcA9qHSzBXENwYay2XyubHXBhvYTC3XwclLqItguC2WCcujt4iikszLJcth3MRH+aPmJAaMzYKguBWWOsW0Y3x9lcvTf/YLUdy0bttKLy9rDs0QRB+f6xrweWFhjvk3XSrJbOwVFf779eO8RZBENwZC90ijoj2VkvTxxVtU1ZLWUUl+umeIpEXQXBnLHSLipQ7pMSlGcHcxXsydG7LGe3CJJgrCG6OheLSvFoutFh+3HEc53SLloLcgtACsFZcWMelibVc1iVnI6PAhvP7xMFLzBZBcHssDOgqt0jHXJpmuSzYfhwBvp44p2s0PCU1VxDcHmvExV5pFopSwtKEQlHFtnIs2Z2GUd1jEOgrLpEgtASsEZfyMiP138e/SZbL6qQsZCqXaOIZsfASq0UQWgQWiYuyWjhoUWfnNs7yYNW5hcolCgvwwdDOUSIugtBCsEZc9KBFikvjBy3uSc3Dr3szcJ6yWgKll0gQWgzWiQsHLepyCw2PueQVl+G1xfsR4OOFq4Z0gI8U4xaEFoN14qLdIs4R3TDLxW4HvtlyDKsOZOKmEZ3QtU2wZOUKQgvCGnGpKDUKdLM4dwPzXPak5uODVQcxvEsULuwbD19vaw5FEATXwCJxKVOmSIVhtXie+iM5yfxHaw6huKxcWy3hAY3vYRIEwbWxRlxYO7dSiQvjLR6nrnu7/ViezmuZ2DsOveJCpYdIEFog1lkuDnHxrF9c7HY7PllzWA9MvHRAOwT4ShFuQWiJWCgu5Q0Sl61H87BsXwYu6BOPDpGBEsQVhBaKReJiM151Al3dYkGr5dO1h3WN3En92yJI8loEocVineVCi+UU8ZZjucVYnZSJib1j0TY8QGq2CEILxjpx4UedwiVam5SN3KIyjO4ZI9m4gtDCsUZc2FvELuhTiMuq5ExEh/ghISoI3tJDJAgtGussF/o49bhFhbYKPW1Iv3ZhCJJpWgWhxWOd5UJhqWdKkU2HlUtUXIZhnaOk+1kQWgEWWi50i+qOo6xNzlbGjQf6tA+Fn1gugtDisUhcbIZbVEfqP4tvb0jOQs+4EIQG+MicRILQCrDQcqFbVLvlciCtEEdzSzCkYwSCpYylILQKLBKXckNc6ugtWnsoC7bySgxMiECAn7hEgtAasNgtql04th3NRWyIH2JD/WTaEEFoJVgjLrq3SH1ULV3RRaXlSEovRGKbYKnsLwitCGtjLrVYLslZRcgusqFHXAgCfKz5OkEQXJ/mt3bWq9QZuhSXky2TPcfzUVJWgW4xIfAXy0UQWg3NFxeWWtDlFpRw1GK57FLiwu7nmFA/SfkXhFaEBeKirBaKC0tc1oi5lFfYsTc1Hx0iAmVyeUFoZTRfXBhvqaPE5bHcEqTnl6KrcokCJeVfEFoV1ogL81woLl4nCsjetHzklZSjZ7wSF8lvEYRWhTXiYjdjLjUsl71pBXqis/bhAfD1FnERhNaEdW6RnrPoRAHh3ERxYX4I8ZfxRILQ2nBaQDe/uAxHsouQEBmEIHGJBKHVYY24cEI0TkBfLc+FyXMFJeXoGiOZuYLQGrHOLaK4VCsWdVhZLaw+lxAZKMWhBKEVYoHlolwih1tULeZyWFkuft4eiAqS5DlBaI1YaLmcOCEaxYXCIl3QgtA6sUBcbIblUi2JjpXnUnJKEBPiL8lzgtBKscZyceS5mAFdZubmFZfp6VolmCsIrRMLxIUxl0rTcjE+ji5RQWk5OkZRXMRyEYTWSPPFpVK5RXb1SqvFrDJ3SIlLRaUdcaH+8PNu/lcIguB+WCAuyi3S04r8ZqEcyS5GWIAPQgO89XQigiC0PpovLuVKXPRUrkZshRYLM3Ojgn0RJGUWBKHVYp3lYvYUsaRlZqEN8WEBCJJgriC0WpovLuwtqlb5ny5RfkmZDuaK5SIIrRdrLBeOeTbF5agSl2JbJdqGB0hPkSC0YiyyXJSIVFkuRQjw8UJEoC+8JO1fEFotFomL+hgzoJuWX6p7icQlEoTWjTVuEWMuynqptNuRocQl2M8H/sp6EQSh9WKB5eKYytVbB3KZmRsZ5CMToAlCK8cCcSk33CJluWQW2FBUVoGoED+xXAShlWORW6Q+xtMLWYVKXGwVaBMs4iIIrR1rLBezKzpDiUuxEpfIIF8lLs3/aEEQ3JfmKUD1eaKVW5Sl3CJfLw+E+nnDU8YUCUKrpnniQmFxFIpSApNZWKorz/lL8pwgtHqaJy66xKUSF10/11sHdIN8faRAlCAIzbVcWCiK9XO9Yav0RFaRDcH+XjpDVxCE1k0zLZff6ufmlFSgsLTcKMotbpEgtHqscYu8fJBZRHGpQHSwn8xTJAiCFW6REXPJLFbiYitHdIivuEWCIFhkuXj7asulstKO8ABf+EjdXEFo9VggLsZUrlnKcmExbo6GlgwXQRCa6Rb91hVNy4Up/xLMFQSBWCIudh1zqdT5LSIugiAQS9yignJPFNjsiAhkAp2IiyAIzRYXo7cou8SOgjK7nk5EsnMFQSAedoX5Hj/99BO++eYbzJw501xzCg4sBn5+Glsiz8ezaSMwplc8rh2egBApcSm4CLy9CwsLkZ6ejrIyZWkLluLn54e4uDj9Wp2zzjqrmeKydxGw+DksD7kAL2achSlDE3DV4Pbw8WqeQSQIVlFcXIzMzEyEhIQgODhYZgC1EEpHTk4OCgoK0L59e3h5/RYSobg0M6Cr3CJ4IF89EMor7Qj29RJhEVyKyspK3QhCQ0P1ze/p6SmLRQt/z8jISNhsNv0b16T5AV31JChQL95KVPwkM1dwUcRicQ71/a4WWC6eyLfZlcXiAT9vERdBEAyaKS60XKC7oX08PaS0pSA0gOzsbO2u1UdWVlatAWiuoxtSF/zckpISvZxuLHCLmOMC+Gq3SMRFcF1s5ZVIzy/FsdwSy5aMglJUVJ4cb6iPhx56SAdB64ICMmXKFGzdutVcY0BRWbNmDX788UdzzckwwLpo0SIsWbLEXHP6aF5v0fr/wb75MzyeNgqp8eMx7bzu6B0fam4UhNMPu6FpBXTo0AHbU3LxzrIkPZ+5VXRpE4QHJvRAm5ATu2KrQ1HYs2cPAgIC9PGwB2vQoEHw8fFBSkoKMjIy9HtfX18EBQUhKioKF1xwgRahtm3b6mBpp06d9OuMGTOQmpqK++67D/Hx8QgLCzO/xYDCxPNlLISfRSspIiJCv09LS9PHEhMTo7vmKXAVFRX6uxnw5rEVFRXprmUGarm/wwri5/LvoqOjT+gVInv37kXnzp3h7f1bCkrzu6LXvI2KrfPwaNpYlHQZj3vHdtc/tiC4CtXF5WBmIRZuP67LsVpFXJg/Jg9qj7AAH3PNyRw6dAhjx47FVVddpY/lgw8+QHJyss4NefTRR/Uxsqv8wIEDer977rkH559/PgYPHqyF6Pjx47jyyiv1tquvvlrvP2bMGP15Z555pvktBseOHcNnn32mhWzgwIGYP38+Lr/8cgwZMgRvvPGGPpa77rpLv9+3bx/atGmD/Px8JCYmapdq586dGD16tP7sDz/8EJs2bdKfRSHq0qWL/luKWnXqEpdmukU2lNs9UKE+JlRP4SpukeC6dIwKwp3nJuJvF/aybLllZOd6hcUB3ZUbbrhBN2pH41y+fLkWmTfffBPPP//8Ca4SLY+OHTvi5Zdfxh//+Ee89957WoCuvfZaXHjhhXjxxRdPEpbGQGtk6NChmD59Orp3764FbOrUqbj33ntx+PBhHDlyRO9Hq4ZW0r///W9s2bIF+/fv19ZOQ2ieGlSWwab8zXL1MSHqB5aJ0AShduhqdO3a9YSuW7pKtE7YgGkd0FVywDySYcOG6deEhATtxjSF6t9Hy8QRSKbbQ5crMDBQu1YUGLpjXMrLy6sCwj179tTbuT42Nla7WbUFmmujeeLiF4Yi/3iUegYixN8b/tIVLQi1wnhKTSgaFBg2ZsZC6F5UxxHboMBQFCgUFKKGNm66XfxbCgItJ7pMDquD67kQfq4jwZDvGSlxREvoRtENo+vEz2Fsprr7Ux/NE5fO5yClyxRk+bbT44l8pQKdIDSYESNGaLGgS/Sf//xHN2B/f39z68lQABj3YFzktddew65du8wttUNLgy7YF198gVmzZun9HYLSUDh0grEXumG0dBhYbqi4eP1dYb5HUlKSVtKJEyeaa05BYCQ25QVh1eFiDO0chd5tpadIcC34lGdQtGavyu8JGyMDnj169NCWAS2WPn36IDw8HO3atdOuCd2U1atX44orrtACwobcu3dvvY0CxL+ni8L92GPDQCzH89CSqA4tFMZGeL7Dhw/XPTz8Hga0GdRlnIbvuZ5BXG7jZ/A9xYjuGY+Jx8CucH4Oj4PfRV3g39bsLWKQmj1S1YXrnXfeaWZvkeLzdYfx8ZrDuOPcLpjYJ85cKwiuQfXeIleEVgu7oymA7C5+6qmnmiyEPM85c+Zg8+bNulenb9++5pamwSAuXSv2VFHM6sI5XdGK/y1PwoJtx3H36K4Y06PuAxCE04GriwsbJnNLGFOhNUGroSHwvL766issXLjQXGP07NDKmDRpkraOaovzNAbGaGhpMZjLz64Lp4nLKz/txcqkLNw7tiuGd4ky1wqCa+Dq4tJUKEYMsObm5pprjCAtXRy6Tr8nzslzURSUlutxRTIiWhB+PygktCgYG3EsDLb+3sJSH80Sl7KKShSVsuq/JwIkgU4QhGo0SxE4N3RRWYWeq0jKLQiCUJ1miksFSpS4BCtxkdR/QWgYl156qY6X1AW7z8877zxs2LDBXGPA9evXr8fixYvNNa5N88TFVo5iiotk5wrugL3SKBNSYbNwYbZsVZ9IrbDPpLS0VGfhMq3+o48+0vklxJFq79jOfxP+DbNpuZ4LA7gUF+bCsKQC1zV0jM/polm9RRsOZePF73djVLdo3DSis8xZJLgcJ/QWHdsCrHwNyD1sbrWA6G7AmEeA4FhzxckwhZ4lFJjUxizZVatW6W5eBl+Z1/L999/r4CwHJnIfx6hojjXauHGjzoF59tln9fgfjlimsPTv318PMhw/frz5LacPp/QWMZhbWhVzEbdIcHG8fHRWOYLaWLcERKhH9KkfqhxpfMcdd2DZsmW6V4dQZPhAX7p0qS6TsHv3br3eAbuVKTyPPPKITmhjFuxf/vIX/OEPf9A5Lq4gLPXRLEUoKFUmobJ7KC5enlIAWXBxYnoBE58Frn7XumX8k6oBRJtfUDdMn2d9FSalOVi3bh0mTJigs2A57cm4cePMLcY4IlovfO3VqxeOHj1qbnEfmiUu+aXlWlQCJN4iCPVS24BEWiZ02RhPYfyE76vjyIplTkv10cyuHmtx0LyArnKLvL084C+xFkFoNOecc46uPvfDDz/g559/xvbt2+tNs6cVw7owLOTEQlMsd+nKNEtcvJXVEhvqj1D/hg3BFoTWCAcksvvZMWqYJSRpyXTr1g233HKLjrmwF4ijnRl45n4cgcwgL2Ggl39P4eHIZmbjUlxY49aVaVZv0e7j+br6eY+4EEQH112gWBBOF64+tmju3Lm6jgsHL65YsaKqboo74ZTeIorKyK7RIiyC0ETo6jB/hdYKa+W6m7DUR7PERRDchWoGuktx2WWX4fbbb9f1V1iZzt2o73cVcRFaNI6uXyaiuarAuCv8Pel20vqq3sXuoNn1XATBlWG3bV5eno5r8FavrREITcPxe3IoA4PO1X9bS4pFCYKrQ4HhmJ1qt7pgERQU9mI5esIciLgIguAULKlEJwiCUBsiLoIgOIUT3KJffvlFj7hkinFDYKSYvhbnOnFnWEeDw9gZlHJnOEaF89a4Uh3VppKRkaEzVlsCnFiM18Tdg8m8tzjAsnqyXF1wDrQTxIXU+Ge9cJJszujGmffdGVb24tD25557zlzjnjAd/NZbb8XXX39trnFPeA9ynuQ1a9aYa9ybc889Vxd44uhnd4aGx8MPP6wnZ2sIJ7lFVNeGLg5q2+Zui5yHay0t5Ty4tJRzaex5NCvmwi6ohphIrg6TgJo7gZQrwAta31zD7oS7u9rVaSnn4pjYvqGcMFd0Y2GD5IAwx+hNd4UCyekq3X3iLF54TgXKcojuDEWSI4nPOOMMc417w/meORNiYxqmK0KR7Nq1a4PF8qSYiyAIghVIV7QgCE7hlJYL60zs379fVzCnyd2jR48TZrznn3M7u56YZk3zj5NpM47hanBoO8+DFdgdxXo4YbcDjkHZs2cP0tPTtatEN4mFeVwtHsPfPCUlBZs2bdKmdmJiYq2uEM/XcW1Gjhypyyq6GsePH9fz87AbnefBerHV4bnymrFKG90luuBDhw41t7oOvGc2b96spwnp2LGjbgfV2wDbEXu/mPLAc+rXr59LlldgZTy2AbblM888U0+OX5MdO3boa8LzYF1g7lOby3fKmAtv4I8//lh/2NatW3VOCP0uRzk+Fg6eM2eOngKB1ctZeo+N0lVv5Ndff13/gFz27dunp2hwdBGywbJbmut5LmyYvJljY+ueNuJ0wHEyL7zwgj5OHjMrmXG4fvVgLi88p6+YPn065s2bp6ekcLW8ER7j888/r4sN8b5hOgBLP1b36Tl5GIej8DyZ+8LcKk654UrwPN544w3dBniPcRjN4MGDdRugIJLvvvtOXweKz7Zt27TQsDi3q8GCVbwOn3/+Ofr27Vs1U4EDXofXXntNl9rkQ5oPrgEDBtT6AK7XLeKF5A/BxJknnngCY8eO1Q3u4MGD5h7Q5fn4hOS0CZz2gF/IfVwNx1OcIslzuemmm/SNQMF0QIuMJQgfffRRXV+DNw1vGFeD5/Drr7/i8ccfx0MPPYSCggJ9U1SH14778OnJyvOuCG9Q5n/87W9/0/P3sOFVn02Qvz/ry3JE82OPPab3u+aaa8ytrgOFkcfNHCM+q9nQWIaS95wDNlhaZbxe119/PRYsWKDPz9VgftGf/vQnbdXXBhNt+TC+//77dc4Lz4tWW23nUq+4MCOPF5ZuDqP3tEjoLlSf5iA5OVkPuWZWL7fTnMrNzdWvrgTNUd7MNFn5ROEcMHSJaAI6oIjSxGODZIOlheBqWbt0HyjgLCvI350XmnVVq4sgj5vWAN2NyZMnu2y6wM6dO/V58FrwNz/77LP1w8oBz5U3L6/T22+/rZ+YfHK6GrQgef/TyqVFzwa6ZcuWqtkTCadn5bk9/fTTeOWVV3DjjTdWWTWuBK1bx/WoDT6M2YtHPeA5syeMD+na2nu94sIfhxfYYW47TB+6Rg7YaHkg/FH5Y/GVf+dq4sLz4JORPwrhMfN8WESoJnwSORSaN4qrQavEIXqObluKoQO6EjTBaXbzweCq8JirizffVz8PQleILiofCrwezzzzTK3X7HTCeApdOUfcgdeD66rDbRwCwJglBZXiz3vS3ajtXOsqxFWvuPBiOp7ixPEh1X1ifjjNPzZcRwNmo3W1pyXPg5aJYwJwHjPPp6ZlwmLOnM2O8QqWIHS1oBvFhE8WNjrC68Fzcown4r+5jXGw9957T8/WR5eJMQFXm1iLx+w4D8L31XOmeK7ch0/Kiy++WF8PWsp0C10JWpDVrXVeD3Z+VLdM/vvf/2p3iENl/vznP+uHF//G3eB50Zupea61BXTrFRdeWP5wDH7SRaILwUbJHhQHHGfAMS2MwzCiT+HhDVLbl51OaH3xicG4C31EHjPPh8EoB+wtYj0bRsOnTp2qnzLVbxBXgMfDngaa4hRACiTnvOH4Fcd2uhEUlmnTpuG6667T50Gz3CFArgJ/e8d58L7ib199ilKeC60vukJ8T4uZDdLVOgsYS6FrwOOkJU9XjvVMHJ0ehOt5nhR/ngOvG10Kd4NzWXMaWrYVWl8UGbpHtblR9fYW8Q/YKOnP/9///Z/+ATnFJC/yypUr9UVmzxEb6axZs7Bw4UI9JWXNiL8rQLHjuXCEKnta6P+OGjVKHz9vat4IFMiXXnpJB7F5zrxJaIGxcboSPA+eD/33+fPn667ZCy+8EO+//36V+NMdotXFa8hpQydNmqQHmboStIx5n/A8PvroI90LdMMNN2gri+Y3HwYUSva+sJePPS5TpkzRQupKDy9a6jwPxlJ4DXhPMfDMXlY+lOnS8Tx4XuyF4cBSBk3Z1etqfPLJJ9r1ZICaQWl6IrQU2SZ4P/HcGMt76623dLvhYEb2jNXmqZwyz4XKRLeIF5sN0OFG8CbmTc6blzEALvwoCg5/aFd74hO6bTwPmnUON8kRd+GNzu18qvCVx88bmG4fF1eDx8wbl8fJ4+O58Lx4PrwuDhj/4lOG1636k9RV4M3L8+C9w/Pg/cNr4GiwhNu5H8/VcX+5GrRMeJy8d2iR8Dh5Pfib83jZXuhCcDuhR1D9OrkKbOtceN/w9+Z95bBKeF5sE7yfHDElR6dCbe1d0v8FQXAKrhUYEQShxSDiIgiCUxBxEQTBKYi4CILgFERcBEFwCiIugiA4BREXQRCcgoiLIAhOQcRFEASnIBm6Qp1w7Mg777yjx5bUVUJjxowZejyZINRELBehVh588EE92JHFgTjOhCPjHTViq+NqgzoF10EsF+EkONKa4sIRvKwxTFj2kALDQWuuOJBTcD1EXIST4C3B0hSOgt6sBMe6Paz0zuH2gtAQxC0SToLD56vPFMA6PYQzDAhCQxFxEU7Jjz/+qF8595EgNBRxi4R6YXEjlsdkASdW6mNFNUFoCGK5CPXC6T8oLCyRKcIiNAYRF6FeHAFcV6z3Krg2Ii5CvTgmjWNhZsJZE2bPnq3fC0J9iLgI9eKosk8LhhOtcVbE6nMNCUJdSEBXqBfOTcM5eJj3wgn5OcUMJ/YShFMh4iKcEk4bc/jwYSQmJrrk9CSCayLiIgiCU5CYiyAITgD4/1AlEB7h/gs6AAAAAElFTkSuQmCC;" vertex="1" parent="1">
          <mxGeometry x="179" y="1591.5" width="195.61" height="190" as="geometry" />
        </mxCell>
        <mxCell id="2NNQloLt1MzRpBVAXhhT-44" value="" style="endArrow=classic;html=1;rounded=0;exitX=1;exitY=0.5;exitDx=0;exitDy=0;entryX=0;entryY=0.5;entryDx=0;entryDy=0;" edge="1" parent="1" source="2NNQloLt1MzRpBVAXhhT-40" target="2NNQloLt1MzRpBVAXhhT-39">
          <mxGeometry width="50" height="50" relative="1" as="geometry">
            <mxPoint x="469" y="1921.5" as="sourcePoint" />
            <mxPoint x="519" y="1871.5" as="targetPoint" />
          </mxGeometry>
        </mxCell>
        <mxCell id="2NNQloLt1MzRpBVAXhhT-45" value="分位点回帰は本来累積分布関数を近似するため，低い分位点に対応する値 &lt; 高い分位点に対応する値，が常に成り立っている必要があるが，QR-DQNはその制約が導入されていない．&#xa;それが学習の不安定性を招くので，必ず単調増加になるような工夫を導入した．&#xa;(Non-crossing quantile regression for deep reinforcement learning)&#xa;&#xa;直近DRAgentで抱えている問題(lossの増加)とは直接関係ないが，QR-DQNに直接導入できそうな技術として興味があった．" style="text;align=left;verticalAlign=top;whiteSpace=wrap;rounded=0;fontFamily=Times New Roman;" vertex="1" parent="1">
          <mxGeometry x="40" y="1440" width="840" height="120" as="geometry" />
        </mxCell>
        <mxCell id="2NNQloLt1MzRpBVAXhhT-46" value="出力層の工夫" style="rounded=1;whiteSpace=wrap;fontFamily=Times New Roman;" vertex="1" parent="1">
          <mxGeometry x="10" y="2080" width="280" height="40" as="geometry" />
        </mxCell>
        <mxCell id="2NNQloLt1MzRpBVAXhhT-47" value="現在の報酬関数は，以下のようにある一定期間の学習中に登場したエピソードの報酬値の平均値付近が急峻になるようなtanhを利用したものになっている．&#xa;(tanhに係数をかけて，\(0 \leqq r \leqq 1\)になるようにしてある．)&#xa;&#xa;環境から得られる報酬の" style="text;align=left;verticalAlign=top;whiteSpace=wrap;rounded=0;fontFamily=Times New Roman;" vertex="1" parent="1">
          <mxGeometry x="40" y="2130" width="840" height="70" as="geometry" />
        </mxCell>
        <mxCell id="2NNQloLt1MzRpBVAXhhT-51" value="" style="shape=image;verticalLabelPosition=bottom;labelBackgroundColor=default;verticalAlign=top;aspect=fixed;imageAspect=0;image=data:image/png,iVBORw0KGgoAAAANSUhEUgAAAVYAAADfCAYAAACtZ/snAAAAAXNSR0IArs4c6QAAAARnQU1BAACxjwv8YQUAAAAJcEhZcwAADsMAAA7DAcdvqGQAABYGSURBVHhe7d0NcBzlfcfxv97fTpbld/CLFL+DXxCcPcY2ARuSTGhokvLSzkASkg5Jm4SkdaKWDgNpk3Q6ZdrUpU0IUhoSk4QobxCKG0gQnGNjTIxs2fELfsPI9tmyZUkny6f3u9vus3okJOMX7el0t7v3/czs7D7PndaPV6vf7D17zz4Zhkm0trY2vXV548eP11tXxj6vjH2ODPu8MvY5MmO9z4xQKDQYrCPdyUgbpbDPK2OfI8M+r4x9jsxY73NYsM6dO1fKy8t1yb6Ojg4pKirSJeegXfZxzOyhXfZ56Zg1NDRIc3OzLplUsA4sfr9f9QzELRAI6C1noV32cczsoV32eemYVVRU6K1+mTpfAQAJQrACQIIRrACQYAQrACQYwQoACUawAkCCEawAkGDDhrQuW7ZM6urqdMm+TZs2yZo1a3TJOWiXfRwzexLZrmjMkK6+qHT2RqSrV637l95IzHotEutf90WNYeWIuVjraMzaVn/Zh48csQb+DPyZq5X5irW2yhepU9T7++v7X7fq9HuGvG1UjjU0SNmVBiQNbdQYm1ZSIPeumBXX71JlZ21trS6ZwVpVVWVUV1dbhWAwKDU1NdZ2PMLhsPh8Pl1yDtplH8fMniu1SwVdc5chTZ0xOWuu23vMpbd/Oa/WZjncZ0hPVKQvpn8Ilgy9HmuzSzLl0ZUFcZ1jlZWVw4OVK9bUcWq7FI6ZPUPb1dETkT0nz8me4DnZHWyTveb28dZOMbN1UIaZFqWFuTKxyFx8asmT8QU5UpSXLQU5WVKY278U5GbrdZbkZWdKTlamZGVmSLa59K8zJTtreHngdfVvbN26VW666abBf1OFVIa50b+2qs3t/vda29Z7+gsXvl+x6gbePEpeOsfec8VKsKaOU9ulcMzs+dWLr0rn+NlS+1aTbHu7RXrNj+PK9PEFsmR6icyb6pOyiUXmUiizJhTKJDNIVQCONc4x++Jp14XBys0rIE7dfVH55Y6g3PnEVvnq77vk0ef3ybGWDvnUyjL5waeXS90jH5Ct/3CrPPlJv3z1Qwvkbv8MWV4+QaaOy09KqCJ1CFbAJnVDqXrz23LTYwGp/MVuaevqk3vm50jtV26RQOUaeeSOa2XtwinWVSnSE8EKjJDqNdv4x1Ny27c2yb/85oAsnFYszzywQl4xA/Ujs3Nl7hRfwvof4W4EKzACLeEe+ezTdfLgM/UyvjBXfva5G+XHZqiumjuJMMV7EKzAFbzZ0CoffnyLbD7ULI985Bp54Us3yYrZE/WrwHsRrMBl/Lr+pNz3vT9IcV62PP/ganng/bO58YQrIliBS3h6W4P87c92yQ1l4+XZL6ySa64ap18BLi9TTZY1sADo98wfjsvXnt8nH7x2qjz9lyusflXgUqLRqDWZ4MDCFStwgd/uOy0PP7dHbl04Rb597/WSm82fCezhjAGGOHC6XdaZH/+vmzlenrjvBsnLztKvACNHsAJae3ef9ZUqX162VH/SL/k5hCriQ7AC2j/97z451dYt3/2E3xp2CsSLYAVML+1tlGd3npQvrpkj/rJSXQvEh2BF2jvX2ScPP7fXegrVl26bp2uB+BGsSHvraw9JW2evPHbXUut5p8BocRYhrR08fV5+9MYxuW9FmVx7NQMAkBgEK9LaNzfut74F8JUPztc1wOhlDh0tAKSTN462yGtHmuXLt82T0iJGViF+WVlZgyNY1cIVK9LW47WHZXJxnty3YpauARKDYEVa+oN5tbrNXD5/yxwGAiDhCFakpW8HjlhXq2oeeSDRCFaknUNnzsuWw83ymdXlXK1iTGRUVVUZ1dXVViEYDEpNTY21HY9wOCw+n0+XnIN22eflY/bDfT2y9WRE1q8pFF9uYh5azTlmn5eOWWVl5bDpr9UEaYP8fr/eik8gENBbzkK77PPqMWvr6DUWPvKi8fe/2K1rEoNzzD4vHTOVnaFQaHChKwBp5ed1J6SrLyr3ryrXNUDiEaxIG+aFhfx0+3FZXl7KKCuMKYIVaaP+RJscbe6Qe/wzdQ0wNghWpI1f7QhKfk6m3L5kmq4BxgaTCSIt9ESi8sLuU/LhRdOkOD9H1wKJwWSCSEuvvNUk7d0Rucs/Q9cAY4dgRVr4df1JmTouT1bNmaRrgLFDsMLzOnoi8vtDZ+X2xVdJVmZiBgQAl0OwwvMCB5ukJxIzg5WbVkgOghWe9+Le0zLJlyvLyifoGmBsEazwtO6+qAQONMmHFk2jGwBJQ7DC01TfamdvlG4AJBXBCk97ef8ZGZefLTfOnqhrgLFHsMKzYjFDNh08KzfPn8y01kgqJhOEZ+1vbJfmcI+sXTBF1wBjg8kEkTbUTSvllgWTrTWQLAQrPEt9f3XpjBKZ5MvTNUByEKzwpFBHr+w60SZr6AZAChCs8KTNh89KzBBZSzcAUoBghSdtPdIsJQU5snQGN2WRfAQrPOn1t1tk5eyJjLZCShCs8JwTrZ0SDHXJqrkMCkBqEKzwHNUNoKyaQ7AiNTKqqqqM6upqqxAMBqWmpsbajkc4HBafz6dLzkG77HPzMXtyd7e81RqT/1xTIBkZyekK4Byzz0vHrLKyUmpra3XJZAzh9/v1VnwCgYDechbaZZ9bj1ksFjP833zZ+PJPd+qa5OAcs89Lx0xlZygUGlyYTBCecqQpbA1jXc0ULEgiJhOEp2072mKtV9K/ihQiWOEp299plWnj8mVGaYGuAZKPYIVnGIYhbza0yvL3TUjaTSvgYghWeIb67uqZ9h5ZXl6qa4DUIFjhGepqVVlWxqSBSC2CFZ7xZkNIivOzZcG0Yl0DpAbBCs+oM69Y/WWlPB8AKUewwhPU81cPN4VleTndAEg9ghWesONYyFovM69YgVRjMkF4wu5gm9UFwPNXkQpMJghPUtOwLJhaLAW5WboGSB2CFa4Xixmy2wzW62ZytQpnIFjheg0tHdLeHZGKmSW6BkgtghWup/pXFa5Y4RQEK1xv1/E2KczNknlTGBgAZyBY4Xq7gudkyfQSBgbAMQhWuFpPJCpvnWqXCroB4CAEK1ztQON56Y3GCFY4CsEKV1PfX1W4cQUnIVjhaur7q5OL8+SqknxdA6QekwnC1XYF2+S6GeOZMQApdeFkghnr1683NmzYYL3Y2NgoNTU11nY8mFvdHuZ8t29ouzr6DPniK51y17wc+dM5uVZdqnCO2eelY7Zu3Tqpr6/XJdPQubDV3Nijwdzq9jDnu31D27X5UJNR9tBGY8uhs7omdTjH7PPSMauoqNBb/ehjhWup/lVlyQyGssJZCFa41q4T52TO5CIpKcjRNYAzEKxwJfPTlvVVK75mBSciWOFKjee6pTncY30jAHAaghWutOfkOWtN/yqciGCFK+0zg1U9c+WaaeN0DeAcBCtcae+pdusxgUzFAidiMkG40l7zinXRdK5W4QxMJgjXa2rvlqbzPbL4avpX4UwEK1xn36l2a714OsEKZyJY4TqqG0C59mq6AuBMBCtcZ++pczJ7UpH48rJ1DeAsBCtcZ+/JdllENwAcjGCFq4R7DTnZ1iWL6QaAgxGscJWG9pi15sYVnIxghasca49a60VcscLBCFa4yjHzinVGaYGML0ztjAHA5RCscBUVrAwMgNMxmSBco727T850GrKYoaxwmAsnE+SKFa6xnxFXcAmCFa4xMOJqEV0BcDiCFa6hnhFQmpchk4vzdA3gTAQrXENdsZaN45SF82WsX7/e2LBhg1VobGyUmpoaazse4XBYfD6fLjkH7bLPaW3riRjy17Wd8uGZhvzFIn6XI8U5Zl887Vq3bp3U19frkikUChkDi9/vN0YjEAjoLWehXfY5rW11Da1G2UMbjf/42cu6xlk4x+zz0jGrqKjQW/34XAVXGLhxRVcA3ICzFK6ggnViUa518wpwOoIVrqAmD1SPCszIIFjhfEwmCMfr7ovK4TPneVQgHIvJBOE6h8xQjcTUUFYGBsAdCFY4npoxQOHhK3ALghWOp+a4GpefLTMnFOgawNkIVjjevpPnrG4AblzBLQhWOFpvJCZvNZ6nfxWuQrDC0dSNq95oTJYQrHARghWOtkePuFo6g2CFexCscLQ/BvtvXM2aUKhrAOcjWOFoaijrEvNqlRtXcBOCFY7VE4nKgdPtsmQ6owLhLkwmCMc6ePq89EUN+lfheEwmCNdQ/asK3wiA2xCscCzVvzq+MEdmlDLiCu5CsMKx1BWrulrlxhXchmCFI6lHBarBAfSvwo0IVjjSgdP9jwrkGwFwI4IVjrQn2P8tFfUdVsBtCFY4kupfVXNcXV2Sr2sA9yBY4UjqGQGMuIJbZaxfv97YsGGDVWhsbJSamhprOx7hcFh8Pp8uOQftsi+VbeuJGvL52k65Y3aO3DkvV9f243dpD+eYffG0a926dVJfX69LJmMIv9+vt+ITCAT0lrPQLvtS2ba6hlaj7KGNxu/2ndY17+J3aQ/nmH3xtEtlZygUGlzoCoDjDN64YsQVXIpghePsOdkuk4vzZOq4PF0DuAvBCsfZdSIk13HjCi5GsMJRznX2ydtnO+T6WaW6BnAfghWOskv3r14/ixFXcC+CFY5Sfzwkqgdg6QyCFe5FsMJR6o+3yYKpxeLLy9Y1gPsQrHCMWMyQXSfa6AaA6xGscIx3WjrkXFefXD+TG1dwN4IVjqG6ARSuWOF2TCYIx9h5PCTFedkyZ7Izx7YDl8JkgnCsuoZWuaGsVDIzGRgAdyNY4Qhtnb1y6ExYlpfTvwr3I1jhCHUNIWu9rHyCtQbcjGCFI7x5rFVysjKkYiY3ruB+BCscQV2xqscE5udk6RrAvQhWpJya6vqPwTZZTjcAPIJgRcrtPtEmfVGDYIVnEKxIuTcbWq21v4xvBMAbCFak3LajLbJwWrGUFg2fOBBwq8yhowWAZFP9q+rG1ao5k3QN4D5ZWVmDI1jVwhUrUko9H6AnEjODdaKuAdwvo6qqyqiurrYKwWBQampqrO14MLe6Pcz5LvLs4V554e0++c5thVKYc+WhrPwu7eEcsy+edlVWVkptba0umfS02BY1N/ZoMLe6Pcz5bhh3PrHV+Oi3X9OlK+N3aQ/nmH3xtEtlZygUGlzoCkDKhHsi1let6AaA1xCsSBn1NatIzJDV3LiCxxCsSJkth5olNzuT76/CcwhWpMymg01y4+yJUpDL8wHgLQQrUuJYS4ccbe6QtQsm6xrAOwhWpMSmg2et9doFU6w14CUEK1IicLBJ3jepSMrNBfAaJhNE0qlhrNvebpFb5tMNAG9gMkGknApVNYx17UK6AeBNBCuS7rf7TosvL1tWvI/nr8KbCFYkVSQak9/tPyO3mlerTMMCryJYkVTb32mV1o5euX3xNF0DeA/BiqR6ce9p80o1U27h+6vwMIIVSROLGVb/6pr5U6QwN1vXAt5DsCJpdhwPSdP5Hrl9Cd0A8DaCFUnz7M6gFORkyQeumaprAG8iWJEUalDAxt2N1k2rojy6AeBtTCaIpFBfsTrfE5G7/DN0DeAdTCaIlPjVjqBcXZIvK2czWwC8j2DFmDvT3i1bDp+VP7thumRmXnnCQMDtCFaMuZ+8cUwMc/3ny2b2VwAeR7BiTPVEovLM9uNy64IpUjaRRwQiPRCsGFO/2dMozeFeuX9Vua4BvC+jqqrKqK6utgrBYFBqamqs7XiEw2Hx+Xy65By0y75Ete3r27qkK2LIv9xUIJkZo+9f5XdpTzqcY4kWT7sqKyultrZWl0zGEH6/X2/FJxAI6C1noV32JaJtrx9pNsoe2mhseP0dXTN6/C7t8fo5NhbiaZfKzlAoNLjQFYAx8/grh2RycR43rZB2CFaMiTeOtphLq3z+ljk8dxVph2BFwpmfjOTx2sPW1eq9K2bpWiB9MJkgEu7VA02yzbxi/cIarlaRHphMEGNKfW/1Gxv3y9wpPvnEjWW6FkgvBCsS6qnXGuRYS6d87Y5rJSeL0wvpiTMfCdPQ3CH/9cph63mrN89n6hWkL4IVCaFmX/3Kz3eZV6kZ8s2PL9K1QHoiWJEQVZuPys7jbWaoLparSgp0LZCeCFaM2uZDZ+Vbvzsodyy9Sj563dW6FkhfBCtG5Z3mDnnwmZ0yf2qxPHbXUslIwPMAALcjWBG30+e65dM/2C5ZmRnyvU8tYy4rQCNYEZem891y7/fekJZwr3z/08tl5oRC/QoAJhOEbUeawnL3d7fJ6fZu+eFnlssNs0r1K0B6YjJBjMrvD52VO5/YKp29EfnxAytkWfkE/QqAAQQrRqS7LyrfeGG/3P/UduvrVM99YTVXqsAlEKy4LPWkqpf3n5EPrd8sT219R+5fWSbPP7iaPlXgMghWXJQKVPWx/54nt8lnn66T3OxM+Yn50f/rH1vME6uAKyBYMczJti75ny1H5eHXuqyP/afM8jc+tkhe/Jv3y+q5k/S7AFwOwZrm1GP+dh4PWSOnbn98i6z+11fln//vLSnMzpB/v+c62fR3a+VTK8t5UhVgA38taUI9JOV4S6dsOXxWfvTGMXn4uT1yx39vkcX/+Fu584nX5TuBI1Kcny0P/8lCefWrt8ijKwvkbv8MqwsAgD381TiU6uPsjcSkoyci5zr7pDncY410OtHaaQ0jPXTmvNSbV5qvHW6Wl/Y2yi93BGXD6w1WQD720gErOFXf6Me/s9W6Cl346Ety878F5JPf3y6P/nqvvLD7lJQU5MgD758t373vBtnxyAfl53+1Uj538xyZPdmZ0yUDbpFh/gEbeluWLVsmdXV1ujRybZ29cveT26Szo0MKi4qsUBjw7pZpSGFo/aXeP6TarB/6ygWvDX9p0MB+u3t6JC8vz9pWLrXf4fXDDf83rvwzI/k/9fX1SXb2u8NAY+ZrfeaVZcTciKpCnNSj+8bl51hzTlmLL0+mluRL+cRCmTWhSMrM9VVm+XLj+jdt2iRr1qzRJeegXfY4tV2Kl46Zys7a2lpdMoO1qqrKqK6utgrBYFBqamqsbTu6IoY8tbdHIpHIYFBc6k92aP2l/q6HVQ8pZFyw10v8+LD9qk0VYDk5Of0V2kj+7fe85YL9Dhj2vku8Z6iBetWu3Nx326Xq1bh7Mxf7F/PzRLa17q9Tn8r76/vL5id3yTc31LrAfGO+uRSY2znm66MVDofF53PelSvtssep7VK8dMwqKyuHBauEQiFjYPH7/eaFVvwCgYDechbaZR/HzB7aZZ+XjllFRYXe6kcfKwAkGMEKAAlGsAJAghGsAJBgBCsAJBjBCgAJRrACQIIRrACQYBlqYIDelnnz5klZWZkuXVo0GtVbw7W0tMjEiRN1qZ+aC2YkLrXPi7G7z4u160KpaGdzc7NMmjRpTP/vI3GxfQ60bSgntPNi7bpQKto59BxL1u/oYi7c5+XO/VS3cyR/l0qy2zn0HBvpPk+cOGH93IBhzwpQk2CNxKUmHrzYswZGu8+LsbvPkTwDIRXtXLt2rQQCgTH9v4/ExfY50LahnNDOi7XrQqlo59BzLFm/o4u5cJ+XO/dT3c6R/F0qyW7n0HMs3n3SFQAACSXy/+oCJthQjUscAAAAAElFTkSuQmCC;" vertex="1" parent="1">
          <mxGeometry x="80" y="2240" width="342" height="223" as="geometry" />
        </mxCell>
        <mxCell id="2NNQloLt1MzRpBVAXhhT-52" value="R" style="text;html=1;align=center;verticalAlign=middle;whiteSpace=wrap;rounded=0;fontFamily=Times New Roman;" vertex="1" parent="1">
          <mxGeometry x="221" y="2463" width="60" height="30" as="geometry" />
        </mxCell>
        <mxCell id="2NNQloLt1MzRpBVAXhhT-53" value="1.0" style="text;html=1;align=center;verticalAlign=middle;whiteSpace=wrap;rounded=0;fontFamily=Times New Roman;" vertex="1" parent="1">
          <mxGeometry x="420" y="2240" width="60" height="30" as="geometry" />
        </mxCell>
        <mxCell id="2NNQloLt1MzRpBVAXhhT-54" value="0" style="text;html=1;align=center;verticalAlign=middle;whiteSpace=wrap;rounded=0;fontFamily=Times New Roman;" vertex="1" parent="1">
          <mxGeometry x="20" y="2433" width="60" height="30" as="geometry" />
        </mxCell>
        <mxCell id="2NNQloLt1MzRpBVAXhhT-55" value="元の報酬" style="text;html=1;align=center;verticalAlign=middle;whiteSpace=wrap;rounded=0;" vertex="1" parent="1">
          <mxGeometry x="420" y="2460" width="60" height="30" as="geometry" />
        </mxCell>
        <mxCell id="2NNQloLt1MzRpBVAXhhT-56" value="急峻化後の報酬" style="text;html=1;align=center;verticalAlign=middle;whiteSpace=wrap;rounded=0;" vertex="1" parent="1">
          <mxGeometry x="20" y="2240" width="60" height="30" as="geometry" />
        </mxCell>
      </root>
    </mxGraphModel>
  </diagram>
  <diagram id="buPbZbTYLZrIAYk1ANOu" name="テンプレート置き場">
    <mxGraphModel dx="1434" dy="870" grid="1" gridSize="10" guides="1" tooltips="1" connect="1" arrows="1" fold="1" page="1" pageScale="1" pageWidth="980" pageHeight="690" math="1" shadow="0">
      <root>
        <mxCell id="0" />
        <mxCell id="1" parent="0" />
        <mxCell id="4tzrUo-pC9YsKyFaga9V-1" value="template" style="text;align=center;verticalAlign=middle;whiteSpace=wrap;rounded=0;" parent="1" vertex="1">
          <mxGeometry x="10" y="10" width="190" height="30" as="geometry" />
        </mxCell>
      </root>
    </mxGraphModel>
  </diagram>
</mxfile>
